<svg xmlns="http://www.w3.org/2000/svg" width="27" height="26.998">
    <path d="M13.685.001h-.183a13.5 13.5 0 10.183 0zm-.183 6.298a4.5 4.5 0 11-4.5 4.5 4.5 4.5 0 014.5-4.5zm6.613 16.742l-.168.22c-.09.059-.179.119-.27.176-.049.031-.1.06-.149.09-.079.048-.158.1-.238.142l-.165.091c-.076.042-.152.084-.23.124l-.175.088a9.519 9.519 0 01-.227.111l-.182.083a9.184 9.184 0 01-.227.1l-.187.077-.228.09-.191.071-.23.081-.194.064-.233.071-.2.056a10.34 10.34 0 01-.237.062l-.2.049c-.08.019-.161.036-.242.053l-.2.041c-.082.016-.165.03-.248.044l-.195.033c-.085.013-.171.024-.256.036l-.19.025c-.09.01-.181.018-.271.027l-.179.017c-.1.008-.2.013-.3.018l-.151.008q-.228.009-.457.009t-.457-.009l-.151-.008c-.1-.005-.2-.01-.3-.018l-.179-.017a8.016 8.016 0 01-.271-.027l-.189-.025a11.42 11.42 0 01-.258-.036l-.193-.032a10.025 10.025 0 01-.25-.045l-.194-.04a9.599 9.599 0 01-.244-.054l-.194-.048-.241-.063-.192-.055-.238-.073-.189-.062q-.119-.04-.237-.083l-.184-.068c-.079-.03-.158-.062-.237-.094l-.178-.074c-.08-.034-.158-.069-.237-.1l-.171-.078c-.08-.038-.16-.078-.239-.118l-.163-.082a11.592 11.592 0 01-.245-.133l-.15-.083c-.087-.05-.172-.1-.257-.153l-.13-.079c-.1-.062-.2-.127-.3-.192-.031-.021-.063-.04-.094-.062a2.623 2.623 0 01-.188-.945 3.331 3.331 0 011.678-2.967 9.593 9.593 0 015.079-1.209 9.593 9.593 0 015.072 1.207 3.331 3.331 0 011.678 2.967 2.543 2.543 0 01-.139.802z" fill="#45535c"/>
</svg>
