<svg width="20" height="20" viewBox="0 0 20 20" fill="none" xmlns="http://www.w3.org/2000/svg">
<path fill-rule="evenodd" clip-rule="evenodd" d="M9.0332 14.2953V10.968H5.70469C4.43359 10.968 4.43359 9.03359 5.70469 9.03359H9.0332V5.70508C9.0332 4.43398 10.9676 4.43398 10.9676 5.70508V9.03359H14.2949C15.566 9.03359 15.566 10.968 14.2949 10.968H10.9676V14.2953C10.9676 15.5664 9.0332 15.5664 9.0332 14.2953ZM10 20C15.523 20 20 15.5234 20 10C20 4.47695 15.523 0 10 0C4.47695 0 0 4.47695 0 10C0 15.523 4.47695 20 10 20Z" fill="#F0F6FE"/>
</svg>
