<svg width="40" height="40" viewBox="0 0 40 40" fill="none" xmlns="http://www.w3.org/2000/svg">
<path d="M20 40C31.0457 40 40 31.0457 40 20C40 8.9543 31.0457 0 20 0C8.9543 0 0 8.9543 0 20C0 31.0457 8.9543 40 20 40Z" fill="url(#paint0_linear_553_329)"/>
<path d="M29.6018 15.7727C28.5707 13.3551 26.6451 11.4295 24.2275 10.3984C22.9815 9.87759 21.6445 9.60938 20.294 9.60938C18.9434 9.60938 17.6064 9.87759 16.3604 10.3984C13.9428 11.4293 12.0174 13.3549 10.9869 15.7727C10.4559 17.0155 10.1872 18.3547 10.1979 19.7063C10.1962 20.493 10.2716 21.278 10.4229 22.05C10.575 22.8156 10.819 23.56 11.1494 24.2672L9.63223 29.6406C9.60396 29.7417 9.60307 29.8484 9.62966 29.9499C9.65626 30.0514 9.70938 30.144 9.78357 30.2182C9.85776 30.2924 9.95036 30.3455 10.0519 30.3721C10.1534 30.3987 10.2601 30.3978 10.3611 30.3695L15.7346 28.8524C16.4417 29.1828 17.1862 29.4267 17.9518 29.5789C18.7238 29.7302 19.5088 29.8055 20.2955 29.8039C21.6471 29.8145 22.9862 29.5459 24.2291 29.0149C26.6468 27.9844 28.5725 26.059 29.6033 23.6414C30.1242 22.3954 30.3924 21.0583 30.3924 19.7078C30.3924 18.3573 30.1242 17.0203 29.6033 15.7742L29.6018 15.7727ZM23.1565 20.5469H20.74V22.9391C20.74 23.1353 20.6621 23.3235 20.5233 23.4622C20.3846 23.601 20.1964 23.6789 20.0002 23.6789C19.804 23.6789 19.6158 23.601 19.4771 23.4622C19.3383 23.3235 19.2604 23.1353 19.2604 22.9391V20.5469H16.8432C16.647 20.5469 16.4588 20.4689 16.32 20.3302C16.1813 20.1914 16.1033 20.0033 16.1033 19.807C16.1033 19.6108 16.1813 19.4226 16.32 19.2839C16.4588 19.1451 16.647 19.0672 16.8432 19.0672H19.2604V16.6492C19.2604 16.453 19.3383 16.2648 19.4771 16.1261C19.6158 15.9873 19.804 15.9094 20.0002 15.9094C20.1964 15.9094 20.3846 15.9873 20.5233 16.1261C20.6621 16.2648 20.74 16.453 20.74 16.6492V19.0664H23.1565C23.3527 19.0664 23.5409 19.1444 23.6796 19.2831C23.8183 19.4219 23.8963 19.61 23.8963 19.8063C23.8963 20.0025 23.8183 20.1907 23.6796 20.3294C23.5409 20.4682 23.3527 20.5461 23.1565 20.5461V20.5469Z" fill="white"/>
<defs>
<linearGradient id="paint0_linear_553_329" x1="20" y1="0" x2="20" y2="40" gradientUnits="userSpaceOnUse">
<stop stop-color="#84AFF9"/>
<stop offset="1" stop-color="#2C5EDE"/>
</linearGradient>
</defs>
</svg>
