<svg width="18" height="15" viewBox="0 0 18 15" fill="none" xmlns="http://www.w3.org/2000/svg">
<g clip-path="url(#clip0_1691_3876)">
<path d="M0 8.72266C0 7.61809 0.89543 6.72266 2 6.72266H2.90909C4.01366 6.72266 4.90909 7.61809 4.90909 8.72266V14.5004H0V8.72266Z" />
<path d="M6.54547 5.61133C6.54547 4.50676 7.4409 3.61133 8.54547 3.61133H9.45456C10.5591 3.61133 11.4546 4.50676 11.4546 5.61133V14.5002H6.54547V5.61133Z"/>
<path d="M13.0909 2.5C13.0909 1.39543 13.9863 0.5 15.0909 0.5H16C17.1045 0.5 18 1.39543 18 2.5V14.5H13.0909V2.5Z" />
</g>
<defs>
<clipPath id="clip0_1691_3876">
<rect width="18" height="14" fill="white" transform="translate(0 0.5)"/>
</clipPath>
</defs>
</svg>
