<svg version="1.1" id="Layer_1" xmlns="http://www.w3.org/2000/svg" xmlns:xlink="http://www.w3.org/1999/xlink" x="0px" y="0px"
	 width="100%" viewBox="0 0 512 512" enable-background="new 0 0 512 512" xml:space="preserve">
<path fill="#000000" opacity="1.000000" stroke="none" 
	d="
M1.000000,350.000000 
	C1.000000,267.645782 1.000000,185.291550 1.359839,102.374405 
	C2.070962,101.459366 2.619703,101.166168 2.744913,100.746582 
	C6.858849,86.960434 14.524937,75.417786 25.421438,66.185402 
	C37.552212,55.907238 51.511490,49.120510 67.634048,49.092484 
	C171.611938,48.911716 275.590302,48.999817 379.568512,49.001770 
	C381.066864,49.001797 382.631226,48.749058 384.053619,49.084961 
	C402.625214,53.470642 415.792786,64.226303 421.069061,82.817772 
	C422.796265,88.903770 425.378632,90.658226 431.317719,92.501244 
	C450.347900,98.406662 462.193695,111.596642 465.423126,131.757629 
	C475.204407,132.997543 485.035767,133.607529 493.442383,139.804276 
	C504.195526,147.730759 511.839203,157.728394 511.877899,171.352386 
	C512.119751,256.500519 512.000122,341.649658 511.999329,426.798492 
	C511.999329,428.131500 512.225647,429.516144 511.947784,430.789764 
	C507.446899,451.423096 490.976044,465.919128 469.780396,465.942596 
	C358.803772,466.065460 247.826981,466.012756 136.850266,465.957581 
	C131.944229,465.955139 126.902863,465.937225 122.160873,464.873199 
	C112.337334,462.668884 104.024529,457.840027 97.793365,449.504730 
	C92.099159,441.887634 88.646690,433.656921 88.836723,424.452698 
	C85.982918,423.909790 83.615974,423.308014 81.211533,423.026001 
	C61.819149,420.751160 46.852295,404.079895 43.224251,386.659790 
	C42.333992,382.385162 40.564640,381.700043 37.026447,380.890106 
	C26.151541,378.400726 16.751623,373.162140 10.047700,363.984131 
	C6.778197,359.507996 4.000383,354.672699 1.000000,350.000000 
M340.500000,445.000000 
	C383.330505,445.000000 426.161011,445.008850 468.991486,444.968506 
	C470.743988,444.966858 472.568726,444.736633 474.236877,444.217712 
	C488.739532,439.705902 491.391541,431.542633 491.846680,419.133148 
	C492.463165,402.323761 492.108398,385.473145 491.862122,368.644745 
	C491.831543,366.554718 490.453552,363.790161 488.794708,362.525360 
	C471.925171,349.663269 454.848389,337.073425 437.871521,324.351440 
	C430.107269,318.533112 425.493866,318.745819 417.905640,324.488678 
	C406.427307,333.175537 394.678284,341.504364 383.054169,349.998871 
	C378.258392,353.503479 373.488251,357.043213 367.621124,361.366730 
	C370.130280,363.383881 372.238098,364.761169 373.957550,366.518463 
	C379.744965,372.433319 385.702850,378.225952 390.992767,384.568054 
	C394.817352,389.153412 393.753510,395.363708 389.522308,398.948120 
	C385.462952,402.387085 379.255920,401.858246 375.022797,397.520477 
	C364.708771,386.951355 354.506073,376.273560 344.187012,365.709381 
	C327.347015,348.469421 310.424011,331.310516 293.593933,314.060883 
	C288.866211,309.215302 284.428864,304.086609 279.706879,299.235229 
	C264.177399,283.280243 248.663727,267.307922 232.950989,251.534546 
	C228.578964,247.145645 221.349457,247.141510 216.662323,250.997604 
	C210.195114,256.318085 204.094193,262.084015 197.840805,267.664093 
	C191.587250,273.244354 185.387451,278.885986 179.078400,284.402710 
	C166.371201,295.514038 153.604782,306.557617 140.864822,317.631500 
	C133.195724,324.297668 125.470871,330.901398 117.885094,337.661133 
	C113.073517,341.948761 109.432831,346.138153 109.710144,353.909058 
	C110.523888,376.711548 110.498970,399.576996 109.804451,422.387390 
	C109.415787,435.152710 120.713287,445.097290 132.516342,445.072144 
	C201.510635,444.925079 270.505402,445.000000 340.500000,445.000000 
M124.460831,304.024323 
	C135.549896,294.273193 146.660568,284.546478 157.722748,274.764984 
	C172.483932,261.712646 187.017090,248.394638 202.001862,235.605133 
	C216.368683,223.343033 234.987198,224.451309 248.165649,236.805405 
	C255.402649,243.589691 261.889801,251.168350 268.817688,258.289001 
	C283.646271,273.530212 298.569458,288.679413 313.396851,303.921783 
	C320.092072,310.804352 326.599274,317.869659 333.286011,324.760681 
	C340.072083,331.753998 346.974304,338.634674 353.750183,345.488373 
	C355.545624,343.949677 356.613831,342.902222 357.809601,342.029510 
	C373.353149,330.685120 388.988617,319.465057 404.451141,308.011566 
	C419.847412,296.607208 433.749481,295.670593 449.517395,306.261566 
	C456.910828,311.227600 463.758209,317.003937 470.882416,322.374146 
	C477.762543,327.560333 484.680481,332.696381 492.000000,338.167053 
	C492.000000,284.843781 492.030151,232.353836 491.929230,179.864136 
	C491.922791,176.516602 491.151306,173.105637 490.302856,169.836517 
	C487.471893,158.928467 478.168701,153.019470 464.894379,153.015945 
	C357.580994,152.987518 250.267609,152.987732 142.954239,153.042206 
	C138.378677,153.044525 133.807999,153.843323 129.227097,153.960770 
	C118.843605,154.226990 109.738625,165.678268 109.828423,175.784637 
	C110.225182,220.439484 110.000000,265.099854 110.000000,309.758209 
	C110.000000,311.678528 110.000000,313.598846 110.000000,316.219910 
	C115.046967,312.003387 119.508018,308.276337 124.460831,304.024323 
M306.502014,91.000000 
	C338.163330,91.000000 369.824646,91.000000 402.759735,91.000000 
	C400.102448,86.591675 398.163177,82.543419 395.473175,79.077911 
	C389.070923,70.829880 379.660767,69.092102 370.095001,69.078003 
	C280.771088,68.946342 191.446823,68.966812 102.122757,69.044044 
	C91.539490,69.053192 80.954910,69.616928 70.374161,70.010292 
	C49.653862,70.780624 35.770908,81.947273 25.962418,99.307495 
	C21.078749,107.951187 20.232574,117.599579 20.143009,127.062050 
	C19.792854,164.054932 19.870649,201.053665 20.038536,238.049103 
	C20.188646,271.127167 20.675343,304.203613 20.994099,337.280975 
	C21.078371,346.026031 30.692099,359.199493 42.000000,359.856384 
	C42.000000,358.048981 42.000000,356.262451 42.000000,354.475922 
	C42.000000,285.149719 42.184544,215.822647 41.850697,146.498047 
	C41.780460,131.912872 44.705063,118.699921 54.193790,107.616318 
	C62.347660,98.091934 72.976105,91.365349 85.596573,91.206726 
	C128.585342,90.666405 171.585114,90.991882 214.580688,91.012344 
	C218.974808,91.014442 223.167053,94.265320 223.987396,98.115814 
	C225.109665,103.383476 222.633102,109.406670 218.370224,110.772339 
	C215.788589,111.599411 212.948563,111.945740 210.223618,111.950722 
	C170.894470,112.022690 131.563614,112.201767 92.236595,111.902878 
	C76.003387,111.779510 62.970516,124.740517 62.980232,141.538513 
	C63.025051,219.030502 62.988560,296.522522 63.042294,374.014526 
	C63.044418,377.079529 63.309216,380.235687 64.065453,383.192352 
	C66.784737,393.824005 77.876015,403.122375 89.000000,402.756897 
	C89.000000,400.975677 89.000000,399.168701 89.000000,397.361694 
	C89.000000,322.036133 88.996376,246.710541 89.005051,171.384964 
	C89.006027,162.944183 92.566887,155.618301 97.441704,149.224396 
	C106.935059,136.772781 120.396164,132.046158 135.588501,132.035782 
	C236.578064,131.966721 337.567688,132.000000 438.557281,132.000000 
	C440.307831,132.000000 442.058411,132.000000 443.962677,132.000000 
	C439.938385,119.051926 430.023773,111.759003 416.593597,111.877029 
	C377.267334,112.222610 337.936066,112.020042 298.606873,111.956627 
	C295.875214,111.952225 293.083313,111.580330 290.426544,110.937012 
	C285.420380,109.724815 283.110962,105.014236 284.000092,98.458916 
	C284.602966,94.014252 288.191162,91.027885 293.004608,91.004250 
	C297.170715,90.983795 301.337067,91.000000 306.502014,91.000000 
z"/>
<path fill="#FFFFFF" opacity="1.000000" stroke="none" 
	d="
M1.000000,350.468658 
	C4.000383,354.672699 6.778197,359.507996 10.047700,363.984131 
	C16.751623,373.162140 26.151541,378.400726 37.026447,380.890106 
	C40.564640,381.700043 42.333992,382.385162 43.224251,386.659790 
	C46.852295,404.079895 61.819149,420.751160 81.211533,423.026001 
	C83.615974,423.308014 85.982918,423.909790 88.836723,424.452698 
	C88.646690,433.656921 92.099159,441.887634 97.793365,449.504730 
	C104.024529,457.840027 112.337334,462.668884 122.160873,464.873199 
	C126.902863,465.937225 131.944229,465.955139 136.850266,465.957581 
	C247.826981,466.012756 358.803772,466.065460 469.780396,465.942596 
	C490.976044,465.919128 507.446899,451.423096 511.947784,430.789764 
	C512.225647,429.516144 511.999329,428.131500 511.999329,426.798492 
	C512.000122,341.649658 512.119751,256.500519 511.877899,171.352386 
	C511.839203,157.728394 504.195526,147.730759 493.442383,139.804276 
	C485.035767,133.607529 475.204407,132.997543 465.423126,131.757629 
	C462.193695,111.596642 450.347900,98.406662 431.317719,92.501244 
	C425.378632,90.658226 422.796265,88.903770 421.069061,82.817772 
	C415.792786,64.226303 402.625214,53.470642 384.053619,49.084961 
	C382.631226,48.749058 381.066864,49.001797 379.568512,49.001770 
	C275.590302,48.999817 171.611938,48.911716 67.634048,49.092484 
	C51.511490,49.120510 37.552212,55.907238 25.421438,66.185402 
	C14.524937,75.417786 6.858849,86.960434 2.744913,100.746582 
	C2.619703,101.166168 2.070962,101.459366 1.359839,101.905746 
	C1.000000,68.341515 1.000000,34.683029 0.999999,1.018408 
	C171.617004,1.012272 342.234009,1.012272 512.925537,1.012272 
	C512.925537,171.575516 512.925537,342.151062 512.925537,512.863281 
	C342.333405,512.863281 171.666718,512.863281 1.000000,512.863281 
	C1.000000,458.911072 1.000000,404.924194 1.000000,350.468658 
z"/>
<path fill="#FFFFFF" opacity="1.000000" stroke="none" 
	d="
M340.000000,445.000000 
	C270.505402,445.000000 201.510635,444.925079 132.516342,445.072144 
	C120.713287,445.097290 109.415787,435.152710 109.804451,422.387390 
	C110.498970,399.576996 110.523888,376.711548 109.710144,353.909058 
	C109.432831,346.138153 113.073517,341.948761 117.885094,337.661133 
	C125.470871,330.901398 133.195724,324.297668 140.864822,317.631500 
	C153.604782,306.557617 166.371201,295.514038 179.078400,284.402710 
	C185.387451,278.885986 191.587250,273.244354 197.840805,267.664093 
	C204.094193,262.084015 210.195114,256.318085 216.662323,250.997604 
	C221.349457,247.141510 228.578964,247.145645 232.950989,251.534546 
	C248.663727,267.307922 264.177399,283.280243 279.706879,299.235229 
	C284.428864,304.086609 288.866211,309.215302 293.593933,314.060883 
	C310.424011,331.310516 327.347015,348.469421 344.187012,365.709381 
	C354.506073,376.273560 364.708771,386.951355 375.022797,397.520477 
	C379.255920,401.858246 385.462952,402.387085 389.522308,398.948120 
	C393.753510,395.363708 394.817352,389.153412 390.992767,384.568054 
	C385.702850,378.225952 379.744965,372.433319 373.957550,366.518463 
	C372.238098,364.761169 370.130280,363.383881 367.621124,361.366730 
	C373.488251,357.043213 378.258392,353.503479 383.054169,349.998871 
	C394.678284,341.504364 406.427307,333.175537 417.905640,324.488678 
	C425.493866,318.745819 430.107269,318.533112 437.871521,324.351440 
	C454.848389,337.073425 471.925171,349.663269 488.794708,362.525360 
	C490.453552,363.790161 491.831543,366.554718 491.862122,368.644745 
	C492.108398,385.473145 492.463165,402.323761 491.846680,419.133148 
	C491.391541,431.542633 488.739532,439.705902 474.236877,444.217712 
	C472.568726,444.736633 470.743988,444.966858 468.991486,444.968506 
	C426.161011,445.008850 383.330505,445.000000 340.000000,445.000000 
z"/>
<path fill="#FFFFFF" opacity="1.000000" stroke="none" 
	d="
M124.214951,304.286804 
	C119.508018,308.276337 115.046967,312.003387 110.000000,316.219910 
	C110.000000,313.598846 110.000000,311.678528 110.000000,309.758209 
	C110.000000,265.099854 110.225182,220.439484 109.828423,175.784637 
	C109.738625,165.678268 118.843605,154.226990 129.227097,153.960770 
	C133.807999,153.843323 138.378677,153.044525 142.954239,153.042206 
	C250.267609,152.987732 357.580994,152.987518 464.894379,153.015945 
	C478.168701,153.019470 487.471893,158.928467 490.302856,169.836517 
	C491.151306,173.105637 491.922791,176.516602 491.929230,179.864136 
	C492.030151,232.353836 492.000000,284.843781 492.000000,338.167053 
	C484.680481,332.696381 477.762543,327.560333 470.882416,322.374146 
	C463.758209,317.003937 456.910828,311.227600 449.517395,306.261566 
	C433.749481,295.670593 419.847412,296.607208 404.451141,308.011566 
	C388.988617,319.465057 373.353149,330.685120 357.809601,342.029510 
	C356.613831,342.902222 355.545624,343.949677 353.750183,345.488373 
	C346.974304,338.634674 340.072083,331.753998 333.286011,324.760681 
	C326.599274,317.869659 320.092072,310.804352 313.396851,303.921783 
	C298.569458,288.679413 283.646271,273.530212 268.817688,258.289001 
	C261.889801,251.168350 255.402649,243.589691 248.165649,236.805405 
	C234.987198,224.451309 216.368683,223.343033 202.001862,235.605133 
	C187.017090,248.394638 172.483932,261.712646 157.722748,274.764984 
	C146.660568,284.546478 135.549896,294.273193 124.214951,304.286804 
M378.968323,278.977997 
	C383.952209,278.985382 388.941223,279.141663 393.918884,278.969208 
	C404.372253,278.606964 413.132141,273.770721 419.815765,266.394318 
	C431.492249,253.507645 434.921021,238.304123 428.987122,221.543198 
	C421.904938,201.538895 404.529144,192.917282 387.497223,193.274292 
	C374.466278,193.547440 362.888062,198.696060 354.535187,209.825699 
	C345.999542,221.198868 343.354980,233.622787 346.740967,247.181702 
	C350.889740,263.795135 362.124146,273.722778 378.968323,278.977997 
z"/>
<path fill="#FFFFFF" opacity="1.000000" stroke="none" 
	d="
M306.002655,91.000000 
	C301.337067,91.000000 297.170715,90.983795 293.004608,91.004250 
	C288.191162,91.027885 284.602966,94.014252 284.000092,98.458916 
	C283.110962,105.014236 285.420380,109.724815 290.426544,110.937012 
	C293.083313,111.580330 295.875214,111.952225 298.606873,111.956627 
	C337.936066,112.020042 377.267334,112.222610 416.593597,111.877029 
	C430.023773,111.759003 439.938385,119.051926 443.962677,132.000000 
	C442.058411,132.000000 440.307831,132.000000 438.557281,132.000000 
	C337.567688,132.000000 236.578064,131.966721 135.588501,132.035782 
	C120.396164,132.046158 106.935059,136.772781 97.441704,149.224396 
	C92.566887,155.618301 89.006027,162.944183 89.005051,171.384964 
	C88.996376,246.710541 89.000000,322.036133 89.000000,397.361694 
	C89.000000,399.168701 89.000000,400.975677 89.000000,402.756897 
	C77.876015,403.122375 66.784737,393.824005 64.065453,383.192352 
	C63.309216,380.235687 63.044418,377.079529 63.042294,374.014526 
	C62.988560,296.522522 63.025051,219.030502 62.980232,141.538513 
	C62.970516,124.740517 76.003387,111.779510 92.236595,111.902878 
	C131.563614,112.201767 170.894470,112.022690 210.223618,111.950722 
	C212.948563,111.945740 215.788589,111.599411 218.370224,110.772339 
	C222.633102,109.406670 225.109665,103.383476 223.987396,98.115814 
	C223.167053,94.265320 218.974808,91.014442 214.580688,91.012344 
	C171.585114,90.991882 128.585342,90.666405 85.596573,91.206726 
	C72.976105,91.365349 62.347660,98.091934 54.193790,107.616318 
	C44.705063,118.699921 41.780460,131.912872 41.850697,146.498047 
	C42.184544,215.822647 42.000000,285.149719 42.000000,354.475922 
	C42.000000,356.262451 42.000000,358.048981 42.000000,359.856384 
	C30.692099,359.199493 21.078371,346.026031 20.994099,337.280975 
	C20.675343,304.203613 20.188646,271.127167 20.038536,238.049103 
	C19.870649,201.053665 19.792854,164.054932 20.143009,127.062050 
	C20.232574,117.599579 21.078749,107.951187 25.962418,99.307495 
	C35.770908,81.947273 49.653862,70.780624 70.374161,70.010292 
	C80.954910,69.616928 91.539490,69.053192 102.122757,69.044044 
	C191.446823,68.966812 280.771088,68.946342 370.095001,69.078003 
	C379.660767,69.092102 389.070923,70.829880 395.473175,79.077911 
	C398.163177,82.543419 400.102448,86.591675 402.759735,91.000000 
	C369.824646,91.000000 338.163330,91.000000 306.002655,91.000000 
M264.000000,102.342239 
	C263.981232,93.591911 256.437592,87.842278 249.333313,91.163544 
	C245.440216,92.983566 242.940475,98.976486 243.999725,103.950394 
	C244.862671,108.002533 250.035400,112.086571 254.137665,111.954605 
	C258.683807,111.808357 263.063049,107.919403 264.000000,102.342239 
z"/>
<path fill="#000000" opacity="1.000000" stroke="none" 
	d="
M378.561035,278.829773 
	C362.124146,273.722778 350.889740,263.795135 346.740967,247.181702 
	C343.354980,233.622787 345.999542,221.198868 354.535187,209.825699 
	C362.888062,198.696060 374.466278,193.547440 387.497223,193.274292 
	C404.529144,192.917282 421.904938,201.538895 428.987122,221.543198 
	C434.921021,238.304123 431.492249,253.507645 419.815765,266.394318 
	C413.132141,273.770721 404.372253,278.606964 393.918884,278.969208 
	C388.941223,279.141663 383.952209,278.985382 378.561035,278.829773 
M382.112823,257.638428 
	C385.560211,257.758972 389.056824,258.310577 392.446198,257.923340 
	C405.182648,256.468262 414.263550,241.616806 409.397552,228.920090 
	C405.946930,219.916489 398.989899,214.821075 389.655090,214.168945 
	C381.012085,213.565155 373.865936,217.659821 369.424164,225.161575 
	C361.738159,238.142593 369.201416,253.728104 382.112823,257.638428 
z"/>
<path fill="#000000" opacity="1.000000" stroke="none" 
	d="
M264.000000,102.769333 
	C263.063049,107.919403 258.683807,111.808357 254.137665,111.954605 
	C250.035400,112.086571 244.862671,108.002533 243.999725,103.950394 
	C242.940475,98.976486 245.440216,92.983566 249.333313,91.163544 
	C256.437592,87.842278 263.981232,93.591911 264.000000,102.769333 
z"/>
<path fill="#FFFFFF" opacity="1.000000" stroke="none" 
	d="
M381.819702,257.349915 
	C369.201416,253.728104 361.738159,238.142593 369.424164,225.161575 
	C373.865936,217.659821 381.012085,213.565155 389.655090,214.168945 
	C398.989899,214.821075 405.946930,219.916489 409.397552,228.920090 
	C414.263550,241.616806 405.182648,256.468262 392.446198,257.923340 
	C389.056824,258.310577 385.560211,257.758972 381.819702,257.349915 
z"/>
</svg>