<svg width="71" height="79" viewBox="0 0 71 79" fill="none" xmlns="http://www.w3.org/2000/svg">
<path d="M16.2051 19.2436C16.2051 8.63328 24.8384 0 35.4487 0C46.059 0 54.6923 8.63328 54.6923 19.2436C54.6923 29.8539 46.059 38.4872 35.4487 38.4872C24.8384 38.4872 16.2051 29.8539 16.2051 19.2436ZM47.6026 44.5641H23.2949C10.4523 44.5641 0 55.0164 0 67.859C0.00214611 70.8131 1.17662 73.6456 3.2655 75.7345C5.35438 77.8234 8.1869 78.9979 11.141 79H59.7564C62.7105 78.9979 65.5431 77.8234 67.6319 75.7345C69.7208 73.6456 70.8953 70.8131 70.8974 67.859C70.8974 55.0164 60.4451 44.5641 47.6026 44.5641Z" fill="#DFE3ED"/>
</svg>
