<svg width="26" height="31" viewBox="0 0 26 31" fill="none" xmlns="http://www.w3.org/2000/svg">
<path d="M25.2157 24.0837C24.7578 25.1223 24.2159 26.0783 23.588 26.9572C22.7322 28.1554 22.0314 28.9848 21.4914 29.4453C20.6542 30.2013 19.7572 30.5885 18.7967 30.6105C18.1072 30.6105 17.2756 30.4178 16.3077 30.027C15.3365 29.638 14.444 29.4453 13.628 29.4453C12.7721 29.4453 11.8542 29.638 10.8724 30.027C9.88911 30.4178 9.09698 30.6215 8.49134 30.6417C7.57027 30.6802 6.65219 30.282 5.73579 29.4453C5.15089 28.9444 4.4193 28.0857 3.54289 26.8691C2.60257 25.57 1.8295 24.0636 1.22386 22.3461C0.575242 20.491 0.250092 18.6946 0.250092 16.9555C0.250092 14.9634 0.688484 13.2452 1.56658 11.8053C2.25668 10.6488 3.17476 9.73649 4.32381 9.06675C5.47286 8.39702 6.71441 8.05573 8.05146 8.03389C8.78304 8.03389 9.74242 8.2561 10.9346 8.6928C12.1235 9.13098 12.8869 9.35318 13.2215 9.35318C13.4717 9.35318 14.3198 9.09336 15.7573 8.57537C17.1168 8.09499 18.2642 7.89609 19.2041 7.97444C21.7511 8.17628 23.6646 9.16217 24.9372 10.9383C22.6593 12.2936 21.5325 14.1918 21.5549 16.6269C21.5755 18.5236 22.2762 20.102 23.6534 21.3552C24.2776 21.9369 24.9746 22.3865 25.7501 22.7057C25.5819 23.1846 25.4044 23.6434 25.2157 24.0837ZM19.3742 1.51266C19.3742 2.99931 18.821 4.3874 17.7185 5.67219C16.388 7.19956 14.7787 8.08215 13.0335 7.94288C13.0113 7.76453 12.9984 7.57682 12.9984 7.37957C12.9984 5.95238 13.6311 4.42501 14.7548 3.17618C15.3158 2.54388 16.0292 2.01812 16.8944 1.59872C17.7577 1.18557 18.5744 0.957095 19.3424 0.917969C19.3648 1.11671 19.3742 1.31547 19.3742 1.51264V1.51266Z" fill="black"/>
</svg>
