<svg viewBox="0 0 23 22" fill="none" xmlns="http://www.w3.org/2000/svg">
<path d="M6.10026 21.9983C4.48391 21.9948 2.93503 21.3512 1.79202 20.2083C0.649002 19.0655 0.00494715 17.5164 0.0012207 15.9V6.09818C0.00494715 4.48183 0.649002 2.93279 1.79202 1.78994C2.93503 0.647085 4.48391 0.00349279 6.10026 0H15.9428C17.5588 0.00441961 19.1082 0.648308 20.251 1.79096C21.3938 2.93361 22.0371 4.48212 22.0418 6.09818V13.2243C22.0364 15.5497 21.1098 17.7783 19.4658 19.4228C17.8218 21.0673 15.594 21.9939 13.2686 22L6.10026 21.9983ZM1.47174 6.09818V15.9C1.475 17.1264 1.96295 18.3015 2.83033 19.1684C3.69772 20.0353 4.87394 20.5234 6.10026 20.5259H13.0809V17.8088C13.0809 16.7332 13.5085 15.7017 14.269 14.9412C15.0296 14.1806 16.0605 13.7533 17.136 13.7533H20.5523C20.5682 13.577 20.5696 13.4007 20.5696 13.2243V6.09909C20.5672 4.8727 20.0794 3.69707 19.2127 2.82938C18.346 1.96169 17.1726 1.47252 15.9462 1.4688H6.1037C4.87661 1.47159 3.69991 1.96013 2.83206 2.82766C1.9642 3.69519 1.475 4.87108 1.47174 6.09818ZM14.548 17.8088V20.4166C16.0184 20.1506 17.3724 19.4409 18.4275 18.3827C19.3083 17.5054 19.9499 16.4169 20.2906 15.2212H17.136C16.4503 15.2229 15.7923 15.496 15.3074 15.9809C14.8225 16.4658 14.5496 17.123 14.548 17.8088ZM5.43732 14.7443C5.34074 14.7444 5.24587 14.7254 5.15665 14.6884C5.06743 14.6514 4.98547 14.5972 4.9173 14.5288C4.84913 14.4603 4.79555 14.3791 4.75888 14.2898C4.72222 14.2004 4.70332 14.1047 4.70378 14.0081C4.70367 13.9118 4.72205 13.8164 4.75888 13.7274C4.79572 13.6384 4.85088 13.5575 4.91902 13.4895C4.98717 13.4214 5.06761 13.3675 5.15665 13.3308C5.24569 13.2941 5.341 13.2752 5.43732 13.2755H10.7271C10.9217 13.2752 11.1092 13.3523 11.2471 13.4896C11.3849 13.627 11.4619 13.8135 11.4623 14.0081C11.4624 14.1047 11.4441 14.2004 11.4072 14.2897C11.3703 14.379 11.3154 14.4602 11.2471 14.5286C11.1788 14.597 11.0987 14.6512 11.0095 14.6882C10.9202 14.7252 10.8237 14.7443 10.7271 14.7443H5.43732ZM5.43732 11.0714C5.34074 11.0715 5.24587 11.0525 5.15665 11.0156C5.06743 10.9786 4.98547 10.9243 4.9173 10.8559C4.84913 10.7875 4.79555 10.7063 4.75888 10.6169C4.72222 10.5276 4.70332 10.4319 4.70378 10.3353C4.70332 10.2389 4.72218 10.1433 4.75888 10.0541C4.79559 9.96497 4.84908 9.88399 4.9173 9.81586C4.98552 9.74772 5.06745 9.69377 5.15665 9.65717C5.24585 9.62057 5.34091 9.60208 5.43732 9.60266H15.576C15.6726 9.60208 15.769 9.62056 15.8584 9.65712C15.9478 9.69368 16.0292 9.74755 16.0977 9.81564C16.1662 9.88373 16.219 9.96468 16.2561 10.0539C16.2932 10.143 16.313 10.2387 16.313 10.3353C16.3131 10.4321 16.2949 10.5279 16.2579 10.6173C16.2209 10.7067 16.1662 10.788 16.0977 10.8564C16.0293 10.9248 15.9478 10.979 15.8584 11.0159C15.7689 11.0528 15.6728 11.0716 15.576 11.0714H5.43732ZM5.43732 7.3986C5.34074 7.39872 5.24587 7.37974 5.15665 7.34275C5.06743 7.30576 4.98547 7.25146 4.9173 7.18304C4.84913 7.11463 4.79555 7.03342 4.75888 6.94407C4.72222 6.85472 4.70332 6.75901 4.70378 6.66243C4.70332 6.56585 4.72222 6.47014 4.75888 6.38079C4.79555 6.29144 4.84913 6.21018 4.9173 6.14176C4.98547 6.07335 5.06743 6.0191 5.15665 5.98211C5.24587 5.94512 5.34074 5.92614 5.43732 5.92626H15.576C15.6727 5.92614 15.769 5.94511 15.8584 5.98206C15.9478 6.019 16.0293 6.07318 16.0977 6.14155C16.1662 6.20992 16.2191 6.29115 16.2561 6.38052C16.2932 6.46989 16.313 6.56568 16.313 6.66243C16.3131 6.75921 16.2949 6.85508 16.2579 6.9445C16.2209 7.03393 16.1662 7.11513 16.0977 7.18353C16.0293 7.25192 15.9478 7.30612 15.8584 7.34302C15.7689 7.37992 15.6728 7.39884 15.576 7.3986H5.43732Z"/>
</svg>
