<svg xmlns="http://www.w3.org/2000/svg" viewBox="0 0 300 300">
    <g fill="#45535c">
        <path d="M217 .3H83a83.2 83.2 0 00-83 83v133.4a83.2 83.2 0 0083 83h97.6c65.7 0 119.4-53.7 119.4-119.4v-97a83.2 83.2 0 00-83-83zm33.8 250.2a99.4 99.4 0 01-52.8 27.7v-35.5a35.3 35.3 0 0135.2-35.2h43a99.1 99.1 0 01-25.4 43zm29.2-70.2q0 3.6-.3 7.2h-46.5a55.3 55.3 0 00-55.2 55.2v37H83a63.2 63.2 0 01-63-63V83.3a63.2 63.2 0 0163-63h134a63.2 63.2 0 0163 63z"/>
        <path d="M212 131H74a10 10 0 000 20h138a10 10 0 000-20zm-66 50H74a10 10 0 000 20h72a10 10 0 000-20zm66-100H74a10 10 0 000 20h138a10 10 0 000-20z"/>
    </g>
</svg>
