<svg width="42" height="42" viewBox="0 0 42 42" fill="none" xmlns="http://www.w3.org/2000/svg">
<circle cx="21" cy="21" r="21" fill="#ABCDFE"/>
<path d="M3 17.7097C3 16.8545 3.68953 16.1613 4.54011 16.1613H6.08021V25.4516H4.54011C3.68953 25.4516 3 24.7584 3 23.9032V17.7097Z" fill="#343434"/>
<path d="M39 23.9032C39 24.7584 38.3105 25.4516 37.4599 25.4516H35.9198V16.1613H37.4599C38.3105 16.1613 39 16.8545 39 17.7097V23.9032Z" fill="#343434"/>
<path d="M14.9719 30.957C12.1923 30.957 9.82294 29.9715 7.86382 28.0005C5.9047 26.0296 4.92513 23.6459 4.92513 20.8495C4.92513 18.053 5.9047 15.6694 7.86382 13.6984C9.82294 11.7274 12.1923 10.7419 14.9719 10.7419H27.0281C29.8077 10.7419 32.1771 11.7274 34.1362 13.6984C36.0953 15.6694 37.0749 18.053 37.0749 20.8495C37.0749 23.6459 36.0953 26.0296 34.1362 28.0005C32.1771 29.9715 29.8077 30.957 27.0281 30.957H14.9719ZM14.9719 22.871C15.5412 22.871 16.0185 22.6772 16.4036 22.2898C16.7887 21.9023 16.9813 21.4222 16.9813 20.8495C16.9813 20.2767 16.7887 19.7966 16.4036 19.4091C16.0185 19.0217 15.5412 18.828 14.9719 18.828C14.4026 18.828 13.9254 19.0217 13.5403 19.4091C13.1551 19.7966 12.9626 20.2767 12.9626 20.8495C12.9626 21.4222 13.1551 21.9023 13.5403 22.2898C13.9254 22.6772 14.4026 22.871 14.9719 22.871ZM27.0281 22.871C27.5974 22.871 28.0746 22.6772 28.4597 22.2898C28.8449 21.9023 29.0374 21.4222 29.0374 20.8495C29.0374 20.2767 28.8449 19.7966 28.4597 19.4091C28.0746 19.0217 27.5974 18.828 27.0281 18.828C26.4588 18.828 25.9815 19.0217 25.5964 19.4091C25.2113 19.7966 25.0187 20.2767 25.0187 20.8495C25.0187 21.4222 25.2113 21.9023 25.5964 22.2898C25.9815 22.6772 26.4588 22.871 27.0281 22.871Z" fill="#589CFE"/>
<path d="M14.9719 22.871C15.5412 22.871 16.0185 22.6772 16.4036 22.2898C16.7887 21.9023 16.9813 21.4222 16.9813 20.8495C16.9813 20.2767 16.7887 19.7966 16.4036 19.4091C16.0185 19.0217 15.5412 18.828 14.9719 18.828C14.4026 18.828 13.9254 19.0217 13.5403 19.4091C13.1551 19.7966 12.9626 20.2767 12.9626 20.8495C12.9626 21.4222 13.1551 21.9023 13.5403 22.2898C13.9254 22.6772 14.4026 22.871 14.9719 22.871Z" fill="#FCFCFC"/>
<path d="M27.0281 22.871C27.5974 22.871 28.0746 22.6772 28.4597 22.2898C28.8449 21.9023 29.0374 21.4222 29.0374 20.8495C29.0374 20.2767 28.8449 19.7966 28.4597 19.4091C28.0746 19.0217 27.5974 18.828 27.0281 18.828C26.4588 18.828 25.9815 19.0217 25.5964 19.4091C25.2113 19.7966 25.0187 20.2767 25.0187 20.8495C25.0187 21.4222 25.2113 21.9023 25.5964 22.2898C25.9815 22.6772 26.4588 22.871 27.0281 22.871Z" fill="#FCFCFC"/>
<path d="M16.0909 30.871H25.9091V33H16.0909V30.871Z" fill="#589CFE"/>
<path d="M16.0909 30.871H25.9091V31.8387H16.0909V30.871Z" fill="#589CFE"/>
<path d="M16.0909 10.5484C16.0909 9.69324 16.7804 9 17.631 9H24.369C24.9469 9 25.4505 9.32003 25.7139 9.79343C25.8382 10.0168 25.9091 10.2743 25.9091 10.5484V10.7419H16.0909V10.5484Z" fill="#589CFE"/>
<path fill-rule="evenodd" clip-rule="evenodd" d="M25.9091 10.7419V10.5484C25.9091 10.2743 25.8382 10.0168 25.7139 9.79343L16.0909 10.7419H25.9091Z" fill="#589CFE"/>
<path d="M16.4759 20.8065C16.4759 21.4478 15.9588 21.9677 15.3209 21.9677C14.6829 21.9677 14.1658 21.4478 14.1658 20.8065C14.1658 20.1651 14.6829 19.6452 15.3209 19.6452C15.9588 19.6452 16.4759 20.1651 16.4759 20.8065Z" fill="#343434"/>
<path d="M27.8342 20.8065C27.8342 21.4478 27.3171 21.9677 26.6791 21.9677C26.0412 21.9677 25.5241 21.4478 25.5241 20.8065C25.5241 20.1651 26.0412 19.6452 26.6791 19.6452C27.3171 19.6452 27.8342 20.1651 27.8342 20.8065Z" fill="#343434"/>
<path d="M23.984 24.4839C23.984 26.0873 22.6911 27.3871 21.0963 27.3871C19.5014 27.3871 18.2086 26.0873 18.2086 24.4839H23.984Z" fill="#FCFCFC"/>
</svg>
