<svg width="21" height="21" viewBox="0 0 21 21" fill="none" xmlns="http://www.w3.org/2000/svg">
<path d="M1.98301 19.0172C1.51277 18.5472 1.13975 17.9891 0.885247 17.3748C0.630747 16.7605 0.499756 16.1021 0.499756 15.4372C0.499756 14.7723 0.630747 14.114 0.885247 13.4997C1.13975 12.8854 1.51277 12.3273 1.98301 11.8572L5.57101 8.26824C5.71095 8.13812 5.8959 8.06735 6.08695 8.07083C6.27801 8.0743 6.46027 8.15174 6.59539 8.28686C6.7305 8.42198 6.80794 8.60424 6.81142 8.79529C6.81489 8.98635 6.74412 9.1713 6.61401 9.31124L3.02601 12.9002C2.38091 13.5787 2.02646 14.4824 2.03826 15.4185C2.05006 16.3546 2.42717 17.2491 3.08917 17.9111C3.75116 18.5731 4.64562 18.9502 5.58174 18.962C6.51786 18.9738 7.42154 18.6193 8.10001 17.9742L11.689 14.3852C11.8273 14.2471 12.0149 14.1695 12.2104 14.1696C12.4059 14.1697 12.5933 14.2474 12.7315 14.3857C12.8697 14.524 12.9473 14.7116 12.9472 14.9071C12.9471 15.1026 12.8693 15.2901 12.731 15.4282L9.14401 19.0172C8.19452 19.9667 6.90676 20.5001 5.56401 20.5001C4.22126 20.5001 2.9325 19.9667 1.98301 19.0172ZM6.60001 14.4002C6.46182 14.2619 6.3842 14.0743 6.3842 13.8787C6.3842 13.6832 6.46182 13.4956 6.60001 13.3572L13.352 6.60024C13.491 6.46126 13.6795 6.38319 13.876 6.38319C14.0725 6.38319 14.261 6.46126 14.4 6.60024C14.539 6.73921 14.6171 6.9277 14.6171 7.12424C14.6171 7.32078 14.539 7.50926 14.4 7.64824L7.64801 14.4002C7.50963 14.5384 7.32207 14.616 7.12651 14.616C6.93095 14.616 6.74338 14.5384 6.60501 14.4002H6.60001ZM14.381 12.7372C14.2428 12.5989 14.1652 12.4113 14.1652 12.2157C14.1652 12.0202 14.2428 11.8326 14.381 11.6942L17.974 8.10024C18.6191 7.42177 18.9736 6.51809 18.9618 5.58197C18.95 4.64585 18.5728 3.75139 17.9108 3.0894C17.2489 2.42741 16.3544 2.05029 15.4183 2.03849C14.4822 2.02669 13.5785 2.38114 12.9 3.02624L9.31101 6.61424C9.17107 6.74436 8.98611 6.81512 8.79506 6.81165C8.60401 6.80818 8.42175 6.73073 8.28663 6.59562C8.15151 6.4605 8.07407 6.27824 8.0706 6.08718C8.06712 5.89613 8.13789 5.71118 8.26801 5.57124L11.857 1.98324C12.8065 1.03363 14.0943 0.500094 15.4372 0.5C16.78 0.499906 18.0679 1.03326 19.0175 1.98274C19.9671 2.93221 20.5007 4.22003 20.5007 5.56288C20.5008 6.90574 19.9675 8.19363 19.018 9.14324L15.43 12.7322C15.2916 12.8704 15.1041 12.948 14.9085 12.948C14.7129 12.948 14.5254 12.8704 14.387 12.7322L14.381 12.7372Z" />
</svg>
