<svg width="36" height="36" viewBox="0 0 40 40" fill="none" xmlns="http://www.w3.org/2000/svg">
<circle cx="20" cy="20" r="19" stroke="#589CFE" stroke-width="2"/>
<path d="M21.5835 21.615H26.7514C27.171 21.615 27.5735 21.4462 27.8702 21.1485C28.167 20.8509 28.3337 20.4472 28.3337 20.0263C28.3337 19.6054 28.167 19.2017 27.8702 18.9041C27.5735 18.6064 27.171 18.4392 26.7514 18.4392H21.5835V13.2541C21.5835 12.8331 21.4167 12.4295 21.12 12.1318C20.8233 11.8342 20.4208 11.667 20.0012 11.667C19.5815 11.667 19.179 11.8342 18.8823 12.1318C18.5856 12.4295 18.4189 12.8331 18.4189 13.2541V18.4409H13.2493C12.8296 18.4409 12.4272 18.6081 12.1304 18.9058C11.8337 19.2034 11.667 19.6071 11.667 20.028C11.667 20.4489 11.8337 20.8526 12.1304 21.1502C12.4272 21.4478 12.8296 21.615 13.2493 21.615H18.4189V26.7466C18.4189 27.1675 18.5856 27.5712 18.8823 27.8688C19.179 28.1665 19.5815 28.3337 20.0012 28.3337C20.4208 28.3337 20.8233 28.1665 21.12 27.8688C21.4167 27.5712 21.5835 27.1675 21.5835 26.7466V21.615Z" fill="#589CFE"/>
</svg>
