<svg width="24" height="22" viewBox="0 0 24 22" fill="none" xmlns="http://www.w3.org/2000/svg">
<path d="M4.6875 14.1538H7.5C8.01778 14.1538 8.4375 13.7341 8.4375 13.2163C8.4375 12.6985 8.01778 12.2788 7.5 12.2788H4.6875C4.16972 12.2788 3.75 12.6985 3.75 13.2163C3.75 13.7341 4.16972 14.1538 4.6875 14.1538ZM4.6875 10.4038H7.5C8.01778 10.4038 8.4375 9.98405 8.4375 9.46627C8.4375 8.94849 8.01778 8.52877 7.5 8.52877H4.6875C4.16972 8.52877 3.75 8.94849 3.75 9.46627C3.75 9.98405 4.16972 10.4038 4.6875 10.4038ZM10.1925 13.2163C10.1925 13.7341 10.6123 14.1538 11.13 14.1538C13.0904 14.1538 14.9334 13.3904 16.3196 12.0042L23.1756 5.14759C24.2747 4.04851 24.2749 2.26937 23.1756 1.1701C22.079 0.0735078 20.2947 0.0735078 19.1981 1.1701L12.3421 8.0267C10.956 9.41293 10.1925 11.2559 10.1925 13.2163ZM20.524 2.49596C20.8894 2.13043 21.4843 2.13043 21.8498 2.49596C22.2161 2.86224 22.2163 3.45535 21.8498 3.82177L14.9938 10.6784C14.2101 11.4621 13.2301 11.9784 12.1648 12.1816C12.3679 11.1162 12.8842 10.1363 13.6679 9.35256L20.524 2.49596Z"/>
<path d="M2.8125 21.6543C3.50419 21.6547 4.1717 21.3998 4.68712 20.9385L5.98308 19.7793H15.5625C18.1472 19.7793 20.25 17.6765 20.25 15.0918V12.9888C20.25 12.4711 19.8303 12.0513 19.3125 12.0513C18.7947 12.0513 18.375 12.4711 18.375 12.9888V15.0918C18.375 16.6426 17.1133 17.9043 15.5625 17.9043H5.625C5.39438 17.9043 5.17186 17.9893 4.99997 18.143L3.43725 19.5409C3.26545 19.6946 3.043 19.7795 2.8125 19.7793C2.29556 19.7793 1.875 19.3587 1.875 18.8418V7.5918C1.875 6.04098 3.13669 4.7793 4.6875 4.7793H12.5507C13.0685 4.7793 13.4882 4.35958 13.4882 3.8418C13.4882 3.32402 13.0685 2.9043 12.5507 2.9043H4.6875C2.10277 2.9043 0 5.00711 0 7.5918V18.8418C0 20.3926 1.26169 21.6543 2.8125 21.6543Z"/>
</svg>
