<svg width="30" height="30" viewBox="0 0 30 30" fill="none" xmlns="http://www.w3.org/2000/svg">
<path d="M15 0C6.71252 0 0 6.71252 0 15C0 23.2874 6.71252 29.9999 15 29.9999C23.2874 29.9999 30 23.2875 30 15C30 6.71245 23.2875 0 15 0ZM3.00002 15C3.00002 8.36999 8.36999 2.99995 15 2.99995C17.7751 2.99995 20.3176 3.95247 22.35 5.52747L5.52747 22.35C3.95247 20.3175 3.00002 17.775 3.00002 15ZM15 27C12.2249 27 9.68245 26.0475 7.64999 24.4725L24.4725 7.64999C26.0475 9.68252 27 12.225 27 15C27 21.63 21.63 27 15 27Z" fill="#45535C"/>
</svg>
