<svg xmlns="http://www.w3.org/2000/svg" width="111.012" height="354.054" viewBox="145.002 111.974 111.012 354.054"><path d="M247.114 327.962c-.25 0-.484-.07-.697-.216-1.942-1.339 3.71-9.653 3.102-13.29-.533-3.155-1.956-7.316-2.947-7.316-.15 0-.292.097-.418.308-.949 1.593-1 4.485-2.455 6.529-.505.704-1.114 1.12-1.637 1.12-.994 0-1.677-1.502-.745-5.38 1.427-5.922.41-4.92 1.528-8.557 1.122-3.634 2.393-2.964 1.529-8.728-.865-5.766-9.47-27.944-9.945-49.419 0 0-3.993-30.298-5.544-36.293-3.814 3.583-3.906 21.094-3.048 32.493.112 6.422.56 6.084 1.344 11.382.785 5.297 1.233 8.001 2.129 16.679 1.718 9.806 3.812 17.018 4.557 24.983.749 7.964-.15 23.59-3.735 40.421-3.586 16.826-5.678 20.435-5.678 30.05.449 8.116 4.035 22.092 1.643 36.964-2.39 14.878-4.929 19.233-6.423 28.703-1.195 7.66-.626 8.606-.39 9.758.237 1.152.473 1.747-.514 4.567 0 2.62 3.76 7.857 5.835 10.842 1.344 2.252 1.496 2.252 2.297 2.872 1.456 1.127 1.96 2.649.559 3.211.448 1.245-.111 3.048-1.569 2.312.393 1.298-1.232 2.144-2.97 1.58-.392 1.126-1.848 1.802-2.97.225-1.12-1.578-1.289-3.213-2.242-2.93-.952.283-.168 1.691.337 2.704.504 1.015-.225 2.649-2.298 2.48-2.074-.17-3.027-1.634-3.138-2.817-.113-1.185-.672-1.974-1.737-3.215-1.066-1.24-1.4-2.198-1.514-4.337-.111-2.14-1.007-2.593-1.793-3.72-.783-1.125-1.008-3.323-.335-6.984.672-3.666.392-3.835 0-5.188-.393-1.352 0-2.31.56-4.958.56-2.646.448-12.337-.524-17.825-.97-5.482-3.174-12.882-2.39-24.266.785-11.384 1.906-18.933 1.01-21.3-.897-2.365-1.122-9.242-1.459-17.693-.051-1.83-1.543-44.047-3.996-44.047-2.453 0-3.066 28.242-3.848 44.047-.42 8.447-.561 15.328-1.459 17.693-.896 2.367.226 9.916 1.01 21.3s-1.419 18.784-2.39 24.266c-.973 5.488-1.085 15.179-.525 17.825.56 2.649.952 3.606.56 4.958-.392 1.353-.672 1.522 0 5.188.673 3.661.45 5.86-.334 6.984-.786 1.127-1.683 1.58-1.795 3.72-.112 2.14-.448 3.097-1.513 4.337-1.063 1.24-1.625 2.03-1.737 3.215-.112 1.183-1.064 2.647-3.138 2.816-2.072.17-2.803-1.464-2.297-2.479.505-1.013 1.289-2.421.337-2.704-.952-.283-1.121 1.352-2.243 2.93-1.121 1.577-2.577.901-2.972-.226-1.736.565-3.36-.281-2.969-1.58-1.457.737-2.017-1.066-1.569-2.31-1.4-.563-.896-2.085.56-3.212.802-.62.953-.62 2.298-2.872 2.075-2.985 5.835-8.223 5.835-10.842-.988-2.82-.752-3.415-.513-4.567.236-1.152.807-2.098-.39-9.758-1.495-9.47-4.035-13.825-6.426-28.703-2.39-14.872 1.197-28.848 1.644-36.964 0-9.615-2.092-13.224-5.678-30.05-3.586-16.831-4.483-32.457-3.736-40.421.747-7.965 2.84-15.177 4.558-24.983.896-8.678 1.344-11.382 2.128-16.68.785-5.297 1.233-4.959 1.345-11.381 1.553-12.642-1.812-28.992-3.036-32.458-.011-.047-.01-.044-.014-.028-3.293 5.93-5.54 36.286-5.54 36.286-.476 21.475-9.082 43.653-9.946 49.42-.866 5.763.408 5.093 1.528 8.727 1.118 3.637.1 2.635 1.524 8.557.935 3.879.253 5.38-.74 5.38-.522 0-1.13-.416-1.635-1.12-1.46-2.044-1.508-4.936-2.459-6.529-.126-.211-.266-.308-.417-.308-.99 0-2.414 4.161-2.945 7.316-.612 3.637 5.043 11.951 3.101 13.29a1.196 1.196 0 0 1-.697.216c-3.328 0-9.593-12.277-8.835-16.24.667-3.49.29-9.595 2.647-16.344 1.933-5.54-.136-16.66-.34-30.996-.202-14.337 3.666-23.479 3.666-23.479.914-5.046 4.235-28.737 4.261-29.133h-.003c.27-3.754.5-6.378.417-8.17-.15-3.23-.88-8.324.82-15.703 3.097-11.978 8.444-13.374 13.321-15.514 4.874-2.142 12.216-5.41 16.587-7.494 4.371-2.086 4.42-2.335 4.42-4.62 0-.92-.068-5.095-.149-6.172-2-2.999-2.31-8.353-2.31-8.353-.49.657-1.14.574-1.954-1.149-.815-1.723-2.117-3.693-2.85-7.058-.734-3.364 1.709-3.447 1.709-3.447-3.45-16.182 7.57-22.477 16.636-22.1 20.154 1.737 14.459 22.049 14.459 22.049s1.648 0 1.798 1.812c.15 1.813-.375 3.473-2.585 8.287-1.1 2.396-2.192 1.586-2.192 1.586-1.187 4.227-1.686 6.872-3.146 8.457l-.07.071c-.033.715-.056 5.42-.056 6.018 0 2.284.05 2.533 4.422 4.619 4.371 2.085 11.712 5.352 16.587 7.494 4.876 2.14 10.272 3.524 13.32 15.514 1.4 6.183.97 12.472.82 15.702-.081 1.76.148 4.52.418 8.171 0 0 3.34 24.04 4.257 29.133 0 0 3.869 9.142 3.668 23.48-.205 14.335-2.276 25.456-.342 30.995 2.356 6.75 1.979 12.854 2.65 16.345.756 3.962-5.51 16.24-8.837 16.24Z" fill="#ebdbd5" fill-rule="evenodd" data-name="Body Shape"/></svg>