<svg width="16" height="14" viewBox="0 0 16 14" fill="none" xmlns="http://www.w3.org/2000/svg">
<g clip-path="url(#clip0_2651_5675)">
<path d="M11.1139 13.9695C8.3467 13.8657 2.86594 8.53619 2.86594 8.53619L0.314586 6.10286C0.208394 6.00173 0.125561 5.88068 0.0716358 5.74746C0.0177111 5.61425 -0.00620101 5.47182 0.00136716 5.32932C0.00893532 5.18682 0.0479743 5.04739 0.115741 4.91998C0.183507 4.79257 0.278576 4.67999 0.394946 4.58947L0.730218 4.3167C0.883935 4.19792 1.0786 4.13754 1.27667 4.14732C1.47473 4.15711 1.66197 4.23637 1.80181 4.36966L3.94127 6.40907C4.40825 6.85524 4.80314 7.36446 5.11266 7.92025C6.14989 9.71393 7.7152 11.1828 9.61808 12.1478C10.5085 12.6095 11.5004 12.8681 12.5148 12.903C13.5309 12.9605 14.5503 12.9362 15.5621 12.8304C15.5798 12.8305 15.5972 12.8355 15.6118 12.8449C15.6265 12.8543 15.638 12.8676 15.6447 12.8831C15.6515 12.8987 15.6531 12.9157 15.6496 12.9322C15.6461 12.9486 15.6375 12.9637 15.6249 12.9755L15.2657 13.318C15.0501 13.5245 14.7936 13.6885 14.5107 13.8006C14.2279 13.9127 13.9244 13.9705 13.6178 13.9709C13.6178 13.9709 12.9374 13.9941 12.1948 13.9941C11.8267 13.9941 11.4385 13.9891 11.1139 13.9695ZM11.4914 12.0607C10.5728 11.8169 8.78532 11.2242 8.33904 10.2295C8.33336 10.2163 8.33127 10.202 8.33269 10.1878C8.3341 10.1736 8.33907 10.1599 8.34727 10.1479C8.35546 10.136 8.3663 10.126 8.37941 10.119C8.39252 10.112 8.40734 10.1081 8.42239 10.1076L10.7312 10.0503C10.76 10.0497 10.7882 10.0436 10.8145 10.0325C10.8409 10.0215 10.8649 10.0056 10.8848 9.98573C10.9046 9.96592 10.9201 9.94257 10.9304 9.91705C10.9407 9.89154 10.9454 9.86435 10.9446 9.83704V9.73692C10.9408 9.58631 10.8743 9.44323 10.7596 9.33897C10.6448 9.2347 10.4913 9.17771 10.3324 9.18044L7.7298 9.24504C7.60978 9.24807 7.49004 9.22845 7.37808 9.18735C7.26612 9.14625 7.16413 9.08448 7.07757 9.00562L7.06897 8.99836C6.89334 8.83888 6.79119 8.62012 6.78491 8.38967L6.77893 8.14515C6.7777 8.10932 6.7839 8.07366 6.79724 8.04011C6.81059 8.00657 6.8308 7.97584 6.85667 7.94969C6.88255 7.92355 6.91378 7.9025 6.94825 7.88774C6.98271 7.87298 7.01996 7.86478 7.05776 7.86365L9.94588 7.79112C10.039 7.78828 10.1268 7.75059 10.1907 7.68626C10.2545 7.62194 10.2891 7.53622 10.2864 7.44794V7.30288C10.2854 7.25683 10.2749 7.2114 10.2554 7.16924C10.2358 7.12708 10.2075 7.08898 10.1724 7.05716C10.1372 7.02534 10.0959 7.00044 10.0505 6.98383C10.0052 6.96723 9.95671 6.95925 9.90813 6.96041L6.03326 7.05619C5.98786 7.05725 5.94317 7.0467 5.90356 7.02564C5.86396 7.00457 5.83094 6.97378 5.80825 6.9365L5.41504 6.28933C5.39291 6.2532 5.38073 6.21226 5.38028 6.17048C5.37984 6.1287 5.39107 6.08751 5.41243 6.05097C5.43379 6.01442 5.4649 5.98376 5.50251 5.96196C5.54011 5.94016 5.58291 5.92796 5.62697 5.92658L9.26898 5.83589C9.36996 5.83286 9.4657 5.79212 9.5351 5.72253C9.60451 5.65295 9.64186 5.56019 9.63939 5.46446V5.3353C9.6383 5.29121 9.62832 5.24778 9.60949 5.20746C9.59065 5.16714 9.56358 5.13074 9.52987 5.10034C9.49617 5.06994 9.45631 5.04616 9.41288 5.03033C9.36946 5.0145 9.32334 5.00695 9.27683 5.0081L4.82935 5.11765C4.58065 5.12368 4.33333 5.08114 4.10274 4.99265C3.87214 4.90416 3.66322 4.77161 3.48901 4.60329L2.31388 3.47151L5.3231 0.343849C5.4853 0.212983 5.67424 0.11529 5.87814 0.0568639C6.08205 -0.00156167 6.29641 -0.0194285 6.50795 0.00434663C7.20606 0.0892302 6.96188 2.41662 6.95423 2.47611L6.96432 2.8142C6.96432 2.81712 6.96499 2.82001 6.96619 2.8227C6.96739 2.82539 6.96883 2.8278 6.97105 2.82983C6.97326 2.83186 6.97602 2.83347 6.9789 2.83452C6.98177 2.83557 6.98479 2.83604 6.98787 2.83594L10.3253 2.75327C10.7587 2.74393 11.1783 2.89807 11.4918 3.18186C11.8053 3.46566 11.9871 3.85588 11.9971 4.26666L12.0861 7.54882C12.0877 7.61033 12.1147 7.66873 12.1616 7.71128C12.2085 7.75383 12.2716 7.77706 12.3365 7.77589C12.3687 7.77512 12.4007 7.78037 12.4307 7.79139C12.4607 7.8024 12.4882 7.81895 12.5114 7.84005C12.5347 7.86116 12.5531 7.88644 12.566 7.9144C12.5789 7.94236 12.586 7.97244 12.5866 8.00296L12.6049 8.6871C12.6059 8.72363 12.616 8.75942 12.6344 8.79156C12.6528 8.8237 12.679 8.85129 12.7106 8.87211L15.367 10.6409C15.5578 10.7685 15.7142 10.9367 15.8241 11.1319C15.9341 11.3272 15.9942 11.5442 15.9998 11.7654C16.0012 11.8073 15.9941 11.8491 15.9785 11.8883C15.9629 11.9275 15.9393 11.9633 15.909 11.9939C15.8787 12.0244 15.8421 12.049 15.8017 12.0662C15.7614 12.0834 15.7181 12.0929 15.6739 12.0941L12.5133 12.1724H12.4258C12.1105 12.1768 11.7962 12.14 11.4914 12.0629V12.0607Z" />
</g>
<defs>
<clipPath id="clip0_2651_5675">
<rect width="16" height="14" fill="white"/>
</clipPath>
</defs>
</svg>
