<svg width="16" height="16" viewBox="0 0 16 16" fill="none" xmlns="http://www.w3.org/2000/svg">
<g clip-path="url(#clip0_5081_5497)">
<path d="M1.47203 16C0.656032 15.9947 -0.0053013 15.3494 3.20328e-05 14.5547V3.22136C-0.000187584 3.00585 0.0492554 2.79318 0.144524 2.59987C0.239792 2.40656 0.378323 2.2378 0.549365 2.10669C0.906699 1.82936 1.42937 2.06936 1.42937 2.51203V3.71736C1.42937 4.58669 2.1547 5.29603 3.0507 5.29603H4.08537C4.9867 5.29603 5.71737 4.58669 5.71737 3.71203V2.28803C5.71806 2.21823 5.73258 2.14927 5.76009 2.08512C5.78761 2.02097 5.82757 1.96292 5.87766 1.91431C5.92775 1.86571 5.98698 1.82752 6.05193 1.80195C6.11688 1.77638 6.18625 1.76395 6.25603 1.76536H9.79737C9.86715 1.76395 9.93652 1.77638 10.0015 1.80195C10.0664 1.82752 10.1256 1.86571 10.1757 1.91431C10.2258 1.96292 10.2658 2.02097 10.2933 2.08512C10.3208 2.14927 10.3353 2.21823 10.336 2.28803V3.71203C10.3414 4.58669 11.072 5.29603 11.968 5.29603H12.944C13.8454 5.29603 14.5707 4.59203 14.5707 3.71736V2.50669C14.5729 2.40802 14.6021 2.31183 14.6553 2.22865C14.7084 2.14546 14.7833 2.07847 14.8719 2.03499C14.9606 1.99151 15.0594 1.97321 15.1577 1.9821C15.256 1.99098 15.35 2.0267 15.4294 2.08536C15.6063 2.21728 15.75 2.38865 15.8491 2.58586C15.9481 2.78307 15.9998 3.00067 16 3.22136V14.5547C16.0054 15.3494 15.344 15.9894 14.528 16H1.47203ZM1.87203 8.00536V13.8774C1.87203 13.9598 1.88834 14.0413 1.92004 14.1174C1.95173 14.1934 1.99817 14.2625 2.05668 14.3205C2.11519 14.3785 2.18461 14.4244 2.26093 14.4554C2.33726 14.4864 2.41897 14.5021 2.50137 14.5014H13.44C13.5224 14.5028 13.6043 14.4878 13.6809 14.4575C13.7575 14.4271 13.8273 14.3818 13.8863 14.3243C13.9453 14.2668 13.9923 14.1981 14.0247 14.1223C14.057 14.0465 14.074 13.9651 14.0747 13.8827V8.00536C14.074 7.92296 14.057 7.84151 14.0247 7.76572C13.9923 7.68993 13.9453 7.62129 13.8863 7.56377C13.8273 7.50625 13.7575 7.46099 13.6809 7.4306C13.6043 7.4002 13.5224 7.38528 13.44 7.38669H2.50137C2.41942 7.38599 2.33814 7.40144 2.26216 7.43215C2.18618 7.46286 2.117 7.50823 2.05856 7.56568C2.00012 7.62313 1.95357 7.69153 1.92157 7.76697C1.88956 7.84241 1.87273 7.92342 1.87203 8.00536ZM7.10403 13.1627L5.5467 11.5254C5.41619 11.3868 5.34351 11.2037 5.34351 11.0134C5.34351 10.823 5.41619 10.6399 5.5467 10.5014C5.60766 10.4332 5.68252 10.3789 5.76624 10.3421C5.84996 10.3053 5.94059 10.2868 6.03203 10.288C6.12417 10.2874 6.21541 10.3061 6.2999 10.3429C6.3844 10.3796 6.46029 10.4336 6.5227 10.5014L7.48803 11.5254C7.515 11.5521 7.55141 11.567 7.58937 11.567C7.62732 11.567 7.66373 11.5521 7.6907 11.5254L10.1654 8.92269C10.2832 8.79706 10.445 8.72189 10.617 8.71294C10.789 8.704 10.9578 8.76196 11.088 8.87469L11.1414 8.92269C11.2695 9.0624 11.3407 9.2451 11.3407 9.43469C11.3407 9.62429 11.2695 9.80699 11.1414 9.94669L8.08003 13.1627C7.96294 13.2891 7.80146 13.3652 7.62944 13.3752C7.45743 13.3851 7.28824 13.3281 7.15737 13.216L7.10403 13.1627ZM11.9414 4.28269C11.7952 4.28413 11.6543 4.22778 11.5494 4.1259C11.4446 4.02403 11.3842 3.88487 11.3814 3.73869V0.54936C11.3821 0.476519 11.3971 0.404529 11.4256 0.3375C11.4541 0.270471 11.4956 0.209717 11.5476 0.158706C11.5996 0.107695 11.6611 0.0674266 11.7287 0.0402003C11.7963 0.0129739 11.8685 -0.000677092 11.9414 2.66674e-05H12.9654C13.1116 -0.00140605 13.2524 0.0549421 13.3573 0.156816C13.4622 0.258689 13.5226 0.397848 13.5254 0.544027V3.73336C13.524 3.87954 13.4649 4.01926 13.361 4.12213C13.2572 4.225 13.1169 4.2827 12.9707 4.28269H11.9414ZM3.0347 4.28269C2.8885 4.28413 2.74765 4.22778 2.64278 4.1259C2.53791 4.02403 2.4775 3.88487 2.4747 3.73869V0.54936C2.4754 0.476519 2.49043 0.404529 2.51895 0.3375C2.54748 0.270471 2.58892 0.209717 2.64092 0.158706C2.69292 0.107695 2.75446 0.0674266 2.82203 0.0402003C2.88959 0.0129739 2.96186 -0.000677092 3.0347 2.66674e-05H4.0587C4.13154 -0.000677092 4.20381 0.0129739 4.27137 0.0402003C4.33894 0.0674266 4.40048 0.107695 4.45248 0.158706C4.50448 0.209717 4.54592 0.270471 4.57444 0.3375C4.60296 0.404529 4.618 0.476519 4.6187 0.54936V3.73336C4.6159 3.88003 4.55567 4.01974 4.45095 4.12246C4.34624 4.22519 4.20539 4.28272 4.0587 4.28269H3.0347Z" fill="#BEC8DD"/>
</g>
<defs>
<clipPath id="clip0_5081_5497">
<rect width="16" height="16" fill="white"/>
</clipPath>
</defs>
</svg>
