<svg xmlns="http://www.w3.org/2000/svg" width="30.398" height="30.522" viewBox="0 0 30.398 30.522">
  <path id="Calendar" d="M1547.29,945.061v-1.874a1.013,1.013,0,0,0-2.027,0v1.6l-.1,0H1531.99v-1.6a1.013,1.013,0,0,0-2.027,0v1.758a8.442,8.442,0,0,0-6.789,8.251v11.089a8.435,8.435,0,0,0,8.41,8.411h9.887a12.136,12.136,0,0,0,12.1-12.1v-7.4A8.444,8.444,0,0,0,1547.29,945.061Zm-20.212,23.731a6.337,6.337,0,0,1-1.877-4.507V953.2a6.409,6.409,0,0,1,6.384-6.384h13.577a6.408,6.408,0,0,1,6.384,6.384v7.4q0,.366-.026.729h-4.714a5.6,5.6,0,0,0-5.595,5.6v3.75h-9.626A6.336,6.336,0,0,1,1527.078,968.792Zm21.507-1.084a10.024,10.024,0,0,1-5.348,2.806V966.92a3.572,3.572,0,0,1,3.568-3.569h4.356A10.061,10.061,0,0,1,1548.585,967.709Z" transform="translate(-1523.174 -942.174)" />
</svg>

