<svg xmlns="http://www.w3.org/2000/svg" width="17.164" height="22.402" viewBox="0 0 17.164 22.402"><path d="M43.556,19.325a13.238,13.238,0,0,0-2.814-7.171c-1.1-1.539-1.969-2.754-1.969-4.525a1.228,1.228,0,0,0-.645-1.085,1.2,1.2,0,0,0-1.283.1,11.363,11.363,0,0,0-1.409,1.273,11.59,11.59,0,0,0-2.806,5.058,24.562,24.562,0,0,0-.557,3.255A6.107,6.107,0,0,1,30.917,14.3a1.239,1.239,0,0,0-.6-.81l-.013-.007a1.2,1.2,0,0,0-1.113-.016c-.267.135-2.61,1.459-2.748,6.258-.009.166-.009.324-.009.477a8.4,8.4,0,0,0,2.676,6.09,8.916,8.916,0,0,0,6.089,2.51h.025a8.247,8.247,0,0,0,5.907-2.536A8.633,8.633,0,0,0,43.6,20.206C43.6,19.969,43.561,19.393,43.556,19.325Z" transform="translate(-26.437 -6.403)"/></svg>