<svg width="40" height="40" viewBox="0 0 36 36" fill="none" xmlns="http://www.w3.org/2000/svg">
<rect x="0.75" y="0.75" width="34.5" height="34.5" rx="5.25" stroke="#589CFE" stroke-width="1.5"/>
<path d="M12.75 11.9589V13.0839C13.139 13.0839 13.5005 12.8829 13.7057 12.5524L12.75 11.9589ZM14.5875 9V7.875C14.1985 7.875 13.837 8.076 13.6318 8.4065L14.5875 9ZM21.4125 9L22.3682 8.4065C22.163 8.076 21.8015 7.875 21.4125 7.875V9ZM23.25 11.9589L22.2943 12.5524C22.4995 12.8829 22.861 13.0839 23.25 13.0839V11.9589ZM8.625 24.5342V14.4247H6.375V24.5342H8.625ZM10.125 13.0839H12.75V10.8339H10.125V13.0839ZM13.7057 12.5524L15.5432 9.5935L13.6318 8.4065L11.7943 11.3654L13.7057 12.5524ZM14.5875 10.125H21.4125V7.875H14.5875V10.125ZM20.4568 9.5935L22.2943 12.5524L24.2057 11.3654L22.3682 8.4065L20.4568 9.5935ZM23.25 13.0839H25.875V10.8339H23.25V13.0839ZM27.375 14.4247V24.5342H29.625V14.4247H27.375ZM27.375 24.5342C27.375 25.2094 26.7708 25.875 25.875 25.875V28.125C27.8787 28.125 29.625 26.5827 29.625 24.5342H27.375ZM25.875 13.0839C26.7708 13.0839 27.375 13.7495 27.375 14.4247H29.625C29.625 12.3763 27.8787 10.8339 25.875 10.8339V13.0839ZM8.625 14.4247C8.625 13.7495 9.22921 13.0839 10.125 13.0839V10.8339C8.1213 10.8339 6.375 12.3762 6.375 14.4247H8.625ZM10.125 25.875C9.22921 25.875 8.625 25.2094 8.625 24.5342H6.375C6.375 26.5827 8.1213 28.125 10.125 28.125V25.875ZM20.8125 18.863C20.8125 20.2191 19.6207 21.4366 18 21.4366V23.6866C20.7286 23.6866 23.0625 21.5923 23.0625 18.863H20.8125ZM18 21.4366C16.3793 21.4366 15.1875 20.2191 15.1875 18.863H12.9375C12.9375 21.5923 15.2714 23.6866 18 23.6866V21.4366ZM15.1875 18.863C15.1875 17.5069 16.3793 16.2894 18 16.2894V14.0394C15.2714 14.0394 12.9375 16.1337 12.9375 18.863H15.1875ZM18 16.2894C19.6207 16.2894 20.8125 17.5069 20.8125 18.863H23.0625C23.0625 16.1337 20.7286 14.0394 18 14.0394V16.2894ZM25.875 25.875H10.125V28.125H25.875V25.875Z" fill="#589CFE"/>
</svg>
