<!-- <svg xmlns="http://www.w3.org/2000/svg" width="10.827" height="8.011" viewBox="51.267 293.995 10.827 8.011"><path d="m61.73 296.117-5.525 5.525a1.234 1.234 0 0 1-.88.364 1.23 1.23 0 0 1-.877-.364l-2.816-2.816a1.234 1.234 0 0 1-.365-.879c0-.332.13-.644.365-.88.234-.234.547-.364.878-.364.333 0 .645.13.88.365l1.936 1.936 4.645-4.645c.235-.235.547-.364.88-.364a1.244 1.244 0 0 1 .88 2.123Z" fill="#589cfe" fill-rule="evenodd" /></svg> -->

<svg xmlns="http://www.w3.org/2000/svg" width="15.296" height="11.318" viewBox="0 0 15.296 11.318"><path d="M3201.584,737.37l-7.805,7.8a1.756,1.756,0,0,1-2.483,0l-3.978-3.978a1.757,1.757,0,1,1,2.485-2.485l2.734,2.735,6.563-6.562a1.757,1.757,0,1,1,2.485,2.484Z" transform="translate(-3186.802 -734.371)"  fill="#589cfe"/></svg>