<svg width="12" height="16" viewBox="0 0 12 16" fill="none" xmlns="http://www.w3.org/2000/svg">
<path d="M9.92798 0.133301H2.0244C1.17716 0.133301 0.487823 0.822634 0.487823 1.66987V12.377C0.487823 13.2243 1.17716 13.9136 2.0244 13.9136H6.23136V15.674C6.23136 15.8008 6.30493 15.9161 6.41991 15.9696C6.53489 16.0231 6.67052 16.0049 6.76746 15.9232L7.71968 15.1203L8.6719 15.9232C8.73072 15.9728 8.80517 15.9999 8.88208 15.9999C8.9287 15.9999 8.97554 15.9899 9.01945 15.9695C9.07577 15.9433 9.12344 15.9016 9.15684 15.8492C9.19025 15.7968 9.208 15.736 9.208 15.6739V13.9134H9.92776C10.7751 13.9134 11.4643 13.2241 11.4643 12.3769V1.66987C11.4647 0.822634 10.7753 0.133301 9.92798 0.133301ZM6.2582 10.2867C6.19289 10.0854 6.01292 9.96556 5.85425 9.85982C5.83382 9.84624 5.80828 9.82917 5.78307 9.81168C5.80828 9.79418 5.83382 9.77712 5.85425 9.76353C6.01303 9.65779 6.19289 9.53792 6.2582 9.33665C6.32504 9.13071 6.24918 8.9239 6.18224 8.74143C6.17507 8.72198 6.16681 8.69948 6.15876 8.67666C6.18452 8.67731 6.20963 8.67829 6.23027 8.67905C6.42372 8.68655 6.64303 8.69503 6.81702 8.56842C6.9897 8.44279 7.04871 8.23283 7.10077 8.04765C7.10653 8.02732 7.11348 8.00265 7.12087 7.97744C7.1387 7.99113 7.15609 8.00483 7.17119 8.01667C7.32551 8.13795 7.50037 8.27543 7.71968 8.27543C7.93899 8.27543 8.11385 8.13795 8.26817 8.01667C8.28328 8.00472 8.30066 7.99113 8.31849 7.97744C8.32599 8.00265 8.33294 8.02732 8.33859 8.04765C8.39065 8.23283 8.44966 8.44279 8.62235 8.56842C8.79634 8.69503 9.01565 8.68655 9.20909 8.67905C9.22985 8.67829 9.25495 8.67731 9.2806 8.67666C9.27256 8.69948 9.2643 8.72198 9.25712 8.74143C9.19018 8.9239 9.11421 9.13071 9.18116 9.33665C9.24647 9.53792 9.42644 9.65779 9.58511 9.76353C9.60554 9.77712 9.63108 9.79418 9.65629 9.81168C9.63108 9.82917 9.60554 9.84624 9.58511 9.85982C9.42633 9.96556 9.24647 10.0854 9.18116 10.2867C9.11432 10.4926 9.19018 10.6995 9.25712 10.8819C9.2643 10.9014 9.27256 10.9239 9.2806 10.9467C9.25484 10.946 9.22974 10.9451 9.20909 10.9443C9.01565 10.9368 8.79634 10.9283 8.62235 11.0549C8.44966 11.1806 8.39065 11.3905 8.33859 11.5757C8.33283 11.596 8.32588 11.6207 8.31849 11.6459C8.30066 11.6322 8.28328 11.6185 8.26817 11.6067C8.11385 11.4854 7.93899 11.3479 7.71968 11.3479C7.50037 11.3479 7.32551 11.4854 7.17119 11.6067C7.15598 11.6186 7.1387 11.6322 7.12087 11.6459C7.11338 11.6207 7.10642 11.596 7.10077 11.5757C7.04871 11.3905 6.9897 11.1806 6.81702 11.0549C6.64303 10.9283 6.42372 10.9368 6.23027 10.9443C6.20963 10.9451 6.18441 10.946 6.15876 10.9467C6.16681 10.9239 6.17507 10.9014 6.18224 10.8819C6.24918 10.6995 6.32504 10.4926 6.2582 10.2867ZM7.92997 14.4447C7.80858 14.3423 7.63111 14.3423 7.50961 14.4447L6.88342 14.9726V12.3443C6.88744 12.3457 6.89146 12.3472 6.89559 12.3486C6.94558 12.3649 6.99427 12.372 7.04154 12.372C7.25292 12.372 7.43473 12.2291 7.57438 12.1192C7.61535 12.087 7.67773 12.038 7.71979 12.0119C7.76196 12.038 7.82423 12.087 7.8652 12.1192C8.00485 12.229 8.18666 12.372 8.39804 12.372C8.4452 12.372 8.494 12.3648 8.54399 12.3486C8.54812 12.3473 8.55214 12.3458 8.55616 12.3443V14.9725L7.92997 14.4447ZM10.8126 12.377C10.8126 12.8647 10.4158 13.2615 9.92809 13.2615H9.20833V11.6132C9.20833 11.6077 9.20822 11.6022 9.20789 11.5968C9.42535 11.6049 9.7115 11.6077 9.87734 11.3798C10.0484 11.1447 9.94504 10.863 9.86962 10.6574C9.85278 10.6114 9.82746 10.5424 9.81507 10.4951C9.85082 10.4667 9.90646 10.4296 9.947 10.4025C10.1326 10.2789 10.3868 10.1094 10.3868 9.81179C10.3868 9.51412 10.1326 9.3447 9.947 9.22102C9.90646 9.19396 9.85082 9.1569 9.81507 9.12843C9.82746 9.08115 9.85278 9.01215 9.86962 8.96618C9.94504 8.76056 10.0485 8.47887 9.87734 8.2438C9.7053 8.00743 9.40405 8.01917 9.18409 8.02765C9.13584 8.0295 9.06357 8.03232 9.01543 8.02971C8.9988 7.98613 8.98011 7.91962 8.96652 7.87126C8.90653 7.65793 8.82448 7.36581 8.5441 7.27485C8.27013 7.18595 8.03615 7.36983 7.86531 7.50416C7.82434 7.53632 7.76196 7.58534 7.7199 7.61142C7.67773 7.58534 7.61546 7.53632 7.57449 7.50416C7.40365 7.36983 7.16967 7.18584 6.8957 7.27485C6.61531 7.36592 6.53326 7.65793 6.47327 7.87126C6.45969 7.91962 6.441 7.98613 6.42437 8.02971C6.37612 8.03232 6.30396 8.0295 6.2557 8.02765C6.03574 8.01917 5.73449 8.00743 5.56246 8.2438C5.3914 8.47887 5.49475 8.76056 5.57017 8.96618C5.58702 9.01215 5.61234 9.08115 5.62473 9.12843C5.58897 9.1569 5.53333 9.19396 5.4928 9.22102C5.30718 9.3447 5.05298 9.51412 5.05298 9.81179C5.05298 10.1094 5.30718 10.2789 5.4928 10.4025C5.53333 10.4296 5.58897 10.4667 5.62473 10.4951C5.61234 10.5424 5.58702 10.6114 5.57017 10.6574C5.49475 10.863 5.3914 11.1447 5.56246 11.3798C5.7283 11.6077 6.01444 11.6049 6.2319 11.5968C6.23169 11.6022 6.23147 11.6078 6.23147 11.6132V13.2615H2.0244C1.53666 13.2615 1.13988 12.8647 1.13988 12.377V1.66987C1.13988 1.18213 1.53666 0.785358 2.0244 0.785358H9.92798C10.4157 0.785358 10.8125 1.18213 10.8125 1.66987V12.377H10.8126Z" fill="#589CFE"/>
<path d="M9.39504 2.25342H2.55735C2.37728 2.25342 2.23132 2.39937 2.23132 2.57945C2.23132 2.75952 2.37728 2.90547 2.55735 2.90547H9.39493C9.57501 2.90547 9.72096 2.75952 9.72096 2.57945C9.72096 2.39937 9.57512 2.25342 9.39504 2.25342ZM9.39504 4.30479H2.55735C2.37728 4.30479 2.23132 4.45074 2.23132 4.63082C2.23132 4.81089 2.37728 4.95685 2.55735 4.95685H9.39493C9.57501 4.95685 9.72096 4.81089 9.72096 4.63082C9.72096 4.45074 9.57512 4.30479 9.39504 4.30479Z" fill="#589CFE"/>
</svg>
