<svg width="20" height="20" viewBox="0 0 20 20" fill="none" xmlns="http://www.w3.org/2000/svg">
<rect width="20" height="20" rx="4" fill="#589CFE"/>
<g clip-path="url(#clip0_5988_6246)">
<path d="M15 9.97609V13.0011C14.9991 13.1259 14.9515 13.2458 14.8667 13.3373C14.7818 13.4289 14.6658 13.4853 14.5414 13.4957C14.4171 13.506 14.2933 13.4695 14.1945 13.3932C14.0957 13.317 14.029 13.2065 14.0075 13.0836C13.813 11.9171 12.1975 11.5011 10.7505 11.5011H8.5005V6.00109H10.7505C12.1975 6.00109 13.813 5.58559 14.0075 4.41859C14.0284 4.29505 14.0949 4.18385 14.1939 4.10702C14.2928 4.03018 14.417 3.9933 14.5419 4.00367C14.6668 4.01404 14.7832 4.07092 14.8681 4.16303C14.953 4.25515 15.0003 4.37579 15.0005 4.50109V7.52609C15.2831 7.58346 15.5371 7.73677 15.7196 7.96002C15.9021 8.18327 16.0018 8.46275 16.0018 8.75109C16.0018 9.03942 15.9021 9.3189 15.7196 9.54215C15.5371 9.7654 15.2826 9.91871 15 9.97609ZM7.5 11.5011V6.00109H6.75C5.2335 6.00109 4 7.23459 4 8.75109C4 10.2676 5.2335 11.5011 6.75 11.5011H7.5ZM8.2615 12.5011H6.75C6.32324 12.5015 5.89959 12.4286 5.4975 12.2856L6.583 15.1816C6.63869 15.3355 6.72432 15.4768 6.83495 15.5973C6.94557 15.7179 7.07899 15.8154 7.2275 15.8841C7.37572 15.9534 7.53619 15.9927 7.69966 15.9997C7.86312 16.0067 8.02637 15.9814 8.18 15.9251C8.33387 15.8694 8.47517 15.7838 8.59575 15.6731C8.71633 15.5625 8.81379 15.4291 8.8825 15.2806C9.023 14.9786 9.0375 14.6406 8.9235 14.3286L8.261 12.5006L8.2615 12.5011Z" fill="white"/>
</g>
<defs>
<clipPath id="clip0_5988_6246">
<rect width="12" height="12" fill="white" transform="translate(4 4)"/>
</clipPath>
</defs>
</svg>
