<svg width="20" height="20" viewBox="0 0 20 20" fill="none" xmlns="http://www.w3.org/2000/svg">
<rect width="20" height="20" rx="1.92308" fill="#589CFE"/>
<path d="M1.4286 8.43262C1.4286 8.02541 1.75695 7.69529 2.16198 7.69529H2.89537V12.1193H2.16198C1.75695 12.1193 1.4286 11.7891 1.4286 11.3819V8.43262Z" fill="#343434"/>
<path d="M18.5715 11.3819C18.5715 11.7891 18.2431 12.1193 17.8381 12.1193H17.1047V7.69529H17.8381C18.2431 7.69529 18.5715 8.02541 18.5715 8.43262V11.3819Z" fill="#343434"/>
<path d="M7.12952 14.7409C5.80589 14.7409 4.67762 14.2716 3.7447 13.333C2.81179 12.3945 2.34533 11.2594 2.34533 9.92776C2.34533 8.59613 2.81179 7.46104 3.7447 6.52248C4.67762 5.58393 5.80589 5.11465 7.12952 5.11465H12.8705C14.1942 5.11465 15.3224 5.58393 16.2554 6.52248C17.1883 7.46104 17.6547 8.59613 17.6547 9.92776C17.6547 11.2594 17.1883 12.3945 16.2554 13.333C15.3224 14.2716 14.1942 14.7409 12.8705 14.7409H7.12952ZM7.12952 10.8904C7.40062 10.8904 7.62787 10.7981 7.81126 10.6136C7.99466 10.4291 8.08635 10.2005 8.08635 9.92776C8.08635 9.65501 7.99466 9.42639 7.81126 9.24189C7.62787 9.05739 7.40062 8.96514 7.12952 8.96514C6.85841 8.96514 6.63116 9.05739 6.44777 9.24189C6.26438 9.42639 6.17268 9.65501 6.17268 9.92776C6.17268 10.2005 6.26438 10.4291 6.44777 10.6136C6.63116 10.7981 6.85841 10.8904 7.12952 10.8904ZM12.8705 10.8904C13.1416 10.8904 13.3689 10.7981 13.5523 10.6136C13.7357 10.4291 13.8274 10.2005 13.8274 9.92776C13.8274 9.65501 13.7357 9.42639 13.5523 9.24189C13.3689 9.05739 13.1416 8.96514 12.8705 8.96514C12.5994 8.96514 12.3722 9.05739 12.1888 9.24189C12.0054 9.42639 11.9137 9.65501 11.9137 9.92776C11.9137 10.2005 12.0054 10.4291 12.1888 10.6136C12.3722 10.7981 12.5994 10.8904 12.8705 10.8904Z" fill="white"/>
<path d="M7.12952 10.8904C7.40062 10.8904 7.62787 10.7981 7.81126 10.6136C7.99466 10.4291 8.08635 10.2005 8.08635 9.92776C8.08635 9.65501 7.99466 9.42639 7.81126 9.24189C7.62787 9.05739 7.40062 8.96514 7.12952 8.96514C6.85841 8.96514 6.63116 9.05739 6.44777 9.24189C6.26438 9.42639 6.17268 9.65501 6.17268 9.92776C6.17268 10.2005 6.26438 10.4291 6.44777 10.6136C6.63116 10.7981 6.85841 10.8904 7.12952 10.8904Z" fill="#ADB5C7"/>
<path d="M12.8705 10.8904C13.1416 10.8904 13.3689 10.7981 13.5523 10.6136C13.7357 10.4291 13.8274 10.2005 13.8274 9.92776C13.8274 9.65501 13.7357 9.42639 13.5523 9.24189C13.3689 9.05739 13.1416 8.96514 12.8705 8.96514C12.5994 8.96514 12.3722 9.05739 12.1888 9.24189C12.0054 9.42639 11.9137 9.65501 11.9137 9.92776C11.9137 10.2005 12.0054 10.4291 12.1888 10.6136C12.3722 10.7981 12.5994 10.8904 12.8705 10.8904Z" fill="#ADB5C7"/>
<path d="M7.66236 14.6999H12.3377V15.7137H7.66236V14.6999Z" fill="white"/>
<path d="M7.66236 14.6999H12.3377V15.1607H7.66236V14.6999Z" fill="white"/>
<path d="M7.66236 5.02248C7.66236 4.61527 7.99071 4.28516 8.39575 4.28516H11.6043C11.8795 4.28516 12.1193 4.43755 12.2448 4.66298C12.304 4.76934 12.3377 4.89195 12.3377 5.02248V5.11465H7.66236V5.02248Z" fill="white"/>
<path fill-rule="evenodd" clip-rule="evenodd" d="M12.3377 5.11465V5.02248C12.3377 4.89195 12.304 4.76934 12.2448 4.66298L7.66236 5.11465H12.3377Z" fill="white"/>
<path d="M7.84571 9.90728C7.84571 10.2127 7.59945 10.4603 7.29567 10.4603C6.9919 10.4603 6.74563 10.2127 6.74563 9.90728C6.74563 9.60186 6.9919 9.35428 7.29567 9.35428C7.59945 9.35428 7.84571 9.60186 7.84571 9.90728Z" fill="#343434"/>
<path d="M13.2544 9.90728C13.2544 10.2127 13.0082 10.4603 12.7044 10.4603C12.4006 10.4603 12.1543 10.2127 12.1543 9.90728C12.1543 9.60186 12.4006 9.35428 12.7044 9.35428C13.0082 9.35428 13.2544 9.60186 13.2544 9.90728Z" fill="#343434"/>
<path d="M11.421 11.6584C11.421 12.422 10.8053 13.0409 10.0459 13.0409C9.28642 13.0409 8.67077 12.422 8.67077 11.6584H11.421Z" fill="#ADB5C7"/>
</svg>
