<svg xmlns="http://www.w3.org/2000/svg" width="32" height="29.79" viewBox="0 0 30.5 28.5">
  <g id="Chart" transform="translate(-306.75 -44.75)">
    <rect id="Rectangle_2" data-name="Rectangle 2" width="29" height="27" rx="8" transform="translate(307.5 45.5)" fill="#fff" stroke="#45535C" stroke-width="1.5"/>
    <path id="Chart-2" data-name="Chart" d="M5524.632,2757.217v-5.407a17.433,17.433,0,0,0,4.056-4.5v9.9Zm-5.261,0v-2.606a17.242,17.242,0,0,0,4.055-1.941v4.547Zm-5.261,0v-1.757a17.245,17.245,0,0,0,4.055-.5v2.261Zm-.11-4.412v-.822a.716.716,0,0,1,.678-.716,15.089,15.089,0,0,0,12.563-7.794l-.227-.107a.384.384,0,0,1-.057-.662l1.169-.817,1.17-.817a.383.383,0,0,1,.6.282l.122,1.421.122,1.423a.383.383,0,0,1-.544.38l-.369-.173a17.273,17.273,0,0,1-14.549,9.06h-.026A.658.658,0,0,1,5514,2752.8Z" transform="translate(-5200 -2690)" fill="#45535C"/>
  </g>
</svg>
