<svg xmlns="http://www.w3.org/2000/svg" width="29" height="27" viewBox="307.5 45.5 29 27"><g data-name="Chart"><path d="M315.5 45.5h13a8 8 0 0 1 8 8v11a8 8 0 0 1-8 8h-13a8 8 0 0 1-8-8v-11a8 8 0 0 1 8-8z" stroke-linejoin="round" stroke-linecap="round" stroke-width="1.5" stroke="#fff" fill="transparent" data-name="Rectangle 2"/><path d="M324.632 67.216V61.81a17.433 17.433 0 0 0 4.056-4.497v9.903h-4.056Zm-5.26 0v-2.605a17.242 17.242 0 0 0 4.055-1.941v4.546h-4.055Zm-5.262 0V65.46a17.245 17.245 0 0 0 4.055-.504v2.261h-4.055Zm-.11-4.412v-.822c0-.38.298-.698.678-.716a15.089 15.089 0 0 0 12.562-7.794l-.227-.107a.384.384 0 0 1-.056-.662l1.169-.817 1.17-.816a.383.383 0 0 1 .601.282l.122 1.421.122 1.423a.383.383 0 0 1-.544.38l-.369-.173a17.273 17.273 0 0 1-14.575 9.06.658.658 0 0 1-.653-.659Z" fill-rule="evenodd" data-name="Chart"/></g></svg>