<svg width="52" height="52" viewBox="0 0 52 52" fill="none" xmlns="http://www.w3.org/2000/svg">
<rect width="52" height="52" rx="26" fill="#ABCDFE"/>
<path d="M20.375 27.25C19.2625 27.25 18.1749 26.9201 17.2499 26.302C16.3249 25.6839 15.6039 24.8054 15.1782 23.7776C14.7524 22.7498 14.641 21.6188 14.8581 20.5276C15.0751 19.4365 15.6109 18.4342 16.3975 17.6475C17.1842 16.8609 18.1865 16.3251 19.2776 16.1081C20.3688 15.891 21.4998 16.0024 22.5276 16.4282C23.5554 16.8539 24.4339 17.5749 25.052 18.4999C25.6701 19.4249 26 20.5125 26 21.625C25.9983 23.1163 25.4052 24.5461 24.3506 25.6006C23.2961 26.6552 21.8663 27.2483 20.375 27.25ZM28.5 41H12.25C11.9185 41 11.6005 40.8683 11.3661 40.6339C11.1317 40.3995 11 40.0815 11 39.75V39.125C11 36.6386 11.9877 34.254 13.7459 32.4959C15.504 30.7377 17.8886 29.75 20.375 29.75C22.8614 29.75 25.246 30.7377 27.0041 32.4959C28.7623 34.254 29.75 36.6386 29.75 39.125V39.75C29.75 40.0815 29.6183 40.3995 29.3839 40.6339C29.1495 40.8683 28.8315 41 28.5 41ZM32.875 22.25C31.7625 22.25 30.6749 21.9201 29.7499 21.302C28.8249 20.6839 28.1039 19.8054 27.6782 18.7776C27.2524 17.7498 27.141 16.6188 27.3581 15.5276C27.5751 14.4365 28.1109 13.4342 28.8975 12.6475C29.6842 11.8609 30.6865 11.3251 31.7776 11.1081C32.8688 10.891 33.9998 11.0024 35.0276 11.4282C36.0554 11.8539 36.9339 12.5749 37.552 13.4999C38.1701 14.4249 38.5 15.5125 38.5 16.625C38.4983 18.1163 37.9052 19.5461 36.8506 20.6006C35.7961 21.6552 34.3663 22.2483 32.875 22.25ZM31.0988 24.7763C29.9345 24.9324 28.8151 25.3274 27.8106 25.9363C26.8061 26.5452 25.9382 27.3551 25.2613 28.315C28.0624 29.5871 30.2633 31.8928 31.4037 34.75H39.75C40.0815 34.75 40.3995 34.6183 40.6339 34.3839C40.8683 34.1495 41 33.8315 41 33.5V33.4525C40.9987 32.2065 40.7316 30.9751 40.2166 29.8406C39.7015 28.706 38.9504 27.6944 38.0133 26.8732C37.0762 26.052 35.9747 25.4402 34.7823 25.0786C33.5899 24.717 32.3341 24.6139 31.0988 24.7763Z" fill="white"/>
</svg>
