<svg width="52" height="52" viewBox="0 0 52 52" fill="none" xmlns="http://www.w3.org/2000/svg">
<rect width="52" height="52" rx="26" fill="#ABCDFE"/>
<path d="M19.0391 18.1714C19.0391 14.2173 22.2564 11 26.2105 11C30.1647 11 33.382 14.2173 33.382 18.1714C33.382 22.1255 30.1647 25.3429 26.2105 25.3429C22.2564 25.3429 19.0391 22.1255 19.0391 18.1714ZM30.7399 27.6075H21.6812C16.8952 27.6075 13 31.5028 13 36.2888C13.0008 37.3897 13.4385 38.4452 14.2169 39.2237C14.9896 39.9964 16.0353 40.9841 17.1274 40.9995C17.1437 40.9997 17.148 40.9996 17.1643 40.9996C17.6806 40.9997 34.1855 41.0004 35.2692 40.9996C36.3701 40.9988 37.4257 40.0022 38.2041 39.2237C38.9826 38.4452 39.4203 37.3897 39.4211 36.2888C39.4211 31.5028 35.5259 27.6075 30.7399 27.6075Z" fill="white"/>
</svg>
