<svg width="52" height="52" viewBox="0 0 52 52" fill="none" xmlns="http://www.w3.org/2000/svg">
<path d="M26 52C40.3594 52 52 40.3594 52 26C52 11.6406 40.3594 0 26 0C11.6406 0 0 11.6406 0 26C0 40.3594 11.6406 52 26 52Z" fill="#589CFE"/>
<path d="M38.482 20.5045C37.1416 17.3616 34.6384 14.8584 31.4955 13.518C29.8757 12.8409 28.1375 12.4922 26.3819 12.4922C24.6262 12.4922 22.888 12.8409 21.2682 13.518C18.1254 14.8581 15.6224 17.3614 14.2827 20.5045C13.5924 22.1202 13.2431 23.8611 13.257 25.6181C13.2549 26.6409 13.3528 27.6614 13.5495 28.665C13.7473 29.6603 14.0644 30.628 14.494 31.5474L12.5216 38.5328C12.4849 38.6642 12.4837 38.8029 12.5183 38.9349C12.5529 39.0668 12.6219 39.1872 12.7184 39.2837C12.8148 39.3801 12.9352 39.4492 13.0671 39.4837C13.1991 39.5183 13.3379 39.5172 13.4692 39.4804L20.4547 37.5081C21.374 37.9376 22.3418 38.2548 23.337 38.4526C24.3407 38.6492 25.3612 38.7472 26.3839 38.7451C28.1409 38.7589 29.8818 38.4097 31.4976 37.7193C34.6406 36.3797 37.144 33.8767 38.4841 30.7338C39.1612 29.114 39.5099 27.3758 39.5099 25.6202C39.5099 23.8645 39.1612 22.1263 38.4841 20.5065L38.482 20.5045ZM30.1031 26.7109H26.9618V29.8208C26.9618 30.0759 26.8605 30.3205 26.6801 30.5009C26.4997 30.6813 26.2551 30.7826 26 30.7826C25.7449 30.7826 25.5003 30.6813 25.3199 30.5009C25.1395 30.3205 25.0382 30.0759 25.0382 29.8208V26.7109H21.8959C21.6408 26.7109 21.3961 26.6096 21.2158 26.4292C21.0354 26.2489 20.9341 26.0042 20.9341 25.7491C20.9341 25.4941 21.0354 25.2494 21.2158 25.0691C21.3961 24.8887 21.6408 24.7874 21.8959 24.7874H25.0382V21.644C25.0382 21.3889 25.1395 21.1443 25.3199 20.9639C25.5003 20.7835 25.7449 20.6822 26 20.6822C26.2551 20.6822 26.4997 20.7835 26.6801 20.9639C26.8605 21.1443 26.9618 21.3889 26.9618 21.644V24.7863H30.1031C30.3582 24.7863 30.6028 24.8877 30.7832 25.068C30.9636 25.2484 31.0649 25.4931 31.0649 25.7481C31.0649 26.0032 30.9636 26.2479 30.7832 26.4282C30.6028 26.6086 30.3582 26.7099 30.1031 26.7099V26.7109Z" fill="white"/>
</svg>
