<svg width="52" height="52" viewBox="0 0 52 52" fill="none" xmlns="http://www.w3.org/2000/svg">
<rect width="52" height="52" rx="8" fill="#ABCDFE"/>
<path d="M26.0751 18.1918L14.7915 14.418L24.0809 11.322C25.3689 10.8927 26.7613 10.8927 28.0492 11.322L37.36 14.4255L26.0751 18.1918ZM22.0817 25.2486L24.8113 20.7005L14.8392 17.376C14.4635 17.2508 14.0563 17.2573 13.6848 17.3947C13.3134 17.532 12.9999 17.792 12.7961 18.1315L11.3817 20.4909C11.1856 20.8175 11.0655 21.1839 11.0301 21.5631C10.9946 21.9423 11.0449 22.3246 11.177 22.6818C11.3092 23.0391 11.5199 23.362 11.7936 23.6268C12.0673 23.8917 12.397 24.0917 12.7584 24.212L19.135 26.3379C19.6767 26.5184 20.2637 26.5089 20.7992 26.3108C21.3346 26.1128 21.7879 25.7381 22.0817 25.2486ZM14.7702 14.4105V14.4243L14.7915 14.418L14.7702 14.4105ZM24.8101 41V25.5787L24.2328 26.54C23.649 27.5233 22.7452 28.2763 21.6726 28.6729C20.6 29.0695 19.4237 29.0857 18.3406 28.7187L13.5152 27.111V32.8313C13.5151 34.1482 13.9295 35.4318 14.6996 36.5002C15.4697 37.5685 16.5565 38.3674 17.806 38.7837L23.3719 40.6386C23.8412 40.7904 24.3232 40.9147 24.8101 40.9987V41ZM40.7736 20.5323L39.3329 18.1315C39.129 17.792 38.8155 17.532 38.4441 17.3947C38.0726 17.2573 37.6654 17.2508 37.2897 17.376L27.3188 20.6993L30.0484 25.2473C30.342 25.7372 30.7939 26.1121 31.3295 26.3102C31.8651 26.5083 32.4523 26.5176 32.9939 26.3367L39.4169 24.1957C39.7727 24.077 40.0972 23.8799 40.3666 23.6191C40.636 23.3582 40.8434 23.0402 40.9735 22.6884C41.1036 22.3367 41.1531 21.9603 41.1182 21.5869C41.0834 21.2135 40.9652 20.8527 40.7723 20.5311L40.7736 20.5323ZM32.1832 28.9822C31.3185 28.9819 30.4687 28.7567 29.7173 28.3288C28.9659 27.9008 28.3388 27.2848 27.8974 26.5412L27.3201 25.5799V40.9937C27.8497 40.9009 28.3743 40.7653 28.8712 40.5997H28.8838L34.3242 38.7849C35.5736 38.3685 36.6602 37.5696 37.4303 36.5013C38.2004 35.433 38.6149 34.1494 38.615 32.8325V27.111L33.7896 28.7199C33.2718 28.8937 32.7293 28.9822 32.1832 28.9822Z" fill="white"/>
</svg>
