<svg width="120" height="139" viewBox="0 0 172 139" fill="none" xmlns="http://www.w3.org/2000/svg">
<path d="M110.451 0H61.549C27.7893 0 0.421631 27.28 0.421631 60.9315V67.7863C0.421631 86.5381 8.91956 103.311 22.2861 114.489L5.77028 139L45.1403 126.498C50.3619 127.944 55.8649 128.718 61.549 128.718H110.451C144.211 128.718 171.578 101.438 171.578 67.7863V60.9315C171.578 27.28 144.211 0 110.451 0Z" fill="#ABCDFE" fill-opacity="0.5"/>
<path d="M21.0525 57.6134C21.0525 54.5739 23.5258 52.1099 26.5768 52.1099H32.1012V85.1308H26.5768C23.5258 85.1308 21.0525 82.6668 21.0525 79.6273V57.6134Z" fill="#343434"/>
<path d="M150.184 79.6273C150.184 82.6668 147.711 85.1308 144.66 85.1308H139.135V52.1099H144.66C147.711 52.1099 150.184 54.5739 150.184 57.6134V79.6273Z" fill="#343434"/>
<path d="M63.9957 104.699C54.0252 104.699 45.5263 101.196 38.499 94.1906C31.4716 87.1851 27.9579 78.7127 27.9579 68.7732C27.9579 58.8338 31.4716 50.3614 38.499 43.3559C45.5263 36.3504 54.0252 32.8477 63.9957 32.8477H107.241C117.211 32.8477 125.71 36.3504 132.738 43.3559C139.765 50.3614 143.279 58.8338 143.279 68.7732C143.279 78.7127 139.765 87.1851 132.738 94.1906C125.71 101.196 117.211 104.699 107.241 104.699H63.9957ZM63.9957 75.9584C66.0378 75.9584 67.7496 75.2698 69.131 73.8926C70.5125 72.5155 71.2032 70.809 71.2032 68.7732C71.2032 66.7375 70.5125 65.031 69.131 63.6539C67.7496 62.2767 66.0378 61.5881 63.9957 61.5881C61.9535 61.5881 60.2417 62.2767 58.8603 63.6539C57.4788 65.031 56.7881 66.7375 56.7881 68.7732C56.7881 70.809 57.4788 72.5155 58.8603 73.8926C60.2417 75.2698 61.9535 75.9584 63.9957 75.9584ZM107.241 75.9584C109.283 75.9584 110.995 75.2698 112.376 73.8926C113.758 72.5155 114.448 70.809 114.448 68.7732C114.448 66.7375 113.758 65.031 112.376 63.6539C110.995 62.2767 109.283 61.5881 107.241 61.5881C105.199 61.5881 103.487 62.2767 102.106 63.6539C100.724 65.031 100.033 66.7375 100.033 68.7732C100.033 70.809 100.724 72.5155 102.106 73.8926C103.487 75.2698 105.199 75.9584 107.241 75.9584Z" fill="#589CFE"/>
<path d="M63.9957 75.9584C66.0378 75.9584 67.7496 75.2698 69.131 73.8926C70.5125 72.5155 71.2032 70.809 71.2032 68.7732C71.2032 66.7375 70.5125 65.031 69.131 63.6539C67.7496 62.2767 66.0378 61.5881 63.9957 61.5881C61.9535 61.5881 60.2417 62.2767 58.8603 63.6539C57.4788 65.031 56.7881 66.7375 56.7881 68.7732C56.7881 70.809 57.4788 72.5155 58.8603 73.8926C60.2417 75.2698 61.9535 75.9584 63.9957 75.9584Z" fill="#FCFCFC"/>
<path d="M107.241 75.9584C109.283 75.9584 110.995 75.2698 112.376 73.8926C113.758 72.5155 114.448 70.809 114.448 68.7732C114.448 66.7375 113.758 65.031 112.376 63.6539C110.995 62.2767 109.283 61.5881 107.241 61.5881C105.199 61.5881 103.487 62.2767 102.106 63.6539C100.724 65.031 100.033 66.7375 100.033 68.7732C100.033 70.809 100.724 72.5155 102.106 73.8926C103.487 75.2698 105.199 75.9584 107.241 75.9584Z" fill="#FCFCFC"/>
<path d="M68.0094 104.393H103.227V111.96H68.0094V104.393Z" fill="#589CFE"/>
<path d="M68.0094 104.393H103.227V107.833H68.0094V104.393Z" fill="#589CFE"/>
<path d="M68.0094 32.1597C68.0094 29.1202 70.4828 26.6562 73.5338 26.6562H97.7028C99.7758 26.6562 101.582 27.7937 102.527 29.4764C102.973 30.2702 103.227 31.1854 103.227 32.1597V32.8477H68.0094V32.1597Z" fill="#589CFE"/>
<path fill-rule="evenodd" clip-rule="evenodd" d="M103.227 32.8477V32.1597C103.227 31.1854 102.973 30.2702 102.527 29.4764L68.0094 32.8477H103.227Z" fill="#589CFE"/>
<path d="M69.3905 68.6204C69.3905 70.9 67.5355 72.748 65.2473 72.748C62.959 72.748 61.104 70.9 61.104 68.6204C61.104 66.3407 62.959 64.4927 65.2473 64.4927C67.5355 64.4927 69.3905 66.3407 69.3905 68.6204Z" fill="#343434"/>
<path d="M110.133 68.6204C110.133 70.9 108.278 72.748 105.989 72.748C103.701 72.748 101.846 70.9 101.846 68.6204C101.846 66.3407 103.701 64.4927 105.989 64.4927C108.278 64.4927 110.133 66.3407 110.133 68.6204Z" fill="#343434"/>
<path d="M96.3217 81.6912C96.3217 87.3902 91.6842 92.0102 85.9636 92.0102C80.2429 92.0102 75.6054 87.3902 75.6054 81.6912H96.3217Z" fill="#FCFCFC"/>
</svg>
