<svg width="25" height="21" viewBox="0 0 25 21" fill="none" xmlns="http://www.w3.org/2000/svg">
<path d="M8.88375 20.5H8.79753C8.15961 20.4779 7.52816 20.3683 6.92216 20.1736C6.71938 20.1066 6.51588 20.0355 6.31586 19.9518C6.18205 19.8982 6.04892 19.8388 5.91787 19.7765C5.78682 19.7142 5.65648 19.6493 5.52543 19.5782C5.19808 19.403 4.88228 19.2087 4.57983 18.9954C4.33497 18.8252 4.09701 18.6413 3.86181 18.4498C3.77835 18.3767 3.69209 18.3036 3.60863 18.2306C3.52517 18.1576 3.43622 18.0775 3.35276 17.9957C3.24171 17.8906 3.13279 17.7851 3.02726 17.6739C2.92173 17.5627 2.81547 17.4555 2.7127 17.3389C2.60993 17.2224 2.51268 17.1094 2.41474 16.9929C2.21701 16.758 2.03053 16.5149 1.85534 16.2634C1.81051 16.2011 1.76916 16.1386 1.72433 16.077C0.655992 14.5602 0.0575926 12.7778 5.85147e-07 10.9409C-0.000316761 10.1603 0.128449 9.38497 0.381407 8.64405C0.392443 8.61123 0.403461 8.58137 0.414496 8.54854C0.528241 8.22708 0.664921 7.91409 0.823519 7.61108C0.869502 7.52489 0.916901 7.43801 0.965642 7.35137C1.01047 7.27299 1.05734 7.19484 1.10355 7.11847C1.14977 7.04211 1.1925 6.97882 1.24147 6.90848C1.3332 6.76847 1.43328 6.63295 1.53674 6.4983C1.59813 6.41389 1.665 6.33332 1.72846 6.25494C1.74501 6.23618 1.75878 6.2194 1.77257 6.20064C1.84776 6.11422 1.92297 6.02793 2.00091 5.9442C2.05126 5.88726 2.10363 5.83287 2.15398 5.78196C3.13938 4.77615 4.36004 4.01625 5.71235 3.5662C5.26761 4.13865 4.88703 4.75558 4.57705 5.40645C4.446 5.6791 4.3294 5.95723 4.22663 6.23858C3.463 6.77977 2.83954 7.48564 2.40547 8.30126C1.97141 9.11687 1.73864 10.0196 1.72568 10.9377C1.82936 12.8978 2.63442 14.7614 4.00183 16.2065C5.10042 17.5342 6.64995 18.4383 8.37268 18.7572C8.4294 18.3268 8.56407 17.9096 8.77059 17.5247C9.29957 17.787 9.84948 18.0077 10.4149 18.1842C10.4064 18.189 10.3989 18.1949 10.3929 18.2025L10.3763 18.2188C10.3681 18.2241 10.3607 18.23 10.3542 18.2371C10.3487 18.2425 10.3459 18.2481 10.3404 18.2535C10.3345 18.2602 10.3281 18.2667 10.3211 18.2725C10.3172 18.2789 10.3125 18.2846 10.3073 18.2901C10.3018 18.2988 10.2963 18.3044 10.2907 18.3117C10.2857 18.3171 10.2819 18.3237 10.2797 18.3307C10.2737 18.3375 10.2682 18.3448 10.2632 18.3523C10.2591 18.3583 10.2554 18.3641 10.2522 18.3706C10.2466 18.3783 10.2419 18.3867 10.2384 18.3955C10.2332 18.4005 10.2294 18.4069 10.2273 18.4138C10.2238 18.4226 10.2192 18.431 10.2135 18.4386C10.2111 18.445 10.2084 18.4509 10.2053 18.457C10.2053 18.4677 10.197 18.4751 10.1943 18.4838C10.1915 18.4925 10.1887 18.4974 10.1859 18.5027C10.1832 18.5081 10.1777 18.5215 10.1749 18.5322C10.1721 18.5429 10.1749 18.5439 10.1694 18.5485C10.1639 18.5532 10.1611 18.5699 10.1584 18.5812C10.1556 18.5926 10.1584 18.5916 10.1528 18.5963L10.1446 18.629C10.1446 18.6344 10.1445 18.64 10.139 18.6454C10.1335 18.6507 10.1335 18.6693 10.1308 18.68C10.128 18.6908 10.1308 18.6917 10.1308 18.6964C10.1308 18.7011 10.1253 18.7203 10.1225 18.7343C10.1212 18.7378 10.1212 18.742 10.1225 18.7455C10.1225 18.7595 10.1169 18.7752 10.1142 18.7886C10.1148 18.7899 10.1151 18.7912 10.1151 18.7926C10.1151 18.7939 10.1148 18.7952 10.1142 18.7965C10.1142 18.8126 10.1142 18.8262 10.1087 18.8423C10.1087 18.8423 10.1087 18.8421 10.1087 18.8475C10.1087 18.8636 10.1087 18.8804 10.1032 18.8992C10.0673 19.1671 10.0618 19.4499 10.0059 19.7071C10.001 19.7229 9.99731 19.7392 9.99488 19.7555C9.99277 19.7712 9.98908 19.7863 9.98385 19.8013C9.98447 19.8026 9.98478 19.8045 9.98478 19.8059C9.98478 19.8073 9.98447 19.8086 9.98385 19.8098C9.98385 19.8239 9.97558 19.8363 9.97282 19.8504V19.8589C9.96707 19.8721 9.96244 19.8855 9.95901 19.8995C9.95901 19.8995 9.95906 19.9079 9.95354 19.9106C9.94966 19.9235 9.94504 19.9367 9.93973 19.9492C9.93973 19.9492 9.93969 19.9543 9.93418 19.957C9.92866 19.9711 9.92319 19.9809 9.91767 19.995C9.91767 19.995 9.91763 20.0007 9.91212 20.0061L9.89553 20.0388C9.89188 20.0426 9.88995 20.0473 9.89006 20.0525C9.88206 20.0613 9.87558 20.0719 9.87078 20.0826C9.86722 20.0868 9.86436 20.0913 9.86244 20.0964L9.84316 20.1232C9.84113 20.1289 9.83727 20.1335 9.83213 20.1369L9.81277 20.1637C9.80811 20.1676 9.80435 20.1727 9.80174 20.1781C9.79347 20.1853 9.78608 20.1935 9.77968 20.2023C9.77416 20.2077 9.76863 20.2101 9.76587 20.2154C9.75827 20.2235 9.74996 20.231 9.74103 20.2377C9.73789 20.2434 9.73316 20.2484 9.72731 20.2514C9.71988 20.2594 9.71155 20.2661 9.70247 20.2723L9.68588 20.2867C9.67715 20.2936 9.6679 20.3001 9.65827 20.3057C9.65231 20.3108 9.64587 20.315 9.63899 20.3188C9.63032 20.325 9.62106 20.3306 9.61137 20.3351L9.59209 20.3463C9.58105 20.3516 9.57281 20.3573 9.56178 20.3626C9.55471 20.3667 9.54726 20.3701 9.53963 20.3731C9.5298 20.3783 9.51971 20.3827 9.50932 20.3868C9.50063 20.3915 9.49133 20.3955 9.48171 20.3979C9.47134 20.4021 9.46125 20.4065 9.4514 20.4117L9.421 20.4202C9.41054 20.4254 9.39942 20.429 9.38791 20.4313L9.35483 20.4392C9.34379 20.4392 9.33277 20.4483 9.32174 20.4509C9.3107 20.4536 9.2969 20.4508 9.28587 20.4562L9.25 20.464C9.23897 20.464 9.22517 20.4639 9.21068 20.4699C9.19896 20.4729 9.18693 20.4753 9.17481 20.4758C9.16102 20.4758 9.1472 20.4757 9.13272 20.481C9.11823 20.4864 9.10787 20.481 9.09407 20.481C9.07824 20.4823 9.06234 20.4823 9.0465 20.481C9.03346 20.4828 9.02022 20.4828 9.00718 20.481C8.99042 20.4797 8.97359 20.4797 8.95683 20.481L8.88375 20.5ZM12.6869 17.4063C8.10774 16.7364 4.9971 13.7528 4.9971 9.44609C4.9971 4.52237 9.50107 0.5 15.0155 0.5C20.5299 0.5 25 4.49099 25 9.41404C25 14.4456 20.1367 20.0951 15.0486 20.2331C15.0182 20.2331 14.9899 20.2331 14.9623 20.2331C12.7007 20.2358 14.4643 17.6662 12.6897 17.4063H12.6869ZM9.09272 4.39049C8.35509 5.02513 7.76272 5.80343 7.35391 6.67428C6.9451 7.54512 6.72891 8.48905 6.71933 9.44609C6.69718 10.2091 6.8306 10.9693 7.11185 11.6821C7.3931 12.3949 7.8166 13.0463 8.35812 13.5996C9.6019 14.7772 11.212 15.5221 12.9373 15.7178C14.9851 16.018 15.2603 17.7691 15.3327 18.5093C17.4269 18.1988 19.3234 17.1326 20.6436 15.5236C22.2268 13.8459 23.1576 11.6842 23.2757 9.41142C23.2757 5.43627 19.5698 2.20221 15.0127 2.20221C12.827 2.18449 10.7145 2.9657 9.09483 4.39114L9.09272 4.39049ZM11.6275 12.3834C11.4025 12.3834 11.1867 12.2965 11.0276 12.142C10.8685 11.9875 10.7791 11.7777 10.7791 11.5591C10.7791 11.3406 10.8685 11.1314 11.0276 10.9769C11.1867 10.8224 11.4025 10.7355 11.6275 10.7355H18.6855C18.9105 10.7355 19.1263 10.8224 19.2854 10.9769C19.4445 11.1314 19.5338 11.3406 19.5338 11.5591C19.5338 11.7777 19.4445 11.9875 19.2854 12.142C19.1263 12.2965 18.9105 12.3834 18.6855 12.3834H11.6275ZM13.1601 7.97416C13.0467 7.9773 12.934 7.95784 12.8283 7.9179C12.7227 7.87795 12.6264 7.818 12.5451 7.74127C12.4638 7.66454 12.3992 7.57315 12.3551 7.47174C12.3109 7.37033 12.2882 7.26128 12.2882 7.15118C12.2882 7.04109 12.3109 6.93204 12.3551 6.83063C12.3992 6.72922 12.4638 6.63718 12.5451 6.56045C12.6264 6.48372 12.7227 6.42376 12.8283 6.38382C12.934 6.34387 13.0467 6.32507 13.1601 6.32821H17.155C17.3755 6.33432 17.5849 6.42379 17.7387 6.57746C17.8925 6.73113 17.9785 6.9369 17.9785 7.15118C17.9785 7.36547 17.8925 7.57124 17.7387 7.72491C17.5849 7.87858 17.3755 7.96805 17.155 7.97416H13.1601Z" fill="#589CFE"/>
</svg>
