<svg width="52" height="52" viewBox="0 0 52 52" fill="none" xmlns="http://www.w3.org/2000/svg">
<rect width="52" height="52" rx="26" fill="#ABCDFE"/>
<path d="M38.5025 25.9367V33.4999C38.5002 33.8119 38.3813 34.1118 38.1692 34.3406C37.957 34.5694 37.667 34.7106 37.356 34.7365C37.045 34.7623 36.7357 34.6709 36.4886 34.4803C36.2416 34.2897 36.0748 34.0135 36.021 33.7062C35.5348 30.7897 31.4956 29.7496 27.8778 29.7496H22.2523V15.9983H27.8778C31.4956 15.9983 35.5348 14.9594 36.021 12.0417C36.0733 11.7328 36.2396 11.4548 36.487 11.2627C36.7344 11.0706 37.045 10.9784 37.3572 11.0043C37.6693 11.0302 37.9604 11.1724 38.1728 11.4027C38.3851 11.6331 38.5032 11.9347 38.5038 12.2479V19.8111C39.2103 19.9546 39.8454 20.3379 40.3017 20.8961C40.7579 21.4543 41.0071 22.153 41.0071 22.8739C41.0071 23.5948 40.7579 24.2936 40.3017 24.8518C39.8454 25.4099 39.209 25.7932 38.5025 25.9367ZM19.7508 29.7496V15.9983H17.8756C14.084 15.9983 11 19.0823 11 22.8739C11 26.6655 14.084 29.7496 17.8756 29.7496H19.7508ZM21.6547 32.2498H17.8756C16.8086 32.2507 15.7494 32.0685 14.7441 31.711L17.4581 38.9516C17.5973 39.3363 17.8114 39.6896 18.088 39.9911C18.3646 40.2926 18.6982 40.5363 19.0695 40.7081C19.4401 40.8813 19.8413 40.9795 20.25 40.9971C20.6587 41.0147 21.0668 40.9513 21.451 40.8106C21.8357 40.6713 22.189 40.4572 22.4904 40.1806C22.7919 39.9041 23.0356 39.5705 23.2074 39.1992C23.5587 38.4441 23.5949 37.599 23.3099 36.819L21.6535 32.2485L21.6547 32.2498Z" fill="white"/>
</svg>
