<svg xmlns="http://www.w3.org/2000/svg" width="60.187" height="30.185">
    <path d="M11.368 3.035A6.071 6.071 0 009.149.818a6.125 6.125 0 00-6.114 0A6.078 6.078 0 00.814 3.035a6.145 6.145 0 000 6.116 6.075 6.075 0 002.221 2.217 6.127 6.127 0 006.114 0 6.069 6.069 0 002.219-2.217 6.123 6.123 0 000-6.116zm-1.326 2.13L5.734 9.472a.491.491 0 01-.363.151.481.481 0 01-.357-.151L2.141 6.6a.484.484 0 01-.144-.357.5.5 0 01.144-.365l.721-.714a.5.5 0 01.714 0l1.795 1.793 3.233-3.229a.5.5 0 01.357-.151.488.488 0 01.359.151l.722.714a.492.492 0 01.143.364.483.483 0 01-.143.359z"/>
</svg>
