<svg width="20" height="20" viewBox="0 0 20 20" fill="none" xmlns="http://www.w3.org/2000/svg">
<path d="M10.0114 6.54727e-06C8.03294 -0.00225696 6.09823 0.582429 4.45213 1.68008C2.80603 2.77772 1.52253 4.339 0.76404 6.16634C0.00554883 7.99368 -0.193839 10.0049 0.191106 11.9456C0.576052 13.8863 1.52803 15.6692 2.92657 17.0687C4.32512 18.4682 6.10738 19.4214 8.04781 19.8076C9.98825 20.1938 11.9996 19.9958 13.8275 19.2385C15.6553 18.4812 17.2175 17.1988 18.3162 15.5534C19.415 13.9081 20.0009 11.9737 20 9.99524C19.9987 7.34588 18.9462 4.8053 17.0734 2.93129C15.2007 1.05729 12.6608 0.00303755 10.0114 6.54727e-06ZM13.9426 12.2588H10.8696C10.2182 12.257 9.594 11.9975 9.13341 11.5369C8.67282 11.0763 8.41328 10.4521 8.41152 9.80073V6.72865C8.41152 6.49891 8.50278 6.27858 8.66523 6.11613C8.82768 5.95368 9.04801 5.86242 9.27775 5.86242C9.50749 5.86242 9.72781 5.95368 9.89026 6.11613C10.0527 6.27858 10.144 6.49891 10.144 6.72865V9.79978C10.144 9.99247 10.2205 10.1773 10.3568 10.3135C10.493 10.4498 10.6778 10.5263 10.8705 10.5263H13.9416C14.1714 10.5263 14.3917 10.6176 14.5542 10.78C14.7166 10.9425 14.8079 11.1628 14.8079 11.3925C14.8079 11.6223 14.7166 11.8426 14.5542 12.0051C14.3917 12.1675 14.1714 12.2588 13.9416 12.2588H13.9426Z"/>
</svg>
