<svg width="18" height="12" viewBox="0 0 18 12" fill="none" xmlns="http://www.w3.org/2000/svg">
<path d="M4.87248 10.2533C3.9623 9.85437 3.1284 9.29891 2.40876 8.6122C1.72924 7.96887 1.1573 7.22056 0.714184 6.39541C0.650763 6.27364 0.61731 6.13826 0.61731 6.00088C0.61731 5.86349 0.650763 5.72811 0.714184 5.60634C1.16168 4.77134 1.74154 4.01532 2.43164 3.36758C3.15103 2.68627 3.98321 2.135 4.89049 1.73916C6.05631 1.24087 7.31182 0.989521 8.57902 1.00039C9.85442 0.98867 11.1185 1.24279 12.2909 1.74648C13.2009 2.14668 14.0347 2.7027 14.7546 3.38955C15.4358 4.0314 16.008 4.77999 16.4492 5.60634C16.5124 5.72819 16.5456 5.86354 16.5456 6.00088C16.5456 6.13821 16.5124 6.27356 16.4492 6.39541C16.0013 7.23017 15.421 7.98613 14.7313 8.63418C14.0106 9.31482 13.1784 9.86599 12.271 10.2626C11.1052 10.761 9.84916 11.0124 8.58194 11.0014C7.307 11.013 6.0439 10.7582 4.87248 10.2533ZM4.4475 6.00039C4.47751 7.07093 4.92982 8.08559 5.70492 8.82217C6.48002 9.55874 7.51457 9.95729 8.58194 9.92959C9.64964 9.95809 10.685 9.55986 11.4604 8.82314C12.2359 8.08642 12.6884 7.07129 12.7178 6.00039C12.6881 4.92966 12.2358 3.91463 11.4604 3.17812C10.685 2.44162 9.64947 2.04366 8.58194 2.07216C7.51457 2.04446 6.48002 2.44301 5.70492 3.17959C4.92982 3.91616 4.47751 4.92984 4.4475 6.00039ZM5.58127 6.00039C5.60267 5.22206 5.93114 4.4838 6.49452 3.94814C7.0579 3.41249 7.81032 3.12329 8.58633 3.14345C9.36156 3.12464 10.1126 3.41483 10.6747 3.95058C11.2369 4.48634 11.5642 5.22384 11.5851 6.00136C11.5644 6.77977 11.2363 7.51802 10.6733 8.0541C10.1102 8.59018 9.35802 8.88014 8.58194 8.86025C7.80645 8.87907 7.05541 8.58857 6.49306 8.05263C5.9307 7.51669 5.60313 6.77915 5.58224 6.00136L5.58127 6.00039Z" fill="#87A1BB"/>
<path d="M1 11L17 1" stroke="#87A1BB"/>
</svg>
