<svg xmlns="http://www.w3.org/2000/svg" viewBox="0 0 295.4 295.4">
    <g fill="#45535c">
        <path d="M149.7.4C68-.7.4 65.7.1 147.3a147.6 147.6 0 10295.2.6c0-80.8-65-146.4-145.6-147.5zM220 252.2l-1.8 2.4-3 1.9-1.6 1-2.6 1.5-1.8 1-2.5 1.4-2 .9-2.4 1.3-2 .9-2.5 1.1-2 .8-2.5 1-2.1.8-2.5.8-2.2.7-2.5.8-2.2.6-2.5.7-2.2.5-2.6.6-2.2.5-2.7.5-2.1.3-2.8.4-2.1.3-3 .3h-1.9l-3.4.2h-13.2l-3.4-.2h-1.9l-3-.3-2.1-.3-2.8-.4-2.1-.3-2.7-.5-2.1-.5-2.7-.6-2.1-.5-2.7-.7-2.1-.6-2.6-.8-2-.7a11.4 11.4 0 01-2.6-.9l-2-.7-2.6-1-2-.8-2.6-1.2-1.8-.8-2.7-1.3-1.7-.9-2.7-1.5-1.6-.9-2.9-1.6-1.4-.9-3.2-2.1-1-.7a27.9 27.9 0 01-2.1-10.3c0-13.9 6-24.5 18.3-32.4s33-13.2 55.5-13.2 42.2 4.7 55.4 13.2 18.4 18.5 18.4 32.4a28.1 28.1 0 01-1.5 8.8zm20.7-16.6c-4.7-38.3-44.6-57.5-93-57.5s-88.3 19.2-93 57.5A129.4 129.4 0 0134 206.5a128 128 0 0123.2-149 128.4 128.4 0 0192-37.4 127.8 127.8 0 01112.2 186.4 129.4 129.4 0 01-20.7 29.1z"/>
        <path d="M147.7 69.2a49.2 49.2 0 1049.2 49.2 49.2 49.2 0 00-49.2-49.2zm0 78.7a29.5 29.5 0 1129.5-29.5 29.5 29.5 0 01-29.5 29.5z"/>
    </g>
</svg>
