<svg width="24" height="24" viewBox="0 0 24 24" fill="none" xmlns="http://www.w3.org/2000/svg">
<g clip-path="url(#clip0_1761_6317)">
<path d="M12.0151 1.60202C17.7423 1.60202 22.4033 5.74234 22.4033 10.835C22.2561 13.7243 21.0955 16.4693 19.1254 18.5879C17.0784 20.9019 14.4395 22.3259 12.016 22.3953H11.9751C11.9671 22.2974 11.951 22.1835 11.9421 22.0945C11.8772 21.338 11.6983 19.3043 9.4608 18.9706C7.29433 18.7208 5.26898 17.7693 3.69354 16.2614C3.00366 15.548 2.46271 14.7044 2.10224 13.7798C1.74178 12.8551 1.56901 11.868 1.59401 10.8759C1.6073 9.6433 1.88173 8.4275 2.39918 7.30868C2.91663 6.18986 3.66537 5.19342 4.59601 4.38508C6.64466 2.57993 9.28468 1.58961 12.0151 1.60202ZM12.0151 0C5.40147 0 0 4.88882 0 10.8759C0 16.1154 3.73804 19.7431 9.22495 20.5592C11.3565 20.8761 9.24097 24 11.9582 24H12.0561C18.1651 23.8291 23.9982 16.9556 23.9982 10.8376C23.9973 4.84877 18.6368 0 12.0151 0Z" fill="#BEC8DD"/>
</g>
<defs>
<clipPath id="clip0_1761_6317">
<rect width="24" height="24" fill="white"/>
</clipPath>
</defs>
</svg>
