<svg xmlns="http://www.w3.org/2000/svg" width="31.977" height="20.701" viewBox="0 0 31.977 20.701">
  <path id="cook" d="M30.725,137.034l-.01-.02h0l-.113-.226a1.446,1.446,0,0,0-1.89-.672L21.5,139.409l.006.014a1.688,1.688,0,0,0-1.2,2.066q.017.065.04.128l-.142.095c-1.894-.947-6.487-.184-10.779,1.309q-.378.132-.754.271l-.908.35c-.772.308-1.514.634-2.217.973a13.326,13.326,0,0,1-.371-4.015,1.635,1.635,0,1,0-3.265-.164q0,.041,0,.082v3.414a.261.261,0,0,1-.261.261A1.226,1.226,0,0,0,.42,145.417v.008a7.781,7.781,0,0,0,.414,2.3c-.739.791-1,1.507-.785,2.134A8.4,8.4,0,0,0,5.3,154.934a11.462,11.462,0,0,0,3.943.682,13.143,13.143,0,0,0,4.309-.742,12.324,12.324,0,0,0,6.509-5.074,8.4,8.4,0,0,0,.964-7.235,1.3,1.3,0,0,0-.054-.13,1.683,1.683,0,0,0,1.42.249l.006.012.072-.035a1.684,1.684,0,0,0,.413-.2l7.17-3.493A1.448,1.448,0,0,0,30.725,137.034ZM1.778,150.021c-.457-.111-.747-.281-.816-.48h0c-.067-.192.044-.485.3-.828a4.63,4.63,0,0,0,1.146,1.411A4.679,4.679,0,0,1,1.778,150.021Zm3.109.034a1.773,1.773,0,0,1-.486-.065,3.229,3.229,0,0,1-2.433-2.024,6.727,6.727,0,0,1-.581-2.547.258.258,0,0,1,.075-.185h0a.259.259,0,0,1,.186-.077,1.228,1.228,0,0,0,1.226-1.226v-3.413a.67.67,0,1,1,1.339,0c0,.011,0,.023,0,.034a13.24,13.24,0,0,0,.736,5.33,6.746,6.746,0,0,0,1.777,2.626,5.8,5.8,0,0,0,1.438.931A26.09,26.09,0,0,1,4.886,150.055Zm13.369-5.807h0c-.1.865-.271,1.043-.278,1.051l.009.009c-.4.272-.838.543-1.309.811a6.241,6.241,0,0,0,.616-1.988.488.488,0,0,1,.483-.422.483.483,0,0,1,.483.483A.488.488,0,0,1,18.255,144.248Zm1.51-.483a5.018,5.018,0,0,1-.551.585A1.45,1.45,0,0,0,16.336,144a5.157,5.157,0,0,1-1.61,3.118,36.509,36.509,0,0,1-3.4,1.371q-.739.257-1.467.478a5.193,5.193,0,0,1-4.01-3.43c.72-.351,1.487-.689,2.286-1.008l.912-.351c.23-.085.462-.168.694-.249a29.353,29.353,0,0,1,7.245-1.64,8.02,8.02,0,0,1,2.3.109c.457.111.747.281.816.48S20.055,143.394,19.765,143.765Z" transform="translate(0.527 -135.415)" fill="#647f9a" stroke="rgba(0,0,0,0)" stroke-miterlimit="10" stroke-width="1"/>
</svg>
