<svg width="24" height="24" viewBox="0 0 24 24" fill="none" xmlns="http://www.w3.org/2000/svg">
<path d="M8.99999 7.50024C8.99999 7.30132 9.07901 7.11056 9.21966 6.96991C9.36031 6.82925 9.55108 6.75024 9.74999 6.75024H19.125C19.3239 6.75024 19.5147 6.82925 19.6553 6.96991C19.796 7.11056 19.875 7.30132 19.875 7.50024C19.875 7.69915 19.796 7.88991 19.6553 8.03057C19.5147 8.17122 19.3239 8.25024 19.125 8.25024H9.74999C9.55108 8.25024 9.36031 8.17122 9.21966 8.03057C9.07901 7.88991 8.99999 7.69915 8.99999 7.50024ZM8.99999 12.0002C8.99999 11.8013 9.07901 11.6106 9.21966 11.4699C9.36031 11.3293 9.55108 11.2502 9.74999 11.2502H19.125C19.3239 11.2502 19.5147 11.3293 19.6553 11.4699C19.796 11.6106 19.875 11.8013 19.875 12.0002C19.875 12.1991 19.796 12.3899 19.6553 12.5306C19.5147 12.6712 19.3239 12.7502 19.125 12.7502H9.74999C9.55108 12.7502 9.36031 12.6712 9.21966 12.5306C9.07901 12.3899 8.99999 12.1991 8.99999 12.0002ZM8.99999 16.5002C8.99999 16.3013 9.07901 16.1106 9.21966 15.9699C9.36031 15.8293 9.55108 15.7502 9.74999 15.7502H19.125C19.3239 15.7502 19.5147 15.8293 19.6553 15.9699C19.796 16.1106 19.875 16.3013 19.875 16.5002C19.875 16.6991 19.796 16.8899 19.6553 17.0306C19.5147 17.1712 19.3239 17.2502 19.125 17.2502H9.74999C9.55108 17.2502 9.36031 17.1712 9.21966 17.0306C9.07901 16.8899 8.99999 16.6991 8.99999 16.5002ZM8.42999 6.50424C8.49951 6.43194 8.55382 6.34644 8.58972 6.25279C8.62561 6.15914 8.64236 6.05924 8.63897 5.959C8.63557 5.85877 8.61211 5.76023 8.56996 5.66922C8.52782 5.57821 8.46785 5.49657 8.3936 5.42915C8.31935 5.36172 8.23234 5.30987 8.1377 5.27667C8.04306 5.24347 7.94272 5.22958 7.84262 5.23584C7.74252 5.24209 7.64469 5.26836 7.55492 5.31309C7.46516 5.35781 7.38527 5.42009 7.31999 5.49624L5.83237 7.13461L5.43037 6.69136C5.36416 6.61843 5.28423 6.55925 5.19515 6.51721C5.10607 6.47516 5.00958 6.45108 4.91119 6.44632C4.8128 6.44157 4.71444 6.45624 4.62172 6.4895C4.529 6.52276 4.44374 6.57396 4.3708 6.64017C4.29787 6.70638 4.23869 6.78631 4.19665 6.87539C4.15461 6.96447 4.13052 7.06096 4.12577 7.15935C4.12102 7.25774 4.13569 7.3561 4.16895 7.44882C4.20221 7.54154 4.25341 7.6268 4.31962 7.69974L5.27699 8.75424C5.34729 8.8317 5.43302 8.89359 5.52867 8.93595C5.62431 8.97831 5.72776 9.00019 5.83237 9.00019C5.93697 9.00019 6.04042 8.97831 6.13607 8.93595C6.23171 8.89359 6.31744 8.8317 6.38774 8.75424L8.42999 6.50424ZM8.37899 9.94524C8.52617 10.0789 8.61425 10.2655 8.62388 10.4641C8.63352 10.6627 8.56391 10.857 8.43037 11.0042L6.38774 13.2542C6.31744 13.3317 6.23171 13.3936 6.13607 13.436C6.04042 13.4783 5.93697 13.5002 5.83237 13.5002C5.72776 13.5002 5.62431 13.4783 5.52867 13.436C5.43302 13.3936 5.34729 13.3317 5.27699 13.2542L4.31962 12.1997C4.25341 12.1268 4.20221 12.0415 4.16895 11.9488C4.13569 11.8561 4.12102 11.7577 4.12577 11.6594C4.13052 11.561 4.15461 11.4645 4.19665 11.3754C4.23869 11.2863 4.29787 11.2064 4.3708 11.1402C4.44374 11.074 4.529 11.0228 4.62172 10.9895C4.71444 10.9562 4.8128 10.9416 4.91119 10.9463C5.00958 10.9511 5.10607 10.9752 5.19515 11.0172C5.28423 11.0593 5.36416 11.1184 5.43037 11.1914L5.83237 11.6346L7.31962 9.99586C7.45334 9.84863 7.64008 9.76054 7.83874 9.75097C8.03741 9.74141 8.23174 9.81115 8.37899 9.94486V9.94524ZM8.42999 15.5042C8.49951 15.4319 8.55382 15.3464 8.58972 15.2528C8.62561 15.1591 8.64236 15.0592 8.63897 14.959C8.63557 14.8588 8.61211 14.7602 8.56996 14.6692C8.52782 14.5782 8.46785 14.4966 8.3936 14.4291C8.31935 14.3617 8.23234 14.3099 8.1377 14.2767C8.04306 14.2435 7.94272 14.2296 7.84262 14.2358C7.74252 14.2421 7.64469 14.2684 7.55492 14.3131C7.46516 14.3578 7.38527 14.4201 7.31999 14.4962L5.83237 16.1342L5.43037 15.6917C5.36445 15.6178 5.28455 15.5577 5.19526 15.5148C5.10598 15.4719 5.0091 15.4472 4.91019 15.4419C4.81129 15.4367 4.71233 15.4511 4.61903 15.4844C4.52573 15.5176 4.43993 15.5689 4.36659 15.6355C4.29324 15.7021 4.23381 15.7825 4.19172 15.8721C4.14962 15.9618 4.1257 16.0589 4.12133 16.1578C4.11697 16.2568 4.13224 16.3556 4.16627 16.4486C4.20031 16.5416 4.25242 16.627 4.31962 16.6997L5.27699 17.7542C5.34729 17.8317 5.43302 17.8936 5.52867 17.936C5.62431 17.9783 5.72776 18.0002 5.83237 18.0002C5.93697 18.0002 6.04042 17.9783 6.13607 17.936C6.23171 17.8936 6.31744 17.8317 6.38774 17.7542L8.42999 15.5042Z" fill="#45535C"/>
<path fill-rule="evenodd" clip-rule="evenodd" d="M0.75 7.5C0.75 3.77213 3.77213 0.75 7.5 0.75H16.5C20.2279 0.75 23.25 3.77213 23.25 7.5V16.5C23.25 20.2279 20.2279 23.25 16.5 23.25H7.5C3.77213 23.25 0.75 20.2279 0.75 16.5V7.5ZM7.5 2.25C4.6005 2.25 2.25 4.6005 2.25 7.5V16.5C2.25 19.3995 4.6005 21.75 7.5 21.75H16.5C19.3995 21.75 21.75 19.3995 21.75 16.5V7.5C21.75 4.6005 19.3995 2.25 16.5 2.25H7.5Z" fill="#45535C"/>
</svg>
