<svg xmlns="http://www.w3.org/2000/svg" width="21" height="21.035" viewBox="0 0 21 21.035">
  <path id="Create" d="M1.281,21.035A1.283,1.283,0,0,1,0,19.754V17.915a1.271,1.271,0,0,1,.375-.905L11.238,6.146a.917.917,0,0,1,1.287-.01l2.594,2.512a.919.919,0,0,1,.01,1.308l-10.7,10.7a1.273,1.273,0,0,1-.906.375Zm.554-2.891V19.2H3.289l7.357-7.357L9.391,10.587Zm8.853-8.853,1.255,1.255,1.228-1.227L11.9,8.082Zm.264,10.893a.918.918,0,0,1,0-1.835h3.755a4.462,4.462,0,0,0,4.457-4.457v-7.6a4.462,4.462,0,0,0-4.457-4.457h-7.6A4.462,4.462,0,0,0,2.651,6.292V9.946a.918.918,0,1,1-1.835,0V6.292A6.3,6.3,0,0,1,7.108,0h7.6A6.3,6.3,0,0,1,21,6.292v7.6a6.3,6.3,0,0,1-6.292,6.292Z" fill="#647f9a"/>
</svg>
