<svg xmlns="http://www.w3.org/2000/svg" width="18.817" height="24.889" viewBox="68 286 18.817 24.889"><path d="m70.55 309.4-.297-.257-2.247-21.616a1.387 1.387 0 0 1 1.38-1.527h16.042a1.388 1.388 0 0 1 1.382 1.525l-2.246 21.616-.3.261c-.278.25-1.92 1.486-6.857 1.486-4.934 0-6.576-1.239-6.856-1.488Zm.097-20.902c-.264.292-.39.679-.35 1.07l1.915 18.451c.58.274 2.103.81 5.197.81 3.072 0 4.6-.53 5.197-.814l1.915-18.447a1.389 1.389 0 0 0-1.38-1.528H71.676c-.394 0-.766.168-1.029.458Zm3.393 17.945-1.13-11.959c2.636-.12 5.602.555 8.019.605.37.008.748-.019 1.125-.038l-1.073 11.392s-1.794.645-3.776.645c-1.977 0-3.165-.645-3.165-.645Z" fill="#d1dfec" fill-rule="evenodd" data-name="Cup"/></svg>