<svg xmlns="http://www.w3.org/2000/svg" width="14.991" height="18.483" viewBox="0 0 14.991 18.483"><g transform="translate(0)"><path d="M3.334,18.483A3.334,3.334,0,0,1,0,15.149V4.977A3.333,3.333,0,0,1,3.17,1.65,1.93,1.93,0,0,1,5.072,0h5.189a1.931,1.931,0,0,1,1.91,1.684,3.333,3.333,0,0,1,2.82,3.293V15.149a3.334,3.334,0,0,1-3.334,3.334ZM1.369,4.977V15.149a1.971,1.971,0,0,0,1.964,1.964h8.324a1.971,1.971,0,0,0,1.964-1.964V4.977a1.964,1.964,0,0,0-1.5-1.91,1.924,1.924,0,0,1-1.862,1.452H5.072A1.923,1.923,0,0,1,3.2,3.019,1.965,1.965,0,0,0,1.369,4.977ZM4.518,1.924v.671a.555.555,0,0,0,.555.555h5.189a.555.555,0,0,0,.555-.555V1.924a.554.554,0,0,0-.555-.555H5.072A.555.555,0,0,0,4.518,1.924Zm7.647.931a.065.065,0,0,0,.007-.03A.065.065,0,0,1,12.164,2.855ZM3.149,2.7c0,.007.007.014.007.021A.056.056,0,0,0,3.149,2.7ZM3.56,14.65a.685.685,0,0,1,0-1.369H11.5a.685.685,0,1,1,0,1.369Zm0-3.149a.685.685,0,0,1,0-1.369H11.5a.685.685,0,1,1,0,1.369Zm0-3.149a.685.685,0,0,1,0-1.369H11.5a.685.685,0,1,1,0,1.369Z"/></g></svg>