<svg width="20" height="20" viewBox="0 0 20 20" fill="none" xmlns="http://www.w3.org/2000/svg">
<rect width="19.9274" height="20" rx="9.96371" fill="#F0F6FE"/>
<path d="M7.77785 16C7.13262 15.9994 6.51406 15.777 6.05808 15.3818C5.60209 14.9866 5.34596 14.4508 5.34596 13.8922V8.6446C4.92338 8.55078 4.5549 8.32664 4.30968 8.01427C4.06447 7.70189 3.95939 7.32277 4.01418 6.94808C4.06898 6.57338 4.27986 6.22889 4.60726 5.97928C4.93465 5.72966 5.35603 5.59209 5.79228 5.5924H7.34262C7.40655 5.15295 7.65341 4.74877 8.03693 4.45561C8.42045 4.16246 8.9143 4.00047 9.42591 4H10.5521C11.063 4.00135 11.5558 4.16373 11.9385 4.4568C12.3211 4.74987 12.5674 5.15356 12.6312 5.5924H14.1344C14.5708 5.59195 14.9922 5.72941 15.3198 5.97898C15.6473 6.22854 15.8583 6.57304 15.9132 6.94778C15.9681 7.32252 15.863 7.70171 15.6178 8.01414C15.3726 8.32658 15.0041 8.55077 14.5815 8.6446V13.8916C14.5818 14.4504 14.3258 14.9864 13.8698 15.3818C13.4137 15.7771 12.795 15.9995 12.1496 16H7.77785ZM6.28781 13.8922C6.28781 14.2345 6.44473 14.5628 6.7241 14.805C7.00348 15.0472 7.38247 15.1835 7.77785 15.184H12.1496C12.3457 15.1841 12.5399 15.1507 12.7211 15.0858C12.9023 15.0209 13.0669 14.9257 13.2056 14.8057C13.3443 14.6857 13.4543 14.5432 13.5294 14.3863C13.6044 14.2295 13.6431 14.0614 13.6431 13.8916V8.7754H6.28781V13.8922ZM4.94607 7.1434C4.94589 7.33792 5.03478 7.52457 5.19326 7.66245C5.35175 7.80034 5.5669 7.87821 5.79159 7.879H14.1379C14.359 7.87353 14.5688 7.79367 14.723 7.65637C14.8771 7.51907 14.9633 7.33516 14.9633 7.1437C14.9633 6.95224 14.8771 6.76833 14.723 6.63103C14.5688 6.49373 14.359 6.41387 14.1379 6.4084H5.79159C5.56703 6.40919 5.35197 6.48698 5.19351 6.62473C5.03504 6.76249 4.94607 6.94898 4.94607 7.1434ZM8.29763 5.5924H11.6797C11.6199 5.37224 11.4761 5.17598 11.2714 5.0354C11.0668 4.89482 10.8133 4.81815 10.5521 4.8178H9.42591C9.16449 4.8178 8.91075 4.89433 8.70592 5.03495C8.50109 5.17558 8.3572 5.37203 8.29763 5.5924ZM11.4738 13.84V9.5932C11.4714 9.53834 11.4818 9.48363 11.5044 9.43233C11.5269 9.38103 11.5612 9.3342 11.6052 9.29464C11.6492 9.25509 11.7019 9.22362 11.7603 9.20213C11.8186 9.18063 11.8814 9.16956 11.9448 9.16956C12.0082 9.16956 12.0709 9.18063 12.1293 9.20213C12.1876 9.22362 12.2404 9.25509 12.2843 9.29464C12.3283 9.3342 12.3626 9.38103 12.3852 9.43233C12.4077 9.48363 12.4181 9.53834 12.4157 9.5932V13.84C12.411 13.9454 12.3594 14.0452 12.2716 14.1183C12.1838 14.1915 12.0666 14.2324 11.9448 14.2324C11.8229 14.2324 11.7058 14.1915 11.618 14.1183C11.5302 14.0452 11.4785 13.9454 11.4738 13.84ZM9.39472 13.84V9.5932C9.39229 9.53834 9.40267 9.48363 9.42524 9.43233C9.44781 9.38103 9.48211 9.3342 9.52608 9.29464C9.57004 9.25509 9.62278 9.22362 9.68113 9.20213C9.73948 9.18063 9.80223 9.16956 9.86564 9.16956C9.92905 9.16956 9.99181 9.18063 10.0502 9.20213C10.1085 9.22362 10.1612 9.25509 10.2052 9.29464C10.2492 9.3342 10.2835 9.38103 10.306 9.43233C10.3286 9.48363 10.339 9.53834 10.3366 9.5932V13.84C10.3319 13.9454 10.2802 14.0452 10.1924 14.1183C10.1046 14.1915 9.9875 14.2324 9.86564 14.2324C9.74378 14.2324 9.62666 14.1915 9.53886 14.1183C9.45105 14.0452 9.39939 13.9454 9.39472 13.84ZM7.32737 13.84V9.5932C7.32494 9.53834 7.33532 9.48363 7.35789 9.43233C7.38046 9.38103 7.41476 9.3342 7.45873 9.29464C7.5027 9.25509 7.55543 9.22362 7.61378 9.20213C7.67213 9.18063 7.73488 9.16956 7.79829 9.16956C7.8617 9.16956 7.92446 9.18063 7.98281 9.20213C8.04115 9.22362 8.09389 9.25509 8.13786 9.29464C8.18183 9.3342 8.21613 9.38103 8.2387 9.43233C8.26127 9.48363 8.27165 9.53834 8.26922 9.5932V13.84C8.26454 13.9454 8.21289 14.0452 8.12508 14.1183C8.03728 14.1915 7.92015 14.2324 7.79829 14.2324C7.67643 14.2324 7.55931 14.1915 7.47151 14.1183C7.3837 14.0452 7.33204 13.9454 7.32737 13.84Z" fill="#F86060"/>
</svg>
