<svg width="21" height="24" viewBox="0 0 21 24"   xmlns="http://www.w3.org/2000/svg">
<g clip-path="url(#clip0_620_952)">
<path d="M6.80002 23.4287C5.73601 23.4275 4.71598 23.0039 3.96404 22.2511C3.2121 21.4983 2.78973 20.4778 2.78973 19.4138V9.41839C2.09289 9.23968 1.48524 8.81275 1.08087 8.21775C0.676502 7.62276 0.503229 6.90062 0.593582 6.18692C0.683934 5.47322 1.0317 4.81704 1.57158 4.34158C2.11147 3.86613 2.80634 3.60409 3.52573 3.60468H6.08231C6.18773 2.76762 6.59481 1.99775 7.22725 1.43937C7.85969 0.880989 8.67407 0.572431 9.51773 0.571533L11.3749 0.571533C12.2174 0.574097 13.0301 0.883405 13.6611 1.44163C14.2921 1.99986 14.6982 2.76879 14.8034 3.60468H17.2823C18.0018 3.60381 18.6969 3.86565 19.237 4.34102C19.7771 4.81638 20.125 5.47257 20.2155 6.18635C20.306 6.90013 20.1328 7.6224 19.7285 8.21752C19.3241 8.81264 18.7164 9.23966 18.0194 9.41839V19.4127C18.0201 20.477 17.5979 21.498 16.8459 22.2511C16.0938 23.0042 15.0735 23.4278 14.0092 23.4287H6.80002ZM4.34288 19.4138C4.34288 20.0658 4.60164 20.6911 5.06235 21.1525C5.52305 21.6138 6.14803 21.8735 6.80002 21.8744H14.0092C14.3325 21.8745 14.6528 21.811 14.9516 21.6873C15.2504 21.5637 15.5219 21.3824 15.7506 21.1538C15.9793 20.9252 16.1607 20.6537 16.2845 20.355C16.4083 20.0563 16.472 19.7361 16.472 19.4127V9.66753H4.34288V19.4138ZM2.13031 6.55896C2.13 6.92947 2.27658 7.285 2.53793 7.54763C2.79928 7.81027 3.15408 7.95859 3.52459 7.96011H17.288C17.6525 7.94969 17.9987 7.79756 18.2528 7.53604C18.507 7.27452 18.6491 6.92421 18.6491 6.55953C18.6491 6.19486 18.507 5.84455 18.2528 5.58302C17.9987 5.3215 17.6525 5.16938 17.288 5.15896H3.52459C3.15428 5.16047 2.79965 5.30864 2.53833 5.57103C2.27702 5.83341 2.1303 6.18865 2.13031 6.55896ZM7.65716 3.60468H13.2343C13.1357 3.18532 12.8985 2.81149 12.5611 2.54372C12.2236 2.27596 11.8057 2.12992 11.3749 2.12925H9.51773C9.08664 2.12925 8.66822 2.27502 8.33045 2.54288C7.99267 2.81073 7.75539 3.18493 7.65716 3.60468ZM12.8949 19.3144V11.2252C12.8909 11.1208 12.908 11.0165 12.9452 10.9188C12.9824 10.8211 13.039 10.7319 13.1115 10.6566C13.184 10.5812 13.271 10.5213 13.3672 10.4803C13.4634 10.4394 13.5669 10.4183 13.6714 10.4183C13.776 10.4183 13.8795 10.4394 13.9757 10.4803C14.0719 10.5213 14.1589 10.5812 14.2314 10.6566C14.3039 10.7319 14.3605 10.8211 14.3977 10.9188C14.4349 11.0165 14.452 11.1208 14.448 11.2252V19.3144C14.4403 19.5152 14.3551 19.7052 14.2103 19.8446C14.0655 19.9839 13.8724 20.0617 13.6714 20.0617C13.4705 20.0617 13.2774 19.9839 13.1326 19.8446C12.9878 19.7052 12.9026 19.5152 12.8949 19.3144ZM9.4663 19.3144V11.2252C9.4623 11.1208 9.47941 11.0165 9.51663 10.9188C9.55385 10.8211 9.61041 10.7319 9.68292 10.6566C9.75542 10.5812 9.84239 10.5213 9.93861 10.4803C10.0348 10.4394 10.1383 10.4183 10.2429 10.4183C10.3474 10.4183 10.4509 10.4394 10.5471 10.4803C10.6434 10.5213 10.7303 10.5812 10.8028 10.6566C10.8753 10.7319 10.9319 10.8211 10.9691 10.9188C11.0063 11.0165 11.0235 11.1208 11.0194 11.2252V19.3144C11.0117 19.5152 10.9266 19.7052 10.7818 19.8446C10.637 19.9839 10.4438 20.0617 10.2429 20.0617C10.0419 20.0617 9.84878 19.9839 9.70399 19.8446C9.5592 19.7052 9.47401 19.5152 9.4663 19.3144ZM6.05716 19.3144V11.2252C6.05315 11.1208 6.07027 11.0165 6.10749 10.9188C6.14471 10.8211 6.20127 10.7319 6.27378 10.6566C6.34628 10.5812 6.43325 10.5213 6.52946 10.4803C6.62568 10.4394 6.72917 10.4183 6.83373 10.4183C6.9383 10.4183 7.04179 10.4394 7.138 10.4803C7.23422 10.5213 7.32119 10.5812 7.39369 10.6566C7.4662 10.7319 7.52276 10.8211 7.55998 10.9188C7.5972 11.0165 7.61431 11.1208 7.6103 11.2252V19.3144C7.6026 19.5152 7.51741 19.7052 7.37262 19.8446C7.22783 19.9839 7.03469 20.0617 6.83373 20.0617C6.63278 20.0617 6.43964 19.9839 6.29485 19.8446C6.15005 19.7052 6.06487 19.5152 6.05716 19.3144Z"  />
</g>
<defs>
<clipPath id="clip0_620_952">
<rect width="20.8149" height="24"  />
</clipPath>
</defs>
</svg>
