<svg xmlns="http://www.w3.org/2000/svg" width="15.446" height="18.269" viewBox="0 0 15.446 18.269"><path d="M4.216,18.269a2.892,2.892,0,0,1-2.9-2.874V5.526H.391A.389.389,0,0,1,0,5.138V2.718A.39.39,0,0,1,.391,2.33H4.846V.388A.39.39,0,0,1,5.236,0h4.973A.39.39,0,0,1,10.6.388V2.33h4.454a.392.392,0,0,1,.391.388V5.142a.388.388,0,0,1-.391.388h-.926v9.865a2.89,2.89,0,0,1-2.9,2.874ZM2.1,15.395a2.107,2.107,0,0,0,2.114,2.1H11.23a2.108,2.108,0,0,0,2.114-2.1V5.529H2.1ZM.786,4.75H14.663V3.11H.786ZM5.631,2.334H9.819V.779H5.631ZM10.79,15.122V7.9a.391.391,0,0,1,.783,0v7.222a.391.391,0,0,1-.392.388A.386.386,0,0,1,10.79,15.122Zm-3.457,0V7.9a.391.391,0,0,1,.781,0v7.222a.391.391,0,0,1-.781,0Zm-3.457,0V7.9a.391.391,0,0,1,.781,0v7.222a.391.391,0,0,1-.781,0Z"  /></svg>