<svg viewBox="0 0 10 6" fill="none" xmlns="http://www.w3.org/2000/svg">
<path d="M10 0.468442C9.99982 0.530532 9.98701 0.591927 9.96236 0.648841C9.93772 0.705755 9.90176 0.756981 9.8567 0.799361L5.34609 5.11189C5.25206 5.20002 5.12837 5.24902 4.99991 5.24902C4.87145 5.24902 4.74776 5.20002 4.65372 5.11189L0.14364 0.799361C0.0983375 0.757099 0.0621925 0.705866 0.0374749 0.648876C0.0127572 0.591886 0 0.530367 0 0.468178C0 0.405988 0.0127572 0.34447 0.0374749 0.287479C0.0621925 0.230489 0.0983375 0.179255 0.14364 0.136993C0.237672 0.0488558 0.361364 -0.000143051 0.489823 -0.000143051C0.618281 -0.000143051 0.741973 0.0488558 0.836005 0.136993L5.00017 4.11913L9.16433 0.136993C9.25842 0.0489712 9.38209 4.95911e-05 9.51051 4.95911e-05C9.63894 4.95911e-05 9.76261 0.0489712 9.8567 0.136993C9.9018 0.179454 9.93778 0.23077 9.96243 0.287776C9.98707 0.344781 9.99986 0.406267 10 0.468442Z"/>
</svg>
