<svg xmlns="http://www.w3.org/2000/svg" width="14.179" height="20.231" viewBox="13 10 14.179 20.231"><path d="M24.393 15.642c-1.434-2.368-3.03-4.417-3.853-5.428a.58.58 0 0 0-.915.018c-.828 1.018-2.413 3.057-3.839 5.41-1.848 3.052-2.786 5.575-2.786 7.5 0 3.909 3.18 7.089 7.09 7.089 3.909 0 7.089-3.18 7.089-7.09 0-1.925-.937-4.448-2.786-7.5Zm-3.33 11.978c-.414.106-.844.16-1.278.16-2.648 0-4.803-2.002-4.803-4.463 0-.594.157-1.288.466-2.062.052-.131.2-.206.347-.174a.28.28 0 0 1 .23.298 4.49 4.49 0 0 0-.027.482c0 2.677 2.157 4.92 5.018 5.215a.288.288 0 0 1 .265.254.28.28 0 0 1-.218.29Z" fill="#589cfe" fill-rule="evenodd" data-name="Droped"/></svg>