<svg width="27" height="15" viewBox="0 0 27 15" fill="none" xmlns="http://www.w3.org/2000/svg">
<path d="M24.6329 11.4351L24.6161 10.0039L25.1677 10.0139C25.6607 10.0227 26.1308 9.78844 26.4744 9.36254C26.8179 8.93663 27.007 8.354 26.9998 7.74281C26.9927 7.13162 26.7899 6.54193 26.4362 6.10349C26.0825 5.66504 25.6068 5.41373 25.1138 5.40486L24.5622 5.39491L24.5455 3.96378C24.5381 3.38233 24.345 2.82154 24.0086 2.40443C23.6721 1.98732 23.2197 1.74796 22.7506 1.73886L21.6982 1.72001C21.5176 1.71662 21.3385 1.74767 21.1672 1.81207C21.0517 1.3587 20.823 0.959044 20.5145 0.671974C20.206 0.384905 19.8342 0.225597 19.4537 0.217514L18.4013 0.198519C17.9324 0.191141 17.4856 0.414453 17.1588 0.819543C16.832 1.22463 16.6519 1.77848 16.6578 2.35978L16.6911 5.20028L10.2538 5.08446L10.2206 2.24397C10.2129 1.66265 10.0198 1.1021 9.68335 0.685094C9.34695 0.268087 8.89475 0.0286116 8.4258 0.0191159L7.37327 0.000155188C6.99285 -0.00544309 6.62458 0.140557 6.32271 0.416652C6.02083 0.692746 5.8013 1.08434 5.69645 1.53376C5.52348 1.46326 5.34358 1.42577 5.16302 1.42259L4.11075 1.40359C3.64182 1.39623 3.19503 1.61955 2.86824 2.02463C2.54145 2.42972 2.3613 2.98356 2.36724 3.56486L2.38402 4.99599L1.83239 4.98607C1.33932 4.97719 0.869278 5.21149 0.525675 5.6374C0.182071 6.06332 -0.00694903 6.64598 0.000195405 7.25719C0.00733984 7.86841 0.210065 8.45811 0.563772 8.89658C0.917479 9.33505 1.39319 9.58637 1.88627 9.59524L2.43784 9.60516L2.45458 11.0363C2.46193 11.6177 2.65502 12.1785 2.9915 12.5956C3.32799 13.0127 3.78038 13.2521 4.24945 13.2612L5.30188 13.28C5.48246 13.2834 5.66157 13.2523 5.83297 13.188C5.94837 13.6414 6.17715 14.041 6.48561 14.3281C6.79407 14.6152 7.1659 14.7745 7.54633 14.7825L8.59886 14.8014C9.0678 14.8088 9.51459 14.5855 9.84138 14.1804C10.1682 13.7753 10.3483 13.2215 10.3423 12.6402L10.3091 9.79969L16.7462 9.91558L16.7795 12.7561C16.7871 13.3374 16.9803 13.8979 17.3167 14.315C17.6531 14.732 18.1053 14.9714 18.5743 14.9809L19.6268 14.9998C20.0072 15.0055 20.3755 14.8595 20.6774 14.5834C20.9792 14.3073 21.1987 13.9157 21.3036 13.4663C21.4765 13.5368 21.6565 13.5743 21.837 13.5775L22.8893 13.5965C23.3584 13.6043 23.8054 13.3811 24.1323 12.9759C24.4592 12.5707 24.6392 12.0166 24.6329 11.4351ZM25.1328 7.03007C25.2781 7.03289 25.4182 7.10703 25.5224 7.23622C25.6266 7.36541 25.6864 7.5391 25.6887 7.7192C25.6887 7.89849 25.6323 8.06869 25.5315 8.19367C25.4306 8.31865 25.2933 8.38856 25.1487 8.38858L24.5971 8.37863L24.5812 7.02015L25.1328 7.03007ZM1.86725 7.97C1.72192 7.9674 1.5817 7.89333 1.47744 7.7641C1.37317 7.63487 1.31341 7.46106 1.3113 7.28091C1.30918 7.10076 1.36488 6.92901 1.46615 6.80347C1.56742 6.67792 1.70596 6.60885 1.8513 6.61145L2.40289 6.62141L2.41882 7.97992L1.86725 7.97ZM5.28281 11.6548L4.23043 11.6359C4.10941 11.6318 3.9931 11.5693 3.90629 11.4617C3.81948 11.3541 3.76904 11.2099 3.76571 11.0599L3.67826 3.58854C3.67737 3.4383 3.72423 3.29538 3.8087 3.19067C3.89317 3.08597 4.00846 3.02788 4.12966 3.02898L5.18215 3.0479C5.30358 3.05035 5.42067 3.11236 5.50777 3.22033C5.59488 3.32831 5.6449 3.47345 5.64687 3.62397L5.7343 11.0953C5.73523 11.2455 5.68839 11.3885 5.6039 11.4932C5.51942 11.5979 5.40403 11.6559 5.28281 11.6548ZM8.57984 13.1765L7.52729 13.1575C7.40607 13.1543 7.28938 13.092 7.20243 12.9842C7.11548 12.8765 7.06526 12.7318 7.06263 12.5815L6.94086 2.18499C6.93998 2.03476 6.98683 1.89184 7.0713 1.78713C7.15577 1.68242 7.27106 1.62434 7.39226 1.62543L8.4449 1.64425C8.56634 1.64661 8.68347 1.70857 8.77058 1.81656C8.8577 1.92455 8.90769 2.06975 8.90959 2.22028L9.03125 12.6169C9.03287 12.7674 8.98626 12.9109 8.90163 13.0158C8.81701 13.1207 8.70128 13.1785 8.57984 13.1765ZM10.29 8.17455L10.2729 6.7097L16.7101 6.82548L16.7272 8.29033L10.29 8.17455ZM19.6078 13.3746L18.5551 13.3558C18.4337 13.3534 18.3166 13.2915 18.2295 13.1835C18.1424 13.0755 18.0924 12.9303 18.0904 12.7798L17.9688 2.38318C17.9679 2.23294 18.0148 2.09002 18.0992 1.98531C18.1837 1.88061 18.299 1.82252 18.4202 1.82362L19.4727 1.8425C19.5941 1.84488 19.7113 1.90686 19.7984 2.01485C19.8855 2.12283 19.9355 2.26801 19.9374 2.41854L20.0592 12.8151C20.0608 12.9656 20.0142 13.1091 19.9295 13.214C19.8449 13.3189 19.7292 13.3766 19.6078 13.3746ZM22.8704 11.9711L21.818 11.9523C21.6968 11.9491 21.5801 11.8868 21.4931 11.779C21.4062 11.6712 21.3559 11.5266 21.3533 11.3763L21.2657 3.90481C21.2641 3.75425 21.3107 3.61077 21.3953 3.50585C21.48 3.40094 21.5957 3.34316 21.7172 3.34521L22.7696 3.3641C22.8906 3.36823 23.0069 3.43076 23.0937 3.53836C23.1805 3.64596 23.2309 3.79013 23.2343 3.94014L23.3218 11.4115C23.3233 11.562 23.2767 11.7054 23.1921 11.8103C23.1075 11.9152 22.9918 11.973 22.8704 11.9711Z"/>
</svg>
