<svg xmlns="http://www.w3.org/2000/svg" width="15.403" height="18.989" viewBox="0 0 15.403 18.989"><path d="M1.419,17.989A1.421,1.421,0,0,1,0,16.565v-12A1.42,1.42,0,0,1,1.419,3.148H9.782A1.428,1.428,0,0,1,11.2,4.567v12a1.424,1.424,0,0,1-1.423,1.424ZM.989,4.567v12a.426.426,0,0,0,.427.426H9.782a.427.427,0,0,0,.423-.426v-12a.427.427,0,0,0-.423-.425H1.416A.425.425,0,0,0,.989,4.567Zm11.492,9.776a.5.5,0,0,1,.5-.5.427.427,0,0,0,.425-.426v-12a.429.429,0,0,0-.425-.431H4.618a.43.43,0,0,0-.425.431.5.5,0,0,1-.994,0A1.421,1.421,0,0,1,4.618,0h8.365A1.421,1.421,0,0,1,14.4,1.424v12a1.42,1.42,0,0,1-1.419,1.419A.5.5,0,0,1,12.481,14.343Z" transform="translate(0.5 0.5)"  stroke="rgba(0,0,0,0)" stroke-miterlimit="10" stroke-width="1"/></svg>