<svg width="24" height="24" viewBox="0 0 24 24" fill="none" xmlns="http://www.w3.org/2000/svg">
<path d="M6.70284 23.4287C5.07654 23.4266 3.51753 22.7806 2.36799 21.6327C1.21845 20.4847 0.572318 18.9284 0.571411 17.3055L0.571411 9.91758C0.573226 8.29527 1.21976 6.73991 2.3692 5.59266C3.51864 4.44541 5.07714 3.79994 6.70284 3.79783H10.264C10.5012 3.79783 10.7286 3.89185 10.8963 4.05921C11.064 4.22657 11.1583 4.45356 11.1583 4.69024C11.1583 4.92693 11.064 5.15392 10.8963 5.32128C10.7286 5.48864 10.5012 5.58266 10.264 5.58266H6.70284C5.55151 5.58417 4.44776 6.04125 3.63365 6.85366C2.81953 7.66607 2.36149 8.76751 2.35998 9.91644V17.3055C2.36149 18.4545 2.81953 19.5559 3.63365 20.3683C4.44776 21.1807 5.55151 21.6378 6.70284 21.6393H14.1097C15.261 21.6378 16.3648 21.1807 17.1789 20.3683C17.993 19.5559 18.451 18.4545 18.4526 17.3055V13.656C18.4526 13.4193 18.5468 13.1924 18.7145 13.025C18.8822 12.8576 19.1097 12.7636 19.3468 12.7636C19.584 12.7636 19.8115 12.8576 19.9792 13.025C20.1469 13.1924 20.2411 13.4193 20.2411 13.656V17.3055C20.2393 18.9278 19.5928 20.4832 18.4433 21.6304C17.2939 22.7777 15.7354 23.4232 14.1097 23.4253L6.70284 23.4287ZM9.67427 15.3975C9.34346 15.3969 9.02638 15.2655 8.79247 15.0321C8.55855 14.7987 8.42687 14.4822 8.42627 14.1521V12.3627C8.42594 12.1992 8.45809 12.0371 8.52086 11.886C8.58363 11.7349 8.67578 11.5977 8.79198 11.4823L19.376 0.915867C19.5419 0.749294 19.7671 0.654784 20.0024 0.652862C20.2378 0.65094 20.4645 0.741762 20.6331 0.905602L23.16 3.34962C23.2451 3.43202 23.3129 3.53047 23.3595 3.63925C23.4062 3.74803 23.4307 3.86497 23.4317 3.98329C23.4326 4.1016 23.41 4.21893 23.3651 4.32845C23.3203 4.43796 23.254 4.53749 23.1703 4.62125L12.7394 15.0314C12.6238 15.1474 12.4863 15.2394 12.3349 15.3021C12.1834 15.3647 12.0211 15.3968 11.8571 15.3964L9.67427 15.3975ZM10.2137 12.5863V13.6127H11.6297L18.7988 6.4574L17.576 5.2371L10.2137 12.5863ZM18.8423 3.9746L20.0651 5.1949L21.2571 4.00083L20.0171 2.79878L18.8423 3.9746Z" fill="#BFC9DE"/>
</svg>
