<svg xmlns="http://www.w3.org/2000/svg" width="21.011" height="20.866" viewBox="0 0 21.011 20.866"><path d="M1349.578,204.837a3.626,3.626,0,0,1-3.633-3.608V189.184a3.625,3.625,0,0,1,3.633-3.607h4.413a.741.741,0,1,1,0,1.481h-4.413a2.136,2.136,0,0,0-2.141,2.126v12.046a2.136,2.136,0,0,0,2.141,2.126h12.128a2.136,2.136,0,0,0,2.141-2.126v-4.383a.746.746,0,0,1,1.492,0v4.383a3.625,3.625,0,0,1-3.633,3.608Zm3.978-5.926a1.64,1.64,0,0,1-1.643-1.633v-2.69a1.639,1.639,0,0,1,.481-1.154l9.049-8.987a1.655,1.655,0,0,1,2.324,0l2.709,2.691a1.623,1.623,0,0,1,0,2.308l-9.048,8.986a1.636,1.636,0,0,1-1.162.479ZM1362.5,185.5l-9.048,8.986a.152.152,0,0,0-.045.106v2.69a.152.152,0,0,0,.152.151h2.709a.151.151,0,0,0,.105-.043l9.049-8.987a.147.147,0,0,0,.045-.106.144.144,0,0,0-.045-.105l-2.709-2.692a.153.153,0,0,0-.107-.043A.149.149,0,0,0,1362.5,185.5Z" transform="translate(-1345.945 -183.971)"  /></svg>