<svg width="21" height="21" viewBox="0 0 21 21" fill="none" xmlns="http://www.w3.org/2000/svg">
<path d="M5.865 20.5429C4.44199 20.541 3.07785 19.9747 2.07201 18.9681C1.06616 17.9615 0.500793 16.5969 0.5 15.1739L0.5 8.6959C0.501588 7.27341 1.0673 5.90962 2.07307 4.90368C3.07882 3.89773 4.44251 3.33176 5.865 3.3299H8.981C9.18853 3.3299 9.38756 3.41235 9.53431 3.55909C9.68106 3.70584 9.7635 3.90487 9.7635 4.1124C9.7635 4.31994 9.68106 4.51897 9.53431 4.66571C9.38756 4.81246 9.18853 4.8949 8.981 4.8949H5.865C4.85758 4.89623 3.89181 5.29701 3.17946 6.00936C2.4671 6.72171 2.06632 7.68749 2.065 8.6949V15.1739C2.06632 16.1813 2.4671 17.1471 3.17946 17.8594C3.89181 18.5718 4.85758 18.9726 5.865 18.9739H12.346C13.3534 18.9726 14.3192 18.5718 15.0315 17.8594C15.7439 17.1471 16.1447 16.1813 16.146 15.1739V11.9739C16.146 11.7664 16.2284 11.5673 16.3752 11.4206C16.5219 11.2738 16.721 11.1914 16.9285 11.1914C17.136 11.1914 17.3351 11.2738 17.4818 11.4206C17.6286 11.5673 17.711 11.7664 17.711 11.9739V15.1739C17.7094 16.5964 17.1437 17.9602 16.1379 18.9661C15.1322 19.9721 13.7685 20.5381 12.346 20.5399L5.865 20.5429ZM8.465 13.5009C8.17555 13.5004 7.8981 13.3852 7.69342 13.1805C7.48875 12.9758 7.37353 12.6984 7.373 12.4089V10.8399C7.37271 10.6965 7.40085 10.5544 7.45577 10.4219C7.51069 10.2894 7.59132 10.1691 7.693 10.0679L16.954 0.802903C17.0992 0.656846 17.2962 0.573977 17.5021 0.572292C17.7081 0.570607 17.9064 0.650242 18.054 0.793903L20.265 2.9369C20.3395 3.00915 20.3988 3.09547 20.4396 3.19085C20.4804 3.28624 20.5019 3.38878 20.5027 3.49252C20.5035 3.59626 20.4838 3.69914 20.4445 3.79517C20.4052 3.8912 20.3473 3.97846 20.274 4.0519L11.147 13.1799C11.0459 13.2816 10.9256 13.3623 10.793 13.4172C10.6605 13.4721 10.5184 13.5002 10.375 13.4999L8.465 13.5009ZM8.937 11.0359V11.9359H10.176L16.449 5.6619L15.379 4.5919L8.937 11.0359ZM16.487 3.4849L17.557 4.5549L18.6 3.5079L17.515 2.4539L16.487 3.4849Z" fill="#45535C"/>
</svg>
