<svg xmlns="http://www.w3.org/2000/svg" width="4.41" height="25.535" viewBox="0 0 4.41 25.535"><path d="M15463-869.669a2.206,2.206,0,0,1,2.205-2.2,2.2,2.2,0,0,1,2.205,2.2,2.206,2.206,0,0,1-2.205,2.2A2.209,2.209,0,0,1,15463-869.669Zm0-10.562a2.206,2.206,0,0,1,2.205-2.2,2.2,2.2,0,0,1,2.205,2.2,2.2,2.2,0,0,1-2.205,2.2A2.205,2.205,0,0,1,15463-880.231Zm0-10.566a2.205,2.205,0,0,1,2.205-2.2,2.2,2.2,0,0,1,2.205,2.2,2.2,2.2,0,0,1-2.205,2.2A2.206,2.206,0,0,1,15463-890.8Z" transform="translate(-15462.998 892.998)" /></svg>