<svg xmlns="http://www.w3.org/2000/svg" viewBox="0 0 295.4 295.4">
    <path d="M245.4 122.4c-1.5-7.6-6.8-14.1-14.6-18a36.3 36.3 0 00-18.2-3.7h-.2l-36 2.8a7.7 7.7 0 01-5.4-1.5l31.2-82.3a13.8 13.8 0 00-.3-10.9 15.5 15.5 0 00-10-7.9 16.6 16.6 0 00-16.7 5L55.4 148.5a23 23 0 00-5.4 19.6c1.4 7.6 6.8 14.1 14.6 18a35.8 35.8 0 0018.4 3.7h.2l35.6-3a7.9 7.9 0 015.5 1.6L91 277a12.1 12.1 0 00.3 10.2 13.8 13.8 0 009.1 7.3 17.4 17.4 0 003.9.5 14.3 14.3 0 0011.2-5.1L240 142a23 23 0 005.4-19.6z" fill="#589cfe" data-name="Energy Selected"/>
</svg>
