<svg width="19" height="27" viewBox="0 0 19 27" fill="none" xmlns="http://www.w3.org/2000/svg">
<path d="M5.50327 26.933C5.38324 26.9311 5.26382 26.9157 5.14727 26.887C4.96828 26.8433 4.80103 26.761 4.65729 26.6457C4.51355 26.5305 4.3968 26.3852 4.31527 26.22C4.24318 26.076 4.20342 25.9179 4.19875 25.757C4.19409 25.596 4.22464 25.4359 4.28827 25.288L7.33226 17.188C7.18957 17.0788 7.01129 17.0267 6.83226 17.042L3.57827 17.316H3.56026C2.97951 17.3549 2.39889 17.2382 1.87827 16.978C1.54331 16.8264 1.24832 16.5988 1.01674 16.3132C0.785168 16.0277 0.623389 15.692 0.544266 15.333C0.483711 15.0165 0.49677 14.6904 0.582432 14.3799C0.668094 14.0693 0.82406 13.7826 1.03827 13.542L11.9833 0.508969C12.1705 0.298261 12.4127 0.143889 12.6828 0.0631673C12.9529 -0.0175543 13.2401 -0.0214322 13.5123 0.0519685C13.7071 0.10068 13.8893 0.190241 14.0469 0.314715C14.2045 0.439188 14.3338 0.595731 14.4263 0.773969C14.4987 0.929995 14.5385 1.0992 14.5432 1.27118C14.5478 1.44315 14.5172 1.61426 14.4533 1.77397L11.5993 9.29297C11.7407 9.39946 11.9172 9.44841 12.0933 9.42997L15.3833 9.17397H15.4013C15.9759 9.1404 16.5493 9.25688 17.0653 9.51197C17.3992 9.66503 17.6933 9.8931 17.9247 10.1784C18.1561 10.4637 18.3185 10.7986 18.3993 11.157C18.4598 11.4734 18.4468 11.7995 18.3611 12.1101C18.2754 12.4206 18.1195 12.7073 17.9053 12.948L6.52727 26.467C6.40205 26.616 6.24514 26.7352 6.06797 26.8158C5.89081 26.8964 5.69788 26.9364 5.50327 26.933ZM9.04927 17.811L7.13026 22.92L16.5123 11.767C16.6313 11.63 16.6123 11.548 16.6033 11.52C16.5278 11.3624 16.4027 11.2338 16.2473 11.154C16.018 11.0402 15.7625 10.9898 15.5073 11.008L12.2263 11.264H12.2123C11.6533 11.3374 11.0876 11.1935 10.6317 10.8619C10.1758 10.5303 9.86457 10.0363 9.76226 9.48197C9.73706 9.20472 9.77785 8.92544 9.88127 8.66697L11.8193 3.56697L2.43227 14.722H2.42327C2.30427 14.859 2.32326 14.941 2.33226 14.969C2.40777 15.1266 2.53281 15.2551 2.68827 15.335C2.92076 15.4486 3.17911 15.499 3.43727 15.481L6.68227 15.216H6.70026C7.25801 15.1396 7.82382 15.2799 8.28125 15.608C8.73868 15.9361 9.05291 16.4272 9.15927 16.98C9.1878 17.2618 9.15013 17.5463 9.04927 17.811Z"/>
</svg>
