<svg width="16" height="24" viewBox="0 0 16 24" fill="none" xmlns="http://www.w3.org/2000/svg">
<path d="M4.45864 23.9998C4.35154 23.9982 4.24497 23.9844 4.14096 23.9588C3.98124 23.9199 3.832 23.8466 3.70373 23.7439C3.57546 23.6412 3.47127 23.5117 3.39851 23.3645C3.33419 23.2361 3.2987 23.0953 3.29454 22.9519C3.29038 22.8084 3.31764 22.6658 3.37442 22.534L6.09078 15.3162C5.96345 15.2189 5.80436 15.1725 5.6446 15.1861L2.74084 15.4303H2.72478C2.20653 15.465 1.6884 15.361 1.22382 15.1291C0.92491 14.994 0.661674 14.7912 0.455024 14.5367C0.248374 14.2823 0.104008 13.9832 0.0334013 13.6633C-0.020636 13.3813 -0.00898221 13.0907 0.0674594 12.814C0.143901 12.5372 0.28308 12.2818 0.47423 12.0673L10.2412 0.453859C10.4083 0.266102 10.6244 0.128543 10.8654 0.0566136C11.1064 -0.015316 11.3627 -0.0187715 11.6056 0.0466345C11.7794 0.0900409 11.9421 0.169847 12.0827 0.280763C12.2233 0.391679 12.3387 0.531172 12.4212 0.689996C12.4859 0.829028 12.5214 0.979805 12.5255 1.13305C12.5297 1.28629 12.5024 1.43876 12.4453 1.58108L9.89851 8.28112C10.0247 8.37602 10.1822 8.41964 10.3393 8.4032L13.2752 8.17509H13.2913C13.804 8.14517 14.3158 8.24897 14.7762 8.47627C15.0742 8.61266 15.3366 8.81589 15.5431 9.07013C15.7496 9.32438 15.8945 9.62278 15.9666 9.9421C16.0206 10.2241 16.009 10.5147 15.9325 10.7914C15.8561 11.0681 15.7169 11.3236 15.5258 11.538L5.37243 23.5846C5.26069 23.7174 5.12066 23.8236 4.96257 23.8954C4.80448 23.9672 4.63231 24.0029 4.45864 23.9998ZM7.62298 15.8714L5.91052 20.4239L14.2827 10.4857C14.3889 10.3636 14.3719 10.2905 14.3639 10.2656C14.2965 10.1251 14.185 10.0106 14.0462 9.93943C13.8417 9.83804 13.6137 9.79312 13.3859 9.80933L10.458 10.0374H10.4455C9.94676 10.1029 9.44188 9.97461 9.03506 9.67914C8.62824 9.38367 8.35052 8.94352 8.25923 8.44954C8.23674 8.20249 8.27313 7.95363 8.36543 7.72331L10.0948 3.17879L1.71819 13.1188H1.71016C1.60397 13.2409 1.62092 13.314 1.62895 13.3389C1.69633 13.4793 1.80791 13.5939 1.94664 13.665C2.1541 13.7663 2.38464 13.8112 2.61502 13.7951L5.51075 13.559H5.52681C6.02452 13.4909 6.52943 13.6159 6.93762 13.9083C7.34582 14.2007 7.62623 14.6383 7.72114 15.1309C7.74659 15.382 7.71298 15.6355 7.62298 15.8714Z" fill="#BEC8DD"/>
</svg>
