<svg xmlns="http://www.w3.org/2000/svg" width="130" height="130" viewBox="0 0 130 130"><circle cx="65" cy="65" r="65" fill="#ecf3fe"/><g transform="translate(-1562.422 -1084.543)"><path d="M1664.033,1835.685v38.241c0,.047,0,.093,0,.142,0,.022,0,.044,0,.067s0,.042,0,.064,0,.018,0,.026,0,.029-.007.042c0,.033-.009.066-.013.1s-.011.064-.018.1a.32.32,0,0,1-.011.047.1.1,0,0,1-.007.036.356.356,0,0,1-.011.047c-.007.029-.016.058-.022.084a.041.041,0,0,1,0,.015c-.015.049-.029.1-.047.144a.008.008,0,0,1,0,.007c-.009.024-.018.049-.027.071s-.018.042-.024.062a.115.115,0,0,0-.007.018c-.027.06-.053.122-.084.179-.009.018-.02.04-.031.06l-.033.058c-.011.018-.02.038-.033.055-.022.038-.046.075-.071.111s-.031.044-.044.066c-.038.049-.073.1-.113.144s-.058.069-.087.1-.06.064-.091.1c-.013.016-.029.029-.044.044a.331.331,0,0,1-.042.037c-.016.016-.033.031-.051.047l-.015.013c-.042.038-.086.073-.131.106a.056.056,0,0,0-.013.011c-.035.024-.071.051-.109.075-.013.009-.024.018-.035.025s-.04.026-.06.038a.358.358,0,0,1-.049.029.568.568,0,0,1-.053.031,2.484,2.484,0,0,1-.39.179l-.024.009-.029.009c-.031.011-.062.022-.095.031-.056.018-.111.031-.166.044l-.086.02a.5.5,0,0,1-.055.009l-.069.013s-.007,0-.009,0l-.056.007-.026,0-.049.007-.029,0-.1.006c-.049,0-.1,0-.146,0h-67.562c-.049,0-.1,0-.146,0l-.1-.006a1.012,1.012,0,0,1-.113-.013.544.544,0,0,1-.064-.009c-.053-.007-.106-.018-.157-.029a.292.292,0,0,1-.044-.011c-.055-.013-.111-.026-.166-.044l-.1-.031a2.97,2.97,0,0,1-.43-.188l-.1-.06c-.038-.022-.075-.046-.111-.071a2.759,2.759,0,0,1-.583-.529,1.844,1.844,0,0,1-.113-.146,2.624,2.624,0,0,1-.3-.545c-.018-.044-.035-.093-.053-.14s-.031-.1-.046-.144-.027-.1-.038-.146-.02-.091-.029-.137c0-.007,0-.016,0-.022-.007-.044-.013-.091-.018-.135a.017.017,0,0,1,0-.011c0-.035-.007-.069-.009-.1-.007-.069-.009-.137-.009-.208v-38.241a2.727,2.727,0,0,1,1-2.111l.018-.013.142-.108a2.714,2.714,0,0,1,1.58-.5H1661.3a1.864,1.864,0,0,1,.195.009.094.094,0,0,1,.035,0c.062,0,.126.011.186.02l.042.007c.053.009.106.02.157.033a.259.259,0,0,1,.04.009c.064.015.126.033.188.053s.117.04.173.062a2.238,2.238,0,0,1,.233.109,1.376,1.376,0,0,1,.124.066,1.792,1.792,0,0,1,.2.133s0,0,0,0l.142.108.018.013c.038.029.071.06.1.091s.051.047.075.071a2.379,2.379,0,0,1,.213.235c.031.038.06.075.086.113a2.573,2.573,0,0,1,.29.51c.022.049.042.1.062.151,0,0,0,0,0,.007a2.476,2.476,0,0,1,.077.25c.011.042.02.082.029.124s.013.064.018.1.011.067.016.1a1.1,1.1,0,0,1,.013.12.79.79,0,0,1,.007.1C1664.031,1835.59,1664.033,1835.638,1664.033,1835.685Z" transform="translate(0 -692.136)" fill="#dfe5ea"/><path d="M1668.3,1142.614H1595.59a2.735,2.735,0,0,1,.833-1.176.135.135,0,0,1,.018-.013l.142-.108,33.684-25.57a2.768,2.768,0,0,1,3.352,0l33.682,25.57s0,0,0,0l.142.108.018.013a1.351,1.351,0,0,1,.1.091c.026.022.051.047.075.071a2.4,2.4,0,0,1,.213.235c.031.038.06.075.086.113a2.569,2.569,0,0,1,.29.51c.022.049.042.1.062.151C1668.293,1142.609,1668.3,1142.612,1668.3,1142.614Z" transform="translate(-4.426)" fill="#5b97ef"/><rect width="63.448" height="62.467" rx="6" transform="translate(1595.342 1120.068)" fill="#fff"/><rect width="48.996" height="2.88" rx="1.44" transform="translate(1602.568 1131.011)" fill="#e4ecf9"/><path d="M1.44,0H47.556A1.44,1.44,0,0,1,49,1.44v0a1.44,1.44,0,0,1-1.44,1.44H1.44A1.44,1.44,0,0,1,0,1.44v0A1.44,1.44,0,0,1,1.44,0Z" transform="translate(1602.568 1137.163)" fill="#e4ecf9"/><path d="M1.44,0H47.556A1.44,1.44,0,0,1,49,1.44v0a1.44,1.44,0,0,1-1.44,1.44H1.44A1.44,1.44,0,0,1,0,1.44v0A1.44,1.44,0,0,1,1.44,0Z" transform="translate(1602.568 1143.316)" fill="#e4ecf9"/><path d="M1.44,0H47.556A1.44,1.44,0,0,1,49,1.44v0a1.44,1.44,0,0,1-1.44,1.44H1.44A1.44,1.44,0,0,1,0,1.44v0A1.44,1.44,0,0,1,1.44,0Z" transform="translate(1602.568 1149.469)" fill="#e4ecf9"/><path d="M1.44,0H47.556A1.44,1.44,0,0,1,49,1.44v0a1.44,1.44,0,0,1-1.44,1.44H1.44A1.44,1.44,0,0,1,0,1.44v0A1.44,1.44,0,0,1,1.44,0Z" transform="translate(1602.568 1155.621)" fill="#e4ecf9"/><path d="M1627.518,1855.831v0a1.786,1.786,0,0,1-.376.31l-33.255,20.519h-.15a2.668,2.668,0,0,1-.793-.117l-.1-.033a2.712,2.712,0,0,1-1.128-.747c-.029-.031-.058-.064-.086-.1a2.567,2.567,0,0,1-.228-.321c-.024-.038-.044-.075-.067-.113s-.042-.08-.06-.12a2.719,2.719,0,0,1-.27-1.185v-38.241a2.727,2.727,0,0,1,1-2.111l.018-.013.142-.108a2.714,2.714,0,0,1,1.58-.5h.625l2.92,1.8,26.917,16.608,1.012.625,1.932,1.192a1.786,1.786,0,0,1,.376.31v0A1.75,1.75,0,0,1,1627.518,1855.831Z" transform="translate(0 -692.136)" fill="#3b82f4"/><path d="M2637.927,1835.685v38.241c0,.047,0,.093,0,.142,0,.022,0,.044,0,.067s0,.042,0,.064,0,.018,0,.026,0,.029-.007.042c0,.033-.009.066-.013.1s-.011.064-.018.1c0,0,0,.011,0,.016a.263.263,0,0,1-.009.031.1.1,0,0,1-.007.036.321.321,0,0,1-.011.047c-.007.029-.013.055-.022.084a.041.041,0,0,1,0,.015,1.414,1.414,0,0,1-.047.144.008.008,0,0,1,0,.007c-.009.024-.015.047-.026.071s-.016.04-.024.062a.151.151,0,0,0-.007.018c-.027.06-.053.122-.084.179-.009.018-.02.04-.031.06l-.033.058c-.011.018-.02.038-.033.055-.022.038-.046.075-.071.111s-.031.044-.044.066c-.038.051-.075.1-.113.144s-.058.069-.086.1-.06.064-.091.1c-.013.016-.029.029-.044.044a.351.351,0,0,1-.042.037c-.016.016-.033.031-.051.047l-.016.013c-.042.038-.086.073-.13.106a.052.052,0,0,0-.013.011c-.036.024-.071.051-.109.075-.013.009-.024.018-.035.025s-.04.026-.06.038a.355.355,0,0,1-.049.029c-.018.011-.036.022-.053.031a2.494,2.494,0,0,1-.39.179.236.236,0,0,0-.024.009l-.029.009c-.031.011-.062.022-.1.031-.055.018-.111.031-.166.044l-.086.02a.518.518,0,0,1-.055.009l-.069.013h-.007l-.058.009-.027,0-.049.007-.029,0-.1.006c-.048,0-.1,0-.146,0h-.151l-33.255-20.519a1.726,1.726,0,0,1-.375-.31v0a1.745,1.745,0,0,1,0-2.344v0a1.726,1.726,0,0,1,.375-.31l1.93-1.192,1.012-.625,26.919-16.608,2.92-1.8h.625a1.872,1.872,0,0,1,.2.009.094.094,0,0,1,.035,0c.062,0,.126.011.186.02l.042.007c.053.009.106.02.157.033a.259.259,0,0,1,.04.009c.064.015.126.033.188.053s.117.04.173.062a2.207,2.207,0,0,1,.232.109,1.352,1.352,0,0,1,.125.066,1.768,1.768,0,0,1,.2.133s0,0,0,0l.142.108.018.013c.038.029.071.06.1.091s.051.047.075.071a2.412,2.412,0,0,1,.213.235q.046.057.086.113a2.573,2.573,0,0,1,.29.51c.022.049.042.1.062.151,0,0,0,0,0,.007a2.478,2.478,0,0,1,.078.25c.011.042.02.082.029.124s.013.064.018.1.011.067.015.1a1.1,1.1,0,0,1,.013.12.749.749,0,0,1,.007.1C2637.925,1835.59,2637.927,1835.638,2637.927,1835.685Z" transform="translate(-973.894 -692.136)" fill="#3b82f4"/><path d="M1664.033,2334.195v.4a2.8,2.8,0,0,1-2.736,2.856h-67.562a2.8,2.8,0,0,1-2.736-2.856v-.4l34.75-22.863a3.193,3.193,0,0,1,3.531,0Z" transform="translate(0 -1152.922)" fill="#474747" opacity="0.29"/><path d="M1664.033,2364.546v.381a2.736,2.736,0,0,1-2.736,2.736h-67.562a2.736,2.736,0,0,1-2.736-2.736v-.381l34.75-21.9a3.311,3.311,0,0,1,3.531,0Z" transform="translate(0 -1183.137)" fill="#5b97ef"/><rect width="22.707" height="2.88" rx="1.44" transform="translate(1602.568 1124.858)" fill="#3b82f4"/></g></svg>