<svg xmlns="http://www.w3.org/2000/svg" width="21.255" height="11.378" viewBox="0 0 21.255 11.378"><path d="M3033.81,1148.486v-.8a1.659,1.659,0,0,0-1.638-1.674h-1.3a1.659,1.659,0,0,0-1.637,1.674v2.248h-8.72v-2.248a1.657,1.657,0,0,0-1.636-1.674h-1.3a1.659,1.659,0,0,0-1.637,1.674v.8a1.715,1.715,0,0,0-1.694,1.731v2.956a1.743,1.743,0,0,0,1.694,1.73v.8a1.666,1.666,0,0,0,1.637,1.682h1.3a1.665,1.665,0,0,0,1.636-1.682v-2.24h8.72v2.24a1.667,1.667,0,0,0,1.638,1.682h1.3a1.667,1.667,0,0,0,1.637-1.682v-.8a1.716,1.716,0,0,0,1.694-1.73v-2.956A1.745,1.745,0,0,0,3033.81,1148.486Z" transform="translate(-3014.25 -1146.01)" fill="#647f9a"/></svg>