<svg xmlns="http://www.w3.org/2000/svg" width="16.998" height="11" viewBox="0 0 16.998 11"><path d="M5184.267-6905.748a8.555,8.555,0,0,1-2.471-1.641,8.763,8.763,0,0,1-1.7-2.217.852.852,0,0,1,0-.789,8.723,8.723,0,0,1,1.723-2.239,8.573,8.573,0,0,1,2.466-1.628,9.237,9.237,0,0,1,3.7-.739,9.241,9.241,0,0,1,3.723.746,8.591,8.591,0,0,1,2.471,1.643,8.637,8.637,0,0,1,1.7,2.217.855.855,0,0,1,0,.789,8.748,8.748,0,0,1-1.723,2.239,8.627,8.627,0,0,1-2.468,1.628,9.231,9.231,0,0,1-3.7.739A9.212,9.212,0,0,1,5184.267-6905.748Zm-.426-4.253a4.044,4.044,0,0,0,4.147,3.929,4.042,4.042,0,0,0,4.148-3.929,4.042,4.042,0,0,0-4.148-3.928A4.044,4.044,0,0,0,5183.841-6910Zm1.137,0a2.939,2.939,0,0,1,3.014-2.857A2.938,2.938,0,0,1,5191-6910a2.938,2.938,0,0,1-3.012,2.859A2.939,2.939,0,0,1,5184.979-6910Z" transform="translate(-5179.49 6915.5)" fill="#87a1bb" stroke="rgba(0,0,0,0)" stroke-miterlimit="10" stroke-width="1"/></svg>