<svg width="30" height="30" viewBox="0 0 30 30" fill="none" xmlns="http://www.w3.org/2000/svg">
<path fill-rule="evenodd" clip-rule="evenodd" d="M29.3931 15.4756C29.3925 12.6932 28.5873 9.96926 27.0728 7.62625C25.5584 5.28323 23.3981 3.41925 20.8478 2.25497C18.2975 1.09069 15.4639 0.674864 12.6824 1.05673C9.90101 1.4386 7.28824 2.60217 5.15346 4.40968C3.01868 6.2172 1.45128 8.59296 0.636813 11.2557C-0.177654 13.9185 -0.205078 16.7567 0.557788 19.4345C1.32065 22.1122 2.84185 24.5172 4.94132 26.3649C7.04078 28.2126 9.63058 29.4255 12.4041 29.8601V19.6858H8.67212V15.4756H12.4041V12.2671C12.4041 8.61872 14.5991 6.60129 17.9541 6.60129C19.0563 6.61643 20.1559 6.71148 21.2441 6.88568V10.4687H19.3901C19.0739 10.4272 18.7524 10.4568 18.4493 10.5553C18.1463 10.6537 17.8694 10.8185 17.6394 11.0374C17.4094 11.2563 17.232 11.5237 17.1205 11.8198C17.0089 12.1158 16.9661 12.433 16.9951 12.7477V15.4795H21.0701L20.4191 19.6898H16.9941V29.8601C20.4507 29.3175 23.5986 27.5708 25.8716 24.934C28.1446 22.2972 29.3927 18.9433 29.3931 15.4756Z" fill="#1977F3"/>
</svg>
