<svg width="38" height="38" viewBox="0 0 38 38" fill="none" xmlns="http://www.w3.org/2000/svg">
<path d="M19 36.6325C28.7382 36.6325 36.6326 28.7381 36.6326 18.9998C36.6326 9.26159 28.7382 1.36719 19 1.36719C9.26172 1.36719 1.36731 9.26159 1.36731 18.9998C1.36731 28.7381 9.26172 36.6325 19 36.6325Z" fill="white"/>
<path d="M19 37C28.9411 37 37 28.9411 37 19C37 9.05888 28.9411 1 19 1C9.05888 1 1 9.05888 1 19C1 28.9411 9.05888 37 19 37Z" stroke="#45535C"/>
<path d="M20.7416 27V19.7022H23.8023L24.2615 16.8573H20.7416V15.0412C20.7416 14.2178 21.0262 13.6566 22.5039 13.6566L24.3854 13.656V11.1114C24.06 11.0776 22.9431 11 21.6431 11C18.9285 11 17.07 12.3256 17.07 14.7594V16.8573H14V19.7022H17.07V27H20.7416Z" fill="#45535C"/>
</svg>
