<svg viewBox="0 0 14 14" fill="none" xmlns="http://www.w3.org/2000/svg">
<path d="M4.375 7.58333C3.85582 7.58333 3.34831 7.42938 2.91663 7.14094C2.48495 6.8525 2.1485 6.44253 1.94982 5.96288C1.75114 5.48322 1.69915 4.95542 1.80044 4.44622C1.90172 3.93702 2.15173 3.46929 2.51884 3.10218C2.88596 2.73507 3.35369 2.48506 3.86289 2.38377C4.37209 2.28249 4.89989 2.33447 5.37954 2.53315C5.8592 2.73183 6.26917 3.06828 6.55761 3.49996C6.84605 3.93164 7 4.43916 7 4.95833C6.99923 5.65429 6.72242 6.32152 6.2303 6.81364C5.73819 7.30575 5.07096 7.58256 4.375 7.58333ZM8.75 11.6667C8.74907 10.8934 8.44149 10.1521 7.8947 9.6053C7.34792 9.05851 6.6066 8.75093 5.83333 8.75H2.91667C2.1434 8.75093 1.40208 9.05851 0.855295 9.6053C0.308514 10.1521 0.00092625 10.8934 0 11.6667L0 14H8.75V11.6667ZM10.2083 5.25C9.68916 5.25 9.18164 5.09605 8.74996 4.80761C8.31828 4.51917 7.98183 4.1092 7.78315 3.62954C7.58447 3.14989 7.53249 2.62209 7.63377 2.11289C7.73506 1.60369 7.98506 1.13596 8.35218 0.768846C8.71929 0.401733 9.18702 0.151726 9.69622 0.0504398C10.2054 -0.0508464 10.7332 0.00113738 11.2129 0.199817C11.6925 0.398497 12.1025 0.73495 12.3909 1.16663C12.6794 1.59831 12.8333 2.10583 12.8333 2.625C12.8326 3.32096 12.5558 3.98819 12.0636 4.4803C11.5715 4.97242 10.9043 5.24923 10.2083 5.25ZM11.0833 6.41667H8.16667C8.06429 6.42136 7.96224 6.43168 7.861 6.44758C7.64891 6.93835 7.33564 7.37884 6.94167 7.74025C7.79702 7.98227 8.55017 8.4965 9.08701 9.20502C9.62385 9.91354 9.91511 10.7777 9.91667 11.6667H14V9.33333C13.9991 8.56007 13.6915 7.81874 13.1447 7.27196C12.5979 6.72518 11.8566 6.41759 11.0833 6.41667Z"/>
</svg>
