<svg viewBox="0 0 24 24" fill="none" xmlns="http://www.w3.org/2000/svg">
<path d="M11.9838 0C5.35183 0 -0.0241699 4.856 -0.0241699 10.84C-0.0241699 16.96 5.82383 23.832 11.9438 24C14.8238 24.08 12.6238 20.88 14.7838 20.56C20.2798 19.744 24.0238 16.12 24.0238 10.88C24.0238 4.896 18.6078 0 11.9838 0ZM6.15983 12.16C5.88294 12.16 5.61226 12.0779 5.38203 11.9241C5.1518 11.7702 4.97236 11.5516 4.8664 11.2958C4.76044 11.0399 4.73271 10.7584 4.78673 10.4869C4.84075 10.2153 4.97409 9.96584 5.16988 9.77005C5.36567 9.57426 5.61513 9.44092 5.8867 9.3869C6.15828 9.33288 6.43977 9.36061 6.69559 9.46657C6.9514 9.57253 7.17005 9.75197 7.32389 9.9822C7.47772 10.2124 7.55983 10.4831 7.55983 10.76C7.55983 11.1313 7.41233 11.4874 7.14978 11.7499C6.88723 12.0125 6.53113 12.16 6.15983 12.16ZM12.0238 12.16C11.7469 12.16 11.4763 12.0779 11.246 11.9241C11.0158 11.7702 10.8364 11.5516 10.7304 11.2958C10.6244 11.0399 10.5967 10.7584 10.6507 10.4869C10.7048 10.2153 10.8381 9.96584 11.0339 9.77005C11.2297 9.57426 11.4791 9.44092 11.7507 9.3869C12.0223 9.33288 12.3038 9.36061 12.5596 9.46657C12.8154 9.57253 13.0341 9.75197 13.1879 9.9822C13.3417 10.2124 13.4238 10.4831 13.4238 10.76C13.4238 11.1313 13.2763 11.4874 13.0138 11.7499C12.7512 12.0125 12.3951 12.16 12.0238 12.16ZM17.8798 12.16C17.6029 12.16 17.3323 12.0779 17.102 11.9241C16.8718 11.7702 16.6924 11.5516 16.5864 11.2958C16.4804 11.0399 16.4527 10.7584 16.5067 10.4869C16.5608 10.2153 16.6941 9.96584 16.8899 9.77005C17.0857 9.57426 17.3351 9.44092 17.6067 9.3869C17.8783 9.33288 18.1598 9.36061 18.4156 9.46657C18.6714 9.57253 18.8901 9.75197 19.0439 9.9822C19.1977 10.2124 19.2798 10.4831 19.2798 10.76C19.2798 11.1313 19.1323 11.4874 18.8698 11.7499C18.6072 12.0125 18.2511 12.16 17.8798 12.16Z"/>
</svg>
