<svg viewBox="0 0 21 23" fill="none" xmlns="http://www.w3.org/2000/svg">
<path d="M8.00825 4.5489L8.20236 5.27334L8.00825 4.5489ZM6.63684 6.03453L6.06774 6.52302C6.2556 6.74189 6.55234 6.83363 6.83096 6.75897C7.10957 6.68432 7.32068 6.4565 7.37394 6.17302L6.63684 6.03453ZM4.70635 5.43364L4.51224 4.7092L4.70635 5.43364ZM3.3692 7.74965L4.09365 7.55554L3.3692 7.74965ZM7.48841 10.983L7.18555 11.6692L7.18857 11.6705L7.48841 10.983ZM8.37009 10.7468L7.76454 10.3043L7.76374 10.3054L8.37009 10.7468ZM10.3207 5.88699L9.59563 6.07858L9.5963 6.08111L10.3207 5.88699ZM10.625 11.4811L11.2631 11.087C11.1298 10.8712 10.8966 10.7374 10.6431 10.7313C10.3895 10.7252 10.1501 10.8476 10.0066 11.0567L10.625 11.4811ZM12.7382 14.9024L12.1001 15.2966V15.2966L12.7382 14.9024ZM19.4137 13.8874L18.7597 14.2545V14.2545L19.4137 13.8874ZM18.1304 11.6019L17.4765 11.9691L18.1304 11.6019ZM8.51667 14.5532L9.13506 14.9776L9.13506 14.9776L8.51667 14.5532ZM1.77701 13.5195L1.11417 13.1686L1.77701 13.5195ZM2.78071 11.6236L3.44355 11.9745L2.78071 11.6236ZM18.169 2.81589L17.9125 3.52066L18.169 2.81589ZM16.1935 3.24624L15.4471 3.31996C15.4755 3.60701 15.6659 3.85236 15.937 3.95101C16.208 4.04966 16.5116 3.98414 16.7179 3.78247L16.1935 3.24624ZM14.9568 1.64674L15.2133 0.941971L14.9568 1.64674ZM12.5331 2.77695L11.8283 2.52043L12.5331 2.77695ZM14.0527 7.78825L13.4111 8.17659L13.4128 8.1794L14.0527 7.78825ZM14.9105 8.10044L14.6682 7.39063L14.667 7.39107L14.9105 8.10044ZM19.2958 5.23839L18.5919 4.97942L18.591 4.98187L19.2958 5.23839ZM14.5 10.25C14.0858 10.25 13.75 10.5858 13.75 11C13.75 11.4142 14.0858 11.75 14.5 11.75V10.25ZM15 11.75C15.4142 11.75 15.75 11.4142 15.75 11C15.75 10.5858 15.4142 10.25 15 10.25V11.75ZM7.81413 3.82446C6.79524 4.09747 6.08079 4.93243 5.89974 5.89604L7.37394 6.17302C7.4536 5.74908 7.76702 5.38999 8.20236 5.27334L7.81413 3.82446ZM7.20595 5.54604C6.5679 4.80269 5.53544 4.43503 4.51224 4.7092L4.90047 6.15808C5.33853 6.0407 5.78623 6.19506 6.06774 6.52302L7.20595 5.54604ZM4.51224 4.7092C3.10401 5.08653 2.26742 6.53553 2.64476 7.94377L4.09365 7.55554C3.93073 6.9475 4.29244 6.32101 4.90047 6.15808L4.51224 4.7092ZM2.64476 7.94377C2.7865 8.47274 3.11224 8.93133 3.47299 9.31044C3.83888 9.69495 4.28269 10.0413 4.72908 10.3418C5.62167 10.9428 6.60055 11.4109 7.18555 11.6692L7.79128 10.2969C7.24049 10.0538 6.35319 9.62704 5.56683 9.09759C5.17374 8.83293 4.82489 8.55517 4.55963 8.27641C4.28922 7.99225 4.14533 7.74842 4.09365 7.55554L2.64476 7.94377ZM7.18857 11.6705C7.82251 11.947 8.56604 11.7519 8.97644 11.1882L7.76374 10.3054C7.76503 10.3036 7.7673 10.3012 7.77032 10.2992C7.77313 10.2973 7.77581 10.2962 7.7781 10.2955C7.7804 10.2949 7.7826 10.2947 7.78465 10.2949C7.78693 10.295 7.78828 10.2956 7.78826 10.2956L7.18857 11.6705ZM8.97564 11.1893C9.35448 10.6709 9.96786 9.77518 10.4399 8.80862C10.6759 8.32524 10.8868 7.80376 11.0112 7.2884C11.1339 6.78037 11.1867 6.22103 11.0452 5.69288L9.5963 6.08111C9.64773 6.27305 9.64512 6.55542 9.55314 6.93634C9.46293 7.30994 9.29992 7.72467 9.09202 8.15039C8.67611 9.00205 8.12122 9.81617 7.76454 10.3043L8.97564 11.1893ZM11.0459 5.6954C10.6728 4.2834 9.22188 3.44725 7.81413 3.82446L8.20236 5.27334C8.81088 5.11029 9.43548 5.47244 9.59563 6.07858L11.0459 5.6954ZM2.31241 14.6073V14.9874H3.81241V14.6073H2.31241ZM2.31241 14.9874V20.9999H3.81241V14.9874H2.31241ZM4.06241 22.7499H10.625V21.2499H4.06241V22.7499ZM11.375 21.9999V11.4811H9.875V21.9999H11.375ZM9.9869 11.8752L12.1001 15.2966L13.3763 14.5083L11.2631 11.087L9.9869 11.8752ZM13.589 16.1269H17.8438V14.6269H13.589V16.1269ZM17.8438 16.1269H18.5418V14.6269H17.8438V16.1269ZM20.0677 13.5202L18.7844 11.2347L17.4765 11.9691L18.7597 14.2545L20.0677 13.5202ZM17.2585 10.3415H16.4688V11.8415H17.2585V10.3415ZM10.625 22.7499H16.8438V21.2499H10.625V22.7499ZM18.5938 20.9999V15.3769H17.0938V20.9999H18.5938ZM18.5938 15.3769V14.9999H17.0938V15.3769H18.5938ZM10.0066 11.0567L7.89829 14.1288L9.13506 14.9776L11.2434 11.9055L10.0066 11.0567ZM7.69216 14.2374H3.06241V15.7374H7.69216V14.2374ZM3.06241 14.2374H2.6608V15.7374H3.06241V14.2374ZM2.43985 13.8704L3.44355 11.9745L2.11787 11.2727L1.11417 13.1686L2.43985 13.8704ZM3.66449 11.8415H13.0313V10.3415H3.66449V11.8415ZM2.6608 14.2374C2.4724 14.2374 2.3517 14.0369 2.43985 13.8704L1.11417 13.1686C0.497135 14.3341 1.34204 15.7374 2.6608 15.7374V14.2374ZM7.89829 14.1288C7.85166 14.1968 7.77456 14.2374 7.69216 14.2374V15.7374C8.26894 15.7374 8.80869 15.4532 9.13506 14.9776L7.89829 14.1288ZM16.8438 22.7499C17.8103 22.7499 18.5938 21.9664 18.5938 20.9999H17.0938C17.0938 21.138 16.9819 21.2499 16.8438 21.2499V22.7499ZM18.5418 16.1269C19.8796 16.1269 20.7227 14.6867 20.0677 13.5202L18.7597 14.2545C18.8533 14.4212 18.7329 14.6269 18.5418 14.6269V16.1269ZM12.1001 15.2966C12.4189 15.8127 12.9823 16.1269 13.589 16.1269V14.6269C13.5023 14.6269 13.4218 14.5821 13.3763 14.5083L12.1001 15.2966ZM18.7844 11.2347C18.4746 10.683 17.8912 10.3415 17.2585 10.3415V11.8415C17.3489 11.8415 17.4322 11.8903 17.4765 11.9691L18.7844 11.2347ZM3.44355 11.9745C3.48688 11.8927 3.57189 11.8415 3.66449 11.8415V10.3415C3.01628 10.3415 2.42116 10.6998 2.11787 11.2727L3.44355 11.9745ZM2.31241 20.9999C2.31241 21.9664 3.09591 22.7499 4.06241 22.7499V21.2499C3.92434 21.2499 3.81241 21.138 3.81241 20.9999H2.31241ZM18.4255 2.11112C17.4343 1.75035 16.3702 2.02451 15.6691 2.71001L16.7179 3.78247C17.0263 3.48089 17.489 3.36651 17.9125 3.52066L18.4255 2.11112ZM16.9399 3.17252C16.8436 2.19764 16.2087 1.30427 15.2133 0.941971L14.7003 2.35151C15.1264 2.50662 15.4047 2.88985 15.4471 3.31996L16.9399 3.17252ZM15.2133 0.941971C13.8433 0.443337 12.3269 1.15045 11.8283 2.52043L13.2378 3.03346C13.4531 2.44194 14.1088 2.13621 14.7003 2.35151L15.2133 0.941971ZM11.8283 2.52043C11.641 3.03504 11.6448 3.59754 11.7228 4.115C11.802 4.63984 11.9669 5.17811 12.1602 5.68034C12.5466 6.6846 13.08 7.62951 13.4111 8.17658L14.6944 7.39992C14.3826 6.88485 13.9006 6.02636 13.5601 5.14162C13.3899 4.69936 13.2635 4.27174 13.2061 3.89125C13.1475 3.50337 13.1695 3.2211 13.2378 3.03346L11.8283 2.52043ZM13.4128 8.1794C13.7735 8.76951 14.4944 9.03621 15.154 8.80981L14.667 7.39107C14.669 7.39037 14.6722 7.38973 14.6759 7.38978C14.6793 7.38983 14.6821 7.39044 14.6844 7.39126C14.6866 7.39207 14.6885 7.39318 14.6901 7.39447C14.6919 7.39592 14.6927 7.39713 14.6927 7.39711L13.4128 8.1794ZM15.1527 8.81025C15.7604 8.60287 16.7766 8.221 17.7176 7.69998C18.1882 7.43942 18.6601 7.13319 19.0576 6.78241C19.4495 6.43661 19.8136 6.00871 20.0006 5.4949L18.591 4.98187C18.5231 5.1686 18.359 5.3984 18.0651 5.65768C17.777 5.91198 17.4055 6.1582 16.9911 6.38769C16.1619 6.84677 15.2404 7.19539 14.6682 7.39063L15.1527 8.81025ZM19.9997 5.49736C20.504 4.12672 19.795 2.60958 18.4255 2.11112L17.9125 3.52066C18.5045 3.73613 18.8084 4.39104 18.5919 4.97942L19.9997 5.49736ZM14.5 11.75H15V10.25H14.5V11.75Z" />
</svg>
