<svg viewBox="0 0 14 14" fill="none" xmlns="http://www.w3.org/2000/svg">
<g clip-path="url(#clip0_78_44)">
<path d="M1.22666 13.3334C0.546663 13.3289 -0.00444827 12.7911 -3.82354e-06 12.1289V2.68447C-0.000186838 2.50487 0.0410156 2.32765 0.120406 2.16656C0.199796 2.00547 0.315239 1.86484 0.457774 1.75558C0.755552 1.52447 1.19111 1.72447 1.19111 2.09336V3.0978C1.19111 3.82224 1.79555 4.41336 2.54222 4.41336H3.40444C4.15555 4.41336 4.76444 3.82224 4.76444 3.09336V1.90669C4.76502 1.84853 4.77712 1.79106 4.80005 1.7376C4.82297 1.68414 4.85627 1.63577 4.89802 1.59526C4.93976 1.55476 4.98912 1.52293 5.04324 1.50163C5.09737 1.48032 5.15518 1.46996 5.21333 1.47113H8.16444C8.22259 1.46996 8.2804 1.48032 8.33453 1.50163C8.38865 1.52293 8.43801 1.55476 8.47975 1.59526C8.5215 1.63577 8.5548 1.68414 8.57772 1.7376C8.60065 1.79106 8.61275 1.84853 8.61333 1.90669V3.09336C8.61777 3.82224 9.22666 4.41336 9.97333 4.41336H10.7867C11.5378 4.41336 12.1422 3.82669 12.1422 3.0978V2.08891C12.144 2.00668 12.1684 1.92653 12.2127 1.85721C12.257 1.78788 12.3194 1.73206 12.3933 1.69583C12.4671 1.65959 12.5495 1.64435 12.6314 1.65175C12.7133 1.65915 12.7916 1.68892 12.8578 1.7378C13.0052 1.84773 13.125 1.99054 13.2075 2.15488C13.2901 2.31922 13.3332 2.50056 13.3333 2.68447V12.1289C13.3378 12.7911 12.7867 13.3245 12.1067 13.3334H1.22666ZM1.56 6.67113V11.5645C1.55999 11.6331 1.57359 11.7011 1.6 11.7645C1.62641 11.8279 1.66511 11.8854 1.71387 11.9337C1.76263 11.9821 1.82048 12.0203 1.88408 12.0462C1.94768 12.072 2.01578 12.0851 2.08444 12.0845H11.2C11.2687 12.0856 11.3369 12.0732 11.4007 12.0479C11.4645 12.0226 11.5227 11.9848 11.5719 11.9369C11.621 11.889 11.6602 11.8318 11.6872 11.7686C11.7141 11.7055 11.7283 11.6376 11.7289 11.5689V6.67113C11.7283 6.60247 11.7141 6.53459 11.6872 6.47143C11.6602 6.40827 11.621 6.35108 11.5719 6.30314C11.5227 6.25521 11.4645 6.21749 11.4007 6.19216C11.3369 6.16684 11.2687 6.1544 11.2 6.15558H2.08444C2.01615 6.15499 1.94842 6.16786 1.8851 6.19346C1.82179 6.21905 1.76414 6.25686 1.71544 6.30473C1.66674 6.35261 1.62795 6.40961 1.60127 6.47247C1.5746 6.53534 1.56058 6.60285 1.56 6.67113ZM5.92 10.9689L4.62222 9.60447C4.51346 9.48902 4.45289 9.3364 4.45289 9.1778C4.45289 9.0192 4.51346 8.86658 4.62222 8.75113C4.67302 8.69433 4.7354 8.64906 4.80517 8.6184C4.87493 8.58773 4.95046 8.57237 5.02666 8.57336C5.10344 8.57287 5.17948 8.58843 5.24989 8.61905C5.3203 8.64966 5.38354 8.69465 5.43555 8.75113L6.24 9.60447C6.26247 9.62672 6.29281 9.63921 6.32444 9.63921C6.35607 9.63921 6.38641 9.62672 6.40889 9.60447L8.47111 7.43558C8.56928 7.33088 8.70417 7.26824 8.8475 7.26079C8.99083 7.25333 9.13149 7.30163 9.24 7.39558L9.28444 7.43558C9.39126 7.552 9.45052 7.70425 9.45052 7.86224C9.45052 8.02024 9.39126 8.17249 9.28444 8.28891L6.73333 10.9689C6.63575 11.0742 6.50118 11.1377 6.35784 11.146C6.21449 11.1543 6.0735 11.1067 5.96444 11.0134L5.92 10.9689ZM9.95111 3.56891C9.82928 3.57011 9.7119 3.52315 9.62451 3.43825C9.53712 3.35336 9.48678 3.23739 9.48444 3.11558V0.4578C9.48502 0.397099 9.49755 0.337107 9.52132 0.28125C9.54509 0.225393 9.57962 0.174764 9.62296 0.132255C9.66629 0.0897458 9.71758 0.0561888 9.77388 0.0335002C9.83018 0.0108116 9.89041 -0.000564244 9.95111 2.22229e-05H10.8044C10.9263 -0.00117171 11.0436 0.0457851 11.131 0.13068C11.2184 0.215574 11.2688 0.33154 11.2711 0.453356V3.11113C11.2699 3.23295 11.2207 3.34938 11.1342 3.4351C11.0476 3.52083 10.9307 3.56892 10.8089 3.56891H9.95111ZM2.52889 3.56891C2.40705 3.57011 2.28968 3.52315 2.20229 3.43825C2.11489 3.35336 2.06456 3.23739 2.06222 3.11558V0.4578C2.0628 0.397099 2.07533 0.337107 2.0991 0.28125C2.12287 0.225393 2.1574 0.174764 2.20074 0.132255C2.24407 0.0897458 2.29535 0.0561888 2.35166 0.0335002C2.40796 0.0108116 2.46818 -0.000564244 2.52889 2.22229e-05H3.38222C3.44292 -0.000564244 3.50314 0.0108116 3.55944 0.0335002C3.61575 0.0561888 3.66703 0.0897458 3.71037 0.132255C3.7537 0.174764 3.78824 0.225393 3.81201 0.28125C3.83577 0.337107 3.8483 0.397099 3.84889 0.4578V3.11113C3.84656 3.23335 3.79636 3.34978 3.7091 3.43539C3.62183 3.52099 3.50446 3.56893 3.38222 3.56891H2.52889Z" fill-opacity="0.5"/>
</g>
<defs>
<clipPath id="clip0_78_44">
<rect width="13.3333" height="13.3333" fill="white"/>
</clipPath>
</defs>
</svg>
