<svg viewBox="0 0 10 14" fill="none" xmlns="http://www.w3.org/2000/svg">
<path d="M10.9712 8.075C10.8389 6.43988 10.2112 4.87999 9.16777 3.59353C8.4628 2.63174 7.90588 1.87243 7.90588 0.765655C7.90637 0.626732 7.86818 0.490285 7.79538 0.370869C7.72258 0.251452 7.6179 0.153545 7.49251 0.0875909C7.36352 0.0207959 7.21769 -0.00879923 7.07208 0.00226794C6.92646 0.0133351 6.7871 0.0646069 6.67027 0.150085C6.34704 0.390237 6.04499 0.656351 5.76728 0.945639C4.90352 1.83416 4.28482 2.92168 3.96898 4.10661C3.80333 4.77609 3.68407 5.45569 3.61201 6.1408C3.29059 5.78696 3.03938 5.37797 2.87116 4.93466C2.84702 4.82872 2.80031 4.72891 2.73407 4.6417C2.66783 4.55449 2.58352 4.48184 2.48663 4.42845L2.4783 4.42408C2.36907 4.36635 2.24713 4.33529 2.12291 4.33355C1.99869 4.33181 1.87589 4.35944 1.765 4.41408C1.59389 4.49845 0.0923172 5.32587 0.0038763 8.32498C-0.00189159 8.42872 -0.00189209 8.52746 -0.00189209 8.62308C0.00317105 9.3379 0.157895 10.0442 0.452796 10.6986C0.747696 11.3531 1.17656 11.9419 1.71309 12.429C2.76089 13.4183 4.157 13.9795 5.61539 13.9976H5.63141C6.33909 13.994 7.03883 13.8519 7.68912 13.5797C8.33941 13.3074 8.92701 12.9106 9.41707 12.4127C10.4337 11.4017 11.002 10.0415 10.9994 8.62558C10.9994 8.47747 10.9744 8.1175 10.9712 8.075Z"/>
</svg>
