<svg width="24" height="19" viewBox="0 0 24 19" fill="none" xmlns="http://www.w3.org/2000/svg">
<g clip-path="url(#clip0_1004_426)">
<path d="M8.66456 1.12715C8.89794 1.12591 9.12949 1.17619 9.34165 1.27483C9.55469 1.37387 9.74136 1.51869 9.89037 1.69748C9.89064 1.6978 9.89091 1.69813 9.89118 1.69846L11.1685 3.21821H18.9678H18.9691C19.8143 3.2204 20.6245 3.55693 21.2225 4.15426C21.8204 4.75152 22.158 5.56102 22.1611 6.4063L22.1611 6.40821L22.1602 15.279C22.2721 15.2089 22.3743 15.1226 22.463 15.0221C22.6857 14.7699 22.8085 14.4446 22.8086 14.1071C22.8086 14.1071 22.8086 14.1071 22.8086 14.107L22.8086 3.96856C22.8086 3.96833 22.8086 3.96811 22.8086 3.96789C22.8075 3.6025 22.6628 3.25297 22.4056 2.99503C22.1484 2.73698 21.7987 2.59057 21.434 2.58809H13.0264H12.7938L12.6439 2.41016L11.0347 0.49922H4.34181L4.3418 -0.000780401V0.49922C4.00777 0.499228 3.68491 0.62038 3.4335 0.840076C3.33691 0.924488 3.25333 1.02124 3.18448 1.12715M8.66456 1.12715H8.66602V1.62715L8.66281 1.12716C8.66339 1.12716 8.66397 1.12715 8.66456 1.12715ZM8.66456 1.12715H3.18448M3.18448 1.12715H2.61852L2.98475 1.62715C3.01802 1.448 3.08626 1.27826 3.18448 1.12715ZM0.5 4.32221V4.32222L0.5 16.551L0.5 4.32221ZM0.5 4.32221C0.499991 3.95656 0.644326 3.60602 0.90165 3.34691C1.15868 3.08809 1.50801 2.94112 1.87295 2.93818H8.56976M0.5 4.32221L8.56976 2.93818M8.56976 2.93818L10.176 4.84703L10.3259 5.0251H10.5586L18.967 5.0251C18.9671 5.0251 18.9672 5.0251 18.9673 5.0251C19.3344 5.02576 19.6867 5.17197 19.9463 5.43148C20.2056 5.69062 20.3516 6.04207 20.3525 6.4094C20.3525 6.40966 20.3525 6.40993 20.3525 6.41019V16.5482C20.3525 16.5485 20.3525 16.5487 20.3525 16.549C20.3516 16.9163 20.2056 17.2678 19.9463 17.5269C19.6866 17.7865 19.3342 17.9327 18.967 17.9333L1.88263 17.9353C1.88261 17.9353 1.88259 17.9353 1.88258 17.9353C1.51604 17.9347 1.16491 17.7886 0.905499 17.5289C0.64612 17.2693 0.500264 16.9177 0.5 16.5512L8.56976 2.93818Z" stroke="#45535C"/>
</g>
<defs>
<clipPath id="clip0_1004_426">
<rect width="23.311" height="18.435" fill="white"/>
</clipPath>
</defs>
</svg>
