<svg xmlns="http://www.w3.org/2000/svg" width="20.672" height="20.04" viewBox="0 0 20.672 20.04">
  <path id="filter_icon" data-name="filter icon" d="M372.161,889.656a1.807,1.807,0,0,1-1.337-.557l-3.362-3.261a1.746,1.746,0,0,1-.546-1.271v-5.835l-6.225-6.044a1.664,1.664,0,0,1-.4-1.967A1.8,1.8,0,0,1,362,869.616h16.925a1.808,1.808,0,0,1,1.707,1.083l.012.027a1.673,1.673,0,0,1-.436,1.988l-6.2,6.018v9.123a1.743,1.743,0,0,1-1.115,1.653A2.053,2.053,0,0,1,372.161,889.656Zm.115-1.919,0,0Zm-3.339-3.24,3.057,2.966v-9.542l6.533-6.345H362.4l6.536,6.345Z" transform="translate(-360.129 -869.616)" fill="#45535c"/>
</svg>
