<svg viewBox="0 0 302 227" fill="none" xmlns="http://www.w3.org/2000/svg">
<path d="M134.3 189.9C132.4 189.9 130.9 188.4 130.9 186.5V85.8004C130.9 83.9004 132.4 82.4004 134.3 82.4004C136.2 82.4004 137.7 83.9004 137.7 85.8004V186.5C137.7 188.4 136.2 189.9 134.3 189.9Z"/>
<path d="M38.4 154.7C36 154.7 33.5 154.4 31.1 153.7C19.8 150.7 9.99999 140.5 1.29999 122.5C1.09999 122 0.899987 121.5 0.999987 120.9L4.59999 16.0004C4.69999 14.5004 5.69999 13.2004 7.09999 12.8004C8.49999 12.4004 10.1 13.0004 10.9 14.3004C30.3 44.6004 50.5 33.0004 73.9 19.5004C93.6 8.20037 115.9 -4.69963 136.6 14.0004C137.3 14.6004 137.7 15.6004 137.7 16.5004V124.1C137.7 125.5 136.9 126.7 135.6 127.2C134.4 127.7 132.9 127.5 131.9 126.6C115.4 111.2 97.5 123.5 78.6 136.4C65.5 145.5 52 154.7 38.4 154.7ZM7.79999 120.3C15.5 135.9 23.7 144.7 32.8 147.1C45.9 150.6 59.9 141 74.8 130.8C92.4 118.8 112.1 105.3 130.9 117.1V18.0004C114.1 4.10037 96.2 14.4004 77.3 25.3004C64.9 32.5004 51.6 40.1004 38.4 40.1004C29.1 40.1004 19.9 36.3004 11.1 26.0004L7.79999 120.3Z"/>
<path d="M25.6 112.2C18 112.2 10.5 110.2 3.09997 105C1.49997 103.9 1.19997 101.8 2.19997 100.3C3.19997 98.8004 5.39997 98.4003 6.89997 99.4003C25.3 112.1 45.1 102 66.1 91.3004C89.2 79.5004 113.2 67.4003 136.4 85.7003C137.9 86.9003 138.1 89.0004 137 90.5004C135.8 92.0004 133.7 92.2004 132.2 91.1004C112.5 75.5004 91.5 86.1003 69.3 97.4003C54.9 104.8 40.2 112.2 25.6 112.2ZM25.6 82.8004C18.4 82.8004 11.2 81.0003 4.09997 76.4003C2.49997 75.4003 2.09997 73.3003 3.09997 71.7003C4.09997 70.1003 6.19998 69.7003 7.79998 70.7003C25.9 82.4003 45.4 72.5004 66.1 62.0004C89.2 50.2004 113.2 38.1003 136.4 56.4003C137.9 57.6003 138.1 59.7003 137 61.2003C135.8 62.7003 133.7 62.9004 132.2 61.8004C112.5 46.2004 91.5 56.8004 69.3 68.1004C54.9 75.3004 40.2 82.8004 25.6 82.8004ZM168 189.9C166.1 189.9 164.6 188.4 164.6 186.5V85.8004C164.6 83.9004 166.1 82.4003 168 82.4003C169.9 82.4003 171.4 83.9004 171.4 85.8004V186.5C171.4 188.4 169.9 189.9 168 189.9Z"/>
<path d="M263.9 151C250.3 151 236.8 141.7 223.7 132.8C204.8 119.8 186.9 107.6 170.4 123C169.4 123.9 168 124.2 166.7 123.6C165.5 123.1 164.6 121.8 164.6 120.5V12.8002C164.6 11.8002 165 10.9002 165.7 10.3002C186.5 -8.39983 208.8 4.50017 228.4 15.8002C251.8 29.3002 272 40.9002 291.4 10.6002C292.2 9.30018 293.7 8.80018 295.2 9.10018C296.6 9.50018 297.7 10.8002 297.7 12.3002L301.3 117.2C301.3 117.8 301.2 118.3 301 118.8C292.3 136.8 282.6 147 271.2 150C268.8 150.7 266.4 151 263.9 151ZM187 108.9C200.9 108.9 214.7 118.4 227.5 127.2C242.4 137.4 256.4 147 269.5 143.5C278.7 141.1 286.8 132.3 294.5 116.7L291.3 22.5002C282.5 32.8002 273.3 36.6002 264 36.6002C250.8 36.6002 237.5 28.9002 225.1 21.8002C206.2 10.9002 188.2 0.600172 171.5 14.5002V113.6C176.6 110.2 181.8 108.9 187 108.9Z"/>
<path d="M237.4 107.7C237 107.7 236.5 107.6 236.1 107.4L222.9 102L209.7 107.4C208.6 107.9 207.4 107.7 206.4 107C205.4 106.3 204.9 105.2 205 104L206.1 89.8L196.9 79C196.1 78.1 195.9 76.9 196.3 75.7C196.7 74.6 197.6 73.7 198.7 73.4L212.5 70.1L220 58C220.6 57 221.7 56.4 222.9 56.4C224.1 56.4 225.2 57 225.8 58L233.3 70.1L247.1 73.4C248.3 73.7 249.2 74.5 249.5 75.7C249.9 76.8 249.6 78.1 248.9 79L239.7 89.8L240.8 104C240.9 105.2 240.4 106.3 239.4 107C238.8 107.5 238.1 107.7 237.4 107.7ZM205.7 78.8L212.2 86.5C212.8 87.2 213.1 88.1 213 89L212.2 99.1L221.5 95.2C222.3 94.9 223.3 94.9 224.1 95.2L233.4 99.1L232.6 89C232.5 88.1 232.8 87.2 233.4 86.5L239.9 78.8L230.1 76.4C229.2 76.2 228.5 75.6 228 74.9L222.7 66.3L217.4 74.9C216.9 75.7 216.2 76.2 215.3 76.4L205.7 78.8ZM197.4 59.5C196.1 59.5 195 58.8 194.4 57.7L189.8 49.1L181.2 44.5C180.1 43.9 179.4 42.8 179.4 41.5C179.4 40.2 180.1 39.1 181.2 38.5L189.8 33.9L194.4 25.3C195 24.2 196.1 23.5 197.4 23.5C198.7 23.5 199.8 24.2 200.4 25.3L205 33.9L213.6 38.5C214.7 39.1 215.4 40.2 215.4 41.5C215.4 42.8 214.7 43.9 213.6 44.5L205 49L200.4 57.6C199.8 58.8 198.7 59.5 197.4 59.5ZM190 41.4L193.9 43.5C194.5 43.8 195 44.3 195.3 44.9L197.4 48.8L199.5 44.9C199.8 44.3 200.3 43.8 200.9 43.5L204.8 41.4L200.9 39.3C200.3 39 199.8 38.5 199.5 37.9L197.4 34L195.3 37.9C195 38.5 194.5 39 193.9 39.3L190 41.4ZM269.7 78.5C268.4 78.5 267.3 77.8 266.7 76.7L262.1 68.1L253.5 63.5C252.4 62.9 251.7 61.8 251.7 60.5C251.7 59.2 252.4 58.1 253.5 57.5L262.1 52.9L266.7 44.3C267.3 43.2 268.4 42.5 269.7 42.5C271 42.5 272.1 43.2 272.7 44.3L277.3 52.9L285.9 57.5C287 58.1 287.7 59.2 287.7 60.5C287.7 61.8 287 62.9 285.9 63.5L277.3 68.1L272.7 76.7C272.1 77.8 271 78.5 269.7 78.5ZM262.3 60.4L266.2 62.5C266.8 62.8 267.3 63.3 267.6 63.9L269.7 67.8L271.8 63.9C272.1 63.3 272.6 62.8 273.2 62.5L277.1 60.4L273.2 58.3C272.6 58 272.1 57.5 271.8 56.9L269.7 53L267.6 56.9C267.3 57.5 266.8 58 266.2 58.3L262.3 60.4ZM267.9 126.1C266.6 126.1 265.5 125.4 264.9 124.3L260.3 115.7L251.7 111.1C250.6 110.5 249.9 109.4 249.9 108.1C249.9 106.8 250.6 105.7 251.7 105.1L260.3 100.5L264.9 91.9C265.5 90.8 266.6 90.1 267.9 90.1C269.2 90.1 270.3 90.8 270.9 91.9L275.5 100.5L284.1 105.1C285.2 105.7 285.9 106.8 285.9 108.1C285.9 109.4 285.2 110.5 284.1 111.1L275.5 115.7L270.9 124.3C270.3 125.4 269.2 126.1 267.9 126.1ZM260.5 108L264.4 110.1C265 110.4 265.5 110.9 265.8 111.5L267.9 115.4L270 111.5C270.3 110.9 270.8 110.4 271.4 110.1L275.3 108L271.4 105.9C270.8 105.6 270.3 105.1 270 104.5L267.9 100.6L265.8 104.5C265.5 105.1 265 105.6 264.4 105.9L260.5 108ZM211.1 226.2H91.2999C89.3999 226.2 87.8999 224.7 87.8999 222.8V204.6C87.8999 192.7 97.5999 183 109.5 183H193C204.9 183 214.6 192.7 214.6 204.6V222.8C214.5 224.7 213 226.2 211.1 226.2ZM94.6999 219.4H207.7V204.7C207.7 196.6 201.1 190 193 190H109.5C101.4 190 94.7999 196.6 94.7999 204.7V219.4H94.6999Z"/>
</svg>
