<svg xmlns="http://www.w3.org/2000/svg" width="20.328" height="23.001" viewBox="0 0 20.328 23.001"><path d="M8526.166,13705.19a4.65,4.65,0,0,1-2.6.812,5.092,5.092,0,0,1-2.8-.891,8.893,8.893,0,0,1-2.105-1.992,12.555,12.555,0,0,1-2.35-5.019,12.741,12.741,0,0,1,.072-5.909,5.649,5.649,0,0,1,4.365-4.107,6.67,6.67,0,0,1,4.743.7,1.214,1.214,0,0,0,1.345-.024,7.443,7.443,0,0,1,3.082-.895,7.613,7.613,0,0,1,1.658.193,5.67,5.67,0,0,1,4.361,4.12,12.787,12.787,0,0,1,.072,5.92,12.522,12.522,0,0,1-2.349,5.022,8.857,8.857,0,0,1-2.105,2,5.092,5.092,0,0,1-2.8.891A4.643,4.643,0,0,1,8526.166,13705.19Zm-1.1-17.726a3.366,3.366,0,0,0-2.494-2.332.422.422,0,0,1-.34-.412v-.65a.35.35,0,0,1,.172-.3,1.021,1.021,0,0,1,1.015.042,3.581,3.581,0,0,1,2.012,3.6.188.188,0,0,1-.191.178A.178.178,0,0,1,8525.065,13687.465Zm1.507-.894s-.2-4.338,4.537-3.45c.554,1.028-.352,4.086-2.614,4.086A3.674,3.674,0,0,1,8526.572,13686.571Z" transform="translate(-8516 -13683.001)" fill="none"/></svg>