<svg xmlns="http://www.w3.org/2000/svg" width="17.595" height="20.195" viewBox="0 0 17.595 20.195"><g transform="translate(0 0)"><path d="M33.048,6.094A5.427,5.427,0,0,0,34.7,1.076a.739.739,0,0,0-.63-.513,5.877,5.877,0,0,0-4.586,1.362,6.771,6.771,0,0,0-.63.616A8.278,8.278,0,0,0,26.846.494,1.528,1.528,0,0,0,24.7.837l-.561.8a1.369,1.369,0,0,0,.479,2.013,2.743,2.743,0,0,1,1.335,2.266,5.12,5.12,0,0,0-1.246-.164,4.21,4.21,0,0,0-.979.11c-3.169.685-4.895,3.245-4.5,6.688a10.42,10.42,0,0,0,2.191,5.189,6.335,6.335,0,0,0,4.847,2.656,4.237,4.237,0,0,0,1.711-.335,4.169,4.169,0,0,0,1.7.335,6.335,6.335,0,0,0,4.847-2.656,10.42,10.42,0,0,0,2.191-5.189C37.073,9.421,35.684,7.025,33.048,6.094Zm.281-4.155h0A4.854,4.854,0,0,1,31.3,5.752h-.062a5.408,5.408,0,0,0-1.321.171,5.031,5.031,0,0,0-.178-1.472c-.041-.151-.1-.322-.157-.493a4.613,4.613,0,0,1,3.744-2.019Zm-7.948.486.561-.8c3.012,2.211,2.451,4.7,2.451,4.7h-.979A4.126,4.126,0,0,0,25.381,2.425Zm4.3,16.546A2.143,2.143,0,0,1,28,18.341a2.293,2.293,0,0,1-1.725.63c-4.771,0-8.666-10.344-2.2-11.726a2.875,2.875,0,0,1,.637-.068c1.232,0,2.321.78,3.231.794s2.054-.794,3.3-.794a2.875,2.875,0,0,1,.637.068C38.347,8.627,34.452,18.97,29.68,18.97Z" transform="translate(-19.178 -0.2)" /></g></svg>