<svg width="24" height="24" viewBox="0 0 24 24" fill="none" xmlns="http://www.w3.org/2000/svg">
<path d="M12 0C5.3835 0 0 5.3835 0 12C0 18.6165 5.3835 24 12 24C18.6165 24 24 18.6165 24 12C24 5.3835 18.6165 0 12 0ZM20.496 5.8545C19.203 6.3675 17.874 6.774 16.5105 7.041C15.92 5.09553 14.9846 3.27204 13.749 1.6575C16.515 2.1255 18.912 3.672 20.496 5.8545ZM15.396 15.27C13.142 14.961 10.8565 14.961 8.6025 15.27C8.14026 13.1181 8.13924 10.8928 8.5995 8.7405C9.7185 8.8935 10.8495 9 12 9C13.1505 9 14.28 8.8935 15.399 8.7405C15.8593 10.8928 15.8582 13.1181 15.396 15.27ZM15.0075 7.2735C13.0103 7.5315 10.9882 7.5315 8.991 7.2735C9.606 5.3445 10.611 3.516 12 1.896C13.389 3.516 14.3925 5.3445 15.0075 7.2735ZM10.248 1.6575C8.985 3.309 8.067 5.1345 7.488 7.041C6.126 6.774 4.797 6.3675 3.504 5.8545C5.0865 3.672 7.4835 2.1255 10.248 1.6575ZM1.5 12C1.5 10.251 1.9365 8.604 2.6955 7.152C4.1295 7.7415 5.601 8.205 7.1145 8.5095C6.63274 10.8157 6.63326 13.1965 7.116 15.5025C5.604 15.804 4.1265 16.2645 2.6955 16.8525C1.9365 15.3975 1.5 13.7505 1.5 12ZM3.504 18.1455C4.797 17.6325 6.126 17.226 7.488 16.959C8.07849 18.9045 9.01387 20.728 10.2495 22.3425C7.4835 21.8745 5.0865 20.328 3.504 18.1455ZM8.9925 16.7265C10.9892 16.4685 13.0108 16.4685 15.0075 16.7265C14.3925 18.6555 13.3875 20.484 12 22.104C10.611 20.484 9.6075 18.6555 8.9925 16.7265ZM13.749 22.3425C14.9846 20.728 15.92 18.9045 16.5105 16.959C17.8725 17.226 19.203 17.634 20.496 18.1455C18.912 20.328 16.515 21.8745 13.749 22.3425ZM16.8825 15.4995C17.3655 13.194 17.367 10.8135 16.884 8.508C18.3975 8.2035 19.8705 7.7415 21.3045 7.1505C22.0635 8.604 22.5 10.251 22.5 12C22.5 13.7505 22.0635 15.3975 21.3045 16.8495C19.8735 16.263 18.396 15.8025 16.8825 15.4995Z" fill="#45535C"/>
</svg>
