<svg xmlns="http://www.w3.org/2000/svg" width="28.638" height="29.216">
    <path d="M28.639 14.944a17.168 17.168 0 00-.252-2.968H14.608v5.625h7.89a6.762 6.762 0 01-2.92 4.439v3.65h4.707a14.267 14.267 0 004.354-10.746z" fill="#4285f4"/>
    <path d="M14.608 29.217a13.984 13.984 0 009.683-3.526l-4.707-3.65a8.86 8.86 0 01-13.172-4.633H1.554v3.763a14.61 14.61 0 0013.054 8.046z" fill="#34a853"/>
    <path d="M6.406 17.408a8.75 8.75 0 010-5.593V8.052H1.55a14.62 14.62 0 000 13.118z" fill="#fbbc04"/>
    <path d="M14.608 5.781a7.938 7.938 0 015.6 2.19L24.379 3.8A14.039 14.039 0 0014.605 0 14.6 14.6 0 001.554 8.052l4.852 3.766a8.737 8.737 0 018.2-6.033z" fill="#ea4335"/>
</svg>
