<svg width="75" height="75" viewBox="0 0 75 75" fill="none" xmlns="http://www.w3.org/2000/svg">
<circle cx="37.5" cy="37.5" r="37.5" fill="#589CFE"/>
<g clip-path="url(#clip0_61_1341)">
<path d="M45.9199 22.9688L43.9329 20.3925C43.5371 19.8832 43.0305 19.4706 42.4516 19.186C41.8727 18.9014 41.2367 18.7523 40.5916 18.75H35.1579C34.5128 18.7523 33.8768 18.9014 33.2979 19.186C32.719 19.4706 32.2124 19.8832 31.8166 20.3925L29.8296 22.9688H45.9199Z" fill="white"/>
<path d="M37.8755 44.0625C40.9821 44.0625 43.5005 41.5441 43.5005 38.4375C43.5005 35.3309 40.9821 32.8125 37.8755 32.8125C34.7689 32.8125 32.2505 35.3309 32.2505 38.4375C32.2505 41.5441 34.7689 44.0625 37.8755 44.0625Z" fill="white"/>
<path d="M47.7192 25.7812H28.0317C26.1676 25.7835 24.3805 26.525 23.0624 27.8431C21.7442 29.1613 21.0027 30.9484 21.0005 32.8125L21.0005 45.4688C21.0027 47.3329 21.7442 49.12 23.0624 50.4381C24.3805 51.7563 26.1676 52.4978 28.0317 52.5H47.7192C49.5834 52.4978 51.3705 51.7563 52.6886 50.4381C54.0068 49.12 54.7483 47.3329 54.7505 45.4688V32.8125C54.7483 30.9484 54.0068 29.1613 52.6886 27.8431C51.3705 26.525 49.5834 25.7835 47.7192 25.7812ZM37.8755 46.875C36.2067 46.875 34.5754 46.3802 33.1879 45.453C31.8003 44.5259 30.7189 43.2081 30.0803 41.6664C29.4416 40.1246 29.2746 38.4281 29.6001 36.7914C29.9257 35.1547 30.7293 33.6513 31.9093 32.4713C33.0893 31.2913 34.5927 30.4877 36.2294 30.1621C37.8661 29.8366 39.5626 30.0037 41.1044 30.6423C42.6461 31.2809 43.9639 32.3623 44.891 33.7499C45.8181 35.1374 46.313 36.7687 46.313 38.4375C46.3108 40.6746 45.4211 42.8194 43.8392 44.4013C42.2574 45.9831 40.1126 46.8728 37.8755 46.875Z" fill="white"/>
</g>
<defs>
<clipPath id="clip0_61_1341">
<rect width="33.75" height="33.75" fill="white" transform="translate(21 18.75)"/>
</clipPath>
</defs>
</svg>
