<svg width="20" height="20" viewBox="0 0 20 20" fill="none" xmlns="http://www.w3.org/2000/svg">
<rect width="20" height="20" rx="5" fill="#589CFE"/>
<path d="M7.75 10.5C7.30499 10.5 6.86998 10.368 6.49997 10.1208C6.12996 9.87357 5.84157 9.52217 5.67127 9.11104C5.50097 8.6999 5.45642 8.2475 5.54323 7.81105C5.63005 7.37459 5.84434 6.97368 6.15901 6.65901C6.47368 6.34434 6.87459 6.13005 7.31105 6.04323C7.7475 5.95642 8.1999 6.00097 8.61104 6.17127C9.02217 6.34157 9.37357 6.62996 9.62081 6.99997C9.86804 7.36998 10 7.80499 10 8.25C9.99934 8.84653 9.76207 9.41845 9.34026 9.84026C8.91845 10.2621 8.34653 10.4993 7.75 10.5ZM11 16H4.5C4.36739 16 4.24021 15.9473 4.14645 15.8536C4.05268 15.7598 4 15.6326 4 15.5V15.25C4 14.2554 4.39509 13.3016 5.09835 12.5983C5.80161 11.8951 6.75544 11.5 7.75 11.5C8.74456 11.5 9.69839 11.8951 10.4017 12.5983C11.1049 13.3016 11.5 14.2554 11.5 15.25V15.5C11.5 15.6326 11.4473 15.7598 11.3536 15.8536C11.2598 15.9473 11.1326 16 11 16ZM12.75 8.5C12.305 8.5 11.87 8.36804 11.5 8.12081C11.13 7.87357 10.8416 7.52217 10.6713 7.11104C10.501 6.6999 10.4564 6.2475 10.5432 5.81105C10.63 5.37459 10.8443 4.97368 11.159 4.65901C11.4737 4.34434 11.8746 4.13005 12.311 4.04323C12.7475 3.95642 13.1999 4.00097 13.611 4.17127C14.0222 4.34157 14.3736 4.62996 14.6208 4.99997C14.868 5.36998 15 5.80499 15 6.25C14.9993 6.84653 14.7621 7.41845 14.3403 7.84026C13.9184 8.26207 13.3465 8.49934 12.75 8.5ZM12.0395 9.5105C11.5738 9.57298 11.126 9.73095 10.7243 9.97453C10.3225 10.2181 9.97529 10.542 9.7045 10.926C10.8249 11.4348 11.7053 12.3571 12.1615 13.5H15.5C15.6326 13.5 15.7598 13.4473 15.8536 13.3536C15.9473 13.2598 16 13.1326 16 13V12.981C15.9995 12.4826 15.8926 11.9901 15.6866 11.5362C15.4806 11.0824 15.1802 10.6777 14.8053 10.3493C14.4305 10.0208 13.9899 9.77609 13.5129 9.63144C13.036 9.4868 12.5337 9.44557 12.0395 9.5105Z" fill="white"/>
</svg>
