<svg width="76" height="76" viewBox="0 0 76 76" fill="none" xmlns="http://www.w3.org/2000/svg">
<g clip-path="url(#clip0_3687_5707)">
<path d="M37.9996 72.0696C56.8154 72.0696 72.0686 56.8164 72.0686 38.0006C72.0686 19.1848 56.8154 3.93164 37.9996 3.93164C19.1839 3.93164 3.93066 19.1848 3.93066 38.0006C3.93066 56.8164 19.1839 72.0696 37.9996 72.0696Z" fill="#F0F6FE"/>
<path d="M53.7242 24.2413V49.9896L52.6366 56.3185C51.6212 58.6619 49.9427 60.6572 47.8078 62.0588C45.6728 63.4603 43.1746 64.207 40.6207 64.2068C34.1476 64.2068 28.179 60.7029 25.0276 55.0475L16.1697 39.1792C15.7338 38.4143 15.6094 37.5108 15.8224 36.6565C16.0354 35.8023 16.5694 35.0629 17.3135 34.5922C18.0575 34.1215 18.9543 33.9556 19.8175 34.129C20.6806 34.3024 21.4438 34.8018 21.9483 35.5234L27.5173 43.8965V17.8992C27.5101 17.4406 27.5948 16.9852 27.7666 16.5599C27.9384 16.1346 28.1937 15.7481 28.5174 15.4232C28.8411 15.0982 29.2267 14.8415 29.6513 14.6681C30.076 14.4947 30.531 14.4082 30.9897 14.4137C31.1443 14.4216 31.2976 14.4438 31.4483 14.4792C32.1894 14.628 32.8558 15.0294 33.3338 15.6149C33.8118 16.2004 34.0716 16.9337 34.069 17.6896V13.9682C34.0618 13.5096 34.1466 13.0542 34.3184 12.6289C34.4901 12.2036 34.7454 11.8171 35.0691 11.4921C35.3929 11.1672 35.7784 10.9105 36.2031 10.7371C36.6277 10.5637 37.0828 10.4772 37.5414 10.4827C37.696 10.4905 37.8493 10.5128 38 10.5482C38.7411 10.6969 39.4075 11.0983 39.8855 11.6839C40.3635 12.2694 40.6234 13.0027 40.6207 13.7585V17.6896C40.6206 17.2037 40.7286 16.724 40.9368 16.285C41.145 15.8461 41.4482 15.4589 41.8245 15.1516C42.2008 14.8443 42.6407 14.6246 43.1124 14.5083C43.5841 14.392 44.0757 14.3821 44.5517 14.4792C45.2928 14.628 45.9593 15.0294 46.4372 15.6149C46.9152 16.2004 47.1751 16.9337 47.1724 17.6896V24.2413C47.1724 23.3725 47.5176 22.5392 48.1319 21.9249C48.7463 21.3106 49.5795 20.9654 50.4483 20.9654C51.3171 20.9654 52.1503 21.3106 52.7647 21.9249C53.379 22.5392 53.7242 23.3725 53.7242 24.2413Z" fill="#FDD7AD"/>
<path d="M34.0689 17.6902V32.7592C34.0689 33.1067 33.9309 33.44 33.6851 33.6857C33.4394 33.9315 33.1061 34.0695 32.7586 34.0695C32.4111 34.0695 32.0778 33.9315 31.832 33.6857C31.5863 33.44 31.4482 33.1067 31.4482 32.7592V14.4799C32.1893 14.6286 32.8557 15.03 33.3337 15.6155C33.8117 16.2011 34.0716 16.9344 34.0689 17.6902ZM40.6207 13.7592V40.6212C40.6207 40.9688 40.4826 41.3021 40.2369 41.5478C39.9911 41.7935 39.6578 41.9316 39.3103 41.9316C38.9628 41.9316 38.6295 41.7935 38.3838 41.5478C38.138 41.3021 38 40.9688 38 40.6212V10.5488C38.741 10.6976 39.4075 11.099 39.8854 11.6845C40.3634 12.27 40.6233 13.0033 40.6207 13.7592ZM47.1724 17.6902V47.173C47.1724 47.5205 47.0343 47.8538 46.7886 48.0995C46.5429 48.3453 46.2096 48.4833 45.862 48.4833C45.5145 48.4833 45.1812 48.3453 44.9355 48.0995C44.6897 47.8538 44.5517 47.5205 44.5517 47.173V14.4799C45.2928 14.6286 45.9592 15.03 46.4372 15.6155C46.9152 16.2011 47.175 16.9344 47.1724 17.6902Z" fill="#F9C795"/>
<path d="M38 0C17.0135 0 0 17.0135 0 38C0 58.9865 17.0135 76 38 76C58.9865 76 76 58.9865 76 38C75.9751 17.024 58.976 0.0248966 38 0ZM58.1164 63.8413C45.0811 74.003 26.5174 72.8565 14.8305 61.1695C3.14221 49.4826 1.99697 30.9189 12.1587 17.8836C12.2746 17.7411 12.4192 17.6245 12.5831 17.5415C12.747 17.4585 12.9265 17.4108 13.11 17.4017C13.2935 17.3925 13.4769 17.4221 13.6482 17.4884C13.8196 17.5547 13.975 17.6563 14.1046 17.7866L58.2134 61.8954C58.3437 62.025 58.4453 62.1804 58.5116 62.3518C58.5779 62.5231 58.6075 62.7065 58.5983 62.89C58.5892 63.0735 58.5415 63.253 58.4585 63.4169C58.3755 63.5808 58.2589 63.7254 58.1164 63.8413ZM63.8544 58.0758C63.7385 58.2181 63.594 58.3345 63.4302 58.4174C63.2664 58.5003 63.087 58.5478 62.9037 58.557C62.7204 58.5661 62.5372 58.5366 62.366 58.4704C62.1948 58.4043 62.0394 58.3028 61.9099 58.1728L17.8207 14.0901C17.6906 13.9606 17.5892 13.8052 17.523 13.634C17.4568 13.4628 17.4273 13.2796 17.4365 13.0963C17.4456 12.913 17.4932 12.7336 17.5761 12.5698C17.659 12.406 17.7753 12.2615 17.9177 12.1456C24.4052 7.0706 32.5759 4.64454 40.7819 5.35669C56.6567 6.76269 69.2399 19.3459 70.6433 35.2208C71.3531 43.4244 68.9272 51.5922 63.8544 58.0784V58.0758Z" fill="#F86060"/>
</g>
<defs>
<clipPath id="clip0_3687_5707">
<rect width="76" height="76" fill="white"/>
</clipPath>
</defs>
</svg>
