<svg xmlns="http://www.w3.org/2000/svg" version="1.1" xmlns:xlink="http://www.w3.org/1999/xlink" xmlns:svgjs="http://svgjs.com/svgjs" x="0" y="0" viewBox="0 0 24 24" style="enable-background:new 0 0 512 512" xml:space="preserve" class=""><g><path d="M17.71 7.71 13.41 12l4.3 4.29a1 1 0 0 1 0 1.42 1 1 0 0 1-1.42 0L12 13.41l-4.29 4.3a1 1 0 0 1-1.42 0 1 1 0 0 1 0-1.42l4.3-4.29-4.3-4.29a1 1 0 0 1 1.42-1.42l4.29 4.3 4.29-4.3a1 1 0 1 1 1.42 1.42zM22 5v14a3 3 0 0 1-3 3H5a3 3 0 0 1-3-3V5a3 3 0 0 1 3-3h14a3 3 0 0 1 3 3zm-2 0a1 1 0 0 0-1-1H5a1 1 0 0 0-1 1v14a1 1 0 0 0 1 1h14a1 1 0 0 0 1-1z" data-name="Layer 66" fill="#000000" data-original="#000000" class=""></path></g></svg>