<svg width="28" height="15" viewBox="0 0 28 15" fill="none" xmlns="http://www.w3.org/2000/svg">
<path fill-rule="evenodd" clip-rule="evenodd" d="M2.20123 0.877505C2.49911 0.732205 2.84251 0.711153 3.15591 0.81898C3.46931 0.926806 3.72705 1.15468 3.87248 1.45251C4.36685 2.46882 4.98851 3.4181 5.72248 4.2775C6.68626 5.41092 7.8566 6.35091 9.17123 7.04751C9.24533 7.07698 9.31648 7.11339 9.38373 7.15626C10.8169 7.87363 12.3973 8.24807 14 8.25001C15.6312 8.25001 17.1937 7.8625 18.6162 7.15751C18.6835 7.11438 18.7547 7.07756 18.8287 7.04751C20.189 6.32669 21.3943 5.3456 22.3762 4.16C23.0674 3.33172 23.6555 2.42256 24.1275 1.45251C24.273 1.15463 24.5309 0.926777 24.8445 0.819061C25.158 0.711344 25.5015 0.732592 25.7994 0.87813C26.0972 1.02367 26.3251 1.28157 26.4328 1.59511C26.5405 1.90865 26.5193 2.25213 26.3737 2.55C25.9674 3.3825 25.4894 4.17801 24.945 4.92751L26.7587 6.74001C26.9933 6.97439 27.1251 7.29235 27.1252 7.62394C27.1254 7.95553 26.9937 8.27358 26.7594 8.50813C26.525 8.74268 26.207 8.87452 25.8754 8.87463C25.5438 8.87475 25.2258 8.74314 24.9912 8.50876L23.31 6.82751C22.5889 7.53913 21.794 8.17188 20.9387 8.71501L21.9925 10.815C22.0675 10.9619 22.1128 11.1222 22.1256 11.2867C22.1383 11.4512 22.1185 11.6165 22.067 11.7733C22.0156 11.93 21.9337 12.0751 21.826 12.2C21.7182 12.3249 21.5868 12.4273 21.4393 12.5012C21.2919 12.5751 21.1312 12.6191 20.9666 12.6306C20.8021 12.6421 20.6368 12.621 20.4805 12.5683C20.3242 12.5157 20.1798 12.4326 20.0557 12.3239C19.9316 12.2152 19.8302 12.0831 19.7575 11.935L18.7125 9.85001C17.6175 10.2838 16.4575 10.5713 15.25 10.6888V13.25C15.25 13.5815 15.1183 13.8995 14.8839 14.1339C14.6494 14.3683 14.3315 14.5 14 14.5C13.6685 14.5 13.3505 14.3683 13.1161 14.1339C12.8817 13.8995 12.75 13.5815 12.75 13.25V10.6875C11.5623 10.5715 10.3968 10.2896 9.28748 9.85001L8.24248 11.9338C8.09243 12.2275 7.83235 12.45 7.51894 12.5528C7.20553 12.6556 6.86419 12.6304 6.5693 12.4826C6.27441 12.3349 6.04988 12.0765 5.94465 11.7639C5.83941 11.4513 5.86199 11.1098 6.00748 10.8138L7.06123 8.71376C6.20602 8.17059 5.41111 7.53786 4.68998 6.82626L3.00873 8.5075C2.89342 8.62689 2.75549 8.72212 2.60299 8.78763C2.45048 8.85314 2.28646 8.88763 2.12048 8.88907C1.95451 8.89051 1.78991 8.85888 1.63629 8.79603C1.48267 8.73318 1.3431 8.64037 1.22574 8.523C1.10837 8.40563 1.01555 8.26607 0.952702 8.11245C0.889851 7.95883 0.858224 7.79423 0.859666 7.62826C0.861109 7.46228 0.895591 7.29826 0.961103 7.14575C1.02661 6.99325 1.12184 6.85531 1.24123 6.74001L3.05373 4.92625C2.50968 4.17632 2.03204 3.38039 1.62623 2.5475C1.48093 2.24962 1.45988 1.90623 1.5677 1.59283C1.67553 1.27943 1.90341 1.02168 2.20123 0.876255V0.877505Z" fill="#45535C"/>
</svg>
