<svg width="30" height="30" viewBox="0 0 30 30" fill="none" xmlns="http://www.w3.org/2000/svg">
<path d="M27.651 8.19722L18.451 1.13922C17.4538 0.399414 16.2451 0 15.0035 0C13.7619 0 12.5532 0.399414 11.556 1.13922L2.349 8.19722C1.61812 8.75575 1.02595 9.47536 0.618533 10.3001C0.21112 11.1248 -0.000545505 12.0324 1.0558e-06 12.9522V24.9972C1.0558e-06 26.3233 0.526785 27.5951 1.46447 28.5328C2.40215 29.4704 3.67392 29.9972 5 29.9972H8.186C8.54291 29.9984 8.89653 29.929 9.22647 29.7929C9.55642 29.6568 9.85617 29.4567 10.1085 29.2043C10.3607 28.9518 10.5606 28.6519 10.6964 28.3218C10.8323 27.9918 10.9015 27.6381 10.9 27.2812V21.4812C10.9 20.553 11.2687 19.6627 11.9251 19.0063C12.5815 18.35 13.4717 17.9812 14.4 17.9812H15.6C16.5283 17.9812 17.4185 18.35 18.0749 19.0063C18.7313 19.6627 19.1 20.553 19.1 21.4812V27.2812C19.0986 27.637 19.1673 27.9895 19.3023 28.3186C19.4372 28.6477 19.6358 28.947 19.8866 29.1993C20.1374 29.4516 20.4355 29.6519 20.7638 29.7888C21.0922 29.9258 21.4443 29.9966 21.8 29.9972H25C26.3261 29.9972 27.5979 29.4704 28.5355 28.5328C29.4732 27.5951 30 26.3233 30 24.9972V12.9522C30.0005 12.0324 29.7889 11.1248 29.3815 10.3001C28.9741 9.47536 28.3819 8.75575 27.651 8.19722Z" fill="#589CFE"/>
</svg>
