<svg width="25" height="24" viewBox="0 0 25 24" fill="none" xmlns="http://www.w3.org/2000/svg">
<path d="M22.6208 6.55838L15.2608 0.911462C14.4631 0.319561 13.4961 0 12.5028 0C11.5095 0 10.5425 0.319561 9.7448 0.911462L2.3792 6.55838C1.7945 7.00525 1.32076 7.58099 0.994826 8.24082C0.668896 8.90065 0.499564 9.62678 0.500001 10.3627V19.9996C0.500001 21.0606 0.921428 22.0781 1.67157 22.8283C2.42172 23.5785 3.43913 24 4.5 24H7.0488C7.33433 24.0009 7.61722 23.9454 7.88118 23.8365C8.14513 23.7276 8.38494 23.5675 8.58676 23.3656C8.78859 23.1636 8.94845 22.9236 9.05713 22.6596C9.16581 22.3955 9.22116 22.1125 9.22 21.827V17.1866C9.22 16.4439 9.515 15.7316 10.0401 15.2065C10.5652 14.6813 11.2774 14.3863 12.02 14.3863H12.98C13.7226 14.3863 14.4348 14.6813 14.9599 15.2065C15.485 15.7316 15.78 16.4439 15.78 17.1866V21.827C15.7788 22.1116 15.8338 22.3936 15.9418 22.657C16.0498 22.9203 16.2086 23.1597 16.4093 23.3616C16.6099 23.5634 16.8484 23.7237 17.1111 23.8333C17.3737 23.9428 17.6554 23.9995 17.94 24H20.5C21.5609 24 22.5783 23.5785 23.3284 22.8283C24.0786 22.0781 24.5 21.0606 24.5 19.9996V10.3627C24.5004 9.62678 24.3311 8.90065 24.0052 8.24082C23.6792 7.58099 23.2055 7.00525 22.6208 6.55838ZM22.8728 19.9996C22.872 20.6287 22.6217 21.2317 22.1768 21.6764C21.732 22.1211 21.129 22.3712 20.5 22.3718H17.94C17.7969 22.3697 17.6604 22.3114 17.5599 22.2095C17.4595 22.1075 17.4032 21.9701 17.4032 21.827V17.1866C17.4005 16.0142 16.9336 14.8906 16.1046 14.0616C15.2757 13.2326 14.1523 12.7657 12.98 12.763H12.02C10.8469 12.7651 9.72247 13.2321 8.89296 14.0616C8.06346 14.8912 7.59651 16.0158 7.5944 17.189V21.8294C7.5944 21.9009 7.58031 21.9718 7.55293 22.0379C7.52555 22.104 7.48542 22.1641 7.43483 22.2147C7.38424 22.2652 7.32418 22.3054 7.25809 22.3328C7.19199 22.3601 7.12114 22.3742 7.0496 22.3742H4.5C3.87061 22.3736 3.26721 22.1232 2.82231 21.6779C2.37742 21.2327 2.12741 20.6291 2.1272 19.9996V10.3627C2.12902 9.875 2.2421 9.39412 2.45781 8.9567C2.67352 8.51927 2.98619 8.13683 3.372 7.8385L10.732 2.19158C11.2461 1.8208 11.8638 1.62127 12.4976 1.62127C13.1314 1.62127 13.7491 1.8208 14.2632 2.19158L21.628 7.8385C22.0136 8.13667 22.3261 8.51885 22.5418 8.95598C22.7575 9.39311 22.8707 9.87368 22.8728 10.3611V19.9996Z" />
</svg>
