<svg  viewBox="0 0 14 14" fill="none" xmlns="http://www.w3.org/2000/svg">
<g clip-path="url(#clip0_1_35)">
<path d="M11.7915 1.25778C11.9559 1.25778 12.0892 1.13778 12.0892 0.995555V0.262222C12.0892 0.115556 11.9559 0 11.7915 0H1.54257C1.37813 0 1.2448 0.115556 1.2448 0.262222V0.995555C1.2448 1.13778 1.37813 1.25778 1.54257 1.25778C1.71146 1.25778 1.8448 1.37333 1.8448 1.51556V1.58667C1.77813 3.35556 2.46702 5.08444 3.77369 6.44889C3.79912 6.471 3.81952 6.49831 3.8335 6.52898C3.84747 6.55965 3.8547 6.59296 3.8547 6.62667C3.8547 6.66037 3.84747 6.69368 3.8335 6.72435C3.81952 6.75502 3.79912 6.78233 3.77369 6.80444C2.46702 8.16444 1.77813 9.89333 1.8448 11.6667V11.8178C1.8448 11.96 1.71146 12.0756 1.54257 12.0756C1.37813 12.0756 1.2448 12.1956 1.2448 12.3378V13.0711C1.2448 13.2178 1.37813 13.3333 1.54257 13.3333H11.7915C11.9559 13.3333 12.0892 13.2178 12.0892 13.0711V12.3378C12.0892 12.1956 11.9559 12.0756 11.7915 12.0756C11.6226 12.0756 11.4892 11.96 11.4892 11.8178V11.6667C11.5559 9.89778 10.867 8.16444 9.56035 6.80444C9.53424 6.78276 9.51323 6.75558 9.49881 6.72486C9.48439 6.69413 9.47692 6.66061 9.47692 6.62667C9.47692 6.59272 9.48439 6.5592 9.49881 6.52847C9.51323 6.49775 9.53424 6.47058 9.56035 6.44889C10.867 5.08444 11.5559 3.35556 11.4892 1.58667V1.51556C11.4892 1.37333 11.6226 1.25778 11.787 1.25778H11.7915ZM8.34702 6.29333L8.1648 6.41333C8.13476 6.43218 8.10917 6.45733 8.08983 6.48705C8.07048 6.51677 8.05783 6.55034 8.05276 6.58543C8.04768 6.62053 8.05031 6.65631 8.06044 6.69029C8.07058 6.72427 8.08799 6.75564 8.11146 6.78222L8.1648 6.83111L8.34702 6.95111C9.66257 7.98667 10.4404 9.43111 10.5115 10.9689C10.5248 11.1111 10.4004 11.2356 10.2359 11.2489H3.1248C2.95591 11.2489 2.82257 11.1333 2.82257 10.9867V10.9689C2.89369 9.43111 3.67146 7.98667 4.98702 6.95111L5.16924 6.83111C5.19928 6.81227 5.22486 6.78712 5.24421 6.7574C5.26356 6.72768 5.27621 6.69411 5.28128 6.65901C5.28635 6.62391 5.28373 6.58813 5.27359 6.55415C5.26346 6.52017 5.24605 6.4888 5.22257 6.46222L5.16924 6.41333L4.98702 6.29333C3.67146 5.26222 2.89369 3.81333 2.82257 2.28C2.80924 2.13333 2.93369 2.00889 3.09813 1.99556H10.2092C10.3781 1.99556 10.5115 2.11556 10.5115 2.25778C10.5122 2.26546 10.5106 2.27318 10.507 2.28C10.4404 3.81333 9.66257 5.26222 8.34702 6.29333ZM4.12035 2.64889H9.21369C9.37813 2.64889 9.51146 2.76444 9.51146 2.90667V2.93333C9.44035 4.06667 8.86702 5.12889 7.90258 5.89778L7.85813 5.92C7.73745 5.98099 7.62413 6.05554 7.52035 6.14222L7.48035 6.18667C7.16644 6.95469 7.01511 7.77945 7.03591 8.60889C7.03606 8.67062 7.05799 8.73031 7.09782 8.77746C7.13766 8.82462 7.19285 8.8562 7.25369 8.86667C7.54184 8.93422 7.81085 9.06645 8.04035 9.25333C9.02702 10.04 9.4448 10.2578 9.58702 10.6933C9.63146 10.8311 9.53813 10.9733 9.38258 11.0178L9.29813 11.0267H4.32924C4.1648 11.0267 4.03146 10.9111 4.03146 10.7644C4.03158 10.7372 4.03608 10.7102 4.0448 10.6844C4.38702 10.0933 4.91591 9.6 5.5648 9.25778L5.57813 9.24889C5.87406 9.04158 6.21276 8.90337 6.56924 8.84444L6.55591 8.81778C6.61207 7.8804 6.37604 6.94869 5.88035 6.15111C5.85343 6.11243 5.81658 6.08173 5.77369 6.06222L5.34702 5.85333L5.30702 5.83111C4.37813 5.08 3.84035 4.03111 3.82257 2.92889C3.80924 2.78667 3.93369 2.66222 4.10257 2.64889H4.12035Z" fill-opacity="0.5"/>
</g>
<defs>
<clipPath id="clip0_1_35">
<rect width="13.3333" height="13.3333" fill="white"/>
</clipPath>
</defs>
</svg>
