<svg width="23" height="23" viewBox="0 0 176 176" fill="none" xmlns="http://www.w3.org/2000/svg">
<g clip-path="url(#clip0_4693_5131)">
<path d="M123.2 0H52.8C38.8092 0.0408918 25.403 5.61682 15.5099 15.5099C5.61682 25.403 0.0408918 38.8092 0 52.8V123.2C0.0408918 137.191 5.61682 150.597 15.5099 160.49C25.403 170.383 38.8092 175.959 52.8 176H123.2C137.191 175.959 150.597 170.383 160.49 160.49C170.383 150.597 175.959 137.191 176 123.2V52.8C175.959 38.8092 170.383 25.403 160.49 15.5099C150.597 5.61682 137.191 0.0408918 123.2 0ZM58.527 85.0341C53.6557 84.7803 48.9626 83.1198 45.0156 80.2537C41.0687 77.3875 38.0372 73.4387 36.2883 68.8851C34.5395 64.3316 34.1483 59.3686 35.162 54.5973C36.1757 49.826 38.5509 45.4508 42 42.0016C45.4491 38.5524 49.8242 36.177 54.5955 35.1631C59.3668 34.1492 64.3297 34.5403 68.8833 36.2889C73.4369 38.0376 77.3859 41.0689 80.2522 45.0157C83.1185 48.9626 84.7791 53.6558 85.033 58.527C85.2022 62.0526 84.6325 65.5748 83.3604 68.8673C82.0882 72.1598 80.1416 75.1499 77.6458 77.6458C75.1499 80.1416 72.1598 82.0882 68.8673 83.3604C65.5748 84.6325 62.0526 85.2022 58.527 85.033V85.0341ZM164.266 123.201C164.225 134.08 159.885 144.502 152.193 152.195C144.5 159.887 134.078 164.227 123.199 164.268H52.799C47.4081 164.272 42.0699 163.208 37.0933 161.135C32.1166 159.063 27.6004 156.024 23.806 152.195C21.7708 150.159 19.9511 147.918 18.376 145.508C24.114 133.589 32.6761 121.184 44.5861 119.682C57.1991 118.098 62.345 130.154 74.506 129.069C96.699 127.092 99.944 85.087 120.853 80.376C129.301 78.476 142.771 82.1651 164.266 109.258V123.201Z" fill="#DFE3ED"/>
</g>
<defs>
<clipPath id="clip0_4693_5131">
<rect width="176" height="176" fill="white"/>
</clipPath>
</defs>
</svg>
