<svg width="24" height="18" viewBox="0 0 24 18" fill="none" xmlns="http://www.w3.org/2000/svg">
<path d="M8.48438 9.51562L5.01562 14.0156H18.9844L14.4844 8.01562L11.0156 12.5156L8.48438 9.51562ZM23.0156 15C23.0156 15.5312 22.8125 16 22.4062 16.4062C22 16.8125 21.5312 17.0156 21 17.0156H3C2.46875 17.0156 2 16.8125 1.59375 16.4062C1.1875 16 0.984375 15.5312 0.984375 15V3C0.984375 2.46875 1.1875 2 1.59375 1.59375C2 1.1875 2.46875 0.984375 3 0.984375H21C21.5312 0.984375 22 1.1875 22.4062 1.59375C22.8125 2 23.0156 2.46875 23.0156 3V15Z" />
</svg>
