<svg xmlns="http://www.w3.org/2000/svg" width="19.318" height="21" viewBox="0 0 19.318 21"><path d="M39.012,18.123a1.784,1.784,0,0,0-1.583-.952h-3.46l-.522-6.524a2.035,2.035,0,0,0-2.018-1.863h-3.72a2.032,2.032,0,0,0-2.019,1.877l-.476,6.51H21.7a1.8,1.8,0,0,0-1.494,2.8,68.048,68.048,0,0,0,8.251,9.419h0A1.8,1.8,0,0,0,30.7,29.4,68.939,68.939,0,0,0,38.92,19.97,1.793,1.793,0,0,0,39.012,18.123Zm-9.6,10.093,0,0,.006,0Zm8.252-9.088a68.139,68.139,0,0,1-7.913,9.09.276.276,0,0,1-.168.054.272.272,0,0,1-.165-.052,68.244,68.244,0,0,1-7.951-9.09.288.288,0,0,1,.238-.448h4.915l.578-7.912a.515.515,0,0,1,.511-.475h3.72a.515.515,0,0,1,.511.472l.633,7.915h4.856a.28.28,0,0,1,.246.146l0,.007A.284.284,0,0,1,37.665,19.129Z" transform="translate(39.225 29.784) rotate(180)" fill="#647F9A"/></svg>