<svg width="17" height="17" viewBox="0 0 17 17" fill="none" xmlns="http://www.w3.org/2000/svg">
<path d="M5.31791 16.3508C4.07786 16.3486 2.88933 15.8546 2.01295 14.9773C1.13656 14.1 0.643827 12.9109 0.642883 11.6708V5.32086C0.643826 4.08073 1.1365 2.89158 2.01286 2.01415C2.88923 1.13671 4.07779 0.642595 5.31791 0.640137H11.6636C12.9037 0.642406 14.0925 1.13645 14.9689 2.01393C15.8453 2.89141 16.3378 4.08068 16.3386 5.32086V11.6708C16.3378 12.911 15.8452 14.1002 14.9688 14.9775C14.0924 15.8549 12.9037 16.3488 11.6636 16.3508H5.31791ZM2.22221 5.32086V11.6708C2.22183 12.4924 2.54772 13.2805 3.12823 13.8618C3.70875 14.4431 4.49637 14.7701 5.31791 14.7708H11.6636C12.0705 14.7707 12.4734 14.6903 12.8493 14.5344C13.2252 14.3786 13.5666 14.1502 13.8542 13.8623C14.1418 13.5744 14.3699 13.2327 14.5254 12.8567C14.681 12.4807 14.7609 12.0778 14.7608 11.6708V5.32086C14.7609 4.91395 14.681 4.51097 14.5254 4.13497C14.3699 3.75896 14.1418 3.41727 13.8542 3.12941C13.5666 2.84155 13.2252 2.61315 12.8493 2.45726C12.4734 2.30137 12.0705 2.22103 11.6636 2.22084H5.31791C4.91082 2.22121 4.50776 2.30181 4.13183 2.458C3.75589 2.6142 3.41442 2.84296 3.12693 3.13118C2.83944 3.4194 2.61157 3.76145 2.45633 4.13778C2.30108 4.51411 2.22155 4.91732 2.22221 5.32441V5.32086ZM4.43648 8.49584C4.43874 7.69367 4.67865 6.91017 5.126 6.24432C5.57335 5.57847 6.20802 5.06014 6.94982 4.75482C7.69162 4.44951 8.50729 4.37091 9.29375 4.52895C10.0802 4.68698 10.8021 5.07456 11.3684 5.64273C11.9347 6.2109 12.3198 6.93416 12.4752 7.72113C12.6307 8.50811 12.5494 9.3235 12.2416 10.0643C11.9338 10.805 11.4134 11.438 10.746 11.8831C10.0787 12.3282 9.29435 12.5656 8.49218 12.5651C7.41494 12.5636 6.38238 12.1346 5.62126 11.3723C4.86014 10.6099 4.43271 9.57666 4.4329 8.49942L4.43648 8.49584ZM6.01215 8.49584C6.01243 8.98653 6.15822 9.46613 6.43102 9.87399C6.70382 10.2819 7.09142 10.5997 7.54483 10.7873C7.99823 10.9749 8.49704 11.0239 8.97828 10.928C9.45952 10.8322 9.90159 10.5958 10.2485 10.2488C10.5954 9.90177 10.8317 9.4597 10.9274 8.97843C11.0231 8.49717 10.974 7.99833 10.7862 7.54498C10.5985 7.09163 10.2806 6.70412 9.87262 6.43144C9.46468 6.15875 8.98505 6.01314 8.49436 6.013C8.16774 6.01253 7.84422 6.07651 7.54238 6.20131C7.24054 6.32611 6.96625 6.50926 6.73533 6.74025C6.5044 6.97124 6.32136 7.24552 6.19665 7.5474C6.07194 7.84927 6.00801 8.1728 6.00857 8.49942L6.01215 8.49584ZM11.5964 4.46728C11.5967 4.27564 11.6538 4.08838 11.7605 3.92917C11.8672 3.76996 12.0187 3.64593 12.1958 3.57279C12.3729 3.49964 12.5678 3.48067 12.7557 3.51823C12.9437 3.55579 13.1162 3.6482 13.2516 3.78382C13.387 3.91943 13.4792 4.09214 13.5165 4.28012C13.5538 4.4681 13.5345 4.66294 13.4611 4.83997C13.3877 5.017 13.2634 5.16829 13.1041 5.27473C12.9447 5.38118 12.7574 5.43798 12.5658 5.43798C12.4384 5.43836 12.3121 5.41364 12.1943 5.36524C12.0765 5.31684 11.9694 5.24572 11.879 5.15591C11.7887 5.0661 11.7169 4.95938 11.6678 4.84184C11.6187 4.7243 11.5932 4.59824 11.5929 4.47086L11.5964 4.46728Z"/>
</svg>
