<svg width="21" height="24" viewBox="0 0 21 24" fill="none" xmlns="http://www.w3.org/2000/svg">
<g clip-path="url(#clip0_620_955)">
<path d="M19.7868 9.17191L16.425 5.29291C16.0807 4.90923 15.5321 4.92025 15.1996 5.31752C14.8752 5.70503 14.8752 6.31942 15.1996 6.70694L18.5614 10.5859C18.6612 10.7035 18.7485 10.8344 18.8214 10.9759C18.8084 10.9759 18.798 10.9679 18.785 10.9679L5.19215 10.9999C4.71351 10.9999 4.3255 11.4476 4.3255 11.9999C4.3255 12.5522 4.71351 12.9999 5.19215 12.9999L18.7798 12.9679C18.804 12.9679 18.824 12.9539 18.8474 12.9519C18.7705 13.1211 18.673 13.2766 18.5579 13.4139L15.1961 17.2929C14.8518 17.6766 14.8423 18.3096 15.1748 18.7069C15.5073 19.1042 16.0559 19.1152 16.4002 18.7315C16.4075 18.7234 16.4146 18.7152 16.4216 18.7069L19.7834 14.8279C21.1367 13.2659 21.1367 10.7339 19.7834 9.17191H19.7868Z" fill="#45535C"/>
<path d="M6.0683 22H4.33495C2.89902 22 1.73495 20.6568 1.73495 19V5.00002C1.73495 3.34317 2.89902 2.00002 4.33495 2.00002H6.0683C6.54694 2.00002 6.93495 1.55231 6.93495 1.00003C6.93495 0.44775 6.54698 0 6.0683 0H4.33495C1.94295 0.00332813 0.00453232 2.23997 0.00164795 5.00002V19C0.00453232 21.76 1.94295 23.9967 4.33499 24H6.06834C6.54699 24 6.93499 23.5523 6.93499 23C6.93499 22.4477 6.54698 22 6.0683 22Z" fill="#45535C"/>
</g>
<defs>
<clipPath id="clip0_620_955">
<rect width="20.8" height="24" fill="white"/>
</clipPath>
</defs>
</svg>
