<svg viewBox="0 0 21 19" xmlns="http://www.w3.org/2000/svg">
<path d="M14.442 0.706038C13.548 0.703618 12.6665 0.916265 11.872 1.32604C11.3232 1.60761 10.8237 1.97641 10.393 2.41804C9.96362 1.9764 9.46549 1.60728 8.918 1.32504C8.12345 0.915265 7.24199 0.702617 6.348 0.705038C4.8447 0.711126 3.40517 1.31313 2.34508 2.37903C1.28499 3.44493 0.690868 4.88773 0.692999 6.39104C0.692999 8.61104 1.86 10.97 4.161 13.4C5.94318 15.213 7.92555 16.8176 10.07 18.183L10.396 18.395L10.722 18.183C12.8664 16.8176 14.8488 15.213 16.631 13.4C18.931 10.969 20.099 8.61104 20.099 6.39104C20.1009 4.88756 19.5063 3.44471 18.4459 2.37897C17.3854 1.31323 15.9455 0.711597 14.442 0.706038ZM15.693 12.511C14.0889 14.1452 12.3118 15.6001 10.393 16.85C8.47425 15.6001 6.69713 14.1452 5.093 12.511C3.027 10.329 1.979 8.27004 1.979 6.39104C1.9766 5.23032 2.43472 4.11605 3.25285 3.29267C4.07097 2.4693 5.18229 2.00407 6.343 1.99904C7.03171 1.99688 7.71083 2.16048 8.323 2.47604C8.74636 2.69394 9.1314 2.97935 9.463 3.32104L10.39 4.27304L11.317 3.32104C11.6486 2.97935 12.0336 2.69394 12.457 2.47604C13.0689 2.16064 13.7476 1.99704 14.436 1.99904C15.5967 2.00407 16.708 2.4693 17.5262 3.29267C18.3443 4.11605 18.8024 5.23032 18.8 6.39104C18.806 8.27004 17.758 10.329 15.693 12.511Z" />
</svg>
