<svg viewBox="0 0 21 18" fill="none" xmlns="http://www.w3.org/2000/svg">
<path d="M14.445 2.25181e-05C13.5507 -0.00251911 12.6689 0.210131 11.874 0.620022C11.3244 0.901716 10.8242 1.27086 10.393 1.71302C9.96326 1.27137 9.4648 0.902249 8.917 0.620022C8.12213 0.210131 7.24032 -0.00251911 6.346 2.25181e-05C4.84296 0.00690241 3.40394 0.609357 2.34431 1.67536C1.28468 2.74136 0.690866 4.18397 0.692999 5.68702C0.692999 7.90802 1.86 10.267 4.162 12.698C5.94447 14.5114 7.92719 16.1163 10.072 17.482L10.398 17.694L10.724 17.482C12.8688 16.1163 14.8515 14.5114 16.634 12.698C18.934 10.267 20.103 7.90802 20.103 5.68702C20.1051 4.1831 19.5106 2.73975 18.4499 1.6736C17.3892 0.607455 15.9489 0.00558226 14.445 2.25181e-05Z" />
</svg>
