<svg width="38" height="38" viewBox="0 0 38 38" fill="none" xmlns="http://www.w3.org/2000/svg">
<path d="M19 36.6325C28.7382 36.6325 36.6326 28.7381 36.6326 18.9998C36.6326 9.26159 28.7382 1.36719 19 1.36719C9.26172 1.36719 1.36731 9.26159 1.36731 18.9998C1.36731 28.7381 9.26172 36.6325 19 36.6325Z" fill="white"/>
<path d="M19 37C28.9411 37 37 28.9411 37 19C37 9.05888 28.9411 1 19 1C9.05888 1 1 9.05888 1 19C1 28.9411 9.05888 37 19 37Z" stroke="#45535C"/>
<g clip-path="url(#clip0_1406_3134)">
<path d="M26.996 27V26.9993H27V21.1313C27 18.2606 26.382 16.0493 23.026 16.0493C21.4126 16.0493 20.33 16.9346 19.888 17.774H19.8413V16.3173H16.6593V26.9993H19.9726V21.71C19.9726 20.3173 20.2366 18.9706 21.9613 18.9706C23.6607 18.9706 23.686 20.56 23.686 21.7993V27H26.996Z" fill="#45535C"/>
<path d="M11.264 16.3179H14.5814V26.9999H11.264V16.3179Z" fill="#45535C"/>
<path d="M12.9213 11C11.8607 11 11 11.8607 11 12.9213C11 13.982 11.8607 14.8607 12.9213 14.8607C13.982 14.8607 14.8427 13.982 14.8427 12.9213C14.842 11.8607 13.9813 11 12.9213 11V11Z" fill="#45535C"/>
</g>
<defs>
<clipPath id="clip0_1406_3134">
<rect width="16" height="16" fill="white" transform="translate(11 11)"/>
</clipPath>
</defs>
</svg>
