<svg width="20" height="22" viewBox="0 0 20 22" fill="none" xmlns="http://www.w3.org/2000/svg">
<path d="M3.25 8C3.25 7.80109 3.32902 7.61032 3.46967 7.46967C3.61032 7.32902 3.80109 7.25 4 7.25H10C10.1989 7.25 10.3897 7.32902 10.5303 7.46967C10.671 7.61032 10.75 7.80109 10.75 8C10.75 8.19891 10.671 8.38968 10.5303 8.53033C10.3897 8.67098 10.1989 8.75 10 8.75H4C3.80109 8.75 3.61032 8.67098 3.46967 8.53033C3.32902 8.38968 3.25 8.19891 3.25 8ZM19.75 4.25V19.25C19.75 19.8467 19.5129 20.419 19.091 20.841C18.669 21.2629 18.0967 21.5 17.5 21.5H2.5C1.90326 21.5 1.33097 21.2629 0.90901 20.841C0.487053 20.419 0.25 19.8467 0.25 19.25V4.25C0.25 3.65326 0.487053 3.08097 0.90901 2.65901C1.33097 2.23705 1.90326 2 2.5 2H4.75C4.75 1.60218 4.90804 1.22064 5.18934 0.93934C5.47064 0.658035 5.85218 0.5 6.25 0.5H13.75C14.1478 0.5 14.5294 0.658035 14.8107 0.93934C15.092 1.22064 15.25 1.60218 15.25 2H17.5C18.0967 2 18.669 2.23705 19.091 2.65901C19.5129 3.08097 19.75 3.65326 19.75 4.25ZM6.25 3.5H13.75V2H6.25V3.5ZM18.25 4.25C18.25 4.05109 18.171 3.86032 18.0303 3.71967C17.8897 3.57902 17.6989 3.5 17.5 3.5H15.25C15.25 3.89782 15.092 4.27936 14.8107 4.56066C14.5294 4.84196 14.1478 5 13.75 5H6.25C5.85218 5 5.47064 4.84196 5.18934 4.56066C4.90804 4.27936 4.75 3.89782 4.75 3.5H2.5C2.30109 3.5 2.11032 3.57902 1.96967 3.71967C1.82902 3.86032 1.75 4.05109 1.75 4.25V19.25C1.75 19.4489 1.82902 19.6397 1.96967 19.7803C2.11032 19.921 2.30109 20 2.5 20H17.5C17.6989 20 17.8897 19.921 18.0303 19.7803C18.171 19.6397 18.25 19.4489 18.25 19.25V4.25ZM14.5 11H4C3.80109 11 3.61032 11.079 3.46967 11.2197C3.32902 11.3603 3.25 11.5511 3.25 11.75C3.25 11.9489 3.32902 12.1397 3.46967 12.2803C3.61032 12.421 3.80109 12.5 4 12.5H14.5C14.6989 12.5 14.8897 12.421 15.0303 12.2803C15.171 12.1397 15.25 11.9489 15.25 11.75C15.25 11.5511 15.171 11.3603 15.0303 11.2197C14.8897 11.079 14.6989 11 14.5 11ZM14.5 14.75H4C3.80109 14.75 3.61032 14.829 3.46967 14.9697C3.32902 15.1103 3.25 15.3011 3.25 15.5C3.25 15.6989 3.32902 15.8897 3.46967 16.0303C3.61032 16.171 3.80109 16.25 4 16.25H14.5C14.6989 16.25 14.8897 16.171 15.0303 16.0303C15.171 15.8897 15.25 15.6989 15.25 15.5C15.25 15.3011 15.171 15.1103 15.0303 14.9697C14.8897 14.829 14.6989 14.75 14.5 14.75Z"/>
</svg>
