<svg viewBox="0 0 32 22" fill="none" xmlns="http://www.w3.org/2000/svg">
<path d="M5.29956 21.5612C2.31626 21.1288 0.0678024 17.7668 0 14.9229V7.07702C0.0678024 4.23315 2.31626 0.877616 5.29956 0.438819C7.12599 0.15789 8.97113 0.0112088 10.819 0C12.7034 0.0116042 14.585 0.158268 16.4484 0.438819C17.9309 0.82253 19.2489 1.6772 20.2038 2.87435C21.1587 4.07149 21.6984 5.54633 21.743 7.07702V14.9229C21.6984 16.4536 21.1587 17.9284 20.2038 19.1256C19.2489 20.3227 17.9309 21.1775 16.4484 21.5612C14.585 21.8418 12.7034 21.9885 10.819 22C8.97113 21.9889 7.12598 21.8422 5.29956 21.5612ZM5.60939 2.54578C3.74291 2.81571 2.18627 5.25531 2.13382 7.11028V14.8896C2.18627 16.7446 3.74291 19.1842 5.60939 19.4541C7.33343 19.7189 9.07479 19.8579 10.819 19.8699C12.5777 19.8589 14.3339 19.7238 16.0736 19.4657C17.0551 19.21 17.9198 18.6269 18.5247 17.8129C19.2023 17.0146 19.5871 16.0092 19.6166 14.9626V7.03095C19.5777 5.98657 19.1941 4.98461 18.5247 4.18198C17.9149 3.37308 17.0521 2.7913 16.0736 2.52915C14.3339 2.27101 12.5777 2.13595 10.819 2.12492C9.07467 2.13869 7.33331 2.27933 5.60939 2.54578ZM29.0364 17.2436C28.5244 17.2446 28.0219 17.109 27.5797 16.8508L25.4559 15.6252C25.0082 15.3704 24.6379 15.0015 24.379 14.5562C24.1201 14.1108 23.9816 13.6048 23.9817 13.0897V8.90772C23.9816 8.39259 24.1201 7.88663 24.379 7.44127C24.6379 6.9959 25.0082 6.62703 25.4559 6.37217L27.5797 5.1466C28.0217 4.88786 28.5243 4.75186 29.0364 4.7526C29.4226 4.75049 29.806 4.82486 30.1633 4.97154C30.5205 5.11822 30.8445 5.33426 31.1178 5.60713C31.3915 5.8787 31.609 6.20172 31.7574 6.55762C31.9058 6.91351 31.982 7.2953 31.9823 7.6809V14.3127C31.982 14.6983 31.9058 15.0801 31.7574 15.436C31.609 15.7919 31.3915 16.1149 31.1178 16.3865C30.5719 16.9327 29.8336 17.24 29.0614 17.241L29.0364 17.2436ZM28.6416 6.99136L26.5228 8.21685C26.4004 8.28647 26.2998 8.3868 26.228 8.50794C26.1562 8.62909 26.1153 8.76692 26.113 8.90772V13.0897C26.1147 13.2306 26.1536 13.3687 26.2255 13.4899C26.2973 13.6112 26.4 13.7114 26.5228 13.7805L28.6416 15.0061C28.7622 15.0746 28.8978 15.1111 29.0364 15.1123C29.2492 15.1129 29.4548 15.0293 29.6061 14.8797C29.7574 14.7301 29.8418 14.5268 29.8435 14.314V7.68215C29.8418 7.4694 29.7574 7.26597 29.6061 7.11637C29.4548 6.96677 29.2492 6.88316 29.0364 6.88384C28.8976 6.88536 28.7621 6.92241 28.6416 6.99136Z" />
</svg>
