<svg xmlns="http://www.w3.org/2000/svg" width="28.348" height="19.785" viewBox="0 0 28.348 19.785"><path d="M9505.535,20991.438c-2.556-.373-4.483-3.244-4.536-5.684v-6.7c.053-2.439,1.98-5.311,4.536-5.686a30.82,30.82,0,0,1,9.53,0,6.036,6.036,0,0,1,4.525,5.816v6.438a6.034,6.034,0,0,1-4.525,5.816,30.78,30.78,0,0,1-9.53,0Zm19.05-4.029-1.823-1.049a2.511,2.511,0,0,1-1.254-2.176v-3.566a2.514,2.514,0,0,1,1.254-2.17l1.823-1.049a2.508,2.508,0,0,1,3.762,2.17v5.668a2.51,2.51,0,0,1-2.51,2.514A2.485,2.485,0,0,1,9524.585,20987.408Z" transform="translate(-9500.499 -20972.523)" stroke="rgba(0,0,0,0)" stroke-miterlimit="10" stroke-width="1"/></svg>