<svg width="10" height="12" viewBox="0 0 10 12" fill="none" xmlns="http://www.w3.org/2000/svg">
<path fill-rule="evenodd" clip-rule="evenodd" d="M2.5232 0.660974C3.28742 0.221142 4.15746 -0.00712628 5.04185 0.000169563C5.92625 0.00746541 6.79231 0.250056 7.54899 0.702434C8.30537 1.17199 8.92763 1.82488 9.3566 2.59905C9.78557 3.37322 10.007 4.24292 9.99983 5.12548C9.8567 6.94126 9.04552 8.6424 7.71952 9.90756C7.00124 10.6618 6.19573 11.3301 5.31957 11.8986C5.22974 11.9499 5.13105 11.9843 5.02851 12C4.92969 11.9958 4.83354 11.967 4.74905 11.9162C3.41126 11.0605 2.24099 9.97299 1.29465 8.70609C0.497134 7.64018 0.0457123 6.36028 3.85533e-05 5.03551C-0.00343411 4.15199 0.227749 3.28304 0.670502 2.51541C1.11326 1.74779 1.75209 1.10836 2.5232 0.660974ZM3.42497 5.78444C3.54975 6.09554 3.76592 6.36261 4.04566 6.55127C4.3254 6.73993 4.65589 6.84154 4.99458 6.84301C5.21836 6.84427 5.44013 6.80112 5.64672 6.71611C5.8533 6.6311 6.04051 6.50597 6.19723 6.34813C6.39429 6.1478 6.5394 5.90337 6.62019 5.63566C6.70097 5.36795 6.71504 5.08492 6.6612 4.81068C6.60735 4.53644 6.48718 4.27913 6.31094 4.06069C6.1347 3.84225 5.90761 3.66915 5.64903 3.55616C5.33858 3.42595 4.99559 3.39131 4.66489 3.45678C4.3342 3.52225 4.0312 3.68479 3.7955 3.92313C3.55724 4.16418 3.3953 4.46864 3.32949 4.79923C3.26368 5.12982 3.29686 5.4722 3.42497 5.78444Z" fill="#647F9A"/>
</svg>
