<svg width="16" height="16" viewBox="0 0 16 16" fill="none" xmlns="http://www.w3.org/2000/svg">
<path d="M13.3016 13.3033C16.2306 10.3744 16.2306 5.62563 13.3016 2.6967C10.3727 -0.232233 5.62396 -0.232233 2.69502 2.6967C-0.233908 5.62563 -0.233908 10.3744 2.69502 13.3033C5.62396 16.2322 10.3727 16.2322 13.3016 13.3033Z" fill="#589CFE"/>
<path fill-rule="evenodd" clip-rule="evenodd" d="M8.00009 7.9175C7.61465 7.9175 7.30196 8.22991 7.30196 8.61553C7.30196 8.85866 7.42621 9.07256 7.61465 9.19775L7.31612 10.4637C7.31272 10.4769 7.3125 10.4908 7.31546 10.5042C7.31841 10.5176 7.32447 10.53 7.33315 10.5406C7.3415 10.5515 7.35227 10.5602 7.36459 10.5662C7.37692 10.5721 7.39046 10.5751 7.40415 10.5749H8.59602C8.62459 10.5749 8.64927 10.5629 8.66702 10.5406C8.67567 10.53 8.68172 10.5175 8.68466 10.5042C8.68761 10.4908 8.68738 10.4769 8.68399 10.4637L8.38555 9.19775C8.5739 9.07256 8.69815 8.85866 8.69815 8.61553C8.69812 8.22994 8.38571 7.9175 8.00009 7.9175ZM5.52808 6.45428H10.472C10.9148 6.45428 11.2771 6.81653 11.2771 7.25944V11.233C11.2771 11.6758 10.9148 12.0381 10.472 12.0381H5.52808C5.0853 12.0381 4.72302 11.6758 4.72302 11.233V7.25944C4.72302 6.81656 5.0853 6.45428 5.52808 6.45428ZM9.10062 6.01956V5.41381C9.10062 4.81028 8.60343 4.31328 8.00009 4.31328C7.39671 4.31328 6.89946 4.81028 6.89946 5.41381V6.01956H5.93008V5.41381C5.93008 4.27528 6.86146 3.34375 8.00009 3.34375C9.13871 3.34375 10.0702 4.27528 10.0702 5.41381V6.01956H9.10062Z" fill="white"/>
</svg>
