<svg width="26" height="20" viewBox="0 0 26 20" fill="none" xmlns="http://www.w3.org/2000/svg">
<path d="M16.5 12.3334C13.385 12.3334 7.16663 13.8851 7.16663 17.0001V19.3334H25.8333V17.0001C25.8333 13.8851 19.615 12.3334 16.5 12.3334ZM5.99996 7.66675V4.16675H3.66663V7.66675H0.166626V10.0001H3.66663V13.5001H5.99996V10.0001H9.49996V7.66675M16.5 10.0001C17.7376 10.0001 18.9246 9.50842 19.7998 8.63325C20.675 7.75808 21.1666 6.57109 21.1666 5.33341C21.1666 4.09574 20.675 2.90875 19.7998 2.03358C18.9246 1.15841 17.7376 0.666748 16.5 0.666748C15.2623 0.666748 14.0753 1.15841 13.2001 2.03358C12.325 2.90875 11.8333 4.09574 11.8333 5.33341C11.8333 6.57109 12.325 7.75808 13.2001 8.63325C14.0753 9.50842 15.2623 10.0001 16.5 10.0001Z" fill="#589CFE"/>
</svg>
