<svg width="24" height="24" viewBox="0 0 24 24" fill="none" xmlns="http://www.w3.org/2000/svg">
<path d="M21.665 15.0033L23.3333 13.335L21.665 11.6667L17.5 15.8317L7.50167 5.83333L11.6667 1.66833L9.99833 0L8.33 1.66833L6.66167 0L4.165 2.49667L2.49667 0.828333L0.828333 2.49667L2.49667 4.165L0 6.66167L1.66833 8.33L0 9.99833L1.66833 11.6667L5.83333 7.50167L15.8317 17.5L11.6667 21.665L13.335 23.3333L15.0033 21.665L16.6717 23.3333L19.1683 20.8367L20.8367 22.505L22.505 20.8367L20.8367 19.1683L23.3333 16.6717L21.665 15.0033Z" fill="#589CFE"/>
</svg>
