<svg xmlns="http://www.w3.org/2000/svg" xmlns:xlink="http://www.w3.org/1999/xlink" width="23.832" height="16.093" viewBox="0 0 23.832 16.093"><defs><linearGradient id="a" x1="0.5" y1="1" x2="0.5" gradientUnits="objectBoundingBox"><stop offset="0" stop-color="#377deb"/><stop offset="0.505" stop-color="#5895f5"/><stop offset="1" stop-color="#589cff"/></linearGradient></defs><path d="M23.485,847.61a2.366,2.366,0,0,0,2.367-2.365v-6.528a2.408,2.408,0,0,1,4.816,0v6.528a2.367,2.367,0,0,0,4.733,0v-6.528a2.408,2.408,0,0,1,4.816,0v6.528a2.367,2.367,0,0,0,4.733,0v-6.593a7.138,7.138,0,0,0-6.8-7.127,7.06,7.06,0,0,0-5.093,1.84,7.117,7.117,0,0,0-4.457-1.84,7.2,7.2,0,0,0-7.48,7.229v6.492A2.365,2.365,0,0,0,23.485,847.61Z" transform="translate(-21.118 -831.518)" fill-rule="evenodd" opacity="0.9" fill="url(#a)"/></svg>