<svg xmlns="http://www.w3.org/2000/svg" width="20.987" height="20.993" viewBox="0 0 20.987 20.993"><path d="M6.4,20.365a.322.322,0,0,1-.136-.459l4.992-8.1a.324.324,0,0,1,.275-.153h9.529a.323.323,0,0,1,.24.107.319.319,0,0,1,.081.249A10.534,10.534,0,0,1,6.4,20.365ZM4.469,19.18A10.479,10.479,0,0,1,2.715,4.3a.324.324,0,0,1,.48-.026l6.558,6.542a.321.321,0,0,1,.046.4l-4.859,7.88a.324.324,0,0,1-.217.148.31.31,0,0,1-.058.005A.322.322,0,0,1,4.469,19.18ZM2.609,7.841a8.79,8.79,0,0,0,1.764,8.979l3.436-5.573L3.169,6.618A8.756,8.756,0,0,0,2.609,7.841Zm8.759,2.269a.325.325,0,0,1-.228-.094L4.29,3.183A.322.322,0,0,1,4.316,2.7a10.581,10.581,0,0,1,13.645.359,10.458,10.458,0,0,1,3.414,6.69.323.323,0,0,1-.32.356Zm7.213-1.674h.832c-.079-.272-.171-.542-.277-.806Zm-2.219,0h.653L18.478,6.31c-.11-.181-.226-.358-.348-.529Zm-2.6,0h1.05l2.457-3.688c-.125-.13-.254-.254-.381-.372-.085-.077-.174-.155-.266-.233Zm-2.312-.479.48.479h.281l3.364-5.051a8.769,8.769,0,0,0-.79-.435ZM9.835,6.346l.683.682,3.04-4.564a8.817,8.817,0,0,0-.945-.238Zm.147-4.237L8.172,4.687l.733.73,2.26-3.353c-.084,0-.167,0-.251,0A9.06,9.06,0,0,0,9.982,2.109ZM7.864,2.6a8.831,8.831,0,0,0-1.225.559l.606.605.882-1.255C8.038,2.537,7.95,2.567,7.864,2.6Z" transform="translate(-0.391 -0.386)" /></svg>