<svg width="94" height="80" viewBox="0 0 94 80" fill="none" xmlns="http://www.w3.org/2000/svg">
<rect width="30" height="22" rx="4" fill="#F0F6FE"/>
<rect x="36" width="58" height="9" rx="2" fill="#F0F6FE"/>
<rect x="36" y="12" width="39" height="9" rx="2" fill="#F0F6FE"/>
<circle cx="14.5" cy="11.5" r="4.5" fill="white"/>
<path d="M16.1596 11.0685C16.4904 11.2614 16.4904 11.7393 16.1596 11.9323L14.052 13.1617C13.7186 13.3562 13.3 13.1157 13.3 12.7298L13.3 10.2709C13.3 9.88499 13.7186 9.64455 14.052 9.839L16.1596 11.0685Z" fill="#589CFE"/>
<rect y="29" width="30" height="22" rx="4" fill="#F0F6FE"/>
<rect x="36" y="29" width="58" height="9" rx="2" fill="#F0F6FE"/>
<rect x="36" y="41" width="39" height="9" rx="2" fill="#F0F6FE"/>
<circle cx="14.5" cy="40.5" r="4.5" fill="white"/>
<path d="M16.1596 40.0685C16.4904 40.2614 16.4904 40.7393 16.1596 40.9323L14.052 42.1617C13.7186 42.3562 13.3 42.1157 13.3 41.7298L13.3 39.2709C13.3 38.885 13.7186 38.6446 14.052 38.839L16.1596 40.0685Z" fill="#589CFE"/>
<rect y="58" width="30" height="22" rx="4" fill="#F0F6FE"/>
<rect x="36" y="58" width="58" height="9" rx="2" fill="#F0F6FE"/>
<rect x="36" y="70" width="39" height="9" rx="2" fill="#F0F6FE"/>
<circle cx="14.5" cy="69.5" r="4.5" fill="white"/>
<path d="M16.1596 69.0685C16.4904 69.2614 16.4904 69.7393 16.1596 69.9323L14.052 71.1617C13.7186 71.3562 13.3 71.1157 13.3 70.7298L13.3 68.2709C13.3 67.885 13.7186 67.6446 14.052 67.839L16.1596 69.0685Z" fill="#589CFE"/>
</svg>
