<svg width="156" height="22" viewBox="0 0 156 22" fill="none" xmlns="http://www.w3.org/2000/svg">
<path d="M153.746 21.9024C153.173 21.9111 152.62 21.6918 152.208 21.2928C151.797 20.8937 151.561 20.3476 151.552 19.7744V11.098C151.516 10.3793 151.206 9.70169 150.685 9.20547C150.164 8.70926 149.472 8.43248 148.752 8.43248C148.033 8.43248 147.341 8.70926 146.82 9.20547C146.299 9.70169 145.988 10.3793 145.953 11.098V19.7763C145.918 20.3351 145.672 20.8595 145.264 21.2427C144.855 21.626 144.317 21.8394 143.757 21.8394C143.197 21.8394 142.658 21.626 142.25 21.2427C141.842 20.8595 141.595 20.3351 141.56 19.7763V11.098C141.635 9.24047 142.425 7.48369 143.765 6.19566C145.106 4.90764 146.893 4.18829 148.752 4.18829C150.611 4.18829 152.398 4.90764 153.738 6.19566C155.079 7.48369 155.869 9.24047 155.943 11.098V19.7763C155.934 20.3495 155.697 20.8954 155.285 21.2941C154.873 21.6928 154.32 21.9116 153.746 21.9024ZM129.546 21.7464C127.816 21.6919 126.14 21.129 124.727 20.1279C123.315 19.1269 122.229 17.732 121.604 16.1175C120.98 14.503 120.845 12.7403 121.216 11.0494C121.587 9.35856 122.448 7.81445 123.691 6.60983C124.934 5.40522 126.505 4.59345 128.207 4.27585C129.908 3.95825 131.666 4.1489 133.26 4.82399C134.854 5.49908 136.214 6.62871 137.17 8.07188C138.126 9.51505 138.636 11.2078 138.635 12.9389C138.594 15.3109 137.614 17.5697 135.91 19.2206C134.206 20.8714 131.918 21.7797 129.546 21.7464ZM129.546 8.38833C128.652 8.4169 127.786 8.70811 127.057 9.22563C126.327 9.74314 125.766 10.464 125.444 11.2984C125.121 12.1327 125.052 13.0434 125.244 13.917C125.436 14.7906 125.881 15.5882 126.523 16.2105C127.166 16.8327 127.978 17.2519 128.857 17.4158C129.736 17.5797 130.644 17.4811 131.468 17.1321C132.291 16.7832 132.994 16.1994 133.488 15.4537C133.981 14.708 134.245 13.8334 134.245 12.9389C134.223 11.7132 133.716 10.5461 132.835 9.69326C131.954 8.84039 130.772 8.37118 129.546 8.38833ZM114.666 21.9024C114.093 21.9108 113.54 21.6915 113.129 21.2925C112.717 20.8935 112.481 20.3475 112.471 19.7744V13.203C112.434 12.5026 112.135 11.8416 111.635 11.3504C111.134 10.8592 110.467 10.5734 109.766 10.5494C109.065 10.5254 108.38 10.7649 107.847 11.2206C107.314 11.6764 106.971 12.3154 106.886 13.0117V19.7859C106.876 20.3598 106.638 20.9062 106.225 21.3052C105.813 21.7041 105.259 21.9231 104.685 21.9138C104.318 21.9139 103.957 21.8242 103.632 21.6526C103.288 21.4754 102.999 21.2073 102.797 20.8773C102.594 20.5474 102.486 20.1682 102.484 19.7811V13.203C102.484 13.092 102.484 12.982 102.492 12.872V2.17479C102.521 1.61132 102.765 1.08044 103.174 0.691812C103.583 0.30318 104.125 0.0864822 104.69 0.0864822C105.254 0.0864822 105.797 0.30318 106.206 0.691812C106.615 1.08044 106.859 1.61132 106.887 2.17479V6.82299C107.772 6.46302 108.719 6.27875 109.674 6.28047C111.544 6.24765 113.351 6.95747 114.699 8.25446C116.048 9.55144 116.827 11.3299 116.866 13.2001V19.7744C116.861 20.0586 116.801 20.3391 116.688 20.5999C116.575 20.8606 116.411 21.0966 116.207 21.2942C116.003 21.4918 115.762 21.6472 115.497 21.7516C115.233 21.8559 114.951 21.9072 114.666 21.9024ZM94.0872 17.6503H96.4104C96.6965 17.6398 96.9817 17.687 97.2491 17.7893C97.5165 17.8915 97.7606 18.0466 97.9667 18.2453C98.1728 18.444 98.3368 18.6822 98.4487 18.9456C98.5607 19.2091 98.6184 19.4924 98.6184 19.7787C98.6184 20.065 98.5607 20.3483 98.4487 20.6118C98.3368 20.8753 98.1728 21.1135 97.9667 21.3121C97.7606 21.5108 97.5165 21.6659 97.2491 21.7681C96.9817 21.8704 96.6965 21.9177 96.4104 21.9071H94.0872C92.242 21.9266 90.4644 21.2133 89.1444 19.9237C87.8244 18.6342 87.0698 16.8738 87.0461 15.0286V2.1279C87.0829 1.57057 87.3302 1.04809 87.738 0.666368C88.1457 0.284651 88.6834 0.0722656 89.242 0.0722656C89.8005 0.0722656 90.3381 0.284651 90.7459 0.666368C91.1537 1.04809 91.401 1.57057 91.4378 2.1279V6.33788H95.9951C96.2812 6.32737 96.5665 6.37465 96.8339 6.47688C97.1013 6.57911 97.3454 6.7342 97.5515 6.93288C97.7576 7.13156 97.9215 7.36975 98.0335 7.63322C98.1455 7.89669 98.2032 8.18003 98.2032 8.46631C98.2032 8.75259 98.1455 9.03593 98.0335 9.2994C97.9215 9.56287 97.7576 9.80107 97.5515 9.99975C97.3454 10.1984 97.1013 10.3535 96.8339 10.4557C96.5665 10.558 96.2812 10.6053 95.9951 10.5947H91.4378V15.0315C91.4431 15.7297 91.725 16.3974 92.2215 16.8882C92.7181 17.3791 93.389 17.6531 94.0872 17.6503ZM80.4689 21.9024C80.0434 21.906 79.626 21.7859 79.2675 21.5565C78.9091 21.3272 78.625 20.9986 78.4501 20.6107C76.98 21.5222 75.2838 22.0035 73.554 22C71.8231 21.946 70.1464 21.3834 68.7332 20.3824C67.32 19.3813 66.233 17.9862 65.6079 16.3712C64.9828 14.7562 64.8472 12.9928 65.2181 11.3012C65.589 9.60955 66.4499 8.06467 67.6935 6.85937C68.937 5.65406 70.508 4.84174 72.2103 4.52382C73.9127 4.20589 75.671 4.39644 77.2657 5.07168C78.8605 5.74692 80.221 6.87693 81.1774 8.32065C82.1339 9.76437 82.6439 11.4578 82.6438 13.1896V13.3111C82.6557 13.4064 82.6618 13.5022 82.6619 13.5982V19.7754C82.6529 20.348 82.4169 20.8936 82.006 21.2924C81.595 21.6911 81.0425 21.9105 80.4699 21.9024H80.4689ZM73.555 8.63615C72.6603 8.66416 71.7937 8.95507 71.0634 9.47257C70.333 9.99007 69.7712 10.7112 69.4482 11.546C69.1252 12.3808 69.0553 13.2923 69.2471 14.1666C69.4389 15.0409 69.884 15.8394 70.5268 16.4623C71.1696 17.0852 71.9816 17.505 72.8616 17.6693C73.7415 17.8335 74.6503 17.7349 75.4745 17.3858C76.2988 17.0367 77.0019 16.4526 77.4962 15.7063C77.9905 14.9601 78.254 14.0847 78.2539 13.1896C78.2318 11.9636 77.725 10.7963 76.8444 9.94294C75.9638 9.08961 74.7811 8.61976 73.555 8.63615ZM60.3749 8.44478H58.0518C57.3531 8.44224 56.682 8.71694 56.1857 9.20862C55.6893 9.70029 55.4083 10.3688 55.4043 11.0674V19.7821C55.3712 20.3423 55.1253 20.8687 54.717 21.2537C54.3086 21.6386 53.7686 21.853 53.2074 21.853C52.6462 21.853 52.1062 21.6386 51.6979 21.2537C51.2895 20.8687 51.0437 20.3423 51.0106 19.7821V11.0636C51.0348 9.21839 51.7897 7.4581 53.1098 6.16867C54.4299 4.87924 56.2075 4.1659 58.0527 4.18505H60.3759C60.6592 4.17905 60.9408 4.22966 61.2043 4.33392C61.4678 4.43819 61.7078 4.59401 61.9103 4.79224C62.1128 4.99048 62.2737 5.22715 62.3835 5.48837C62.4933 5.74959 62.5499 6.03011 62.5499 6.31348C62.5499 6.59685 62.4933 6.87737 62.3835 7.13859C62.2737 7.39982 62.1128 7.63648 61.9103 7.83472C61.7078 8.03296 61.4678 8.18878 61.2043 8.29304C60.9408 8.39731 60.6592 8.44792 60.3759 8.44191L60.3749 8.44478ZM44.0861 21.9024C43.6608 21.9052 43.2437 21.7847 42.8854 21.5555C42.5271 21.3262 42.2429 20.998 42.0672 20.6107C40.598 21.5233 38.9018 22.0047 37.1722 22C35.4412 21.946 33.7645 21.3834 32.3513 20.3824C30.9382 19.3813 29.8512 17.9862 29.226 16.3712C28.6009 14.7562 28.4653 12.9928 28.8362 11.3012C29.2071 9.60955 30.0681 8.06467 31.3116 6.85937C32.5551 5.65406 34.1261 4.84174 35.8285 4.52382C37.5308 4.20589 39.2891 4.39644 40.8839 5.07168C42.4786 5.74692 43.8391 6.87693 44.7956 8.32065C45.752 9.76437 46.262 11.4578 46.2619 13.1896V13.291C46.278 13.392 46.286 13.494 46.2858 13.5963V19.7734C46.2812 20.0577 46.2207 20.3382 46.1076 20.599C45.9946 20.8599 45.8312 21.0959 45.627 21.2936C45.4227 21.4913 45.1815 21.6468 44.9171 21.7512C44.6527 21.8557 44.3703 21.907 44.0861 21.9024ZM37.1722 8.63615C36.2774 8.66378 35.4106 8.95438 34.68 9.47167C33.9494 9.98895 33.3873 10.71 33.064 11.5448C32.7407 12.3796 32.6705 13.2911 32.8621 14.1655C33.0537 15.04 33.4986 15.8386 34.1414 16.4617C34.7841 17.0848 35.5962 17.5048 36.4762 17.6692C37.3561 17.8336 38.265 17.7351 39.0894 17.386C39.9137 17.037 40.617 16.4529 41.1114 15.7065C41.6057 14.9602 41.8693 14.0848 41.8692 13.1896C41.848 11.9636 41.3418 10.796 40.4614 9.94249C39.581 9.089 38.3983 8.61925 37.1722 8.63615ZM22.1761 21.9024C21.6029 21.9111 21.0497 21.6918 20.6381 21.2928C20.2265 20.8937 19.9902 20.3476 19.9811 19.7744V11.098C19.945 10.3856 19.6387 9.71382 19.1247 9.21926C18.6107 8.72471 17.9276 8.4446 17.2143 8.43594C16.5011 8.42728 15.8114 8.69073 15.2855 9.17266C14.7597 9.6546 14.4372 10.3188 14.3838 11.0301C14.3838 11.0531 14.3838 11.0751 14.3838 11.098V19.7763C14.3742 20.3493 14.1377 20.8952 13.7263 21.2941C13.3148 21.693 12.7619 21.9125 12.1888 21.9043C11.6149 21.9137 11.0606 21.6949 10.648 21.2959C10.2353 20.8968 9.99798 20.3503 9.98817 19.7763V11.098C9.98817 11.0751 9.98817 11.0531 9.98817 11.0301C9.93124 10.3219 9.60752 9.66166 9.08245 9.18298C8.55738 8.70429 7.87014 8.44283 7.15968 8.45146C6.44921 8.46009 5.76852 8.73816 5.25524 9.22946C4.74195 9.72075 4.43435 10.3886 4.39464 11.098V19.7763C4.36361 20.3381 4.11859 20.8667 3.70991 21.2534C3.30124 21.6401 2.75997 21.8556 2.19732 21.8556C1.63468 21.8556 1.0934 21.6401 0.684727 21.2534C0.276055 20.8667 0.031028 20.3381 0 19.7763V11.098C0.0389599 9.22799 0.817679 7.44968 2.1655 6.15279C3.51332 4.85591 5.3203 4.14624 7.19045 4.17931C9.04142 4.17223 10.8264 4.86658 12.186 6.1226C13.5452 4.8658 15.3302 4.17074 17.1815 4.1774C19.0517 4.14509 20.8584 4.85531 22.2059 6.15247C23.5535 7.44963 24.332 9.22799 24.371 11.098V19.7763C24.3612 20.3491 24.1246 20.8946 23.7131 21.2931C23.3016 21.6917 22.7488 21.9108 22.1761 21.9024Z" fill="#589CFE"/>
</svg>
