<svg xmlns="http://www.w3.org/2000/svg" width="193.002" height="56.992" viewBox="0 0 193.002 56.992"><g transform="translate(-104.001 -68.008)"><path d="M-490.865,10.17a6.929,6.929,0,0,1,7.019-6.818,6.926,6.926,0,0,1,7.017,6.818v.078a1.313,1.313,0,0,1,.019.237v4.78a1.673,1.673,0,0,1-1.7,1.647,1.7,1.7,0,0,1-1.56-1,7.111,7.111,0,0,1-3.78,1.075A6.929,6.929,0,0,1-490.865,10.17Zm3.392,0a3.582,3.582,0,0,0,3.627,3.524,3.58,3.58,0,0,0,3.626-3.524,3.58,3.58,0,0,0-3.626-3.524A3.582,3.582,0,0,0-487.473,10.17Zm30.244,6.544a1.641,1.641,0,0,1-.887-1.449V10.178c0-.086,0-.171.006-.256V1.647A1.672,1.672,0,0,1-456.413,0a1.674,1.674,0,0,1,1.7,1.647v3.6a5.683,5.683,0,0,1,2.152-.42,5.464,5.464,0,0,1,5.554,5.354v5.087a1.672,1.672,0,0,1-1.7,1.647,1.672,1.672,0,0,1-1.7-1.647V10.178a2.116,2.116,0,0,0-2.162-2.06,2.119,2.119,0,0,0-2.152,1.908v5.242a1.674,1.674,0,0,1-1.7,1.647A1.74,1.74,0,0,1-457.229,16.714Zm-16.854-6.737a6.929,6.929,0,0,1,7.021-6.816,7.113,7.113,0,0,1,4.345,1.467c.028.02.377.322.377.322a1.678,1.678,0,0,1,.037,2.367,1.666,1.666,0,0,1-2.36-.038l-.231-.124a3.681,3.681,0,0,0-2.167-.7,3.584,3.584,0,0,0-3.632,3.522,3.583,3.583,0,0,0,3.632,3.521c1.32,0,2.259-.124,2.894-1.151.036-.08.226-.442.226-.442a1.706,1.706,0,0,1,2.376-.037,1.891,1.891,0,0,1-.029,2.544c-1.211,1.747-3.035,2.38-5.466,2.38A6.928,6.928,0,0,1-474.083,9.976Zm-33.964,0a6.929,6.929,0,0,1,7.021-6.816,6.927,6.927,0,0,1,7.019,6.816,6.927,6.927,0,0,1-7.019,6.815A6.928,6.928,0,0,1-508.047,9.976Zm3.389,0a3.583,3.583,0,0,0,3.632,3.521A3.58,3.58,0,0,0-497.4,9.976a3.581,3.581,0,0,0-3.629-3.522A3.584,3.584,0,0,0-504.658,9.976Zm-19.341,0a6.929,6.929,0,0,1,7.021-6.816,7.115,7.115,0,0,1,4.346,1.467c.028.02.376.322.376.322a1.678,1.678,0,0,1,.037,2.367,1.665,1.665,0,0,1-2.359-.038l-.232-.124a3.681,3.681,0,0,0-2.167-.7,3.584,3.584,0,0,0-3.632,3.522,3.583,3.583,0,0,0,3.632,3.521c1.32,0,2.259-.124,2.893-1.151.037-.08.227-.442.227-.442a1.7,1.7,0,0,1,2.375-.037,1.89,1.89,0,0,1-.028,2.544c-1.211,1.747-3.034,2.38-5.467,2.38A6.928,6.928,0,0,1-524,9.976Z" transform="translate(744 108.012)" fill="#7692ae"/><path d="M1254.272,398.874a2.667,2.667,0,0,1-2.72-2.611V385.616a3.469,3.469,0,0,0-6.926,0v10.647a2.72,2.72,0,0,1-5.437,0V385.616a8.91,8.91,0,0,1,17.8,0v10.647A2.666,2.666,0,0,1,1254.272,398.874Zm-29.952-.191a10.815,10.815,0,1,1,11.25-10.806A11.049,11.049,0,0,1,1224.32,398.683Zm0-16.39a5.588,5.588,0,1,0,5.816,5.584A5.715,5.715,0,0,0,1224.32,382.294Zm-18.415,16.58a2.667,2.667,0,0,1-2.719-2.611V388.2a3.474,3.474,0,0,0-6.914-.24v8.311a2.67,2.67,0,0,1-2.721,2.611,2.8,2.8,0,0,1-1.308-.32,2.6,2.6,0,0,1-1.42-2.3V388.2c0-.136,0-.271.009-.406v-13.12a2.723,2.723,0,0,1,5.441,0v5.7a9.18,9.18,0,0,1,3.449-.666,8.715,8.715,0,0,1,8.9,8.489v8.066A2.667,2.667,0,0,1,1205.9,398.874Zm-25.473-5.217h2.876a2.614,2.614,0,1,1,0,5.223h-2.876a8.59,8.59,0,0,1-8.714-8.439V374.613a2.72,2.72,0,0,1,5.435,0v5.162h5.641a2.613,2.613,0,1,1,0,5.223h-5.641v5.443A3.252,3.252,0,0,0,1180.432,393.657Zm-16.853,5.217a2.718,2.718,0,0,1-2.5-1.584,11.539,11.539,0,0,1-6.061,1.7,10.818,10.818,0,1,1,11.252-10.81c0,.05,0,.1,0,.149a2.332,2.332,0,0,1,.025.351v7.579A2.666,2.666,0,0,1,1163.579,398.874Zm-8.558-16.276a5.591,5.591,0,1,0,5.816,5.586A5.715,5.715,0,0,0,1155.021,382.6Zm-16.309-.239h-2.878a3.252,3.252,0,0,0-3.277,3.217v10.692a2.72,2.72,0,0,1-5.437,0V385.576a8.591,8.591,0,0,1,8.714-8.44h2.878a2.613,2.613,0,1,1,0,5.223Zm-20.162,16.515a2.726,2.726,0,0,1-2.5-1.585,11.487,11.487,0,0,1-6.058,1.705,10.818,10.818,0,1,1,11.247-10.81v.125a2.027,2.027,0,0,1,.031.375v7.579A2.668,2.668,0,0,1,1118.55,398.874Zm-8.558-16.276a5.591,5.591,0,1,0,5.813,5.586A5.712,5.712,0,0,0,1109.992,382.6Zm-18.561,16.276a2.666,2.666,0,0,1-2.718-2.611V385.616a3.472,3.472,0,0,0-6.927-.083c0,.028,0,.055,0,.083v10.647a2.669,2.669,0,0,1-2.718,2.611h-.005a2.668,2.668,0,0,1-2.72-2.611V385.616c0-.028,0-.055,0-.083a3.471,3.471,0,0,0-6.924.083v10.647a2.721,2.721,0,0,1-5.437,0V385.616a8.71,8.71,0,0,1,8.9-8.489,9.1,9.1,0,0,1,6.182,2.387,9.1,9.1,0,0,1,6.182-2.387,8.711,8.711,0,0,1,8.9,8.489v10.647A2.665,2.665,0,0,1,1091.431,398.874Z" transform="translate(-959.988 -303.994)" fill="#589cfe"/></g></svg>