<svg xmlns="http://www.w3.org/2000/svg" width="20.235" height="19.029" viewBox="0 0 20.235 19.029"><g transform="translate(0 0)"><path d="M2.231,19.029a2.225,2.225,0,0,1,0-4.45H17.976a2.225,2.225,0,0,1,0,4.45ZM1.376,16.8a.855.855,0,0,0,.855.855H17.976a.856.856,0,0,0,0-1.711H2.231A.856.856,0,0,0,1.376,16.8ZM2.1,13.731a2.109,2.109,0,0,1-2.1-2.1v-.445A6.58,6.58,0,0,1,2.6,6.33,11.089,11.089,0,0,1,7.146,4.037V2.928a2.927,2.927,0,1,1,5.853,0V4.051a11.49,11.49,0,0,1,4.573,2.293,6.527,6.527,0,0,1,2.663,4.84v.445a2.109,2.109,0,0,1-2.1,2.1Zm6.414-10.8V4.6a.691.691,0,0,1-.582.677C4.846,5.769,1.376,8.4,1.369,11.184v.445a.732.732,0,0,0,.732.732H18.134a.732.732,0,0,0,.732-.732v-.445c-.007-2.745-3.525-5.38-6.667-5.9a.684.684,0,0,1-.568-.677V2.928a1.561,1.561,0,0,0-3.115,0Z" transform="translate(0 0)"/></g></svg>