<svg width="17" height="17" viewBox="0 0 17 17" fill="none" xmlns="http://www.w3.org/2000/svg">
<path d="M5.15625 8.9375C4.54436 8.9375 3.94622 8.75606 3.43745 8.41611C2.92869 8.07616 2.53216 7.59299 2.298 7.02768C2.06384 6.46237 2.00257 5.84032 2.12195 5.24019C2.24132 4.64006 2.53597 4.08881 2.96864 3.65614C3.40131 3.22347 3.95256 2.92882 4.55269 2.80945C5.15282 2.69007 5.77487 2.75134 6.34018 2.9855C6.90549 3.21966 7.38866 3.61619 7.72861 4.12496C8.06855 4.63372 8.25 5.23186 8.25 5.84375C8.24909 6.66399 7.92285 7.45036 7.34286 8.03036C6.76286 8.61035 5.97648 8.93659 5.15625 8.9375ZM5.15625 4.125C4.81631 4.125 4.48401 4.2258 4.20136 4.41466C3.91872 4.60352 3.69842 4.87195 3.56833 5.18601C3.43824 5.50007 3.40421 5.84566 3.47053 6.17906C3.53684 6.51247 3.70054 6.81872 3.94091 7.05909C4.18128 7.29946 4.48753 7.46316 4.82094 7.52948C5.15434 7.59579 5.49993 7.56176 5.81399 7.43167C6.12805 7.30158 6.39648 7.08128 6.58534 6.79864C6.7742 6.51599 6.875 6.18369 6.875 5.84375C6.875 5.38791 6.69392 4.95074 6.37159 4.62841C6.04926 4.30608 5.61209 4.125 5.15625 4.125ZM10.3125 15.8125V15.4688C10.3125 14.1012 9.76925 12.7897 8.80227 11.8227C7.83528 10.8557 6.52377 10.3125 5.15625 10.3125C3.78873 10.3125 2.47722 10.8557 1.51023 11.8227C0.543246 12.7897 0 14.1012 0 15.4688L0 15.8125C0 15.9948 0.0724328 16.1697 0.201364 16.2986C0.330295 16.4276 0.505164 16.5 0.6875 16.5C0.869836 16.5 1.0447 16.4276 1.17364 16.2986C1.30257 16.1697 1.375 15.9948 1.375 15.8125V15.4688C1.375 14.4659 1.77338 13.5041 2.4825 12.795C3.19162 12.0859 4.1534 11.6875 5.15625 11.6875C6.1591 11.6875 7.12088 12.0859 7.83 12.795C8.53912 13.5041 8.9375 14.4659 8.9375 15.4688V15.8125C8.9375 15.9948 9.00993 16.1697 9.13886 16.2986C9.2678 16.4276 9.44266 16.5 9.625 16.5C9.80734 16.5 9.9822 16.4276 10.1111 16.2986C10.2401 16.1697 10.3125 15.9948 10.3125 15.8125ZM16.5 12.375C16.5 11.446 16.231 10.5368 15.7257 9.75725C15.2203 8.9777 14.5001 8.36109 13.652 7.98185C12.8039 7.60262 11.8641 7.47697 10.9462 7.62007C10.0283 7.76317 9.17136 8.16891 8.47894 8.78831C8.41071 8.84826 8.35505 8.92113 8.31515 9.00272C8.27525 9.08431 8.25191 9.17299 8.24648 9.26365C8.24105 9.35431 8.25364 9.44514 8.28351 9.53091C8.31339 9.61668 8.35996 9.69567 8.42054 9.76334C8.48112 9.831 8.55451 9.88599 8.63646 9.92513C8.71841 9.96427 8.80731 9.98679 8.89801 9.99137C8.98872 9.99596 9.07943 9.98254 9.16492 9.95187C9.2504 9.9212 9.32896 9.87389 9.39606 9.81269C9.89069 9.37036 10.5028 9.08065 11.1584 8.97852C11.814 8.87638 12.4852 8.9662 13.091 9.23711C13.6967 9.50803 14.2111 9.94847 14.572 10.5053C14.9329 11.0621 15.125 11.7114 15.125 12.375C15.125 12.5573 15.1974 12.7322 15.3264 12.8611C15.4553 12.9901 15.6302 13.0625 15.8125 13.0625C15.9948 13.0625 16.1697 12.9901 16.2986 12.8611C16.4276 12.7322 16.5 12.5573 16.5 12.375ZM12.0312 6.1875C11.4194 6.1875 10.8212 6.00606 10.3125 5.66611C9.80369 5.32616 9.40716 4.84299 9.173 4.27768C8.93884 3.71237 8.87757 3.09032 8.99695 2.49019C9.11632 1.89006 9.41097 1.33881 9.84364 0.90614C10.2763 0.473471 10.8276 0.17882 11.4277 0.0594469C12.0278 -0.0599261 12.6499 0.00134048 13.2152 0.235499C13.7805 0.469658 14.2637 0.866191 14.6036 1.37496C14.9436 1.88372 15.125 2.48186 15.125 3.09375C15.1241 3.91399 14.7979 4.70036 14.2179 5.28036C13.6379 5.86035 12.8515 6.18659 12.0312 6.1875ZM12.0312 1.375C11.6913 1.375 11.359 1.4758 11.0764 1.66466C10.7937 1.85352 10.5734 2.12195 10.4433 2.43601C10.3132 2.75007 10.2792 3.09566 10.3455 3.42906C10.4118 3.76247 10.5755 4.06872 10.8159 4.30909C11.0563 4.54946 11.3625 4.71316 11.6959 4.77948C12.0293 4.84579 12.3749 4.81176 12.689 4.68167C13.003 4.55158 13.2715 4.33128 13.4603 4.04864C13.6492 3.76599 13.75 3.43369 13.75 3.09375C13.75 2.63791 13.5689 2.20074 13.2466 1.87841C12.9243 1.55608 12.4871 1.375 12.0312 1.375Z"/>
</svg>
