<svg xmlns="http://www.w3.org/2000/svg" width="35" height="35" viewBox="0 0 35 35"><g transform="translate(-255.929 -102.365)"><g transform="translate(255.929 102.365)" fill="none" stroke="#45535c" stroke-width="2"><rect width="35" height="35" rx="11" stroke="none"/><rect x="1" y="1" width="33" height="33" rx="10" fill="none"/></g><path d="M17.321,28.374a20.5,20.5,0,0,1-.2-2.354s-.792-6.017-1.1-7.207c-.757.712-.775,4.189-.6,6.452a10.824,10.824,0,0,0,.266,2.261c.046.314.087.581.126.849H4.965c.039-.267.079-.535.125-.849a10.76,10.76,0,0,0,.267-2.261,18.762,18.762,0,0,0-.6-6.445c0-.009,0-.009,0-.005-.653,1.177-1.1,7.205-1.1,7.205a20.5,20.5,0,0,1-.2,2.354H2.076a8.007,8.007,0,0,1-2.113-.282,10.6,10.6,0,0,1,.6-2.492c.182-1,.841-5.706.847-5.784h0c.053-.746.1-1.267.083-1.623a9.7,9.7,0,0,1,.163-3.118A3.7,3.7,0,0,1,4.3,11.994c.967-.425,2.425-1.074,3.294-1.488s.877-.464.877-.917c0-.183-.014-1.012-.03-1.226a4.077,4.077,0,0,1-.459-1.659c-.1.13-.226.114-.388-.228a5.471,5.471,0,0,1-.566-1.4c-.146-.668.339-.684.339-.684C6.684,1.177,8.873-.073,10.673,0c4,.345,2.871,4.378,2.871,4.378a.366.366,0,0,1,.357.36,3.391,3.391,0,0,1-.513,1.646c-.219.475-.436.314-.436.314a4.456,4.456,0,0,1-.625,1.68l-.014.014c-.006.142-.011,1.076-.011,1.2,0,.454.01.5.877.917s2.326,1.063,3.294,1.488a3.68,3.68,0,0,1,2.645,3.081,11.552,11.552,0,0,1,.163,3.118c-.016.349.03.9.083,1.623,0,0,.663,4.773.846,5.784a10.6,10.6,0,0,1,.6,2.488,8.006,8.006,0,0,1-2.127.286Z" transform="translate(263.048 107.795)" fill="#45535c"/></g></svg>