<svg xmlns="http://www.w3.org/2000/svg" width="35" height="35" viewBox="0 0 35 35"><g transform="translate(-255.929 -102.365)"><g transform="translate(255.929 102.365)" fill="none" stroke="#589cfe" stroke-width="2"><rect width="35" height="35" rx="11" stroke="none"/><rect x="1" y="1" width="33" height="33" rx="10" fill="none"/></g><path d="M17.716,28.374c0-.014,0-.028,0-.041l.092-3.622a3.866,3.866,0,0,0-.252-1.491,7.949,7.949,0,0,1-.941-2.663h-.134a18.988,18.988,0,0,0-.868,7.818H5.651a18.988,18.988,0,0,0-.868-7.818H4.649a7.949,7.949,0,0,1-.941,2.663,3.884,3.884,0,0,0-.253,1.491q.047,1.812.093,3.622c0,.014,0,.028,0,.041H2.076a8.031,8.031,0,0,1-1.643-.169,9.71,9.71,0,0,1,.05-3.172c.366-1.571.693-3.7,1.04-5.439a8.866,8.866,0,0,0,.167-1.534c.034-1.544.271-4.515.942-5.375a5.278,5.278,0,0,1,2.975-1.6,5.31,5.31,0,0,0,1.752-.839c.087-.076.174-.153.259-.229a2.923,2.923,0,0,0,.967-2.112A27.777,27.777,0,0,0,7.74,4.274a2.732,2.732,0,0,1,0-2.171,3.087,3.087,0,0,1,5.784,0,2.732,2.732,0,0,1,0,2.171,27.777,27.777,0,0,0-.847,3.631,2.923,2.923,0,0,0,.967,2.112c.086.076.172.154.259.229a5.31,5.31,0,0,0,1.752.839,5.281,5.281,0,0,1,2.975,1.6c.671.859.908,3.83.942,5.375a8.866,8.866,0,0,0,.167,1.534c.347,1.735.674,3.867,1.04,5.439a9.479,9.479,0,0,1,.065,3.046,8.008,8.008,0,0,1-2.161.3Z" transform="translate(263.048 107.795)" fill="#589cfe"/></g></svg>