<svg xmlns="http://www.w3.org/2000/svg" width="35" height="35" viewBox="0 0 35 35"><g transform="translate(-255.929 -102.365)"><g transform="translate(255.929 102.365)" fill="none" stroke="#45535c" stroke-width="2"><rect width="35" height="35" rx="11" stroke="none"/><rect x="1" y="1" width="33" height="33" rx="10" fill="none"/></g><path d="M12.7,28.374a9.322,9.322,0,0,0-.834-1.685c-.308-.459-.939-.837-1.094-1.449q.234-1.376.469-2.753A11.886,11.886,0,0,0,11.081,18a2.218,2.218,0,0,0,1.251-1.883h-.156v.145c-.174.218-.139.617-.313.869-.323.465-.852.535-1.094,1.158,1.252,1.718-.751,5.55-.157,7.245.294.839,1.319,1.606,1.72,2.463q.089.19.171.381H7.62a1.911,1.911,0,0,1-.135-.236L6.667,24.17c-1.709-1.626-3.486-6.494-2.311-10.231.49-1.557,2.142-3.363,2.659-4.927C7.8,6.64,4.388,5.378,5.451,2.492a4.788,4.788,0,0,1,2.7-2.705A5.086,5.086,0,0,1,11.19-.451a3.129,3.129,0,0,1,2.393,1.784C14,2.456,13.48,3.4,13.9,4.521a.931.931,0,0,0,.141.257,1.233,1.233,0,0,1,.013,1.442.6.6,0,0,0-.06.123c-.086.228-.22.329-.144.561a1.212,1.212,0,0,1,.047.208A1.488,1.488,0,0,1,12.38,8.72c-.158.005-.329.005-.517,0-.133.229-.056.479-.1.693a6.74,6.74,0,0,1-.248.84,1.993,1.993,0,0,0-.118,1.22c.284.61.557.381,1.094.724a15.774,15.774,0,0,1,2.982,3.276,2.857,2.857,0,0,1,.373,2.395c-.237.859.241,1.654-.018,2.767-.2.868-.185,1.915-.365,2.863a6.561,6.561,0,0,0,.312,2.029,9.5,9.5,0,0,1,.1,2.844Z" transform="translate(263.048 107.795)" fill="#45535c"/></g></svg>