<svg xmlns="http://www.w3.org/2000/svg" width="31" height="31" viewBox="0 0 31 31"><g transform="translate(-360 -989)" fill="none"><path d="M385,1020a3,3,0,0,1-3-3v-3a3,3,0,0,1,3-3h3a3,3,0,0,1,3,3v3a3,3,0,0,1-3,3Zm-11,0a3,3,0,0,1-3-3v-3a3,3,0,0,1,3-3h3a3,3,0,0,1,3,3v3a3,3,0,0,1-3,3Zm-11,0a3,3,0,0,1-3-3v-3a3,3,0,0,1,3-3h3a3,3,0,0,1,3,3v3a3,3,0,0,1-3,3Zm22-11a3,3,0,0,1-3-3v-3a3,3,0,0,1,3-3h3a3,3,0,0,1,3,3v3a3,3,0,0,1-3,3Zm-11,0a3,3,0,0,1-3-3v-3a3,3,0,0,1,3-3h3a3,3,0,0,1,3,3v3a3,3,0,0,1-3,3Zm-11,0a3,3,0,0,1-3-3v-3a3,3,0,0,1,3-3h3a3,3,0,0,1,3,3v3a3,3,0,0,1-3,3Zm22-11a3,3,0,0,1-3-3v-3a3,3,0,0,1,3-3h3a3,3,0,0,1,3,3v3a3,3,0,0,1-3,3Zm-11,0a3,3,0,0,1-3-3v-3a3,3,0,0,1,3-3h3a3,3,0,0,1,3,3v3a3,3,0,0,1-3,3Zm-11,0a3,3,0,0,1-3-3v-3a3,3,0,0,1,3-3h3a3,3,0,0,1,3,3v3a3,3,0,0,1-3,3Z" stroke="none"/><path d="M 387.9999084472656 1017.999694824219 C 388.5511474609375 1017.999694824219 388.9996032714844 1017.551208496094 388.9996032714844 1017 L 388.9996032714844 1014.000305175781 C 388.9996032714844 1013.448547363281 388.5511474609375 1012.999694824219 387.9999084472656 1012.999694824219 L 385.0002136230469 1012.999694824219 C 384.448486328125 1012.999694824219 383.9996032714844 1013.448547363281 383.9996032714844 1014.000305175781 L 383.9996032714844 1017 C 383.9996032714844 1017.551208496094 384.448486328125 1017.999694824219 385.0002136230469 1017.999694824219 L 387.9999084472656 1017.999694824219 M 377.0001220703125 1017.999694824219 C 377.5513610839844 1017.999694824219 377.9998168945312 1017.551208496094 377.9998168945312 1017 L 377.9998168945312 1014.000305175781 C 377.9998168945312 1013.448547363281 377.5513610839844 1012.999694824219 377.0001220703125 1012.999694824219 L 374.0003967285156 1012.999694824219 C 373.4486694335938 1012.999694824219 372.9998168945312 1013.448547363281 372.9998168945312 1014.000305175781 L 372.9998168945312 1017 C 372.9998168945312 1017.551208496094 373.4486694335938 1017.999694824219 374.0003967285156 1017.999694824219 L 377.0001220703125 1017.999694824219 M 366.0003051757812 1017.999694824219 C 366.5515441894531 1017.999694824219 367 1017.551208496094 367 1017 L 367 1014.000305175781 C 367 1013.448547363281 366.5515441894531 1012.999694824219 366.0003051757812 1012.999694824219 L 362.9996948242188 1012.999694824219 C 362.4484558105469 1012.999694824219 362 1013.448547363281 362 1014.000305175781 L 362 1017 C 362 1017.551208496094 362.4484558105469 1017.999694824219 362.9996948242188 1017.999694824219 L 366.0003051757812 1017.999694824219 M 387.9999084472656 1006.999938964844 C 388.5511474609375 1006.999938964844 388.9996032714844 1006.551452636719 388.9996032714844 1006.000244140625 L 388.9996032714844 1002.999633789062 C 388.9996032714844 1002.448425292969 388.5511474609375 1001.999938964844 387.9999084472656 1001.999938964844 L 385.0002136230469 1001.999938964844 C 384.448486328125 1001.999938964844 383.9996032714844 1002.448425292969 383.9996032714844 1002.999633789062 L 383.9996032714844 1006.000244140625 C 383.9996032714844 1006.551452636719 384.448486328125 1006.999938964844 385.0002136230469 1006.999938964844 L 387.9999084472656 1006.999938964844 M 377.0001220703125 1006.999938964844 C 377.5513610839844 1006.999938964844 377.9998168945312 1006.551452636719 377.9998168945312 1006.000244140625 L 377.9998168945312 1002.999633789062 C 377.9998168945312 1002.448425292969 377.5513610839844 1001.999938964844 377.0001220703125 1001.999938964844 L 374.0003967285156 1001.999938964844 C 373.4486694335938 1001.999938964844 372.9998168945312 1002.448425292969 372.9998168945312 1002.999633789062 L 372.9998168945312 1006.000244140625 C 372.9998168945312 1006.551452636719 373.4486694335938 1006.999938964844 374.0003967285156 1006.999938964844 L 377.0001220703125 1006.999938964844 M 366.0003051757812 1006.999938964844 C 366.5515441894531 1006.999938964844 367 1006.551452636719 367 1006.000244140625 L 367 1002.999633789062 C 367 1002.448425292969 366.5515441894531 1001.999938964844 366.0003051757812 1001.999938964844 L 362.9996948242188 1001.999938964844 C 362.4484558105469 1001.999938964844 362 1002.448425292969 362 1002.999633789062 L 362 1006.000244140625 C 362 1006.551452636719 362.4484558105469 1006.999938964844 362.9996948242188 1006.999938964844 L 366.0003051757812 1006.999938964844 M 387.9999084472656 996.0001220703125 C 388.5511474609375 996.0001220703125 388.9996032714844 995.5516357421875 388.9996032714844 995.0004272460938 L 388.9996032714844 991.9998168945312 C 388.9996032714844 991.4486083984375 388.5511474609375 991.0001220703125 387.9999084472656 991.0001220703125 L 385.0002136230469 991.0001220703125 C 384.448486328125 991.0001220703125 383.9996032714844 991.4486083984375 383.9996032714844 991.9998168945312 L 383.9996032714844 995.0004272460938 C 383.9996032714844 995.5516357421875 384.448486328125 996.0001220703125 385.0002136230469 996.0001220703125 L 387.9999084472656 996.0001220703125 M 377.0001220703125 996.0001220703125 C 377.5513610839844 996.0001220703125 377.9998168945312 995.5516357421875 377.9998168945312 995.0004272460938 L 377.9998168945312 991.9998168945312 C 377.9998168945312 991.4486083984375 377.5513610839844 991.0001220703125 377.0001220703125 991.0001220703125 L 374.0003967285156 991.0001220703125 C 373.4486694335938 991.0001220703125 372.9998168945312 991.4486083984375 372.9998168945312 991.9998168945312 L 372.9998168945312 995.0004272460938 C 372.9998168945312 995.5516357421875 373.4486694335938 996.0001220703125 374.0003967285156 996.0001220703125 L 377.0001220703125 996.0001220703125 M 366.0003051757812 996.0001220703125 C 366.5515441894531 996.0001220703125 367 995.5516357421875 367 995.0004272460938 L 367 991.9998168945312 C 367 991.4486083984375 366.5515441894531 991.0001220703125 366.0003051757812 991.0001220703125 L 362.9996948242188 991.0001220703125 C 362.4484558105469 991.0001220703125 362 991.4486083984375 362 991.9998168945312 L 362 995.0004272460938 C 362 995.5516357421875 362.4484558105469 996.0001220703125 362.9996948242188 996.0001220703125 L 366.0003051757812 996.0001220703125 M 387.9999084472656 1019.999694824219 L 385.0002136230469 1019.999694824219 C 383.3433227539062 1019.999694824219 381.9996032714844 1018.656921386719 381.9996032714844 1017 L 381.9996032714844 1014.000305175781 C 381.9996032714844 1012.343444824219 383.3433227539062 1010.999694824219 385.0002136230469 1010.999694824219 L 387.9999084472656 1010.999694824219 C 389.6567993164062 1010.999694824219 390.9996032714844 1012.343444824219 390.9996032714844 1014.000305175781 L 390.9996032714844 1017 C 390.9996032714844 1018.656921386719 389.6567993164062 1019.999694824219 387.9999084472656 1019.999694824219 Z M 377.0001220703125 1019.999694824219 L 374.0003967285156 1019.999694824219 C 372.343505859375 1019.999694824219 370.9998168945312 1018.656921386719 370.9998168945312 1017 L 370.9998168945312 1014.000305175781 C 370.9998168945312 1012.343444824219 372.343505859375 1010.999694824219 374.0003967285156 1010.999694824219 L 377.0001220703125 1010.999694824219 C 378.6570129394531 1010.999694824219 379.9998168945312 1012.343444824219 379.9998168945312 1014.000305175781 L 379.9998168945312 1017 C 379.9998168945312 1018.656921386719 378.6570129394531 1019.999694824219 377.0001220703125 1019.999694824219 Z M 366.0003051757812 1019.999694824219 L 362.9996948242188 1019.999694824219 C 361.3428039550781 1019.999694824219 360 1018.656921386719 360 1017 L 360 1014.000305175781 C 360 1012.343444824219 361.3428039550781 1010.999694824219 362.9996948242188 1010.999694824219 L 366.0003051757812 1010.999694824219 C 367.6571960449219 1010.999694824219 369 1012.343444824219 369 1014.000305175781 L 369 1017 C 369 1018.656921386719 367.6571960449219 1019.999694824219 366.0003051757812 1019.999694824219 Z M 387.9999084472656 1008.999938964844 L 385.0002136230469 1008.999938964844 C 383.3433227539062 1008.999938964844 381.9996032714844 1007.657104492188 381.9996032714844 1006.000244140625 L 381.9996032714844 1002.999633789062 C 381.9996032714844 1001.342712402344 383.3433227539062 999.9999389648438 385.0002136230469 999.9999389648438 L 387.9999084472656 999.9999389648438 C 389.6567993164062 999.9999389648438 390.9996032714844 1001.342712402344 390.9996032714844 1002.999633789062 L 390.9996032714844 1006.000244140625 C 390.9996032714844 1007.657104492188 389.6567993164062 1008.999938964844 387.9999084472656 1008.999938964844 Z M 377.0001220703125 1008.999938964844 L 374.0003967285156 1008.999938964844 C 372.343505859375 1008.999938964844 370.9998168945312 1007.657104492188 370.9998168945312 1006.000244140625 L 370.9998168945312 1002.999633789062 C 370.9998168945312 1001.342712402344 372.343505859375 999.9999389648438 374.0003967285156 999.9999389648438 L 377.0001220703125 999.9999389648438 C 378.6570129394531 999.9999389648438 379.9998168945312 1001.342712402344 379.9998168945312 1002.999633789062 L 379.9998168945312 1006.000244140625 C 379.9998168945312 1007.657104492188 378.6570129394531 1008.999938964844 377.0001220703125 1008.999938964844 Z M 366.0003051757812 1008.999938964844 L 362.9996948242188 1008.999938964844 C 361.3428039550781 1008.999938964844 360 1007.657104492188 360 1006.000244140625 L 360 1002.999633789062 C 360 1001.342712402344 361.3428039550781 999.9999389648438 362.9996948242188 999.9999389648438 L 366.0003051757812 999.9999389648438 C 367.6571960449219 999.9999389648438 369 1001.342712402344 369 1002.999633789062 L 369 1006.000244140625 C 369 1007.657104492188 367.6571960449219 1008.999938964844 366.0003051757812 1008.999938964844 Z M 387.9999084472656 998.0001220703125 L 385.0002136230469 998.0001220703125 C 383.3433227539062 998.0001220703125 381.9996032714844 996.6564331054688 381.9996032714844 995.0004272460938 L 381.9996032714844 991.9998168945312 C 381.9996032714844 990.3428955078125 383.3433227539062 989.0001220703125 385.0002136230469 989.0001220703125 L 387.9999084472656 989.0001220703125 C 389.6567993164062 989.0001220703125 390.9996032714844 990.3428955078125 390.9996032714844 991.9998168945312 L 390.9996032714844 995.0004272460938 C 390.9996032714844 996.6564331054688 389.6567993164062 998.0001220703125 387.9999084472656 998.0001220703125 Z M 377.0001220703125 998.0001220703125 L 374.0003967285156 998.0001220703125 C 372.343505859375 998.0001220703125 370.9998168945312 996.6564331054688 370.9998168945312 995.0004272460938 L 370.9998168945312 991.9998168945312 C 370.9998168945312 990.3428955078125 372.343505859375 989.0001220703125 374.0003967285156 989.0001220703125 L 377.0001220703125 989.0001220703125 C 378.6570129394531 989.0001220703125 379.9998168945312 990.3428955078125 379.9998168945312 991.9998168945312 L 379.9998168945312 995.0004272460938 C 379.9998168945312 996.6564331054688 378.6570129394531 998.0001220703125 377.0001220703125 998.0001220703125 Z M 366.0003051757812 998.0001220703125 L 362.9996948242188 998.0001220703125 C 361.3428039550781 998.0001220703125 360 996.6564331054688 360 995.0004272460938 L 360 991.9998168945312 C 360 990.3428955078125 361.3428039550781 989.0001220703125 362.9996948242188 989.0001220703125 L 366.0003051757812 989.0001220703125 C 367.6571960449219 989.0001220703125 369 990.3428955078125 369 991.9998168945312 L 369 995.0004272460938 C 369 996.6564331054688 367.6571960449219 998.0001220703125 366.0003051757812 998.0001220703125 Z" stroke="none" fill="#589cfe"/></g></svg>