<svg width="36" height="30" viewBox="0 0 36 30" fill="none" xmlns="http://www.w3.org/2000/svg">
<path d="M12.7926 30H12.6684C11.7498 29.9669 10.8406 29.8025 9.96791 29.5103C9.6759 29.4099 9.38287 29.3033 9.09484 29.1777C8.90216 29.0973 8.71044 29.0081 8.52173 28.9147C8.33302 28.8212 8.14533 28.7239 7.95662 28.6174C7.48523 28.3545 7.03049 28.063 6.59496 27.743C6.24236 27.4878 5.89969 27.212 5.561 26.9246C5.44083 26.8151 5.31661 26.7054 5.19643 26.5959C5.07625 26.4864 4.94815 26.3662 4.82798 26.2436C4.66807 26.0859 4.51122 25.9276 4.35925 25.7608C4.20729 25.594 4.05428 25.4333 3.90629 25.2584C3.75831 25.0836 3.61826 24.9141 3.47722 24.7393C3.1925 24.3869 2.92396 24.0223 2.67169 23.6452C2.60713 23.5517 2.54759 23.4579 2.48304 23.3655C0.944628 21.0903 0.0829334 18.4167 8.42612e-07 15.6614C-0.000456136 14.4905 0.184967 13.3275 0.549227 12.2161C0.565118 12.1668 0.580983 12.122 0.596875 12.0728C0.760668 11.5906 0.957487 11.1211 1.18587 10.6666C1.25208 10.5373 1.32034 10.407 1.39052 10.2771C1.45508 10.1595 1.52257 10.0423 1.58912 9.92771C1.65566 9.81316 1.71719 9.71823 1.78771 9.61272C1.91981 9.40271 2.06393 9.19942 2.21291 8.99745C2.3013 8.87084 2.3976 8.74998 2.48898 8.63241C2.51281 8.60427 2.53264 8.5791 2.55251 8.55096C2.66077 8.42134 2.76908 8.2919 2.88132 8.1663C2.95382 8.08088 3.02923 7.9993 3.10173 7.92294C4.52071 6.41423 6.27845 5.27437 8.22578 4.59931C7.58536 5.45797 7.03732 6.38338 6.59095 7.35968C6.40224 7.76865 6.23433 8.18584 6.08635 8.60788C4.98671 9.41966 4.08894 10.4785 3.46388 11.7019C2.83882 12.9253 2.50365 14.2794 2.48498 15.6565C2.63428 18.5967 3.79357 21.3921 5.76263 23.5598C7.34461 25.5513 9.57592 26.9075 12.0567 27.3858C12.1383 26.7402 12.3323 26.1143 12.6297 25.5371C13.3914 25.9305 14.1833 26.2616 14.9975 26.5262C14.9852 26.5335 14.9744 26.5423 14.9657 26.5537L14.9419 26.5782C14.9301 26.5862 14.9194 26.595 14.9101 26.6057C14.9021 26.6138 14.8982 26.6222 14.8902 26.6303C14.8817 26.6403 14.8724 26.6501 14.8624 26.6587C14.8567 26.6684 14.8501 26.6769 14.8426 26.6852C14.8346 26.6983 14.8266 26.7065 14.8187 26.7176C14.8113 26.7256 14.8059 26.7356 14.8028 26.746C14.7942 26.7562 14.7863 26.7672 14.779 26.7784C14.7731 26.7874 14.7678 26.7962 14.7631 26.8059C14.7551 26.8174 14.7484 26.83 14.7433 26.8432C14.7358 26.8507 14.7303 26.8604 14.7274 26.8707C14.7223 26.8839 14.7156 26.8965 14.7075 26.908C14.704 26.9176 14.7001 26.9263 14.6956 26.9354C14.6956 26.9515 14.6837 26.9626 14.6797 26.9757C14.6758 26.9887 14.6717 26.9961 14.6677 27.0041C14.6638 27.0122 14.6558 27.0322 14.6518 27.0483C14.6479 27.0644 14.6519 27.0658 14.644 27.0728C14.636 27.0798 14.6321 27.1048 14.6281 27.1219C14.6241 27.139 14.628 27.1374 14.6201 27.1444L14.6082 27.1935C14.6082 27.2016 14.6081 27.21 14.6002 27.218C14.5922 27.2261 14.5923 27.254 14.5883 27.2701C14.5843 27.2861 14.5883 27.2876 14.5883 27.2946C14.5883 27.3016 14.5804 27.3304 14.5764 27.3515C14.5745 27.3567 14.5745 27.363 14.5764 27.3682C14.5764 27.3893 14.5684 27.4128 14.5644 27.4329C14.5653 27.4348 14.5658 27.4367 14.5658 27.4388C14.5658 27.4409 14.5653 27.4428 14.5644 27.4447C14.5644 27.4688 14.5645 27.4893 14.5565 27.5134C14.5565 27.5134 14.5565 27.5132 14.5565 27.5213C14.5565 27.5454 14.5565 27.5707 14.5485 27.5988C14.4969 28.0007 14.489 28.4248 14.4085 28.8107C14.4014 28.8344 14.3961 28.8588 14.3926 28.8833C14.3896 28.9069 14.3843 28.9295 14.3767 28.952C14.3776 28.9539 14.3781 28.9568 14.3781 28.9589C14.3781 28.9609 14.3776 28.9629 14.3767 28.9647C14.3767 28.9858 14.3648 29.0045 14.3609 29.0256V29.0383C14.3526 29.0582 14.3459 29.0782 14.341 29.0992C14.341 29.0992 14.341 29.1118 14.3331 29.1159C14.3275 29.1353 14.3209 29.155 14.3132 29.1738C14.3132 29.1738 14.3132 29.1815 14.3052 29.1855C14.2973 29.2066 14.2894 29.2213 14.2815 29.2424C14.2815 29.2424 14.2814 29.2511 14.2734 29.2591L14.2496 29.3082C14.2443 29.3139 14.2415 29.321 14.2417 29.3288C14.2302 29.342 14.2208 29.3578 14.2139 29.3739C14.2088 29.3802 14.2047 29.3869 14.2019 29.3945L14.1742 29.4348C14.1712 29.4434 14.1657 29.4503 14.1583 29.4554L14.1304 29.4956C14.1237 29.5014 14.1183 29.5091 14.1145 29.5172C14.1026 29.528 14.092 29.5403 14.0827 29.5535C14.0748 29.5616 14.0668 29.5651 14.0629 29.5731C14.0519 29.5852 14.0399 29.5965 14.0271 29.6065C14.0226 29.615 14.0158 29.6225 14.0073 29.6271C13.9966 29.6392 13.9846 29.6492 13.9716 29.6585L13.9477 29.6801C13.9351 29.6904 13.9218 29.7001 13.9079 29.7086C13.8993 29.7162 13.8901 29.7224 13.8801 29.7282C13.8677 29.7374 13.8543 29.7459 13.8404 29.7527L13.8126 29.7694C13.7967 29.7774 13.7849 29.7859 13.769 29.7939C13.7588 29.8001 13.7481 29.8051 13.7371 29.8096C13.7229 29.8175 13.7084 29.8241 13.6934 29.8302C13.6809 29.8373 13.6675 29.8433 13.6537 29.8469C13.6387 29.8532 13.6242 29.8597 13.61 29.8675L13.5662 29.8803C13.5512 29.8881 13.5352 29.8934 13.5186 29.897L13.4709 29.9087C13.4551 29.9087 13.4392 29.9224 13.4233 29.9264C13.4074 29.9304 13.3875 29.9262 13.3717 29.9343L13.32 29.946C13.3041 29.946 13.2842 29.9458 13.2634 29.9549C13.2465 29.9594 13.2292 29.9629 13.2117 29.9637C13.1919 29.9637 13.172 29.9635 13.1511 29.9715C13.1303 29.9796 13.1153 29.9715 13.0955 29.9715C13.0727 29.9735 13.0498 29.9735 13.027 29.9715C13.0082 29.9742 12.9891 29.9742 12.9703 29.9715C12.9462 29.9696 12.922 29.9696 12.8978 29.9715L12.7926 30ZM18.2691 25.3595C11.6751 24.3546 7.19583 19.8793 7.19583 13.4191C7.19583 6.03356 13.6815 0 21.6223 0C29.563 0 36 5.98648 36 13.3711C36 20.9184 28.9969 29.3926 21.6699 29.5996C21.6262 29.5996 21.5855 29.5996 21.5458 29.5996C18.289 29.6037 20.8286 25.7494 18.2731 25.3595H18.2691ZM13.0935 5.83573C12.0313 6.78769 11.1783 7.95515 10.5896 9.26142C10.0009 10.5677 9.68963 11.9836 9.67583 13.4191C9.64394 14.5637 9.83607 15.704 10.2411 16.7732C10.6461 17.8424 11.2559 18.8195 12.0357 19.6494C13.8267 21.4158 16.1453 22.5331 18.6297 22.8268C21.5785 23.2769 21.9748 25.9036 22.0791 27.0139C25.0947 26.5482 27.8257 24.9489 29.7268 22.5353C32.0065 20.0188 33.347 16.7764 33.517 13.3671C33.517 7.40441 28.1804 2.55332 21.6183 2.55332C18.4709 2.52673 15.4289 3.69855 13.0966 5.83671L13.0935 5.83573ZM16.7436 17.8251C16.4196 17.8251 16.1089 17.6948 15.8798 17.463C15.6507 17.2313 15.5219 16.9165 15.5219 16.5887C15.5219 16.2609 15.6507 15.9471 15.8798 15.7154C16.1089 15.4836 16.4196 15.3533 16.7436 15.3533H26.9071C27.2311 15.3533 27.5418 15.4836 27.7709 15.7154C28.0001 15.9471 28.1287 16.2609 28.1287 16.5887C28.1287 16.9165 28.0001 17.2313 27.7709 17.463C27.5418 17.6948 27.2311 17.8251 26.9071 17.8251H16.7436ZM18.9505 11.2112C18.7873 11.216 18.6249 11.1868 18.4728 11.1268C18.3207 11.0669 18.182 10.977 18.0649 10.8619C17.9479 10.7468 17.8548 10.6097 17.7913 10.4576C17.7277 10.3055 17.695 10.1419 17.695 9.97678C17.695 9.81164 17.7277 9.64806 17.7913 9.49594C17.8548 9.34383 17.9479 9.20577 18.0649 9.09067C18.182 8.97558 18.3207 8.88564 18.4728 8.82572C18.6249 8.76581 18.7873 8.7376 18.9505 8.74231H24.7032C25.0207 8.75148 25.3223 8.88568 25.5437 9.11619C25.7652 9.34669 25.889 9.65535 25.889 9.97678C25.889 10.2982 25.7652 10.6069 25.5437 10.8374C25.3223 11.0679 25.0207 11.2021 24.7032 11.2112H18.9505Z" fill="#87A1BB"/>
</svg>
