<svg width="36" height="30" viewBox="0 0 36 30" fill="none" xmlns="http://www.w3.org/2000/svg">
<path d="M12.6636 29.9927C11.7456 29.9665 10.8366 29.8029 9.966 29.5073C9.6636 29.4065 9.3828 29.2973 9.0912 29.1723C8.89383 29.0994 8.70176 29.0126 8.5164 28.9126L7.9512 28.6177C7.47929 28.3525 7.02292 28.0599 6.5844 27.7414C6.2328 27.4987 5.8908 27.2111 5.5464 26.9258L5.1948 26.5957L4.8132 26.2498L4.3536 25.7644L3.9036 25.2534L3.4632 24.7376C3.17973 24.3855 2.91534 24.018 2.6712 23.6369C2.59677 23.5501 2.53086 23.4562 2.4744 23.3565C0.936932 21.0826 0.0780406 18.4096 1.35631e-06 15.656C-0.000575593 14.486 0.182918 13.3233 0.543601 12.2117C0.558001 12.1619 0.583201 12.1267 0.592801 12.0769C0.758972 11.5943 0.956193 11.1232 1.1832 10.6667L1.3896 10.2808L1.5816 9.92516C1.6572 9.82443 1.6428 9.82443 1.776 9.61447C1.9092 9.40451 2.0568 9.19455 2.2068 8.99915L2.4876 8.62899L2.5464 8.55374L2.88 8.17387L3.1008 7.92386C4.52077 6.4177 6.27823 5.27922 8.2248 4.60456C6.3189 7.13985 5.28212 10.2344 5.2716 13.4192C5.2716 19.661 8.9772 24.5762 14.9112 26.8336H14.9016L14.8764 26.8591L14.8524 26.8943L14.8272 26.9198L14.8032 26.9453C14.8027 26.9518 14.7998 26.958 14.7952 26.9627C14.7906 26.9673 14.7845 26.9702 14.778 26.9707L14.754 27.0108C14.754 27.0205 14.7372 27.0205 14.7372 27.0363L14.712 27.0715C14.712 27.0812 14.7024 27.0812 14.7024 27.097L14.6784 27.1322C14.6785 27.1371 14.6775 27.1419 14.6754 27.1463C14.6733 27.1508 14.6702 27.1546 14.6664 27.1577C14.652 27.1722 14.652 27.1831 14.6424 27.2074V27.2329C14.6424 27.2475 14.628 27.2584 14.628 27.2681V27.2936C14.6257 27.3105 14.6217 27.3272 14.616 27.3433V27.3688C14.607 27.3839 14.602 27.401 14.6016 27.4186C14.592 27.4186 14.592 27.4331 14.592 27.4441C14.592 27.455 14.5776 27.4793 14.5776 27.4938V27.5193C14.5796 27.528 14.5795 27.537 14.5774 27.5456C14.5753 27.5543 14.5713 27.5623 14.5656 27.5691V27.5946L14.5512 27.654C14.5436 27.6729 14.5403 27.6932 14.5416 27.7135C14.5305 27.7369 14.5272 27.7633 14.532 27.7887C14.5163 27.814 14.5103 27.8443 14.5152 27.8737C14.4564 28.2693 14.4564 28.705 14.3676 29.0873C14.3676 29.1128 14.358 29.1371 14.358 29.1626C14.3465 29.1865 14.3381 29.2118 14.3328 29.2378C14.3328 29.2572 14.3184 29.273 14.3184 29.2973H14.3088C14.3088 29.3228 14.2968 29.3325 14.2968 29.358H14.2824C14.2763 29.3805 14.2683 29.4024 14.2584 29.4235C14.2464 29.4332 14.2464 29.4587 14.2332 29.4684C14.22 29.4781 14.2332 29.483 14.2212 29.483C14.2212 29.4926 14.219 29.5021 14.2149 29.5107C14.2107 29.5193 14.2047 29.5268 14.1972 29.5327C14.1972 29.5425 14.1828 29.5425 14.1828 29.5582C14.177 29.5754 14.1698 29.592 14.1612 29.608H14.1468C14.1372 29.6177 14.1372 29.6432 14.1216 29.6529H14.112L14.0724 29.7027H14.0628L14.0232 29.7427C14.0232 29.7524 14.0136 29.7524 14.0136 29.7682L13.974 29.8034H13.9488L13.9164 29.8386H13.896L13.8612 29.8786H13.8372L13.8024 29.9041L13.7628 29.9296L13.7304 29.9551H13.6884L13.6392 29.9745H13.56L13.5252 30L12.6636 29.9927ZM21.5436 29.6019C18.2856 29.6019 20.8236 25.7474 18.2688 25.3542C11.6688 24.3529 7.1904 19.8734 7.1904 13.4217C7.1856 6.03665 13.68 0 21.624 0C29.568 0 36 5.82548 36 13.3695C36 20.9135 28.9968 29.3895 21.6732 29.6019H21.5436ZM15.5208 16.588C15.5206 16.7506 15.5522 16.9116 15.6137 17.0618C15.6751 17.212 15.7653 17.3484 15.879 17.4633C15.9927 17.5782 16.1277 17.6693 16.2763 17.7313C16.4249 17.7933 16.5841 17.8251 16.7448 17.8247H26.91C27.2269 17.8147 27.5275 17.6803 27.7481 17.4501C27.9688 17.2198 28.0921 16.9117 28.0921 16.5911C28.0921 16.2704 27.9688 15.9624 27.7481 15.7321C27.5275 15.5019 27.2269 15.3675 26.91 15.3574H16.7436C16.4201 15.3568 16.1097 15.486 15.8804 15.7168C15.6511 15.9475 15.5218 16.2609 15.5208 16.588ZM17.7324 9.97613C17.7321 10.1379 17.7633 10.2981 17.8244 10.4476C17.8854 10.5972 17.975 10.733 18.088 10.8475C18.2011 10.9619 18.3353 11.0526 18.4831 11.1145C18.6309 11.1764 18.7893 11.2081 18.9492 11.208H24.7008C25.0177 11.1979 25.3183 11.0635 25.5389 10.8333C25.7596 10.603 25.8829 10.295 25.8829 9.97431C25.8829 9.65366 25.7596 9.3456 25.5389 9.11534C25.3183 8.88508 25.0177 8.7507 24.7008 8.74064H18.9492C18.789 8.74064 18.6304 8.77263 18.4824 8.83478C18.3345 8.89693 18.2001 8.98801 18.0871 9.1028C17.974 9.21759 17.8845 9.35383 17.8236 9.5037C17.7628 9.65357 17.7318 9.81411 17.7324 9.97613Z" fill="#589CFE"/>
</svg>
