<svg width="29" height="24" viewBox="0 0 29 24" fill="none" xmlns="http://www.w3.org/2000/svg">
<path d="M10.4498 24H10.3532C9.63876 23.9735 8.93154 23.842 8.25282 23.6083C8.0257 23.5279 7.79779 23.4426 7.57377 23.3421C7.4239 23.2778 7.27479 23.2065 7.12801 23.1318C6.98124 23.057 6.83526 22.9791 6.68848 22.8939C6.32185 22.6836 5.96815 22.4504 5.62941 22.1944C5.35517 21.9902 5.08865 21.7696 4.82523 21.5397C4.73175 21.4521 4.63514 21.3643 4.54167 21.2767C4.44819 21.1891 4.34856 21.093 4.25509 20.9949C4.13072 20.8687 4.00872 20.7421 3.89053 20.6087C3.77234 20.4752 3.65333 20.3466 3.53823 20.2067C3.42313 20.0669 3.3142 19.9313 3.2045 19.7914C2.98305 19.5096 2.77419 19.2179 2.57798 18.9161C2.52777 18.8414 2.48146 18.7664 2.43125 18.6924C1.23471 16.8722 0.564504 14.7334 0.500001 12.5291C0.499645 11.5924 0.643863 10.662 0.927176 9.77286C0.939536 9.73347 0.951876 9.69764 0.964236 9.65825C1.09163 9.27249 1.24471 8.89691 1.42234 8.5333C1.47384 8.42987 1.52693 8.32561 1.58152 8.22164C1.63173 8.12759 1.68422 8.03381 1.73598 7.94217C1.78774 7.85053 1.8356 7.77458 1.89044 7.69017C1.99319 7.52216 2.10528 7.35954 2.22115 7.19796C2.2899 7.09667 2.3648 6.99998 2.43587 6.90593C2.45441 6.88342 2.46983 6.86328 2.48528 6.84077C2.56949 6.73707 2.65373 6.63352 2.74102 6.53304C2.79742 6.46471 2.85607 6.39944 2.91246 6.33835C4.01611 5.13138 5.38324 4.2195 6.89783 3.67945C6.39972 4.36637 5.97347 5.1067 5.6263 5.88774C5.47952 6.21492 5.34893 6.54867 5.23382 6.8863C4.37855 7.53573 3.68029 8.38277 3.19413 9.36151C2.70797 10.3402 2.44728 11.4235 2.43276 12.5252C2.54889 14.8773 3.45055 17.1137 4.98205 18.8478C6.21247 20.4411 7.94794 21.526 9.8774 21.9087C9.94092 21.3921 10.0918 20.8915 10.3231 20.4297C10.9155 20.7444 11.5314 21.0092 12.1647 21.221C12.1552 21.2268 12.1468 21.2339 12.14 21.243L12.1214 21.2626C12.1123 21.2689 12.104 21.276 12.0967 21.2846C12.0906 21.291 12.0875 21.2978 12.0813 21.3042C12.0746 21.3123 12.0674 21.32 12.0597 21.327C12.0552 21.3347 12.0501 21.3415 12.0442 21.3482C12.038 21.3586 12.0318 21.3652 12.0256 21.3741C12.0199 21.3805 12.0157 21.3885 12.0133 21.3968C12.0066 21.405 12.0004 21.4138 11.9948 21.4227C11.9902 21.43 11.9861 21.4369 11.9824 21.4447C11.9762 21.4539 11.971 21.464 11.967 21.4746C11.9612 21.4806 11.9569 21.4883 11.9546 21.4965C11.9507 21.5071 11.9455 21.5172 11.9392 21.5264C11.9365 21.534 11.9334 21.541 11.9299 21.5483C11.9299 21.5612 11.9207 21.5701 11.9176 21.5805C11.9145 21.591 11.9113 21.5969 11.9082 21.6033C11.9051 21.6097 11.899 21.6258 11.8959 21.6386C11.8928 21.6515 11.8959 21.6526 11.8897 21.6582C11.8836 21.6639 11.8805 21.6838 11.8774 21.6975C11.8743 21.7112 11.8774 21.7099 11.8712 21.7156L11.8619 21.7548C11.8619 21.7612 11.8619 21.768 11.8557 21.7744C11.8495 21.7809 11.8496 21.8032 11.8465 21.816C11.8434 21.8289 11.8465 21.83 11.8465 21.8357C11.8465 21.8413 11.8403 21.8643 11.8372 21.8812C11.8357 21.8853 11.8357 21.8904 11.8372 21.8945C11.8372 21.9114 11.831 21.9303 11.8279 21.9464C11.8286 21.9479 11.8289 21.9494 11.8289 21.9511C11.8289 21.9527 11.8286 21.9543 11.8279 21.9558C11.8279 21.9751 11.8279 21.9914 11.8218 22.0107C11.8218 22.0107 11.8218 22.0106 11.8218 22.017C11.8218 22.0363 11.8217 22.0565 11.8155 22.079C11.7754 22.4006 11.7692 22.7399 11.7066 23.0485C11.7011 23.0675 11.697 23.087 11.6943 23.1066C11.6919 23.1255 11.6878 23.1436 11.6819 23.1616C11.6826 23.1631 11.683 23.1654 11.683 23.1671C11.683 23.1688 11.6826 23.1703 11.6819 23.1718C11.6819 23.1887 11.6727 23.2036 11.6696 23.2205V23.2307C11.6631 23.2465 11.6579 23.2626 11.6541 23.2793C11.6541 23.2793 11.6541 23.2895 11.648 23.2927C11.6436 23.3082 11.6384 23.324 11.6325 23.339C11.6325 23.339 11.6325 23.3452 11.6263 23.3484C11.6201 23.3653 11.614 23.3771 11.6078 23.394C11.6078 23.394 11.6078 23.4009 11.6016 23.4073L11.583 23.4466C11.5789 23.4511 11.5767 23.4568 11.5769 23.463C11.5679 23.4736 11.5606 23.4862 11.5553 23.4991C11.5513 23.5042 11.5481 23.5095 11.5459 23.5156L11.5243 23.5478C11.5221 23.5547 11.5177 23.5602 11.512 23.5643L11.4903 23.5965C11.4851 23.6011 11.4809 23.6073 11.4779 23.6138C11.4687 23.6224 11.4604 23.6322 11.4532 23.6428C11.4471 23.6492 11.4409 23.6521 11.4378 23.6585C11.4293 23.6682 11.4199 23.6772 11.41 23.6852C11.4064 23.692 11.4011 23.698 11.3946 23.7017C11.3863 23.7113 11.3769 23.7193 11.3668 23.7268L11.3482 23.7441C11.3384 23.7523 11.328 23.7601 11.3173 23.7668C11.3106 23.7729 11.3034 23.778 11.2957 23.7825C11.286 23.79 11.2756 23.7967 11.2647 23.8022L11.2431 23.8155C11.2308 23.8219 11.2216 23.8287 11.2092 23.8351C11.2013 23.8401 11.1929 23.8441 11.1844 23.8477C11.1734 23.854 11.1621 23.8592 11.1504 23.8642C11.1407 23.8698 11.1303 23.8746 11.1195 23.8775C11.1079 23.8825 11.0966 23.8878 11.0856 23.894L11.0515 23.9042C11.0398 23.9105 11.0274 23.9148 11.0145 23.9176L10.9774 23.927C10.965 23.927 10.9527 23.9379 10.9403 23.9411C10.928 23.9443 10.9125 23.941 10.9002 23.9474L10.86 23.9568C10.8476 23.9568 10.8322 23.9567 10.816 23.9639C10.8028 23.9675 10.7894 23.9703 10.7758 23.971C10.7603 23.971 10.7449 23.9708 10.7286 23.9772C10.7124 23.9837 10.7008 23.9772 10.6854 23.9772C10.6676 23.9788 10.6498 23.9788 10.6321 23.9772C10.6175 23.9794 10.6026 23.9794 10.588 23.9772C10.5693 23.9756 10.5504 23.9756 10.5317 23.9772L10.4498 24ZM14.7093 20.2876C9.58067 19.4837 6.09676 15.9034 6.09676 10.7353C6.09676 4.82685 11.1412 0 17.3173 0C23.4935 0 28.5 4.78919 28.5 10.6968C28.5 16.7347 23.0531 23.5141 17.3544 23.6797C17.3204 23.6797 17.2887 23.6797 17.2578 23.6797C14.7248 23.6829 16.7001 20.5995 14.7124 20.2876H14.7093ZM10.6839 4.66859C9.8577 5.43016 9.19425 6.36412 8.73638 7.40913C8.27851 8.45414 8.03638 9.58686 8.02565 10.7353C8.00084 11.6509 8.15028 12.5632 8.46527 13.4186C8.78027 14.2739 9.2546 15.0556 9.86109 15.7195C11.2541 17.1327 13.0574 18.0265 14.9897 18.2614C17.2833 18.6215 17.5915 20.7229 17.6727 21.6111C20.0181 21.2386 22.1422 19.9591 23.6209 18.0283C25.394 16.015 26.4365 13.4211 26.5688 10.6937C26.5688 5.92353 22.4181 2.04265 17.3142 2.04265C14.8663 2.02138 12.5003 2.95884 10.6862 4.66937L10.6839 4.66859ZM13.5228 14.2601C13.2708 14.2601 13.0291 14.1559 12.8509 13.9704C12.6727 13.785 12.5726 13.5332 12.5726 13.271C12.5726 13.0087 12.6727 12.7577 12.8509 12.5723C13.0291 12.3869 13.2708 12.2826 13.5228 12.2826H21.4277C21.6797 12.2826 21.9214 12.3869 22.0996 12.5723C22.2778 12.7577 22.3779 13.0087 22.3779 13.271C22.3779 13.5332 22.2778 13.785 22.0996 13.9704C21.9214 14.1559 21.6797 14.2601 21.4277 14.2601H13.5228ZM15.2393 8.96899C15.1124 8.97276 14.986 8.94941 14.8677 8.90148C14.7494 8.85354 14.6415 8.7816 14.5505 8.68952C14.4595 8.59744 14.3871 8.48778 14.3377 8.36609C14.2882 8.24439 14.2628 8.11353 14.2628 7.98142C14.2628 7.84931 14.2882 7.71845 14.3377 7.59676C14.3871 7.47506 14.4595 7.36461 14.5505 7.27254C14.6415 7.18046 14.7494 7.10851 14.8677 7.06058C14.986 7.01264 15.1124 6.99008 15.2393 6.99385H19.7136C19.9606 7.00118 20.1951 7.10854 20.3673 7.29295C20.5396 7.47735 20.6359 7.72428 20.6359 7.98142C20.6359 8.23856 20.5396 8.48549 20.3673 8.66989C20.1951 8.8543 19.9606 8.96166 19.7136 8.96899H15.2393Z"/>
</svg>
