<svg xmlns="http://www.w3.org/2000/svg" width="26.78" height="26.738" viewBox="0 0 26.78 26.738"><path d="M1635.294,556.9C1629.166,556,1625,551.956,1625,546.12c0-6.669,6.029-12.12,13.413-12.12s13.368,5.407,13.368,12.076c0,6.818-6.512,14.471-13.324,14.66l-.116,0C1635.309,560.738,1637.67,557.256,1635.294,556.9Zm-5.161-18.023a9.721,9.721,0,0,0-3.351,7.239,8.391,8.391,0,0,0,2.342,6,11.11,11.11,0,0,0,6.43,3.025,3.336,3.336,0,0,1,2.777,3.48c.009.1.02.222.032.334h.044a11.533,11.533,0,0,0,7.933-4.247,13.649,13.649,0,0,0,3.658-8.632c0-5.676-5.2-10.293-11.586-10.293A12.291,12.291,0,0,0,1630.133,538.881Zm3.065,10.447a.891.891,0,1,1,0-1.782h10.427a.891.891,0,1,1,0,1.782Zm1.872-5.971a.891.891,0,0,1,0-1.783h6.6a.891.891,0,0,1,0,1.783Z" transform="translate(-1625 -534)" fill="#647f9a"/></svg>