<svg viewBox="0 0 28 28" fill="none" xmlns="http://www.w3.org/2000/svg">
<path d="M28 11.0823C28 9.67181 26.9978 8.49465 25.6667 8.22398V1.16565C25.6667 0.557812 25.2012 0.0526456 24.5968 0.0024789C23.9972 -0.0535211 23.45 0.374646 23.3497 0.973146C22.8958 3.69498 19.1263 4.66565 15.75 4.66565H6.41667C2.87817 4.66565 0 7.54381 0 11.0823C0 13.0085 0.854 14.7398 2.20267 15.917L5.86833 25.6971C6.188 26.5745 6.832 27.2768 7.679 27.6711C8.14917 27.8905 8.65083 28.0001 9.15367 28.0001C9.5585 28.0001 9.96333 27.929 10.3553 27.7866C11.2327 27.467 11.935 26.823 12.3293 25.976C12.7237 25.1278 12.7645 24.1781 12.4448 23.302L10.3413 17.499H15.75C19.1263 17.499 22.8958 18.4685 23.3497 21.1915C23.4442 21.7573 23.9342 22.1656 24.4988 22.1656C24.5315 22.1656 24.5642 22.1656 24.5957 22.1621C25.2012 22.112 25.6655 21.6068 25.6655 20.999V13.9406C26.9967 13.67 28 12.494 28 11.0823ZM6.41667 6.99898H8.162L8.127 15.1656H6.41783C4.16617 15.1656 2.3345 13.334 2.3345 11.0823C2.3345 8.83065 4.165 6.99898 6.41667 6.99898ZM10.2527 24.0988C10.3588 24.3905 10.346 24.7078 10.2142 24.9901C10.0823 25.2725 9.849 25.4871 9.55617 25.5945C9.2645 25.7018 8.94717 25.6878 8.66483 25.556C8.3825 25.4241 8.16783 25.1908 8.057 24.8886L5.24767 17.3928C5.62683 17.4628 6.01767 17.5001 6.41667 17.5001H7.85983L10.2527 24.1V24.0988ZM23.3333 17.1478C21.5985 15.8703 18.9933 15.1656 15.75 15.1656H10.4592L10.4942 6.99898H15.7488C18.9922 6.99898 21.5973 6.29431 23.3322 5.01681V17.1466L23.3333 17.1478Z"/>
</svg>
