<svg xmlns="http://www.w3.org/2000/svg" width="18.749" height="21.256" viewBox="0 0 18.749 21.256"><path d="M3034.246,1243.8c.008-.253-.213-.448-.373-.638a13.474,13.474,0,0,0-1.636-3.779c-1.288-2.1-4.7-5.478-5.992-6a1.18,1.18,0,0,0-.178-.053,1.564,1.564,0,0,0-.7-1.062,4.432,4.432,0,0,0-3.957-.776c-1.024.431-1.594,2.817-.492,3.633,1.053.782,3.133-.8,3.8.214s1.4,4.37,2.617,6.518a6.877,6.877,0,0,0-.953-.066,5.967,5.967,0,0,0-3.564,1.092,4.247,4.247,0,0,0-7.319.136v9.527h2.016l.43-.779a11.043,11.043,0,0,0,4.163-3.432C3026.656,1250.158,3034.144,1246.788,3034.246,1243.8Z" transform="translate(-3015.497 -1231.292)" fill="#647f9a"/></svg>