<svg width="32" height="32" viewBox="0 0 32 32" fill="none" xmlns="http://www.w3.org/2000/svg">
<rect width="32" height="32" rx="8" fill="#589CFE"/>
<g clip-path="url(#clip0_5988_6292)">
<path d="M24.3333 15.9588V21.0005C24.3318 21.2085 24.2525 21.4084 24.1111 21.5609C23.9697 21.7135 23.7763 21.8076 23.5691 21.8248C23.3618 21.842 23.1555 21.7811 22.9909 21.654C22.8262 21.527 22.715 21.3429 22.6792 21.138C22.355 19.1938 19.6625 18.5005 17.2508 18.5005H13.5008V9.33384H17.2508C19.6625 9.33384 22.355 8.64134 22.6792 6.69634C22.714 6.49044 22.8248 6.30512 22.9898 6.17706C23.1547 6.049 23.3617 5.98753 23.5698 6.00482C23.7779 6.02211 23.972 6.11689 24.1135 6.27042C24.2551 6.42395 24.3338 6.62502 24.3342 6.83384V11.8755C24.8051 11.9711 25.2285 12.2266 25.5327 12.5987C25.8368 12.9708 26.0029 13.4366 26.0029 13.9172C26.0029 14.3977 25.8368 14.8635 25.5327 15.2356C25.2285 15.6077 24.8043 15.8632 24.3333 15.9588ZM11.8333 18.5005V9.33384H10.5833C8.05583 9.33384 6 11.3897 6 13.9172C6 16.4447 8.05583 18.5005 10.5833 18.5005H11.8333ZM13.1025 20.1672H10.5833C9.87207 20.1678 9.16598 20.0463 8.49583 19.808L10.305 24.6347C10.3978 24.8911 10.5405 25.1266 10.7249 25.3276C10.9093 25.5286 11.1317 25.691 11.3792 25.8055C11.6262 25.921 11.8936 25.9865 12.1661 25.9982C12.4385 26.0099 12.7106 25.9677 12.9667 25.8738C13.2231 25.781 13.4586 25.6383 13.6596 25.4539C13.8605 25.2696 14.023 25.0472 14.1375 24.7997C14.3717 24.2963 14.3958 23.733 14.2058 23.213L13.1017 20.1663L13.1025 20.1672Z" fill="white"/>
</g>
<defs>
<clipPath id="clip0_5988_6292">
<rect width="20" height="20" fill="white" transform="translate(6 6)"/>
</clipPath>
</defs>
</svg>
