<svg width="52" height="52" viewBox="0 0 52 52" fill="none" xmlns="http://www.w3.org/2000/svg">
<g clip-path="url(#clip0_6130_7535)">
<path d="M26 52C40.3594 52 52 40.3594 52 26C52 11.6406 40.3594 0 26 0C11.6406 0 0 11.6406 0 26C0 40.3594 11.6406 52 26 52Z" fill="#589CFE"/>
<path d="M38.4444 25.999C38.4352 25.0013 38.0332 24.0475 37.3256 23.3442L29.1905 15.1901C28.8352 14.8369 28.3545 14.6387 27.8536 14.6387C27.3526 14.6387 26.872 14.8369 26.5167 15.1901C26.3389 15.3664 26.1979 15.5761 26.1016 15.8072C26.0053 16.0383 25.9558 16.2861 25.9558 16.5365C25.9558 16.7868 26.0053 17.0347 26.1016 17.2657C26.1979 17.4968 26.3389 17.7066 26.5167 17.8828L32.7555 24.1027H13.7925C13.2896 24.1027 12.8073 24.3025 12.4517 24.6581C12.096 25.0137 11.8962 25.4961 11.8962 25.999C11.8962 26.5019 12.096 26.9843 12.4517 27.3399C12.8073 27.6955 13.2896 27.8953 13.7925 27.8953H32.7555L26.5167 34.1341C26.1596 34.4887 25.958 34.9706 25.9562 35.4738C25.9544 35.977 26.1526 36.4603 26.5072 36.8174C26.8618 37.1744 27.3437 37.376 27.8469 37.3778C28.3501 37.3796 28.8334 37.1814 29.1905 36.8268L37.3256 28.6728C38.0378 27.9648 38.4402 27.0032 38.4444 25.999Z" fill="white"/>
</g>
<defs>
<clipPath id="clip0_6130_7535">
<rect width="52" height="52" fill="white"/>
</clipPath>
</defs>
</svg>
