<svg width="30" height="30" viewBox="0 0 30 30" fill="none" xmlns="http://www.w3.org/2000/svg">
<rect width="30" height="30" rx="15" fill="#589CFE"/>
<g clip-path="url(#clip0_83_1554)">
<path d="M23.25 13.2806C23.25 12.4494 22.6594 11.7557 21.875 11.5962V7.43687C21.875 7.07868 21.6007 6.781 21.2446 6.75143C20.8912 6.71843 20.5688 6.97075 20.5096 7.32343C20.2422 8.92737 18.0209 9.49937 16.0312 9.49937H10.5312C8.44606 9.49937 6.75 11.1954 6.75 13.2806C6.75 14.4157 7.25325 15.4359 8.048 16.1296L10.2081 21.8929C10.3965 22.4099 10.776 22.8238 11.2751 23.0562C11.5522 23.1854 11.8478 23.2501 12.1441 23.2501C12.3827 23.2501 12.6213 23.2081 12.8523 23.1242C13.3693 22.9359 13.7831 22.5564 14.0155 22.0572C14.2479 21.5574 14.2719 20.9978 14.0836 20.4815L12.844 17.0619H16.0312C18.0209 17.0619 20.2422 17.6332 20.5096 19.2378C20.5653 19.5712 20.8541 19.8119 21.1868 19.8119C21.2061 19.8119 21.2253 19.8119 21.2439 19.8098C21.6007 19.7802 21.8743 19.4826 21.8743 19.1244V14.965C22.6588 14.8055 23.25 14.1125 23.25 13.2806ZM10.5312 10.8744H11.5598L11.5391 15.6869H10.5319C9.20506 15.6869 8.12569 14.6075 8.12569 13.2806C8.12569 11.9537 9.20438 10.8744 10.5312 10.8744ZM12.7917 20.9511C12.8543 21.1229 12.8468 21.3099 12.7691 21.4763C12.6914 21.6427 12.5539 21.7692 12.3813 21.8324C12.2094 21.8957 12.0224 21.8874 11.8561 21.8097C11.6897 21.7321 11.5632 21.5946 11.4979 21.4165L9.84238 16.9993C10.0658 17.0406 10.2961 17.0626 10.5312 17.0626H11.3817L12.7917 20.9517V20.9511ZM20.5 16.8549C19.4777 16.1021 17.9425 15.6869 16.0312 15.6869H12.9134L12.9341 10.8744H16.0306C17.9418 10.8744 19.477 10.4591 20.4993 9.70631V16.8542L20.5 16.8549Z" fill="white"/>
</g>
<defs>
<clipPath id="clip0_83_1554">
<rect width="16.5" height="16.5" fill="white" transform="translate(6.75 6.75)"/>
</clipPath>
</defs>
</svg>
