<svg width="24" height="22" viewBox="0 0 24 22" fill="none" xmlns="http://www.w3.org/2000/svg">
<path d="M24.0007 21.0012C24.0007 21.2665 23.8954 21.5208 23.7078 21.7083C23.5203 21.8959 23.2659 22.0012 23.0007 22.0012H1.00073C0.735516 22.0012 0.481162 21.8959 0.293626 21.7083C0.106089 21.5208 0.000732422 21.2665 0.000732422 21.0012C0.000732422 20.736 0.106089 20.4817 0.293626 20.2941C0.481162 20.1066 0.735516 20.0012 1.00073 20.0012H23.0007C23.2659 20.0012 23.5203 20.1066 23.7078 20.2941C23.8954 20.4817 24.0007 20.736 24.0007 21.0012ZM2.00073 18.0012H22.0007C22.2659 18.0012 22.5203 17.8959 22.7078 17.7083C22.8954 17.5208 23.0007 17.2665 23.0007 17.0012V16.0012C22.9971 13.2586 21.9699 10.616 20.1203 8.59086C18.2707 6.56572 15.7318 5.30384 13.0007 5.05224V3.72424C13.382 3.5041 13.68 3.16431 13.8485 2.75755C14.017 2.3508 14.0465 1.89982 13.9326 1.47455C13.8186 1.04928 13.5675 0.673499 13.2183 0.405481C12.869 0.137462 12.441 -0.0078125 12.0007 -0.0078125C11.5605 -0.0078125 11.1325 0.137462 10.7832 0.405481C10.4339 0.673499 10.1828 1.04928 10.0689 1.47455C9.95493 1.89982 9.98449 2.3508 10.153 2.75755C10.3215 3.16431 10.6194 3.5041 11.0007 3.72424V5.05224C8.26962 5.30384 5.73075 6.56572 3.88114 8.59086C2.03153 10.616 1.00436 13.2586 1.00073 16.0012V17.0012C1.00073 17.2665 1.10609 17.5208 1.29363 17.7083C1.48116 17.8959 1.73552 18.0012 2.00073 18.0012Z" fill="#ABCDFE"/>
</svg>
