<svg width="32" height="32" viewBox="0 0 32 32" fill="none" xmlns="http://www.w3.org/2000/svg">
<rect width="32" height="32" rx="8" fill="#589CFE"/>
<path d="M12.25 16.8333C11.5083 16.8333 10.7833 16.6134 10.1666 16.2013C9.54993 15.7893 9.06928 15.2036 8.78545 14.5184C8.50162 13.8332 8.42736 13.0792 8.57206 12.3517C8.71675 11.6243 9.0739 10.9561 9.59835 10.4317C10.1228 9.90724 10.791 9.55009 11.5184 9.40539C12.2458 9.2607 12.9998 9.33496 13.6851 9.61879C14.3703 9.90262 14.956 10.3833 15.368 10.9999C15.7801 11.6166 16 12.3417 16 13.0833C15.9989 14.0776 15.6035 15.0307 14.9004 15.7338C14.1974 16.4368 13.2442 16.8322 12.25 16.8333ZM17.6667 26H6.83333C6.61232 26 6.40036 25.9122 6.24408 25.7559C6.0878 25.5996 6 25.3877 6 25.1667V24.75C6 23.0924 6.65848 21.5027 7.83058 20.3306C9.00268 19.1585 10.5924 18.5 12.25 18.5C13.9076 18.5 15.4973 19.1585 16.6694 20.3306C17.8415 21.5027 18.5 23.0924 18.5 24.75V25.1667C18.5 25.3877 18.4122 25.5996 18.2559 25.7559C18.0996 25.9122 17.8877 26 17.6667 26ZM20.5833 13.5C19.8417 13.5 19.1166 13.2801 18.4999 12.868C17.8833 12.456 17.4026 11.8703 17.1188 11.1851C16.835 10.4998 16.7607 9.74584 16.9054 9.01841C17.0501 8.29098 17.4072 7.6228 17.9317 7.09835C18.4561 6.5739 19.1243 6.21675 19.8517 6.07206C20.5792 5.92736 21.3332 6.00162 22.0184 6.28545C22.7036 6.56928 23.2893 7.04993 23.7013 7.66661C24.1134 8.2833 24.3333 9.00832 24.3333 9.75C24.3322 10.7442 23.9368 11.6974 23.2338 12.4004C22.5307 13.1035 21.5776 13.4989 20.5833 13.5ZM19.3992 15.1842C18.623 15.2883 17.8767 15.5516 17.2071 15.9575C16.5374 16.3635 15.9588 16.9034 15.5075 17.5433C17.3749 18.3914 18.8422 19.9285 19.6025 21.8333H25.1667C25.3877 21.8333 25.5996 21.7455 25.7559 21.5893C25.9122 21.433 26 21.221 26 21V20.9683C25.9991 20.1377 25.8211 19.3168 25.4777 18.5604C25.1344 17.804 24.6336 17.1296 24.0088 16.5821C23.3841 16.0347 22.6498 15.6268 21.8549 15.3857C21.0599 15.1447 20.2227 15.076 19.3992 15.1842Z" fill="#F0F6FE"/>
</svg>
