<svg width="20" height="24" viewBox="0 0 20 24" fill="none" xmlns="http://www.w3.org/2000/svg">
<path fill-rule="evenodd" clip-rule="evenodd" d="M14.3098 11.3684C14.3098 13.4653 12.3847 15.1579 9.99983 15.1579C7.61498 15.1579 5.68986 13.4653 5.68986 11.3684V3.78947C5.68986 1.69263 7.61498 0 9.99983 0C12.3847 0 14.3098 1.69263 14.3098 3.78947V11.3684ZM10.0004 17.6849C13.5806 17.6849 16.5517 15.3782 17.0949 12.3641C17.1929 11.8206 17.6314 11.3691 18.1837 11.3691H19.057C19.6093 11.3691 20.0637 11.8191 19.9937 12.3669C19.5163 16.1041 16.3886 19.1202 12.306 19.9654C11.8129 20.0674 11.4371 20.4876 11.4371 20.9912V23.0007C11.4371 23.553 10.9894 24.0007 10.4371 24.0007H9.56377C9.01148 24.0007 8.56377 23.553 8.56377 23.0007V20.9912C8.56377 20.4876 8.18792 20.0674 7.69483 19.9654C3.61223 19.1202 0.484509 16.1041 0.00713617 12.3669C-0.0628421 11.8191 0.391551 11.3691 0.943836 11.3691H1.81715C2.36943 11.3691 2.80795 11.8206 2.9059 12.3641C3.44911 15.3782 6.42025 17.6849 10.0004 17.6849Z" fill="#ABCDFE"/>
</svg>
