<svg width="24" height="24" viewBox="0 0 24 24" fill="none" xmlns="http://www.w3.org/2000/svg">
<g clip-path="url(#clip0_6022_7327)">
<path d="M22.5007 9H22.0007V8C22.0007 5.243 19.7577 3 17.0007 3H13.0007V1C13.0007 0.734784 12.8954 0.48043 12.7078 0.292893C12.5203 0.105357 12.2659 0 12.0007 0C11.7355 0 11.4812 0.105357 11.2936 0.292893C11.1061 0.48043 11.0007 0.734784 11.0007 1V3H7.00073C4.24373 3 2.00073 5.243 2.00073 8V9H1.50073C0.673732 9 0.000732422 9.673 0.000732422 10.5V13.5C0.000732422 14.327 0.673732 15 1.50073 15H2.00073V16C2.00073 18.757 4.24373 21 7.00073 21H14.6977L18.6607 23.642C18.9843 23.8581 19.3605 23.9821 19.749 24.0007C20.1376 24.0194 20.524 23.932 20.8667 23.748C21.2096 23.5646 21.4962 23.2916 21.6959 22.958C21.8957 22.6244 22.001 22.2428 22.0007 21.854V14.999H22.5007C23.3277 14.999 24.0007 14.326 24.0007 13.499V10.499C24.0007 9.672 23.3277 8.999 22.5007 8.999V9ZM8.50073 8C8.69778 8.00007 8.89289 8.03894 9.07491 8.11441C9.25694 8.18988 9.42231 8.30046 9.5616 8.43984C9.70089 8.57922 9.81136 8.74467 9.88671 8.92675C9.96205 9.10882 10.0008 9.30395 10.0007 9.501C10.0007 9.69805 9.96179 9.89315 9.88632 10.0752C9.81085 10.2572 9.70027 10.4226 9.56089 10.5619C9.42151 10.7012 9.25606 10.8116 9.07399 10.887C8.89191 10.9623 8.69678 11.0011 8.49973 11.001C8.10177 11.0009 7.72017 10.8427 7.43887 10.5612C7.15756 10.2797 6.9996 9.89796 6.99973 9.5C6.99987 9.10204 7.15808 8.72044 7.43957 8.43913C7.72106 8.15783 8.10277 7.99987 8.50073 8ZM16.5317 15.573C15.4947 16.224 13.8657 17 12.0007 17C10.1357 17 8.50673 16.224 7.46973 15.573C7.24794 15.4307 7.09127 15.2067 7.03376 14.9495C6.97625 14.6924 7.02255 14.4229 7.16261 14.1998C7.30266 13.9766 7.52515 13.8177 7.78171 13.7576C8.03826 13.6975 8.30816 13.7412 8.53273 13.879C9.34773 14.391 10.6117 15 12.0017 15C13.3917 15 14.6547 14.391 15.4707 13.879C15.582 13.8076 15.7063 13.759 15.8364 13.736C15.9665 13.713 16.0999 13.716 16.2289 13.7448C16.3579 13.7737 16.4799 13.8278 16.5878 13.9041C16.6957 13.9803 16.7874 14.0772 16.8577 14.1892C16.9279 14.3011 16.9753 14.4259 16.997 14.5563C17.0188 14.6866 17.0144 14.82 16.9843 14.9487C16.9542 15.0773 16.8989 15.1988 16.8215 15.3059C16.7442 15.4131 16.6464 15.5039 16.5337 15.573H16.5317ZM15.5007 11C15.1028 10.9999 14.7212 10.8417 14.4399 10.5602C14.1586 10.2787 14.0006 9.89696 14.0007 9.499C14.0009 9.10104 14.1591 8.71944 14.4406 8.43813C14.7221 8.15683 15.1038 7.99887 15.5017 7.999C15.8997 7.99913 16.2813 8.15735 16.5626 8.43884C16.8439 8.72033 17.0019 9.10204 17.0017 9.5C17.0016 9.89796 16.8434 10.2796 16.5619 10.5609C16.2804 10.8422 15.8987 11.0001 15.5007 11Z" fill="#ABCDFE"/>
</g>
<defs>
<clipPath id="clip0_6022_7327">
<rect width="24" height="24" fill="white" transform="translate(0.000732422)"/>
</clipPath>
</defs>
</svg>
