<svg width="24" height="18" viewBox="0 0 24 18" fill="none" xmlns="http://www.w3.org/2000/svg">
<path d="M11.8861 0C14.7925 0 16.8218 2.00284 16.8218 4.8731V13.1269C16.8218 15.9972 14.7925 18 11.8861 18H4.93565C2.02922 18 0 15.9972 0 13.1269V4.8731C0 2.00284 2.02922 0 4.93565 0H11.8861ZM21.5496 2.85478C22.0764 2.58676 22.6944 2.61478 23.1972 2.93153C23.7 3.24707 24 3.79529 24 4.39468V13.6061C24 14.2067 23.7 14.7537 23.1972 15.0692C22.9224 15.241 22.6152 15.3287 22.3056 15.3287C22.0476 15.3287 21.7896 15.2678 21.5484 15.1447L19.7712 14.2481C19.1136 13.9143 18.7055 13.2442 18.7055 12.4999V5.49965C18.7055 4.75407 19.1136 4.08402 19.7712 3.75265L21.5496 2.85478Z" fill="#589CFE"/>
</svg>
