<svg width="24" height="24" viewBox="0 0 24 24" fill="none" xmlns="http://www.w3.org/2000/svg">
<path d="M22.9428 6.83754L20.7608 4.65454L21.7078 3.70754C21.8033 3.61529 21.8795 3.50495 21.9319 3.38294C21.9843 3.26094 22.0119 3.12972 22.0131 2.99694C22.0142 2.86416 21.9889 2.73248 21.9387 2.60958C21.8884 2.48669 21.8141 2.37504 21.7202 2.28114C21.6263 2.18725 21.5147 2.113 21.3918 2.06272C21.2689 2.01244 21.1372 1.98713 21.0044 1.98829C20.8717 1.98944 20.7404 2.01703 20.6184 2.06944C20.4964 2.12185 20.3861 2.19803 20.2938 2.29354L19.3468 3.24054L17.1638 1.05854C16.4758 0.40286 15.5618 0.0371094 14.6113 0.0371094C13.6609 0.0371094 12.7469 0.40286 12.0588 1.05854C11.7234 1.3937 11.4573 1.79169 11.2757 2.22975C11.0942 2.6678 11.0007 3.13735 11.0007 3.61154C11.0007 4.08573 11.0942 4.55527 11.2757 4.99333C11.4573 5.43139 11.7234 5.82937 12.0588 6.16454L14.2408 8.34654L8.34684 14.2405L6.16384 12.0585C5.47577 11.4029 4.56178 11.0371 3.61134 11.0371C2.66089 11.0371 1.7469 11.4029 1.05884 12.0585C0.723394 12.3937 0.457291 12.7917 0.275736 13.2297C0.0941806 13.6678 0.000732422 14.1373 0.000732422 14.6115C0.000732422 15.0857 0.0941806 15.5553 0.275736 15.9933C0.457291 16.4314 0.723394 16.8294 1.05884 17.1645L3.24084 19.3465L2.29384 20.2935C2.19833 20.3858 2.12214 20.4961 2.06974 20.6181C2.01733 20.7401 1.98974 20.8714 1.98859 21.0041C1.98743 21.1369 2.01273 21.2686 2.06301 21.3915C2.1133 21.5144 2.18755 21.626 2.28144 21.7199C2.37533 21.8138 2.48699 21.8881 2.60988 21.9384C2.73278 21.9886 2.86446 22.0139 2.99724 22.0128C3.13002 22.0116 3.26124 21.984 3.38324 21.9316C3.50525 21.8792 3.61559 21.803 3.70784 21.7075L4.65484 20.7605L6.83784 22.9425C7.17298 23.2778 7.57091 23.5438 8.00887 23.7253C8.44684 23.9067 8.91627 24.0001 9.39034 24.0001C9.86441 24.0001 10.3338 23.9067 10.7718 23.7253C11.2098 23.5438 11.6077 23.2778 11.9428 22.9425C12.2782 22.6075 12.5443 22.2096 12.7259 21.7716C12.9074 21.3336 13.0009 20.8641 13.0009 20.39C13.0009 19.9159 12.9074 19.4465 12.7259 19.0085C12.5443 18.5705 12.2782 18.1726 11.9428 17.8375L9.76084 15.6555L15.6608 9.76054L17.8428 11.9425C18.178 12.2778 18.5759 12.5438 19.0139 12.7253C19.4518 12.9067 19.9213 13.0001 20.3953 13.0001C20.8694 13.0001 21.3388 12.9067 21.7768 12.7253C22.2148 12.5438 22.6127 12.2778 22.9478 11.9425C23.2832 11.6075 23.5493 11.2096 23.7309 10.7716C23.9124 10.3336 24.0059 9.86415 24.0059 9.39004C24.0059 8.91593 23.9124 8.44647 23.7309 8.00849C23.5493 7.57052 23.2832 7.17262 22.9478 6.83754H22.9428Z" fill="#ABCDFE"/>
</svg>
