<svg width="30" height="30" viewBox="0 0 30 30" fill="none" xmlns="http://www.w3.org/2000/svg">
<rect width="30" height="30" rx="15" fill="#589CFE"/>
<g clip-path="url(#clip0_69_1336)">
<path d="M11.9062 15.6875C11.2944 15.6875 10.6962 15.5061 10.1875 15.1661C9.67869 14.8262 9.28216 14.343 9.048 13.7777C8.81384 13.2124 8.75257 12.5903 8.87195 11.9902C8.99132 11.3901 9.28597 10.8388 9.71864 10.4061C10.1513 9.97347 10.7026 9.67882 11.3027 9.55945C11.9028 9.44007 12.5249 9.50134 13.0902 9.7355C13.6555 9.96966 14.1387 10.3662 14.4786 10.875C14.8186 11.3837 15 11.9819 15 12.5938C14.9991 13.414 14.6729 14.2004 14.0929 14.7804C13.5129 15.3604 12.7265 15.6866 11.9062 15.6875ZM11.9062 10.875C11.5663 10.875 11.234 10.9758 10.9514 11.1647C10.6687 11.3535 10.4484 11.622 10.3183 11.936C10.1882 12.2501 10.1542 12.5957 10.2205 12.9291C10.2868 13.2625 10.4505 13.5687 10.6909 13.8091C10.9313 14.0495 11.2375 14.2132 11.5709 14.2795C11.9043 14.3458 12.2499 14.3118 12.564 14.1817C12.878 14.0516 13.1465 13.8313 13.3353 13.5486C13.5242 13.266 13.625 12.9337 13.625 12.5938C13.625 12.1379 13.4439 11.7007 13.1216 11.3784C12.7993 11.0561 12.3621 10.875 11.9062 10.875ZM17.0625 22.5625V22.2188C17.0625 20.8512 16.5193 19.5397 15.5523 18.5727C14.5853 17.6057 13.2738 17.0625 11.9062 17.0625C10.5387 17.0625 9.22722 17.6057 8.26023 18.5727C7.29325 19.5397 6.75 20.8512 6.75 22.2188L6.75 22.5625C6.75 22.7448 6.82243 22.9197 6.95136 23.0486C7.0803 23.1776 7.25516 23.25 7.4375 23.25C7.61984 23.25 7.7947 23.1776 7.92364 23.0486C8.05257 22.9197 8.125 22.7448 8.125 22.5625V22.2188C8.125 21.2159 8.52338 20.2541 9.2325 19.545C9.94162 18.8359 10.9034 18.4375 11.9062 18.4375C12.9091 18.4375 13.8709 18.8359 14.58 19.545C15.2891 20.2541 15.6875 21.2159 15.6875 22.2188V22.5625C15.6875 22.7448 15.7599 22.9197 15.8889 23.0486C16.0178 23.1776 16.1927 23.25 16.375 23.25C16.5573 23.25 16.7322 23.1776 16.8611 23.0486C16.9901 22.9197 17.0625 22.7448 17.0625 22.5625ZM23.25 19.125C23.25 18.196 22.981 17.2868 22.4757 16.5073C21.9703 15.7277 21.2501 15.1111 20.402 14.7319C19.5539 14.3526 18.6141 14.227 17.6962 14.3701C16.7783 14.5132 15.9214 14.9189 15.2289 15.5383C15.1607 15.5983 15.105 15.6711 15.0651 15.7527C15.0252 15.8343 15.0019 15.923 14.9965 16.0136C14.991 16.1043 15.0036 16.1951 15.0335 16.2809C15.0634 16.3667 15.11 16.4457 15.1705 16.5133C15.2311 16.581 15.3045 16.636 15.3865 16.6751C15.4684 16.7143 15.5573 16.7368 15.648 16.7414C15.7387 16.746 15.8294 16.7325 15.9149 16.7019C16.0004 16.6712 16.079 16.6239 16.1461 16.5627C16.6407 16.1204 17.2528 15.8307 17.9084 15.7285C18.564 15.6264 19.2352 15.7162 19.841 15.9871C20.4467 16.258 20.9611 16.6985 21.322 17.2553C21.6829 17.8121 21.875 18.4614 21.875 19.125C21.875 19.3073 21.9474 19.4822 22.0764 19.6111C22.2053 19.7401 22.3802 19.8125 22.5625 19.8125C22.7448 19.8125 22.9197 19.7401 23.0486 19.6111C23.1776 19.4822 23.25 19.3073 23.25 19.125ZM18.7812 12.9375C18.1694 12.9375 17.5712 12.7561 17.0625 12.4161C16.5537 12.0762 16.1572 11.593 15.923 11.0277C15.6888 10.4624 15.6276 9.84032 15.7469 9.24019C15.8663 8.64006 16.161 8.08881 16.5936 7.65614C17.0263 7.22347 17.5776 6.92882 18.1777 6.80945C18.7778 6.69007 19.3999 6.75134 19.9652 6.9855C20.5305 7.21966 21.0137 7.61619 21.3536 8.12496C21.6936 8.63372 21.875 9.23187 21.875 9.84375C21.8741 10.664 21.5479 11.4504 20.9679 12.0304C20.3879 12.6104 19.6015 12.9366 18.7812 12.9375ZM18.7812 8.125C18.4413 8.125 18.109 8.2258 17.8264 8.41466C17.5437 8.60352 17.3234 8.87195 17.1933 9.18601C17.0632 9.50007 17.0292 9.84566 17.0955 10.1791C17.1618 10.5125 17.3255 10.8187 17.5659 11.0591C17.8063 11.2995 18.1125 11.4632 18.4459 11.5295C18.7793 11.5958 19.1249 11.5618 19.439 11.4317C19.753 11.3016 20.0215 11.0813 20.2103 10.7986C20.3992 10.516 20.5 10.1837 20.5 9.84375C20.5 9.38791 20.3189 8.95074 19.9966 8.62841C19.6743 8.30608 19.2371 8.125 18.7812 8.125Z" fill="white"/>
</g>
<defs>
<clipPath id="clip0_69_1336">
<rect width="18.75" height="18.75" fill="white" transform="translate(6.75 6.75)"/>
</clipPath>
</defs>
</svg>
