<svg xmlns="http://www.w3.org/2000/svg" width="18" height="20" viewBox="0 0 18 20" fill="none">
<g id="Notifications" clip-path="url(#clip0_4963_5688)">
<path id="Notifications_2" d="M6.92653 18.1009V18.0735C6.92855 17.9916 6.96409 17.9136 7.0256 17.8563C7.08711 17.7989 7.16974 17.7666 7.2559 17.7663H10.7406C10.8269 17.7668 10.9097 17.799 10.9715 17.8563C11.0333 17.9136 11.0693 17.9915 11.0721 18.0735V18.1009C11.0523 18.6109 10.8254 19.0938 10.439 19.4479C10.0527 19.8021 9.53696 20 9.00035 20C8.46374 20 7.94803 19.8021 7.56167 19.4479C7.1753 19.0938 6.94839 18.6109 6.92864 18.1009H6.92653ZM3.34985 16.5727C2.46915 16.5797 1.62159 16.2537 0.993447 15.6666C0.365302 15.0795 0.00797555 14.2792 8.5064e-07 13.4416C-0.00043931 12.8656 0.169948 12.3012 0.491593 11.8132C0.973445 11.0655 1.22323 10.2035 1.21213 9.32656V7.26739C1.21347 6.30958 1.41657 5.36174 1.80942 4.4798C2.20227 3.59787 2.77692 2.79973 3.49943 2.1325C4.96915 0.765459 6.9432 0 8.99895 0C11.0547 0 13.0287 0.765459 14.4985 2.1325C15.221 2.79964 15.7956 3.59779 16.1882 4.47976C16.5808 5.36173 16.7836 6.30963 16.7844 7.26739V9.32656C16.7761 10.2036 17.027 11.0651 17.5084 11.8132C17.8291 12.3016 17.9994 12.8657 18 13.4416C17.9917 14.2792 17.6341 15.0794 17.0059 15.6664C16.3777 16.2535 15.5302 16.5795 14.6494 16.5727H3.34985ZM14.6494 15.2369C14.8995 15.2398 15.1476 15.1957 15.3796 15.107C15.6116 15.0184 15.8229 14.8869 16.0012 14.7203C16.1796 14.5537 16.3216 14.3552 16.419 14.1362C16.5164 13.9172 16.5673 13.682 16.5688 13.4442C16.5695 13.1155 16.4721 12.7933 16.2879 12.5152C15.6702 11.5568 15.3469 10.4532 15.3545 9.32923V7.26739C15.3196 5.68627 14.6346 4.18112 13.4465 3.07466C12.2584 1.96821 10.6618 1.34855 8.99895 1.34855C7.33611 1.34855 5.73947 1.96821 4.55137 3.07466C3.36327 4.18112 2.67831 5.68627 2.64336 7.26739V9.32656C2.65102 10.451 2.32642 11.5549 1.70653 12.5125C1.5238 12.7911 1.42786 13.1132 1.42983 13.4416C1.4312 13.6795 1.48205 13.9147 1.57945 14.1339C1.67685 14.353 1.81888 14.5516 1.99735 14.7183C2.17582 14.885 2.3872 15.0165 2.61933 15.1051C2.85145 15.1938 3.09973 15.2379 3.34985 15.2349L14.6494 15.2369Z" fill="#45535c"/>
</g>
<defs fill="#45535c">
<clipPath id="clip0_4963_5688" fill="#45535c">
<rect width="18" height="20" fill="#45535c"/>
</clipPath>
</defs>
</svg>
