<svg xmlns="http://www.w3.org/2000/svg" width="14.954" height="25.895" viewBox="0 0 14.954 25.895"><path d="M10.964,24.326c0-3.785,1.495-2.85,1.495-8.631,0-1.727-2.49-2.878-2.49-2.878S9.845,4.137,14.954.786v23.54A1.875,1.875,0,0,1,12.96,25.9,1.873,1.873,0,0,1,10.964,24.326Zm-9.219,0S2.993,13.593,2.993,12.817,0,11.224,0,9.417V1.047A.74.74,0,0,1,.845.262a.8.8,0,0,1,.9.785V7.063a.949.949,0,0,0,.747.523.948.948,0,0,0,.748-.523V.786S3.257,0,3.984,0s.667.786.667.786V7.063a.823.823,0,0,0,1.533,0V1.047A.874.874,0,0,1,7.167.262c.943,0,.8.785.8.785s0,6.571,0,8.37-3.066,2.616-3.066,3.4S6.184,24.326,6.184,24.326,6.146,25.9,3.99,25.9,1.746,24.326,1.746,24.326Z" /></svg>