<svg xmlns="http://www.w3.org/2000/svg" width="20.986" height="20.985" viewBox="0 0 20.986 20.985"><path d="M23383.994,3191.986a9.993,9.993,0,1,1,9.994-9.993A10,10,0,0,1,23383.994,3191.986Zm-2.494-7.919-.377,1.3a4.663,4.663,0,0,0,2.238.6v1.339l1.133.006v-1.421a2.533,2.533,0,0,0,2.336-2.46c0-1.2-.67-1.962-2.242-2.548-1.156-.467-1.674-.773-1.674-1.356,0-.468.346-.969,1.311-.969a3.973,3.973,0,0,1,1.8.437l.029.014.053.025.375-1.274a4.283,4.283,0,0,0-1.9-.458v-1.28h-1.133v1.356a2.406,2.406,0,0,0-2.225,2.343c0,1.407,1.148,2.02,2.389,2.472,1.068.387,1.5.79,1.5,1.391,0,.653-.59,1.092-1.469,1.092A4.343,4.343,0,0,1,23381.5,3184.067Z" transform="translate(-23373.502 -3171.501)" fill="#589cfe" stroke="rgba(0,0,0,0)" stroke-miterlimit="10" stroke-width="1"/></svg>