<svg width="18" height="19" viewBox="0 0 18 19" fill="none" xmlns="http://www.w3.org/2000/svg">
<path d="M16.1875 0.25H1.8125C1.3981 0.25 1.00067 0.41462 0.707646 0.707646C0.41462 1.00067 0.25 1.3981 0.25 1.8125V4.3125C0.25 4.7269 0.41462 5.12433 0.707646 5.41735C1.00067 5.71038 1.3981 5.875 1.8125 5.875V8.375C1.8125 8.7894 1.97712 9.18683 2.27015 9.47985C2.56317 9.77288 2.9606 9.9375 3.375 9.9375H4V12.75C3.99858 13.1703 4.10393 13.584 4.30617 13.9524C4.50841 14.3208 4.80092 14.6318 5.15625 14.8563C4.48438 15.3313 4.625 15.9844 4.625 17.125C4.625 17.4565 4.7567 17.7745 4.99112 18.0089C5.22554 18.2433 5.54348 18.375 5.875 18.375H11.8125C12.144 18.375 12.462 18.2433 12.6964 18.0089C12.9308 17.7745 13.0625 17.4565 13.0625 17.125C13.0625 16.0281 13.2031 15.3313 12.5312 14.8563C12.8854 14.6305 13.1769 14.3193 13.379 13.9511C13.5811 13.583 13.6872 13.1699 13.6875 12.75V9.9375H14.625C15.0394 9.9375 15.4368 9.77288 15.7299 9.47985C16.0229 9.18683 16.1875 8.7894 16.1875 8.375V5.875C16.6019 5.875 16.9993 5.71038 17.2924 5.41735C17.5854 5.12433 17.75 4.7269 17.75 4.3125V1.8125C17.75 1.3981 17.5854 1.00067 17.2924 0.707646C16.9993 0.41462 16.6019 0.25 16.1875 0.25ZM2.4375 8.375V3.375H4.07187C3.98415 3.47308 3.87677 3.55159 3.7567 3.60543C3.63664 3.65927 3.50658 3.68723 3.375 3.6875C3.29212 3.6875 3.21263 3.72042 3.15403 3.77903C3.09542 3.83763 3.0625 3.91712 3.0625 4V7.125C3.0625 7.20788 3.09542 7.28737 3.15403 7.34597C3.21263 7.40458 3.29212 7.4375 3.375 7.4375C3.62364 7.4375 3.8621 7.53627 4.03791 7.71209C4.21373 7.8879 4.3125 8.12636 4.3125 8.375C4.3125 8.45788 4.34542 8.53737 4.40403 8.59597C4.46263 8.65458 4.54212 8.6875 4.625 8.6875H10.5625V9.3125H3.375C3.12636 9.3125 2.8879 9.21373 2.71209 9.03791C2.53627 8.8621 2.4375 8.62364 2.4375 8.375ZM10.25 5.09375C10.25 6.03125 9.69063 6.8125 9 6.8125C8.30937 6.8125 7.75 6.04063 7.75 5.09375C7.75 4.14687 8.30937 3.375 9 3.375C9.69063 3.375 10.25 4.14687 10.25 5.09375ZM9 7.4375C10.7031 7.4375 11.5219 4.82188 10.2719 3.375H13.1937C13.2939 3.60469 13.4478 3.80694 13.6425 3.96466C13.8372 4.12239 14.067 4.23097 14.3125 4.28125V6.84375C14.1783 6.8738 14.0482 6.91996 13.925 6.98125C13.4687 7.20938 13.8531 7.22813 13.5438 6.52812C13.3969 6.20864 13.1466 5.94801 12.8333 5.78839C12.52 5.62877 12.162 5.57949 11.8173 5.64852C11.4725 5.71755 11.1611 5.90085 10.9334 6.16878C10.7057 6.43671 10.575 6.77361 10.5625 7.125V8.0625H4.90625C4.84501 7.76222 4.69682 7.48658 4.48012 7.26988C4.26342 7.05318 3.98778 6.90499 3.6875 6.84375V4.28125C3.93298 4.23097 4.16277 4.12239 4.35748 3.96466C4.55218 3.80694 4.7061 3.60469 4.80625 3.375H7.72813C6.5 4.8125 7.29063 7.4375 9 7.4375ZM11.8125 15.25C11.9783 15.25 12.1372 15.3158 12.2544 15.4331C12.3717 15.5503 12.4375 15.7092 12.4375 15.875V17.125C12.4375 17.2908 12.3717 17.4497 12.2544 17.5669C12.1372 17.6842 11.9783 17.75 11.8125 17.75H5.875C5.70924 17.75 5.55027 17.6842 5.43306 17.5669C5.31585 17.4497 5.25 17.2908 5.25 17.125V15.875C5.25 15.7092 5.31585 15.5503 5.43306 15.4331C5.55027 15.3158 5.70924 15.25 5.875 15.25H11.8125ZM13.0625 12.75C13.0625 13.2473 12.865 13.7242 12.5133 14.0758C12.1617 14.4275 11.6848 14.625 11.1875 14.625H6.5C6.00272 14.625 5.52581 14.4275 5.17417 14.0758C4.82254 13.7242 4.625 13.2473 4.625 12.75V9.9375H8.90312C8.44981 10.253 8.07969 10.6737 7.82445 11.1635C7.56921 11.6533 7.43644 12.1977 7.4375 12.75C7.4375 12.8329 7.47042 12.9124 7.52903 12.971C7.58763 13.0296 7.66712 13.0625 7.75 13.0625C7.83288 13.0625 7.91237 13.0296 7.97097 12.971C8.02958 12.9124 8.0625 12.8329 8.0625 12.75C8.0625 12.0041 8.35882 11.2887 8.88626 10.7613C9.41371 10.2338 10.1291 9.9375 10.875 9.9375C10.9579 9.9375 11.0374 9.90458 11.096 9.84597C11.1546 9.78737 11.1875 9.70788 11.1875 9.625C11.1875 7.06875 11.0906 6.84062 11.4594 6.4625C11.542 6.37499 11.6413 6.30494 11.7515 6.2565C11.8616 6.20805 11.9804 6.18219 12.1007 6.18044C12.2211 6.17869 12.3405 6.20109 12.452 6.24632C12.5636 6.29155 12.6649 6.35868 12.75 6.44375C13.1594 6.84375 13.0625 6.67812 13.0625 12.75ZM15.5625 8.375C15.5625 8.62364 15.4637 8.8621 15.2879 9.03791C15.1121 9.21373 14.8736 9.3125 14.625 9.3125H13.6875V8.375C13.6875 8.12636 13.7863 7.8879 13.9621 7.71209C14.1379 7.53627 14.3764 7.4375 14.625 7.4375C14.7079 7.4375 14.7874 7.40458 14.846 7.34597C14.9046 7.28737 14.9375 7.20788 14.9375 7.125V4C14.9375 3.91712 14.9046 3.83763 14.846 3.77903C14.7874 3.72042 14.7079 3.6875 14.625 3.6875C14.4942 3.68511 14.3653 3.65618 14.246 3.60246C14.1268 3.54874 14.0197 3.47136 13.9312 3.375C13.9031 3.34375 13.9312 3.375 15.5625 3.375V8.375ZM17.125 4.3125C17.125 4.56114 17.0262 4.7996 16.8504 4.97541C16.6746 5.15123 16.4361 5.25 16.1875 5.25V3.375C16.2704 3.375 16.3499 3.34208 16.4085 3.28347C16.4671 3.22487 16.5 3.14538 16.5 3.0625C16.5 2.97962 16.4671 2.90013 16.4085 2.84153C16.3499 2.78292 16.2704 2.75 16.1875 2.75H1.8125C1.72962 2.75 1.65013 2.78292 1.59153 2.84153C1.53292 2.90013 1.5 2.97962 1.5 3.0625C1.5 3.14538 1.53292 3.22487 1.59153 3.28347C1.65013 3.34208 1.72962 3.375 1.8125 3.375V5.25C1.56386 5.25 1.3254 5.15123 1.14959 4.97541C0.973772 4.7996 0.875 4.56114 0.875 4.3125V1.8125C0.875 1.56386 0.973772 1.3254 1.14959 1.14959C1.3254 0.973772 1.56386 0.875 1.8125 0.875H16.1875C16.4361 0.875 16.6746 0.973772 16.8504 1.14959C17.0262 1.3254 17.125 1.56386 17.125 1.8125V4.3125Z" fill="#589CFE"/>
</svg>
