<svg width="62" height="62" viewBox="0 0 62 62" fill="none" xmlns="http://www.w3.org/2000/svg">
<g clip-path="url(#clip0_5317_5461)">
<path d="M56.1799 13.4533C56.1635 13.307 55.992 11.9973 55.1008 11.107L45.0802 1.08742C44.1899 0.197149 42.8802 0.0237457 42.7349 0.00727725C42.6982 0.00340855 42.6613 0.00146841 42.6244 0.00146484H14.5311C11.8603 0.00146484 9.68744 2.17434 9.68744 4.84514V22.2824H8.7187C7.11642 22.2824 5.8125 23.5863 5.8125 25.1886V36.8134C5.8125 38.4157 7.11642 39.7196 8.7187 39.7196H9.68744V57.1568C9.68744 59.8276 11.8603 62.0005 14.5311 62.0005H51.343C54.0138 62.0005 56.1867 59.8276 56.1867 57.1568V13.5638C56.1869 13.5268 56.1846 13.4899 56.1799 13.4533Z" fill="url(#paint0_linear_5317_5461)"/>
<path d="M35.8433 22.2822H8.7187C7.11642 22.2822 5.8125 23.5861 5.8125 25.1884V36.8133C5.8125 38.4155 7.11642 39.7195 8.7187 39.7195H35.8433C37.4456 39.7195 38.7495 38.4155 38.7495 36.8133V25.1884C38.7495 23.5852 37.4465 22.2822 35.8433 22.2822Z" fill="url(#paint1_linear_5317_5461)"/>
<path d="M55.1008 11.1067L45.0802 1.08706C44.19 0.196794 42.8802 0.0233906 42.7349 0.00692207C42.5992 -0.00880564 42.4617 0.00438093 42.3315 0.0456142C42.2012 0.0868475 42.0812 0.155193 41.9792 0.246154C41.8773 0.337116 41.7957 0.448631 41.74 0.573364C41.6842 0.698097 41.6555 0.83322 41.6558 0.969845V9.68846C41.6558 12.3593 43.8286 14.5321 46.4994 14.5321H55.2181C55.3545 14.5321 55.4893 14.5032 55.6138 14.4474C55.7382 14.3916 55.8495 14.3101 55.9403 14.2083C56.0311 14.1065 56.0994 13.9867 56.1407 13.8567C56.182 13.7267 56.1954 13.5895 56.18 13.4539C56.1645 13.3067 55.9921 11.997 55.1008 11.1067Z" fill="url(#paint2_linear_5317_5461)"/>
<path d="M14.5312 26.1567H12.5937C12.3368 26.1567 12.0904 26.2588 11.9087 26.4405C11.7271 26.6221 11.625 26.8685 11.625 27.1255V34.8754C11.625 35.1323 11.7271 35.3787 11.9087 35.5604C12.0904 35.742 12.3368 35.8441 12.5937 35.8441C12.8507 35.8441 13.0971 35.742 13.2787 35.5604C13.4604 35.3787 13.5625 35.1323 13.5625 34.8754V32.9379H14.5312C16.1335 32.9379 17.4374 31.634 17.4374 30.0317V29.0629C17.4374 27.4597 16.1345 26.1567 14.5312 26.1567ZM15.4999 30.0317C15.4999 30.5655 15.0659 31.0004 14.5312 31.0004H13.5625V28.0942H14.5312C15.0659 28.0942 15.4999 28.5292 15.4999 29.0629V30.0317Z" fill="url(#paint3_linear_5317_5461)"/>
<path d="M31.9682 30.0317H29.062V28.0942H31.9682C32.2251 28.0942 32.4715 27.9921 32.6532 27.8105C32.8349 27.6288 32.9369 27.3824 32.9369 27.1255C32.9369 26.8685 32.8349 26.6221 32.6532 26.4405C32.4715 26.2588 32.2251 26.1567 31.9682 26.1567H28.0932C27.8363 26.1567 27.5899 26.2588 27.4082 26.4405C27.2266 26.6221 27.1245 26.8685 27.1245 27.1255V34.8754C27.1245 35.1323 27.2266 35.3787 27.4082 35.5604C27.5899 35.742 27.8363 35.8441 28.0932 35.8441C28.3502 35.8441 28.5966 35.742 28.7782 35.5604C28.9599 35.3787 29.062 35.1323 29.062 34.8754V31.9691H31.9682C32.2251 31.9691 32.4715 31.8671 32.6532 31.6854C32.8349 31.5037 32.9369 31.2573 32.9369 31.0004C32.9369 30.7435 32.8349 30.4971 32.6532 30.3154C32.4715 30.1337 32.2251 30.0317 31.9682 30.0317Z" fill="url(#paint4_linear_5317_5461)"/>
<path d="M22.2812 26.1567H20.3437C20.0868 26.1567 19.8404 26.2588 19.6587 26.4405C19.4771 26.6221 19.375 26.8685 19.375 27.1255V34.8754C19.375 35.1323 19.4771 35.3787 19.6587 35.5604C19.8404 35.742 20.0868 35.8441 20.3437 35.8441H22.2812C23.8835 35.8441 25.1874 34.5402 25.1874 32.9379V29.0629C25.1874 27.4597 23.8845 26.1567 22.2812 26.1567ZM23.2499 32.9379C23.2499 33.4717 22.8159 33.9066 22.2812 33.9066H21.3125V28.0942H22.2812C22.8159 28.0942 23.2499 28.5292 23.2499 29.0629V32.9379Z" fill="url(#paint5_linear_5317_5461)"/>
</g>
<defs>
<linearGradient id="paint0_linear_5317_5461" x1="7.23363" y1="56.7044" x2="53.9664" y2="9.97169" gradientUnits="userSpaceOnUse">
<stop stop-color="#B3D8F4"/>
<stop offset="1" stop-color="#D1E7F8"/>
</linearGradient>
<linearGradient id="paint1_linear_5317_5461" x1="10.5399" y1="42.7419" x2="34.023" y2="19.2588" gradientUnits="userSpaceOnUse">
<stop stop-color="#005ECE"/>
<stop offset="1" stop-color="#2488FF"/>
</linearGradient>
<linearGradient id="paint2_linear_5317_5461" x1="43.0769" y1="13.111" x2="50.0915" y2="6.09639" gradientUnits="userSpaceOnUse">
<stop stop-color="#00969B"/>
<stop offset="1" stop-color="#00D7DF"/>
</linearGradient>
<linearGradient id="paint3_linear_5317_5461" x1="9.97137" y1="33.6228" x2="16.5859" y2="27.0083" gradientUnits="userSpaceOnUse">
<stop stop-color="#B3D8F4"/>
<stop offset="1" stop-color="#D1E7F8"/>
</linearGradient>
<linearGradient id="paint4_linear_5317_5461" x1="25.4709" y1="33.6228" x2="32.6531" y2="26.4396" gradientUnits="userSpaceOnUse">
<stop stop-color="#B3D8F4"/>
<stop offset="1" stop-color="#D1E7F8"/>
</linearGradient>
<linearGradient id="paint5_linear_5317_5461" x1="18.4063" y1="34.3067" x2="25.0198" y2="27.6932" gradientUnits="userSpaceOnUse">
<stop stop-color="#B3D8F4"/>
<stop offset="1" stop-color="#D1E7F8"/>
</linearGradient>
<clipPath id="clip0_5317_5461">
<rect width="62" height="62" fill="white"/>
</clipPath>
</defs>
</svg>
