<svg xmlns="http://www.w3.org/2000/svg" width="34.524" height="110.982" viewBox="0 0 34.524 110.982"><path d="M431.389,350c.712-3.091,2.5-9.694,1.576-13.641-.614-2.634-1.161-6.206-1.743-9.114a14.732,14.732,0,0,1-.281-2.569c-.058-2.589-.454-7.566-1.579-9.006-1.352-1.73-3.17-2.11-4.984-2.681a8.884,8.884,0,0,1-2.936-1.405c-.147-.128-.292-.256-.435-.385a4.89,4.89,0,0,1-1.619-3.539,46.454,46.454,0,0,1,1.419-6.085,4.58,4.58,0,0,0,0-3.638,5.174,5.174,0,0,0-9.693,0,4.58,4.58,0,0,0,0,3.638,46.459,46.459,0,0,1,1.419,6.085,4.89,4.89,0,0,1-1.619,3.539c-.142.129-.287.258-.435.385a8.883,8.883,0,0,1-2.936,1.405c-1.815.571-3.633.951-4.984,2.681-1.125,1.44-1.521,6.417-1.579,9.006a14.759,14.759,0,0,1-.281,2.569c-.582,2.908-1.129,6.48-1.743,9.114-.92,3.947.864,10.549,1.576,13.641q.165,2.082.33,4.164a11.805,11.805,0,0,1-.107,2.61,4.587,4.587,0,0,0,.1,1.885,4.485,4.485,0,0,0,1.108,2.4,1.592,1.592,0,0,0,1.883.08c.812-.579.63-.646.79-2.4a8.816,8.816,0,0,0-.187-3.235,35.172,35.172,0,0,1-1.216-4.816,12.765,12.765,0,0,1,.434-5.229,12.6,12.6,0,0,0,.422-3.567q-.077-3.034-.154-6.069a6.5,6.5,0,0,1,.423-2.5c.55-1.429,1.486-2.635,1.577-4.462h.225a31.142,31.142,0,0,1,.675,17.278,38.4,38.4,0,0,0,.9,18.415c.523,1.858.408,3.964,1.351,5.456v8.139l.225.046,1.126-2.729v-.227h.225c-.616,2.945-3.63,6.783-2.7,10.913,1.21,5.383,6.342,14.423,1.034,18.487l.091.61c.39.147.221.045.451.227,1.9.018,4.575.286,6.079-.227-.089-1.209-.276-4.061-.9-5v-1.591h-.225a14.356,14.356,0,0,0-.225,2.955h-.225c-.334-1.856.3-3.059.675-4.774v-5.684c.2-.816.711-2.092.9-2.955.6-2.727-.883-5.706-.9-8.184a27.421,27.421,0,0,1,.9-5.684q-.112-5.115-.225-10.231c-.632.932-.48,2.538-1.126,3.41v.227h-.225c.79-3.312,1.937-6.394,1.9-10.679-.042,4.285,1.153,7.367,1.944,10.679h-.225v-.227c-.645-.872-.494-2.478-1.126-3.41q-.112,5.115-.225,10.231a27.419,27.419,0,0,1,.9,5.684c-.018,2.479-1.5,5.458-.9,8.184.19.863.7,2.14.9,2.955v5.684c.375,1.715,1.01,2.918.675,4.774h-.225a14.353,14.353,0,0,0-.225-2.955h-.225v1.591c-.624.941-.811,3.792-.9,5,1.5.513,4.183.246,6.079.227.23-.183.061-.08.451-.227l.091-.61c-5.309-4.064-.176-13.1,1.034-18.487.928-4.13-2.086-7.968-2.7-10.913h.225v.227l1.126,2.729.225-.046V370.01c.943-1.492.828-3.6,1.351-5.456a38.4,38.4,0,0,0,.9-18.415,31.142,31.142,0,0,1,.675-17.278h.225c.091,1.826,1.027,3.032,1.577,4.462a6.5,6.5,0,0,1,.423,2.5q-.077,3.034-.154,6.069a12.587,12.587,0,0,0,.422,3.567,12.77,12.77,0,0,1,.434,5.229,35.141,35.141,0,0,1-1.216,4.816,8.815,8.815,0,0,0-.187,3.235c.16,1.759-.022,1.826.79,2.4a1.592,1.592,0,0,0,1.883-.08,4.487,4.487,0,0,0,1.108-2.4,4.59,4.59,0,0,0,.1-1.885,11.8,11.8,0,0,1-.107-2.61Q431.224,352.085,431.389,350Zm-16.283,5.229c-1.471.339-3.728.77-4.953-.227-1.473-.5-2.326-2.248-2.927-3.638,1.127.979,1.43,2.781,3.152,3.41.99.77,4.019.674,4.728-.227h.225Zm10.491-3.865c-.6,1.39-1.454,3.134-2.927,3.638-1.225,1-3.482.566-4.953.227l-.225-.682h.225c.709.9,3.739,1,4.728.227C424.167,354.148,424.47,352.346,425.6,351.368Z" transform="translate(-398.699 -294.58)" fill="#a6bbd1" fill-rule="evenodd"/></svg>