<svg xmlns="http://www.w3.org/2000/svg" width="17.596" height="111.25" viewBox="0 0 17.596 111.25"><path d="M612.025,351.684c-.495-.8-.963-1.535-1.276-2.106-1.685-3.079-2.085-6.879-3.483-10.46-.526-1.347-1.868-2.549-2.254-3.866-.778-2.66,1.846-8.674.2-11.37.318-.979,1.011-1.088,1.434-1.819.228-.394.183-1.021.41-1.364v-.227h.2a3.552,3.552,0,0,1-1.639,2.956c.235,2.167.708,4.525.2,7.049l-.615,4.321c.2.961,1.031,1.554,1.434,2.274a26.38,26.38,0,0,1,1.639,4.32c.638,1.921.706,4.533,1.844,5.912v.227c1.137-1.757,2.344-8.668,1.639-12.279a12.223,12.223,0,0,1-.41-3.184c.237-1.488.216-3.132.48-4.494.339-1.747-.287-3,.023-4.343a5.243,5.243,0,0,0-.488-3.759,23.692,23.692,0,0,0-3.906-5.142c-.7-.539-1.063-.179-1.434-1.137a3.721,3.721,0,0,1,.155-1.915,12.081,12.081,0,0,0,.324-1.318,3.732,3.732,0,0,1,.136-1.087c.245,0,.469,0,.677,0a2.2,2.2,0,0,0,1.982-2.525,2.124,2.124,0,0,0-.061-.327c-.1-.362.076-.522.189-.879a1.159,1.159,0,0,1,.079-.194,2.255,2.255,0,0,0-.016-2.263,1.588,1.588,0,0,1-.185-.4c-.545-1.763.134-3.239-.41-5a4.283,4.283,0,0,0-3.136-2.8,5.633,5.633,0,0,0-3.985.374c-2.407.869-3.476,4.064-3.532,4.245-1.393,4.528,3.076,6.51,2.049,10.233-.677,2.454-2.842,5.289-3.483,7.731-1.539,5.864.788,13.5,3.027,16.057l1.07,6.227a24.173,24.173,0,0,0,1.434,2.274c1.522,2.78,2.46,5.616,4.1,8.186.469.737,1.4,1.317,1.844,2.047,1.239,2.058-.267,5.629,1.434,7.049v.455c-.221-.208-.019.019-.2-.227-1.763-1.394-.336-3.943-1.024-6.14-.524-1.674-2.417-3.1-3.278-4.548-1.509-2.544-2.276-5.957-4.1-8.186v-.227h-.2v.227c-1.878,1.67-4.884,7.09-3.688,11.6.356,1.342,1.682,2.178,2.049,3.411v10.692q0,.223.022.445l.24,2.4a7.515,7.515,0,0,1-.327,3.067c-.148.454-.3.919-.42,1.334a4.09,4.09,0,0,0-.153.9,22.8,22.8,0,0,1-1.348,6.5,15.9,15.9,0,0,0-.882,6.274c.054,4.628,3.986,12.18,2.658,15.83a3.332,3.332,0,0,0,.194,2.787l.017.029H608.5c1.083,0,3.819-.066,3.819-.066a.359.359,0,0,0-.044-.636c-1.96-.685-7.208-2.66-8.281-4.528-1.842-3.206-1.934-8.885-1.024-13.416.576-2.867-.048-5.923.819-8.414.512-1.469,1.256-1.913,1.606-3.693.222-1.129-.036-1.912.237-3.129a18.439,18.439,0,0,1,1.229-2.5c1.157-2.925,2.52-6.015,2.868-9.551a4.321,4.321,0,0,1,.356.286,2.809,2.809,0,0,0,3.367.4l.143-.087a.575.575,0,0,0,.261-.434A12.9,12.9,0,0,0,612.025,351.684Z" transform="translate(-596.321 -294.268)" fill="#a6bbd1" fill-rule="evenodd"/></svg>