<svg xmlns="http://www.w3.org/2000/svg" width="100%" height="100%" viewBox="0 0 49.604 49.604" fill='#fcfcfc'>
<path d="M16008-868.2a24.8,24.8,0,0,1,24.8-24.8,24.807,24.807,0,0,1,24.8,24.8,24.8,24.8,0,0,1-24.8,24.8A24.8,24.8,0,0,1,16008-868.2Zm2,0a22.827,22.827,0,0,0,22.8,22.8,22.83,22.83,0,0,0,22.806-22.8A22.834,22.834,0,0,0,16032.8-891,22.83,22.83,0,0,0,16010-868.2Zm16.237,5.38c0-4.231.012-3.941.008-10.764a4.4,4.4,0,0,1,6.811-3.683l8.205,5.392a4.4,4.4,0,0,1,0,7.351l-8.209,5.392a4.337,4.337,0,0,1-2.4.73A4.411,4.411,0,0,1,16026.237-862.816Z" transform="translate(-16008.002 893)"/>
</svg>