<svg width="23" height="24" viewBox="0 0 23 24" fill="none" xmlns="http://www.w3.org/2000/svg">
<path d="M17.25 0H5.75C2.57929 0 0 2.69143 0 6V18C0 21.3086 2.57929 24 5.75 24H17.25C20.4207 24 23 21.3086 23 18V6C23 2.69143 20.4207 0 17.25 0ZM21.3571 18C21.3571 20.3631 19.5147 22.2857 17.25 22.2857H5.75C3.48532 22.2857 1.64286 20.3631 1.64286 18V6C1.64286 3.63686 3.48532 1.71429 5.75 1.71429H17.25C19.5147 1.71429 21.3571 3.63686 21.3571 6V18ZM17.25 12C17.25 12.2273 17.1635 12.4453 17.0094 12.6061C16.8554 12.7668 16.6464 12.8571 16.4286 12.8571H12.3214V17.1429C12.3214 17.3702 12.2349 17.5882 12.0808 17.7489C11.9268 17.9097 11.7179 18 11.5 18C11.2821 18 11.0732 17.9097 10.9192 17.7489C10.7651 17.5882 10.6786 17.3702 10.6786 17.1429V12.8571H6.57143C6.35357 12.8571 6.14464 12.7668 5.99059 12.6061C5.83654 12.4453 5.75 12.2273 5.75 12C5.75 11.7727 5.83654 11.5547 5.99059 11.3939C6.14464 11.2332 6.35357 11.1429 6.57143 11.1429H10.6786V6.85714C10.6786 6.62981 10.7651 6.4118 10.9192 6.25105C11.0732 6.09031 11.2821 6 11.5 6C11.7179 6 11.9268 6.09031 12.0808 6.25105C12.2349 6.4118 12.3214 6.62981 12.3214 6.85714V11.1429H16.4286C16.6464 11.1429 16.8554 11.2332 17.0094 11.3939C17.1635 11.5547 17.25 11.7727 17.25 12Z"/>
</svg>
