<svg xmlns="http://www.w3.org/2000/svg"  viewBox="0 0 26.419 21.611"><path d="M4028,615.8a2.107,2.107,0,0,1-1.9-1.21l-.755-1.584a.871.871,0,0,1,.045-.824.847.847,0,0,1,.716-.4h24a.842.842,0,0,1,.714.4.857.857,0,0,1,.044.824l-.753,1.584a2.11,2.11,0,0,1-1.9,1.21Zm-2.263-5.682a.832.832,0,0,1-.622-.279.856.856,0,0,1-.218-.654c.52-5.789,5.857-10.385,12.488-10.7v-.837a1.786,1.786,0,1,1,1.436,0v.837c6.628.312,11.967,4.908,12.488,10.7a.864.864,0,0,1-.216.654.843.843,0,0,1-.624.279Zm6.257-8.332a8.934,8.934,0,0,0-4.312,5.478.729.729,0,0,0,.513.885.708.708,0,0,0,.182.024.716.716,0,0,0,.693-.545,7.492,7.492,0,0,1,3.634-4.581.73.73,0,0,0,.27-.99.712.712,0,0,0-.98-.272Z" transform="translate(-4024.891 -594.193)"/></svg>