<svg viewBox="0 0 14 14" fill="none" xmlns="http://www.w3.org/2000/svg">
<g clip-path="url(#clip0_1_40)">
<path fill-rule="evenodd" clip-rule="evenodd" d="M3.77551 12.627C3.87435 12.7289 3.99258 12.8099 4.1232 12.8652C4.25383 12.9205 4.3942 12.949 4.53601 12.949C4.67782 12.949 4.81818 12.9205 4.94881 12.8652C5.07944 12.8099 5.19767 12.7289 5.29651 12.627L10.5029 7.30188C10.6506 7.15026 10.766 6.97019 10.8421 6.77259C11.3651 6.9226 11.8742 7.00192 12.3227 6.999C13.4323 6.99315 13.8002 6.49622 13.9209 6.19922C14.0416 5.90524 14.1279 5.28773 13.3491 4.47612C13.3403 4.46735 13.3315 4.45851 13.3231 4.44971C12.8399 3.95566 12.1386 3.49984 11.3422 3.16162C11.1955 3.09994 11.0491 3.04406 10.9052 2.99115V2.98235C10.8967 2.32955 10.3819 1.80325 9.74394 1.79438L6.62466 1.75034C6.41956 1.74738 6.21604 1.78656 6.02664 1.86546C5.83724 1.94436 5.66598 2.0613 5.52344 2.20908L0.314353 7.53424C0.112446 7.74261 -0.000488281 8.02159 -0.000488281 8.312C-0.000488281 8.60241 0.112446 8.88139 0.314353 9.08976L3.77551 12.627ZM7.78895 3.65574C7.87072 3.57131 7.96857 3.50419 8.0767 3.45835C8.18484 3.41252 8.30106 3.3889 8.41847 3.3889C8.53589 3.3889 8.65211 3.41252 8.76024 3.45835C8.86838 3.50419 8.96622 3.57131 9.04799 3.65574C9.14655 3.75709 9.22042 3.87989 9.26382 4.01455C9.30721 4.14922 9.31898 4.2921 9.29818 4.43207C9.66839 4.69573 10.0665 4.9176 10.4854 5.09363C10.6408 5.15838 10.7902 5.21714 10.9338 5.26713L10.9166 3.98513C10.9426 3.99682 10.9655 4.00569 10.9915 4.01738C11.6729 4.30857 12.2853 4.70256 12.6791 5.10543C12.6848 5.11127 12.6905 5.11712 12.6963 5.12303C13.0699 5.5141 13.1104 5.76403 13.0787 5.84046C12.9809 6.0786 11.9315 6.29033 10.3391 5.6111C9.8935 5.42364 9.47175 5.18379 9.08271 4.89658C9.07125 4.91134 9.05674 4.92605 9.04528 4.94066C8.96349 5.02509 8.86561 5.09222 8.75745 5.13806C8.64929 5.18389 8.53305 5.20751 8.41561 5.20751C8.29817 5.20751 8.18192 5.18389 8.07376 5.13806C7.9656 5.09222 7.86772 5.02509 7.78593 4.94066C7.6197 4.76807 7.52706 4.53743 7.52762 4.29759C7.52818 4.05774 7.62191 3.82754 7.78895 3.65574Z"  fill-opacity="0.5"/>
</g>
<defs>
<clipPath id="clip0_1_40">
<rect width="14" height="14" fill="white"/>
</clipPath>
</defs>
</svg>
