<svg xmlns="http://www.w3.org/2000/svg" width="22.309" height="26.001" viewBox="0 0 22.309 26.001">
  <path id="Privacy" d="M-275.106-316.717v-5.059c0-.418-.152-.559-.564-.613-.874-.109-1.753-.185-2.611-.375a20.793,20.793,0,0,1-7.426-3.452c-.537-.375-.548-.38-1.1-.005a19.537,19.537,0,0,1-9.95,3.838c-.565.038-.657.163-.657.722,0,3.034-.016,6.063.016,9.1a10.632,10.632,0,0,0,.277,2.269,10.271,10.271,0,0,0,2.888,4.956,21.122,21.122,0,0,0,7.735,4.8.811.811,0,0,0,.554-.027c1-.434,2.019-.847,2.98-1.357a16.887,16.887,0,0,0,5.9-4.847,8.987,8.987,0,0,0,1.9-4.972C-275.1-313.4-275.106-315.056-275.106-316.717Zm-11.18-4.486a3.688,3.688,0,0,1,3.688,3.688,3.688,3.688,0,0,1-3.688,3.688,3.688,3.688,0,0,1-3.688-3.688A3.688,3.688,0,0,1-286.287-321.2Zm5.424,13.724-.137.18h0c-.074.049-.147.1-.222.144l-.122.073c-.065.039-.13.079-.2.116l-.135.075c-.062.034-.125.069-.188.1l-.143.072c-.062.031-.124.062-.186.091l-.149.068-.186.082-.153.063-.187.074-.157.058-.189.066-.159.052-.191.058-.161.046-.194.051-.162.04-.2.044-.162.033-.2.036-.16.027c-.07.011-.14.02-.21.029l-.156.02c-.074.008-.148.015-.222.022l-.147.014c-.083.006-.166.01-.248.015l-.124.007q-.187.007-.375.007t-.375-.007l-.124-.007c-.083,0-.166-.008-.248-.015l-.147-.014c-.074-.007-.149-.013-.223-.022l-.155-.02c-.071-.009-.141-.018-.211-.029l-.158-.027c-.068-.012-.137-.024-.205-.037l-.159-.033-.2-.044-.159-.039-.2-.052-.157-.045-.2-.06-.155-.051-.194-.068-.151-.056-.194-.077-.146-.06c-.065-.028-.13-.057-.195-.086l-.141-.064c-.066-.031-.131-.064-.2-.1l-.133-.067c-.067-.035-.134-.072-.2-.109l-.123-.068c-.071-.04-.141-.083-.211-.126l-.107-.064c-.082-.051-.162-.1-.242-.157-.026-.017-.052-.033-.077-.051h0a2.149,2.149,0,0,1-.154-.775,2.73,2.73,0,0,1,1.376-2.432,7.871,7.871,0,0,1,4.16-.99,7.871,7.871,0,0,1,4.16.99,2.73,2.73,0,0,1,1.376,2.432A2.086,2.086,0,0,1-280.863-307.48Z" transform="translate(297.415 326.5)" fill="#45535c"/>
</svg>
