<svg width="30" height="30" viewBox="0 0 30 30" fill="none" xmlns="http://www.w3.org/2000/svg">
<path d="M15.1008 0H14.8995C10.93 0.0266414 7.13294 1.62563 4.34019 4.44663C1.54745 7.26764 -0.0132362 11.0806 8.45762e-05 15.0502C0.0134054 19.0197 1.59964 22.8221 4.41126 25.6243C7.22288 28.4265 11.0306 30 15.0002 30C18.9697 30 22.7775 28.4265 25.5891 25.6243C28.4007 22.8221 29.9869 19.0197 30.0003 15.0502C30.0136 11.0806 28.4529 7.26764 25.6601 4.44663C22.8674 1.62563 19.0703 0.0266414 15.1008 0ZM14.8995 7.04706C15.8965 7.04586 16.8715 7.34042 17.701 7.89346C18.5306 8.44649 19.1775 9.23316 19.5598 10.1539C19.9422 11.0747 20.0429 12.0882 19.8491 13.0662C19.6553 14.0442 19.1758 14.9427 18.4712 15.6481C17.7667 16.3536 16.8687 16.8341 15.8909 17.0291C14.9132 17.224 13.8996 17.1246 12.9783 16.7433C12.0571 16.3621 11.2697 15.7161 10.7156 14.8872C10.1616 14.0583 9.86588 13.0837 9.86588 12.0867C9.86509 11.4252 9.9947 10.77 10.2473 10.1586C10.4999 9.54717 10.8706 8.99156 11.3381 8.52351C11.8055 8.05545 12.3607 7.68414 12.9718 7.4308C13.5829 7.17746 14.238 7.04706 14.8995 7.04706ZM22.2959 25.7932L22.1117 26.0389L21.8096 26.2332L21.6455 26.3339L21.3798 26.4879L21.1955 26.5886L20.9398 26.7315L20.7385 26.8241L20.4928 26.957L20.2915 27.0496L20.0358 27.1624L19.8345 27.2439L19.5787 27.3446L19.3643 27.4261L19.1086 27.5077L18.8831 27.5792L18.6274 27.6607L18.4019 27.7221L18.1462 27.7936L17.9207 27.8449L17.6549 27.9064L17.4294 27.9577L17.1535 28.009L16.9391 28.0402L16.6522 28.0815L16.4378 28.1127L16.1358 28.1439H15.9415L15.5931 28.1641H14.223L13.8747 28.1439H13.6814L13.3793 28.1127L13.1649 28.0815L12.878 28.0402L12.6636 28.009L12.3877 27.9577L12.1733 27.9064L11.8974 27.8449L11.683 27.7936L11.4072 27.7221L11.1927 27.6607L10.927 27.5792L10.7256 27.5077C10.6336 27.4877 10.5444 27.4566 10.4598 27.4151L10.2585 27.3436L9.99273 27.2429L9.79138 27.1614L9.52561 27.0386L9.34138 26.957L9.06554 26.8241L8.89137 26.7315L8.61553 26.5775L8.45144 26.4849L8.15445 26.3208L8.0115 26.2281L7.68431 26.0127L7.58364 25.9412C7.43988 25.6095 7.36029 25.2536 7.34908 24.8922C7.33287 24.2211 7.49832 23.5581 7.82793 22.9733C8.15754 22.3885 8.63907 21.9037 9.22158 21.57C10.9599 20.6213 12.9202 20.1545 14.8995 20.218C16.8774 20.1362 18.8393 20.6042 20.5673 21.57C21.1592 21.8937 21.6491 22.3762 21.9816 22.9631C22.3142 23.55 22.4764 24.2181 22.4499 24.8922C22.4466 25.1992 22.3943 25.5037 22.2949 25.7942L22.2959 25.7932Z" fill="#589CFE"/>
</svg>
