<svg width="30" height="30" viewBox="0 0 30 30" fill="none" xmlns="http://www.w3.org/2000/svg">
<path d="M14.9845 30C11.0076 29.9959 7.19511 28.4127 4.38519 25.5984C1.57527 22.7841 -0.00205041 18.9692 2.00044e-06 14.9923C0.00205441 11.0154 1.58331 7.20203 4.39614 4.39066C7.20896 1.57929 11.0231 0 15 0C18.9769 0 22.791 1.57929 25.6039 4.39066C28.4167 7.20203 29.9979 11.0154 30 14.9923C30.0021 18.9692 28.4247 22.7841 25.6148 25.5984C22.8049 28.4127 18.9924 29.9959 15.0155 30H14.9845ZM9.38187 21.4397C8.80334 21.7703 8.32497 22.2512 7.99739 22.8315C7.6698 23.4118 7.50519 24.0698 7.52098 24.736C7.52509 25.0954 7.59798 25.4507 7.73573 25.7828L7.83562 25.8567L8.15925 26.0665L8.2991 26.1613L8.59876 26.3222L8.76057 26.4131L9.03526 26.5659L9.20906 26.6568L9.47976 26.7926L9.66455 26.8705L9.92925 26.9944L10.129 27.0763L10.3917 27.1762L10.5985 27.2461C10.682 27.288 10.7702 27.3198 10.8612 27.341L11.061 27.4109L11.3257 27.4938L11.5404 27.5518L11.8151 27.6257L12.0259 27.6756L12.3026 27.7376L12.5153 27.7865L12.788 27.8404L13.0028 27.8694L13.2854 27.9104L13.5022 27.9393L13.8019 27.9723H13.9946L14.3412 27.9933H15.6777L16.0243 27.9723H16.2171L16.5168 27.9393L16.7275 27.9104L17.0122 27.8694L17.227 27.8404L17.5017 27.7865L17.7234 27.7376L17.9861 27.6756L18.2139 27.6257L18.4656 27.5518L18.6913 27.4938L18.943 27.4109L19.1648 27.341L19.4205 27.2581L19.6352 27.1762L19.885 27.0763L20.0917 26.9944L20.3434 26.8835L20.5502 26.7926L20.7919 26.6568L20.9917 26.5659L21.2474 26.4261L21.4282 26.3262L21.6909 26.1733L21.8567 26.0734L22.1564 25.8837L22.3372 25.6359C22.4361 25.3465 22.4874 25.0429 22.489 24.737C22.5156 24.0684 22.3551 23.4057 22.0257 22.8234C21.6962 22.2411 21.2108 21.7622 20.6241 21.4407C18.9131 20.4875 16.9726 20.0237 15.0155 20.1002C13.052 20.0382 11.1074 20.5006 9.38187 21.4397ZM24.4588 23.9369C25.2908 23.0515 25.9967 22.0556 26.5564 20.9772C27.5768 18.9978 28.071 16.7892 27.9915 14.5636C27.912 12.338 27.2614 10.1703 26.1023 8.26874C24.9432 6.36717 23.3145 4.79565 21.3728 3.7052C19.431 2.61475 17.2415 2.042 15.0145 2.042C12.7875 2.042 10.5979 2.61475 8.65619 3.7052C6.71444 4.79565 5.08577 6.36717 3.92667 8.26874C2.76758 10.1703 2.11701 12.338 2.03748 14.5636C1.95796 16.7892 2.45215 18.9978 3.47256 20.9772C4.03161 22.056 4.73754 23.052 5.57019 23.9369C6.04765 20.0413 10.1011 18.0925 15.0115 18.0925C19.9219 18.0925 23.9793 20.0503 24.4588 23.9409V23.9369ZM10.0211 12.0294C10.0221 11.0418 10.3159 10.0767 10.8653 9.25602C11.4147 8.43536 12.195 7.796 13.1077 7.41875C14.0204 7.04151 15.0244 6.94332 15.9929 7.13659C16.9614 7.32986 17.8508 7.80592 18.5488 8.50459C19.2467 9.20326 19.7219 10.0932 19.9142 11.0618C20.1065 12.0305 20.0073 13.0345 19.6292 13.9468C19.251 14.8591 18.6109 15.6388 17.7897 16.1873C16.9685 16.7359 16.0031 17.0287 15.0155 17.0287C14.3592 17.0287 13.7093 16.8993 13.1031 16.648C12.4968 16.3967 11.946 16.0284 11.4822 15.5641C11.0184 15.0998 10.6506 14.5487 10.3999 13.9421C10.1492 13.3356 10.0205 12.6856 10.0211 12.0294ZM12.0189 12.0294C12.0189 12.622 12.1946 13.2014 12.5239 13.6942C12.8532 14.187 13.3212 14.5711 13.8687 14.7979C14.4163 15.0247 15.0188 15.084 15.6001 14.9684C16.1814 14.8528 16.7153 14.5674 17.1344 14.1483C17.5535 13.7292 17.8389 13.1953 17.9545 12.614C18.0701 12.0327 18.0108 11.4302 17.784 10.8826C17.5572 10.3351 17.1731 9.86705 16.6803 9.53778C16.1875 9.2085 15.6082 9.03276 15.0155 9.03276C14.2207 9.03276 13.4585 9.34847 12.8966 9.91044C12.3346 10.4724 12.0189 11.2346 12.0189 12.0294Z" fill="#87A1BB"/>
</svg>
