<svg width="25" height="24" viewBox="0 0 25 24" fill="none" xmlns="http://www.w3.org/2000/svg">
<path d="M12.4876 24C9.30609 23.9967 6.25609 22.7301 4.00815 20.4787C1.76022 18.2273 0.49836 15.1753 0.500002 11.9938C0.501644 8.81228 1.76665 5.76163 4.01691 3.51253C6.26717 1.26343 9.31848 0 12.5 0C15.6815 0 18.7328 1.26343 20.9831 3.51253C23.2333 5.76163 24.4984 8.81228 24.5 11.9938C24.5016 15.1753 23.2398 18.2273 20.9918 20.4787C18.7439 22.7301 15.6939 23.9967 12.5124 24H12.4876ZM8.00549 17.1518C7.54267 17.4163 7.15998 17.801 6.89791 18.2652C6.63584 18.7294 6.50415 19.2558 6.51678 19.7888C6.52007 20.0763 6.57839 20.3606 6.68859 20.6262L6.7685 20.6854L7.0274 20.8532L7.13928 20.9291L7.379 21.0577L7.50846 21.1305L7.72821 21.2527L7.86725 21.3254L8.08381 21.4341L8.23164 21.4964L8.4434 21.5955L8.60322 21.6611L8.81338 21.741L8.97879 21.7969C9.04561 21.8304 9.11615 21.8559 9.18895 21.8728L9.34877 21.9287L9.56053 21.9951L9.73234 22.0414L9.95209 22.1006L10.1207 22.1405L10.342 22.1901L10.5123 22.2292L10.7304 22.2724L10.9022 22.2955L11.1284 22.3283L11.3018 22.3515L11.5415 22.3778H11.6957L11.973 22.3946H13.0422L13.3195 22.3778H13.4737L13.7134 22.3515L13.882 22.3283L14.1098 22.2955L14.2816 22.2724L14.5013 22.2292L14.6787 22.1901L14.8889 22.1405L15.0711 22.1006L15.2725 22.0414L15.4531 21.9951L15.6544 21.9287L15.8318 21.8728L16.0364 21.8065L16.2082 21.741L16.408 21.6611L16.5734 21.5955L16.7748 21.5068L16.9402 21.4341L17.1335 21.3254L17.2934 21.2527L17.4979 21.1408L17.6426 21.0609L17.8527 20.9387L17.9854 20.8588L18.2251 20.7069L18.3697 20.5088C18.4489 20.2772 18.4899 20.0343 18.4912 19.7896C18.5125 19.2547 18.3841 18.7246 18.1205 18.2587C17.857 17.7929 17.4687 17.4098 16.9993 17.1526C15.6305 16.39 14.0781 16.019 12.5124 16.0802C10.9416 16.0306 9.38589 16.4004 8.00549 17.1518ZM20.067 19.1495C20.7327 18.4412 21.2973 17.6445 21.7451 16.7818C22.5615 15.1982 22.9568 13.4313 22.8932 11.6509C22.8296 9.87042 22.3091 8.13624 21.3818 6.61499C20.4546 5.09373 19.1516 3.83652 17.5982 2.96416C16.0448 2.0918 14.2932 1.6336 12.5116 1.6336C10.73 1.6336 8.97835 2.0918 7.42495 2.96416C5.87155 3.83652 4.56862 5.09373 3.64134 6.61499C2.71406 8.13624 2.19361 9.87042 2.12999 11.6509C2.06637 13.4313 2.46172 15.1982 3.27805 16.7818C3.72529 17.6448 4.29003 18.4416 4.95615 19.1495C5.33812 16.033 8.58084 14.474 12.5092 14.474C16.4375 14.474 19.6835 16.0402 20.067 19.1527V19.1495ZM8.51691 9.62349C8.5177 8.83343 8.75271 8.06134 9.19221 7.40481C9.63172 6.74829 10.256 6.2368 10.9862 5.935C11.7163 5.63321 12.5195 5.55465 13.2943 5.70927C14.0691 5.86389 14.7806 6.24474 15.339 6.80367C15.8974 7.36261 16.2775 8.07454 16.4314 8.84947C16.5852 9.62441 16.5059 10.4276 16.2033 11.1574C15.9008 11.8873 15.3887 12.511 14.7317 12.9499C14.0748 13.3887 13.3024 13.623 12.5124 13.623C11.9874 13.623 11.4675 13.5195 10.9825 13.3184C10.4974 13.1174 10.0568 12.8227 9.68575 12.4513C9.31468 12.0799 9.02046 11.6389 8.8199 11.1537C8.61935 10.6685 8.51639 10.1485 8.51691 9.62349ZM10.1151 9.62349C10.1151 10.0976 10.2557 10.5611 10.5191 10.9553C10.7825 11.3496 11.1569 11.6568 11.595 11.8383C12.033 12.0197 12.515 12.0672 12.9801 11.9747C13.4451 11.8822 13.8723 11.6539 14.2075 11.3186C14.5428 10.9834 14.7711 10.5562 14.8636 10.0912C14.9561 9.62615 14.9086 9.14413 14.7272 8.70609C14.5457 8.26804 14.2385 7.89364 13.8442 7.63022C13.45 7.3668 12.9865 7.22621 12.5124 7.22621C11.8766 7.22621 11.2668 7.47878 10.8173 7.92835C10.3677 8.37793 10.1151 8.98769 10.1151 9.62349Z"/>
</svg>
