<svg xmlns="http://www.w3.org/2000/svg" width="17.425" height="19.891" viewBox="0 0 17.425 19.891"><path d="M47.144,32.755a2.24,2.24,0,0,1,.018.28v.782a2.237,2.237,0,0,1-2.235,2.235H38.895a2.237,2.237,0,0,1-2.235-2.235v-.782a2.239,2.239,0,0,1,.023-.32A3.877,3.877,0,0,0,33,36.582V48.409a3.877,3.877,0,0,0,3.873,3.873h9.679a3.877,3.877,0,0,0,3.873-3.873V36.582A3.879,3.879,0,0,0,47.144,32.755Zm-.778,15.072h-9.2a.816.816,0,0,1-.825-.746.8.8,0,0,1,.794-.845h9.2a.816.816,0,0,1,.825.747A.8.8,0,0,1,46.367,47.827Zm0-3.66h-9.2a.816.816,0,0,1-.825-.746.8.8,0,0,1,.794-.845h9.2a.816.816,0,0,1,.825.747A.8.8,0,0,1,46.367,44.167Zm0-3.66h-9.2a.816.816,0,0,1-.825-.746.8.8,0,0,1,.794-.845h9.2a.816.816,0,0,1,.825.747A.8.8,0,0,1,46.367,40.507Zm-8.116-6.69v-.782a.644.644,0,0,1,.643-.643h6.033a.644.644,0,0,1,.643.643v.782a.644.644,0,0,1-.643.643H38.895A.644.644,0,0,1,38.251,33.816Z" transform="translate(-33 -32.391)" fill="#589cfe"/></svg>