<svg width="24" height="24" viewBox="0 0 24 24" fill="none" xmlns="http://www.w3.org/2000/svg">
<path d="M21.612 3.32189V2.3887C21.612 1.07156 20.5404 0 19.2233 0H12.5799C11.9418 0 11.3419 0.248484 10.8908 0.699703L1.49524 10.0953C1.04402 10.5465 0.795532 11.1463 0.795532 11.7844C0.795532 12.4224 1.04402 13.0223 1.49524 13.4735L2.44994 14.4282C2.40891 14.6056 2.38815 14.7872 2.38806 14.9693C2.38806 15.6074 2.63655 16.2073 3.08777 16.6584L9.73103 23.3016C10.1967 23.7672 10.8084 24 11.4201 24C12.0318 24 12.6435 23.7672 13.1091 23.3015L22.5048 13.9058C22.956 13.4546 23.2045 12.8548 23.2045 12.2167V5.57362C23.2045 4.53563 22.5387 3.65058 21.612 3.32189ZM2.62127 12.3474C2.54709 12.2736 2.48828 12.1859 2.44824 12.0892C2.40821 11.9926 2.38774 11.8889 2.38802 11.7843C2.38774 11.6797 2.40822 11.5761 2.44825 11.4794C2.48829 11.3828 2.5471 11.295 2.62127 11.2213L12.0168 1.82569C12.0906 1.75153 12.1784 1.69274 12.275 1.65271C12.3717 1.61268 12.4753 1.59221 12.5799 1.59248H19.2232C19.6623 1.59248 20.0194 1.94967 20.0194 2.3887V3.18492H14.1723C13.5342 3.18492 12.9344 3.43341 12.4833 3.88463L3.32097 13.047L2.62127 12.3474ZM21.3787 12.7798L11.9831 22.1754C11.6725 22.4859 11.1675 22.4858 10.8571 22.1754L4.21375 15.5323C4.13957 15.4585 4.08076 15.3708 4.04073 15.2741C4.00069 15.1775 3.98022 15.0739 3.9805 14.9692C3.98023 14.8646 4.0007 14.761 4.04074 14.6644C4.08078 14.5677 4.13958 14.48 4.21375 14.4062L13.6093 5.01056C13.6831 4.9364 13.7709 4.87761 13.8675 4.83758C13.9642 4.79755 14.0678 4.77709 14.1724 4.77736H20.8157C21.2547 4.77736 21.6119 5.13455 21.6119 5.57358V12.2167C21.6119 12.4294 21.5291 12.6294 21.3787 12.7798Z" fill="#45535C"/>
<path d="M17.6308 6.37012C16.3136 6.37012 15.2421 7.44168 15.2421 8.75882C15.2421 10.076 16.3136 11.1475 17.6308 11.1475C18.9479 11.1475 20.0195 10.076 20.0195 8.75882C20.0195 7.44168 18.9479 6.37012 17.6308 6.37012ZM17.6308 9.55509C17.1917 9.55509 16.8345 9.1979 16.8345 8.75887C16.8345 8.31984 17.1917 7.96265 17.6308 7.96265C18.0698 7.96265 18.427 8.31984 18.427 8.75887C18.427 9.1979 18.0698 9.55509 17.6308 9.55509Z" fill="#45535C"/>
</svg>
