<svg xmlns="http://www.w3.org/2000/svg" width="19.62" height="20.527" viewBox="0 0 19.62 20.527"><g transform="translate(0 0)"><path d="M24.759,3.451A7.167,7.167,0,0,0,14.785,1.6a6.955,6.955,0,0,0-.753.589,5.586,5.586,0,0,0-2.013-.377A5.682,5.682,0,0,0,9.925,12.754v5.175a3.079,3.079,0,0,0,3.2,2.937h5.257a3.079,3.079,0,0,0,3.2-2.937V14.144A7.2,7.2,0,0,0,25.9,8.818a7.126,7.126,0,0,0-1.136-5.367Zm-.205,5.12a5.826,5.826,0,0,1-5.983,4.737,6.161,6.161,0,0,1-.787-.089.685.685,0,0,0-.246,1.342,6.613,6.613,0,0,0,.972.116h.342a7.455,7.455,0,0,0,1.355-.13v3.375a1.712,1.712,0,0,1-1.828,1.568H13.122a1.712,1.712,0,0,1-1.828-1.568V11.748h0v-.014a4.311,4.311,0,0,1,.726-8.55,4.189,4.189,0,0,1,1.013.123,7.16,7.16,0,0,0-1.239,2.9,6.845,6.845,0,0,0-.116,1.54A.685.685,0,1,0,13.04,7.7a6.332,6.332,0,0,1,.1-1.246A5.806,5.806,0,1,1,24.554,8.571Z" transform="translate(-6.399 -0.339)" /></g></svg>