<svg width="20" height="20" viewBox="0 0 20 20" fill="none" xmlns="http://www.w3.org/2000/svg">
<path d="M19.6 9.99999C19.6 15.2934 15.2934 19.6 9.99999 19.6C4.70659 19.6 0.399994 15.2934 0.399994 9.99999C0.399994 9.84086 0.463208 9.68825 0.57573 9.57573C0.688252 9.46321 0.840864 9.39999 0.999994 9.39999C1.15912 9.39999 1.31174 9.46321 1.42426 9.57573C1.53678 9.68825 1.59999 9.84086 1.59999 9.99999C1.59999 14.6318 5.36819 18.4 9.99999 18.4C14.6318 18.4 18.4 14.6318 18.4 9.99999C18.4 5.36819 14.6318 1.59999 9.99999 1.59999C7.76779 1.59999 5.69479 2.46779 4.13559 3.99999H6.39999C6.55912 3.99999 6.71174 4.06321 6.82426 4.17573C6.93678 4.28825 6.99999 4.44086 6.99999 4.59999C6.99999 4.75912 6.93678 4.91174 6.82426 5.02426C6.71174 5.13678 6.55912 5.19999 6.39999 5.19999H2.79999C2.64086 5.19999 2.48825 5.13678 2.37573 5.02426C2.26321 4.91174 2.19999 4.75912 2.19999 4.59999V0.999994C2.19999 0.921201 2.21551 0.843179 2.24567 0.770384C2.27582 0.697589 2.32001 0.631445 2.37573 0.57573C2.43144 0.520015 2.49759 0.475819 2.57038 0.445666C2.64318 0.415513 2.7212 0.399994 2.79999 0.399994C2.87879 0.399994 2.95681 0.415513 3.0296 0.445666C3.1024 0.475819 3.16854 0.520015 3.22426 0.57573C3.27997 0.631445 3.32417 0.697589 3.35432 0.770384C3.38447 0.843179 3.39999 0.921201 3.39999 0.999994V3.04659C5.17019 1.35699 7.49619 0.399994 9.99999 0.399994C15.2934 0.399994 19.6 4.70659 19.6 9.99999ZM10.6 9.39999H9.39999C9.06899 9.39999 8.79999 9.13079 8.79999 8.79999C8.79999 8.46919 9.06899 8.19999 9.39999 8.19999H11.8C11.9591 8.19999 12.1117 8.13678 12.2243 8.02426C12.3368 7.91174 12.4 7.75912 12.4 7.59999C12.4 7.44086 12.3368 7.28825 12.2243 7.17573C12.1117 7.06321 11.9591 6.99999 11.8 6.99999H10.6V6.39999C10.6 6.3212 10.5845 6.24318 10.5543 6.17038C10.5242 6.09759 10.48 6.03145 10.4243 5.97573C10.3685 5.92001 10.3024 5.87582 10.2296 5.84567C10.1568 5.81551 10.0788 5.79999 9.99999 5.79999C9.9212 5.79999 9.84318 5.81551 9.77038 5.84567C9.69759 5.87582 9.63145 5.92001 9.57573 5.97573C9.52001 6.03145 9.47582 6.09759 9.44567 6.17038C9.41551 6.24318 9.39999 6.3212 9.39999 6.39999V6.99999C8.40739 6.99999 7.59999 7.80739 7.59999 8.79999C7.59999 9.79259 8.40739 10.6 9.39999 10.6H10.6C10.931 10.6 11.2 10.8692 11.2 11.2C11.2 11.5308 10.931 11.8 10.6 11.8H8.19999C8.04086 11.8 7.88825 11.8632 7.77573 11.9757C7.66321 12.0883 7.59999 12.2409 7.59999 12.4C7.59999 12.5591 7.66321 12.7117 7.77573 12.8243C7.88825 12.9368 8.04086 13 8.19999 13H9.39999V13.6C9.39999 13.6788 9.41551 13.7568 9.44567 13.8296C9.47582 13.9024 9.52001 13.9685 9.57573 14.0243C9.63145 14.08 9.69759 14.1242 9.77038 14.1543C9.84318 14.1845 9.9212 14.2 9.99999 14.2C10.0788 14.2 10.1568 14.1845 10.2296 14.1543C10.3024 14.1242 10.3685 14.08 10.4243 14.0243C10.48 13.9685 10.5242 13.9024 10.5543 13.8296C10.5845 13.7568 10.6 13.6788 10.6 13.6V13C11.5926 13 12.4 12.1926 12.4 11.2C12.4 10.2074 11.5926 9.39999 10.6 9.39999Z" fill="#BEC8DD"/>
</svg>
