<svg width="18" height="21" viewBox="0 0 18 21" fill="none" xmlns="http://www.w3.org/2000/svg">
<path d="M11.6135 7.45086H16.9356C17.5742 7.45086 18 7.0251 18 6.38646V1.06441C18 0.425764 17.5742 0 16.9356 0C16.2969 0 15.8712 0.425764 15.8712 1.06441V5.32205H11.6135C10.9749 5.32205 10.5491 5.74781 10.5491 6.38646C10.5491 7.0251 10.9749 7.45086 11.6135 7.45086Z" fill="#45535C"/>
<path d="M9.48429 20.2233C10.6551 20.2233 11.826 20.0104 12.8904 19.5847C14.8063 18.8396 16.4029 17.5623 17.5738 15.8593C17.8931 15.327 17.7867 14.6884 17.2545 14.3691C16.7223 14.0498 16.0836 14.1562 15.7643 14.6884C14.9128 15.9657 13.6355 17.0301 12.1453 17.5623C10.6551 18.0945 9.05853 18.201 7.46191 17.7752C5.97174 17.3494 4.58801 16.3915 3.63004 15.1142C2.67207 13.8369 2.13986 12.3467 2.03342 10.7501C2.03342 9.15347 2.45919 7.55686 3.41715 6.27957C4.37512 5.00228 5.65242 4.04431 7.14259 3.5121C8.63276 2.9799 10.2294 2.9799 11.826 3.5121C13.3162 4.04431 14.5935 5.00228 15.5514 6.27957C15.8707 6.81177 16.5094 6.91821 17.0416 6.59889C17.5738 6.27957 17.6802 5.53448 17.2545 5.10872C16.0836 3.40566 14.3806 2.12837 12.4646 1.48973C10.5487 0.851081 8.41988 0.851081 6.50394 1.48973C4.58801 2.12837 2.88495 3.40566 1.7141 5.10872C0.543251 6.81177 -0.0953935 8.72771 0.0110474 10.8565C0.0110474 12.8789 0.756132 14.9013 2.03342 16.4979C3.31071 18.0945 5.01377 19.2654 7.03615 19.904C7.67479 20.1169 8.63276 20.2233 9.48429 20.2233Z" fill="#45535C"/>
</svg>
