<svg width="26" height="24" viewBox="0 0 26 24" fill="none" xmlns="http://www.w3.org/2000/svg">
<path opacity="0.3" d="M25.5359 7.70641L25.4916 7.65428L18.5794 0.544555C18.2692 0.217363 17.8413 0.0224429 17.3871 0.00137221C17.1619 -0.00765976 16.9371 0.0279665 16.7262 0.106134C16.5152 0.184302 16.3224 0.303415 16.1591 0.456394L16.0705 0.535075C15.7433 0.868726 15.5615 1.31505 15.564 1.7788V4.45775H13.4297C6.63406 4.45775 2.37233 6.53284 0.771649 10.6195V10.646C0.212324 12.2322 -0.0468603 13.9058 0.00694544 15.584V15.6276C0.182634 17.9093 0.793631 20.138 1.80795 22.197L1.94182 22.5032C1.98612 22.6349 2.03813 22.7392 2.08436 22.8444L2.12866 22.9316C2.19085 23.0864 2.27134 23.2334 2.36847 23.3696C2.48273 23.5526 2.6404 23.7056 2.82795 23.8154C3.0155 23.9252 3.22732 23.9885 3.44522 24H3.50783C3.698 23.9992 3.88555 23.9562 4.05648 23.8741C4.2274 23.792 4.37731 23.6731 4.49501 23.526C4.4996 23.526 4.50401 23.5242 4.50727 23.521C4.51052 23.5178 4.51234 23.5135 4.51234 23.509C4.7112 23.2501 4.81326 22.9317 4.80127 22.6074C4.79578 22.4519 4.78099 22.2968 4.75697 22.1429V22.1164C4.73926 22.0476 4.7302 21.9769 4.73 21.906V21.8794C4.6857 21.249 4.6674 20.7153 4.6674 20.2243C4.65741 19.4404 4.73199 18.6578 4.88988 17.8894C5.0071 17.2985 5.20133 16.725 5.46774 16.1831C5.69341 15.7521 5.99468 15.3638 6.35765 15.0361C6.7219 14.7061 7.13215 14.429 7.57597 14.2132C8.07347 13.976 8.59974 13.8024 9.14198 13.6966H9.15932C9.80797 13.5621 10.4645 13.4671 11.125 13.4122C11.7741 13.3601 12.5485 13.3335 13.4288 13.3335H15.564V16.0125C15.5609 16.2407 15.6041 16.4673 15.6911 16.6789C15.7781 16.8905 15.9071 17.0829 16.0705 17.2448C16.2204 17.406 16.4014 17.5363 16.603 17.6279C16.8046 17.7195 17.0227 17.7707 17.2446 17.7785C17.4705 17.7884 17.6961 17.754 17.9084 17.6774C18.1207 17.6007 18.3154 17.4833 18.4812 17.332L18.5775 17.2372L25.4897 10.1275C25.8087 9.8054 25.9911 9.37574 25.9997 8.92597C26.0083 8.4762 25.8424 8.0401 25.5359 7.70641ZM24.202 8.91507L17.3438 15.9717V12.4519C17.3438 12.2196 17.25 11.9968 17.0831 11.8325C16.9162 11.6683 16.6899 11.576 16.4539 11.576H13.4297C12.4955 11.576 11.6961 11.6025 10.9834 11.6632C10.2473 11.7163 9.51595 11.8218 8.79526 11.9789C8.10134 12.1089 7.42824 12.3298 6.79393 12.6358H6.7843C6.18877 12.9215 5.64012 13.2934 5.15666 13.7392C4.62992 14.2087 4.19568 14.7698 3.87573 15.3944C3.5369 16.0796 3.28864 16.8047 3.13703 17.552C2.96062 18.4402 2.87704 19.3439 2.88759 20.2489V20.301C2.27202 18.7725 1.89692 17.1604 1.7752 15.5205C1.7301 14.0658 1.95296 12.6151 2.433 11.2385C3.7669 7.85051 7.3612 6.21432 13.4278 6.21432H16.4519C16.688 6.21432 16.9143 6.12204 17.0812 5.95777C17.2481 5.7935 17.3418 5.57071 17.3418 5.3384V1.81577L24.1645 8.8307L24.2088 8.8743C24.2194 8.87904 24.2194 8.898 24.202 8.91507Z" fill="#45535C"/>
</svg>
