<svg width="30" height="30" viewBox="0 0 30 30" fill="none" xmlns="http://www.w3.org/2000/svg">
<path d="M11.697 25.1881C5.15845 24.2181 0.715576 19.9025 0.715576 13.6654C0.715576 6.53821 7.14431 0.713867 15.0243 0.713867C22.9043 0.713867 29.287 6.49095 29.287 13.6181C29.287 20.9038 22.3399 29.0825 15.0728 29.2839H14.95C11.7143 29.2853 14.2313 25.5652 11.697 25.1881ZM6.1913 5.93098C5.08347 6.89475 4.19249 8.08227 3.5769 9.41539C2.96132 10.7485 2.63509 12.1971 2.61987 13.6654C2.59452 14.8453 2.80227 16.0186 3.23127 17.118C3.66027 18.2175 4.30209 19.2215 5.11987 20.0725C6.98962 21.8723 9.39889 23.0081 11.9771 23.3052C12.8411 23.4518 13.6207 23.9117 14.167 24.5969C14.7134 25.2821 14.9881 26.1445 14.9385 27.0195C14.9471 27.1252 14.9584 27.2581 14.9727 27.3766H15.0198C16.663 27.2269 18.2594 26.7479 19.7136 25.9681C21.1677 25.1884 22.45 24.124 23.4841 22.8382C25.8318 20.3198 27.2136 17.0526 27.3855 13.6139C27.3855 7.5482 21.8414 2.6138 15.0257 2.6138C11.7714 2.58248 8.62195 3.76409 6.1913 5.92819V5.93098ZM14.4227 19.0352C14.2805 18.8993 14.168 18.7357 14.092 18.5543C14.0161 18.3729 13.9785 18.1777 13.9815 17.9811C13.9786 17.7834 14.0161 17.5871 14.092 17.4045C14.168 17.222 14.2804 17.0569 14.4227 16.9196C14.5599 16.7771 14.7249 16.6642 14.9075 16.5881C15.09 16.5119 15.2865 16.4741 15.4843 16.4768C15.6824 16.474 15.8787 16.5119 16.0616 16.5881C16.2444 16.6642 16.4096 16.777 16.547 16.9196C16.6892 17.057 16.8018 17.222 16.8777 17.4045C16.9536 17.5871 16.9914 17.7834 16.9886 17.9811C16.9916 18.1777 16.9536 18.3729 16.8777 18.5543C16.8017 18.7357 16.6892 18.8993 16.547 19.0352C16.4078 19.1745 16.2417 19.2842 16.0591 19.3578C15.8765 19.4315 15.6812 19.4676 15.4843 19.4639C15.2886 19.4668 15.0941 19.4304 14.9127 19.3568C14.7313 19.2832 14.5669 19.1738 14.4286 19.0352H14.4227ZM14.3843 15.1295L14.0272 8.41528H16.9412L16.584 15.1295H14.3843Z" fill="#45535C"/>
</svg>
