<svg xmlns="http://www.w3.org/2000/svg" width="38.803" height="22.629" viewBox="0 0 38.803 22.629"><path d="M2823.1,191.109a4.739,4.739,0,0,1-3.092-1.553l-15.487-14.931.683-.564,15.534,14.981a3.845,3.845,0,0,0,2.44,1.24,4.238,4.238,0,0,0,3.059-1.287l16.43-14.669.657.587-16.431,14.67a5.292,5.292,0,0,1-3.515,1.536C2823.289,191.119,2823.2,191.115,2823.1,191.109Zm-.29-3.526a1.344,1.344,0,0,1-.374-.184,3.084,3.084,0,0,1-.921-.813q-5.737-5.243-11.474-10.487c-1.35-1.234.64-3.252,1.982-2.025q.826.753,1.649,1.507a1.5,1.5,0,0,1,.194-.024l6.379-.167a1.416,1.416,0,0,1,1.352,1.05q.811,2.823,1.623,5.644l1.776-1.568a34.509,34.509,0,0,1-1.147-4.289,1.451,1.451,0,0,1,.975-1.7l-1.7-2.972.014-.009-.065-.112,1.077-1.747,3.253,5.662-.476.454.053.092-.294.175q.269,1.216.614,2.407l2.385-2.108a2.66,2.66,0,0,1,3.6.016q1.929-1.76,3.854-3.521c1.345-1.227,3.335.791,1.984,2.025l-5.333,4.873a2.963,2.963,0,0,1-.362.383q-3.926,3.471-7.853,6.94a2.612,2.612,0,0,1-1.751.694A2.694,2.694,0,0,1,2822.815,187.583Zm-6.113-9.237q1.713,1.567,3.426,3.133-.457-1.6-.919-3.2Zm10.068-2.813.248-.236-2.874-5-.641,1.038.642-.382Zm3.063-4.042a2.946,2.946,0,1,1,2.946,3A2.973,2.973,0,0,1,2829.833,171.491Z" transform="translate(-2804.525 -168.49)" fill="#647f9a"/></svg>