<svg width="14" height="15" viewBox="0 0 14 15" fill="none" xmlns="http://www.w3.org/2000/svg">
<path fill-rule="evenodd" clip-rule="evenodd" d="M9.51909 1.10729C9.61965 1.00631 9.75403 0.946129 9.89633 0.938359C10.0386 0.930588 10.1788 0.975774 10.2897 1.06521C10.2957 1.07002 10.3006 1.07603 10.304 1.08285C10.3075 1.08967 10.3095 1.09715 10.31 1.1048C10.3104 1.11244 10.3092 1.12009 10.3064 1.12725C10.3037 1.13441 10.2995 1.14091 10.2941 1.14633L9.56128 1.8821C9.55588 1.88753 9.54939 1.89176 9.54225 1.89453C9.53511 1.89729 9.52746 1.89853 9.51981 1.89815C9.51216 1.89777 9.50467 1.89579 9.49783 1.89233C9.491 1.88887 9.48496 1.88402 9.48012 1.87808C9.39024 1.7675 9.34447 1.62755 9.35164 1.48523C9.35882 1.3429 9.41854 1.20827 9.51909 1.10729ZM1.63362 1.97745C1.5917 1.82189 1.48979 1.6893 1.35024 1.6088C1.21069 1.52829 1.0449 1.50643 0.88925 1.54802C0.733602 1.58961 0.600808 1.69124 0.52001 1.83063C0.439212 1.97001 0.417009 2.13576 0.458273 2.29149L3.48339 13.6563C3.51348 13.7733 3.58186 13.8769 3.67764 13.9505C3.77341 14.0241 3.89107 14.0635 4.01187 14.0625H9.34439C9.50583 14.0622 9.66056 13.9979 9.77472 13.8838C9.88887 13.7696 9.95315 13.6149 9.95347 13.4534V8.56456C9.95316 8.40311 9.88889 8.24837 9.77473 8.13421C9.66058 8.02006 9.50583 7.95579 9.34439 7.95548H3.23541L1.63362 1.97745ZM3.53797 1.41389C3.77095 1.35148 4.01721 1.35956 4.2456 1.4371C4.47399 1.51464 4.67426 1.65816 4.82108 1.84952C4.9679 2.04087 5.05469 2.27147 5.07046 2.51215C5.08623 2.75283 5.03028 2.99278 4.90968 3.20166C4.78908 3.41054 4.60925 3.57897 4.39294 3.68565C4.17662 3.79233 3.93352 3.83247 3.69439 3.80099C3.45526 3.76952 3.23083 3.66784 3.04948 3.50882C2.86814 3.3498 2.73802 3.14057 2.67558 2.9076C2.63412 2.7529 2.62353 2.59154 2.64443 2.43275C2.66533 2.27395 2.71731 2.12083 2.79739 1.98212C2.87747 1.84342 2.98409 1.72184 3.11116 1.62435C3.23823 1.52685 3.38326 1.45534 3.53797 1.41389ZM10.3363 12.2837L10.9696 13.3398C11.0166 13.4186 11.0786 13.4875 11.1522 13.5423C11.2258 13.5971 11.3095 13.6369 11.3986 13.6594C11.4876 13.6819 11.5801 13.6865 11.6709 13.6732C11.7618 13.6598 11.849 13.6287 11.9278 13.5816C12.0066 13.5345 12.0753 13.4723 12.13 13.3986C12.1847 13.3249 12.2244 13.2411 12.2467 13.152C12.269 13.063 12.2735 12.9704 12.26 12.8796C12.2465 12.7888 12.2152 12.7016 12.168 12.6229L10.3363 9.56846L10.3363 12.2837ZM4.46178 4.86158C4.83508 4.76159 5.17914 4.91575 5.49196 5.09633L7.77683 6.41542H9.99167C10.068 6.4149 10.1437 6.42948 10.2143 6.45832C10.285 6.48716 10.3493 6.5297 10.4034 6.58349C10.4576 6.63727 10.5005 6.70123 10.5299 6.7717C10.5592 6.84216 10.5743 6.91773 10.5743 6.99406C10.5743 7.07038 10.5592 7.14595 10.5299 7.21641C10.5005 7.28688 10.4576 7.35084 10.4034 7.40463C10.3493 7.45841 10.285 7.50095 10.2143 7.52979C10.1437 7.55864 10.068 7.57321 9.99167 7.57269H7.6132C7.51706 7.57383 7.42246 7.54847 7.33977 7.49941L6.1601 6.81833L6.36223 7.57269H4.01405L3.65979 6.25056C3.58285 5.96006 3.62401 5.65091 3.77426 5.39064C3.92451 5.13038 4.17173 4.94023 4.46178 4.86158ZM11.4666 1.54938C11.1697 1.54938 10.8795 1.63741 10.6327 1.80233C10.3859 1.96725 10.1935 2.20166 10.0799 2.47591C9.96632 2.75016 9.93659 3.05194 9.99451 3.34309C10.0524 3.63424 10.1954 3.90167 10.4053 4.11157C10.6152 4.32148 10.8826 4.46443 11.1738 4.52234C11.4649 4.58025 11.7667 4.55053 12.0409 4.43693C12.3152 4.32333 12.5496 4.13096 12.7145 3.88413C12.8794 3.63731 12.9675 3.34713 12.9675 3.05028C12.9675 2.65222 12.8093 2.27046 12.5279 1.98898C12.2464 1.70751 11.8646 1.54938 11.4666 1.54938ZM11.658 2.47707V2.8956C11.6878 2.93245 11.7063 2.97717 11.7113 3.02433L11.9576 3.27064C11.9935 3.30654 12.0136 3.35523 12.0136 3.40599C12.0136 3.45676 11.9935 3.50545 11.9576 3.54135C11.9217 3.57724 11.873 3.59741 11.8222 3.59741C11.7715 3.59741 11.7228 3.57724 11.6869 3.54135L11.4406 3.29503C11.3966 3.29036 11.3546 3.27391 11.3192 3.24741C11.2837 3.22092 11.2561 3.18535 11.2392 3.14447C11.2222 3.10358 11.2166 3.05888 11.223 3.01509C11.2293 2.97129 11.2473 2.93001 11.2752 2.8956V2.47696C11.2752 2.4262 11.2953 2.37751 11.3312 2.34162C11.3671 2.30572 11.4158 2.28556 11.4666 2.28556C11.5173 2.28556 11.566 2.30572 11.6019 2.34162C11.6378 2.37751 11.658 2.42631 11.658 2.47707ZM13.3933 1.11483C13.4941 1.21553 13.5541 1.35 13.5617 1.49231C13.5693 1.63461 13.5239 1.77468 13.4343 1.88552C13.4295 1.89149 13.4235 1.89638 13.4167 1.89987C13.4098 1.90336 13.4023 1.90538 13.3947 1.90578C13.387 1.90618 13.3794 1.90496 13.3722 1.90221C13.3651 1.89945 13.3586 1.89522 13.3532 1.88978L12.6184 1.15607C12.613 1.15067 12.6087 1.14419 12.6059 1.13704C12.6032 1.12989 12.6019 1.12224 12.6023 1.11458C12.6027 1.10693 12.6047 1.09944 12.6082 1.09261C12.6117 1.08578 12.6166 1.07976 12.6225 1.07494C12.7332 0.985229 12.8732 0.939668 13.0156 0.947034C13.1579 0.9544 13.2924 1.01417 13.3933 1.11483Z" fill="#BEC8DD"/>
</svg>
