<svg width="40" height="40" viewBox="0 0 40 40" fill="none" xmlns="http://www.w3.org/2000/svg">
<path d="M14.1406 23.5156C13.4934 23.5156 12.9688 24.0403 12.9688 24.6875V27.0312C12.9688 27.6784 13.4934 28.2031 14.1406 28.2031C14.7878 28.2031 15.3125 27.6784 15.3125 27.0312V24.6875C15.3125 24.0403 14.7878 23.5156 14.1406 23.5156ZM25.8594 28.2031C26.5066 28.2031 27.0312 27.6784 27.0312 27.0312V24.6875C27.0312 24.0403 26.5066 23.5156 25.8594 23.5156C25.2122 23.5156 24.6875 24.0403 24.6875 24.6875V27.0312C24.6875 27.6784 25.2122 28.2031 25.8594 28.2031ZM21.25 8.28125H34.0625C34.7097 8.28125 35.2344 7.75656 35.2344 7.10938C35.2344 6.46219 34.7097 5.9375 34.0625 5.9375H21.25C20.6028 5.9375 20.0781 6.46219 20.0781 7.10938C20.0781 7.75656 20.6028 8.28125 21.25 8.28125Z" fill="#589CFE"/>
<path d="M40 13.75V5.07812C40 2.27805 37.722 0 34.9219 0H20.3906C17.5905 0 15.3125 2.27805 15.3125 5.07812V14.1406H13.75C9.46664 14.1406 5.8743 17.1539 4.98008 21.1719H4.76562V13.9391C6.12961 13.4553 7.10938 12.1527 7.10938 10.625C7.10938 8.68648 5.53227 7.10938 3.59375 7.10938C1.65523 7.10938 0.078125 8.68648 0.078125 10.625C0.078125 12.1527 1.05789 13.4553 2.42188 13.9391V21.347C1.01742 21.808 0 23.1308 0 24.6875V29.375C0 31.3135 1.57711 32.8906 3.51562 32.8906H4.96305C5.82781 36.9476 9.43891 40 13.75 40H26.25C30.5611 40 34.1722 36.9476 35.037 32.8906H36.4844C38.4229 32.8906 40 31.3135 40 29.375V24.6875C40 22.749 38.4229 21.1719 36.4844 21.1719H35.0195C34.8375 20.3534 34.5417 19.5645 34.1408 18.8281H34.9219C37.722 18.8281 40 16.5501 40 13.75ZM17.6562 5.07812C17.6562 3.57039 18.8829 2.34375 20.3906 2.34375H34.9219C36.4296 2.34375 37.6562 3.57039 37.6562 5.07812V13.75C37.6562 15.2577 36.4296 16.4844 34.9219 16.4844H21.1719C20.9899 16.4844 20.8105 16.5267 20.6478 16.608L17.6562 18.1038V5.07812ZM3.59375 9.45312C4.23992 9.45312 4.76562 9.97883 4.76562 10.625C4.76562 11.2712 4.23992 11.7969 3.59375 11.7969C2.94758 11.7969 2.42188 11.2712 2.42188 10.625C2.42188 9.97883 2.94758 9.45312 3.59375 9.45312ZM2.34375 29.375V24.6875C2.34375 24.0413 2.86945 23.5156 3.51562 23.5156H4.76562V30.5469H3.51562C2.86945 30.5469 2.34375 30.0212 2.34375 29.375ZM37.6562 24.6875V29.375C37.6562 30.0212 37.1305 30.5469 36.4844 30.5469H35.2344V23.5156H36.4844C37.1305 23.5156 37.6562 24.0413 37.6562 24.6875ZM32.8906 23.125V31.0156C32.8906 34.6773 29.9116 37.6562 26.25 37.6562H13.75C10.0884 37.6562 7.10938 34.6773 7.10938 31.0156V23.125C7.10938 19.4634 10.0884 16.4844 13.75 16.4844H15.3125V20C15.3125 20.8697 16.2298 21.4375 17.0084 21.0481L21.4485 18.8281H31.3111C32.331 20.0275 32.8909 21.5506 32.8906 23.125Z" fill="#589CFE"/>
<path d="M21.25 12.9688H34.0625C34.7097 12.9688 35.2344 12.4441 35.2344 11.7969C35.2344 11.1497 34.7097 10.625 34.0625 10.625H21.25C20.6028 10.625 20.0781 11.1497 20.0781 11.7969C20.0781 12.4441 20.6028 12.9688 21.25 12.9688ZM16.4844 31.7188C16.4844 32.3659 17.0091 32.8906 17.6562 32.8906H22.3438C22.9909 32.8906 23.5156 32.3659 23.5156 31.7188C23.5156 31.0716 22.9909 30.5469 22.3438 30.5469H17.6562C17.0091 30.5469 16.4844 31.0716 16.4844 31.7188Z" fill="#589CFE"/>
</svg>
