<svg width="14" height="13" viewBox="0 0 14 13" fill="none" xmlns="http://www.w3.org/2000/svg">
<path d="M12.4668 3.23751C11.8986 2.25527 11.0823 1.43957 10.0998 0.872119C9.10798 0.300737 7.98349 0 6.83892 0C5.69435 0 4.56988 0.300737 3.57806 0.872119C2.59496 1.43956 1.77802 2.25521 1.20893 3.23751C0.639356 4.2305 0.339661 5.35534 0.339661 6.50015C0.339661 7.64496 0.639356 8.76983 1.20893 9.76282C1.7779 10.7452 2.59487 11.5609 3.57806 12.1282C4.56995 12.6994 5.6944 13 6.83892 13C7.98344 13 9.10791 12.6994 10.0998 12.1282C11.0824 11.5608 11.8986 10.7451 12.4668 9.76282C13.0386 8.7706 13.3397 7.64543 13.3397 6.50015C13.3397 5.35487 13.0386 4.22973 12.4668 3.23751ZM11.0524 5.51006L6.45706 10.1053C6.4071 10.1574 6.34691 10.1986 6.28028 10.2263C6.21365 10.254 6.142 10.2677 6.06984 10.2664C5.99867 10.2674 5.92806 10.2537 5.8625 10.2259C5.79694 10.1982 5.73787 10.1571 5.68904 10.1053L2.62444 7.0411C2.57415 6.9915 2.53457 6.93209 2.50815 6.86658C2.48173 6.80106 2.46904 6.73083 2.47084 6.66021C2.46887 6.58829 2.48146 6.5167 2.50785 6.44978C2.53425 6.38285 2.57391 6.32196 2.62444 6.27076L3.39352 5.50899C3.44317 5.45834 3.50243 5.4181 3.56782 5.39063C3.63321 5.36317 3.70342 5.34902 3.77434 5.34902C3.84526 5.34902 3.91545 5.36317 3.98084 5.39063C4.04622 5.4181 4.10549 5.45834 4.15514 5.50899L6.06984 7.42199L9.51845 3.97688C9.56801 3.92602 9.62722 3.88557 9.69261 3.8579C9.758 3.83024 9.82826 3.81592 9.89926 3.81577C9.97072 3.81489 10.0416 3.82875 10.1075 3.85647C10.1734 3.88419 10.2329 3.92517 10.2822 3.97688L11.0524 4.73865C11.103 4.78952 11.1426 4.85025 11.1689 4.91705C11.1951 4.98385 11.2073 5.0553 11.2049 5.12703C11.2072 5.19794 11.1948 5.26856 11.1686 5.33447C11.1423 5.40038 11.1028 5.46016 11.0524 5.51006Z" fill="white"/>
</svg>
