<svg viewBox="0 0 14 14" fill="none" xmlns="http://www.w3.org/2000/svg">
<path d="M3.9668 5.73022C4.15821 5.60292 4.31514 5.43024 4.4236 5.22756C4.53207 5.02489 4.58869 4.79853 4.58843 4.56865C4.58869 4.33878 4.53206 4.11242 4.4236 3.90975C4.31513 3.70707 4.1582 3.53439 3.9668 3.40709C3.77695 3.28093 3.5226 3.3322 3.39802 3.52084C3.27224 3.70948 3.32351 3.96425 3.51177 4.08962C3.67479 4.19817 3.76812 4.37279 3.76812 4.56868C3.76812 4.76457 3.67479 4.93919 3.51177 5.04774C3.12245 5.30729 2.89014 5.74148 2.89014 6.20931C2.89014 6.67713 3.12245 7.11132 3.51177 7.37087C3.7037 7.4981 3.95695 7.44281 4.08055 7.25712C4.20633 7.06847 4.15544 6.81412 3.9668 6.68834C3.80377 6.57979 3.71045 6.40517 3.71045 6.20928C3.71045 6.01339 3.80377 5.83877 3.9668 5.73022ZM1.91602 5.73022C2.30534 5.47067 2.53765 5.03648 2.53765 4.56865C2.53765 4.10083 2.30534 3.66664 1.91602 3.40709C1.72617 3.28093 1.47182 3.3322 1.34724 3.52084C1.22146 3.70948 1.27273 3.96425 1.46099 4.08962C1.62401 4.19817 1.71734 4.37279 1.71734 4.56868C1.71734 4.76457 1.62401 4.93919 1.46099 5.04774C1.26958 5.17504 1.11265 5.34772 1.00419 5.5504C0.895724 5.75307 0.839097 5.97943 0.839356 6.20931C0.839092 6.43918 0.895717 6.66554 1.00418 6.86822C1.11265 7.07089 1.26958 7.24357 1.46099 7.37087C1.65291 7.4981 1.90617 7.44281 2.02977 7.25712C2.15555 7.06847 2.10466 6.81412 1.91602 6.68834C1.75299 6.57979 1.65967 6.40517 1.65967 6.20928C1.65967 6.01339 1.75299 5.83877 1.91602 5.73022ZM6.01758 5.73022C6.20899 5.60292 6.36592 5.43024 6.47439 5.22756C6.58285 5.02489 6.63948 4.79853 6.63921 4.56865C6.63947 4.33878 6.58284 4.11242 6.47438 3.90975C6.36591 3.70707 6.20898 3.53439 6.01758 3.40709C5.82852 3.28093 5.57379 3.3322 5.4488 3.52084C5.32302 3.70948 5.37429 3.96425 5.56255 4.08962C5.72557 4.19817 5.8189 4.37279 5.8189 4.56868C5.8189 4.76457 5.72557 4.93919 5.56255 5.04774C5.17323 5.30729 4.94092 5.74148 4.94092 6.20931C4.94092 6.67713 5.17323 7.11132 5.56255 7.37087C5.75448 7.4981 6.00773 7.44281 6.13133 7.25712C6.25711 7.06847 6.20622 6.81412 6.01758 6.68834C5.85456 6.57979 5.76123 6.40517 5.76123 6.20928C5.76123 6.01339 5.85456 5.83877 6.01758 5.73022Z"/>
<path d="M11.9492 0H11.5619C10.6395 0 9.82595 0.62125 9.58322 1.51126L7.53438 9.07812H0.410156C0.183449 9.07812 0 9.26157 0 9.48828V9.89844C0 12.1599 1.8401 14 4.10156 14C6.36303 14 8.25781 12.1599 8.25781 9.89844V9.54316L10.3747 1.72676C10.5201 1.19323 11.0083 0.820312 11.5619 0.820312H11.9492C12.6277 0.820312 13.1797 1.37227 13.1797 2.05078C13.1797 2.72929 12.6277 3.28125 11.9492 3.28125C11.7225 3.28125 11.5391 3.4647 11.5391 3.69141C11.5391 3.91811 11.7225 4.10156 11.9492 4.10156C13.08 4.10156 14 3.18153 14 2.05078C14 0.920035 13.08 0 11.9492 0Z"/>
</svg>
