<svg width="23" height="22" viewBox="0 0 23 22" xmlns="http://www.w3.org/2000/svg">
<path fill-rule="evenodd" clip-rule="evenodd" d="M22.1922 20.2101L19.2607 17.2619C20.9674 15.15 21.7992 12.4605 21.5838 9.75031C21.3685 7.04014 20.1225 4.5168 18.1039 2.7027C16.0852 0.888594 13.4484 -0.0773472 10.7394 0.00484626C8.03041 0.0870397 5.45665 1.21107 3.55096 3.14425C1.64526 5.07742 0.553584 7.67168 0.501921 10.39C0.450257 13.1082 1.44257 15.7424 3.27342 17.747C5.10427 19.7516 7.63345 20.9733 10.3374 21.159C13.0413 21.3447 15.7128 20.4803 17.799 18.7447L20.7158 21.6929C20.9118 21.8895 21.1776 22 21.4548 22C21.732 22 21.9979 21.8895 22.1939 21.6929C22.3899 21.4963 22.5 21.2296 22.5 20.9515C22.5 20.6735 22.3899 20.4068 22.1939 20.2101H22.1922ZM11.0687 19.0898C9.36944 19.0973 7.70618 18.5991 6.28926 17.6582C4.87235 16.7173 3.76543 15.376 3.10853 13.8039C2.45164 12.2319 2.27426 10.4997 2.59886 8.82651C2.92345 7.15331 3.73542 5.61427 4.93207 4.40406C6.12871 3.19385 7.65627 2.36684 9.32152 2.02764C10.9868 1.68843 12.7149 1.85228 14.2873 2.49845C15.8597 3.14461 17.2058 4.24407 18.1552 5.65776C19.1046 7.07144 19.6148 8.73583 19.6211 10.4404V10.4775C19.6203 12.7556 18.72 14.9408 17.1172 16.5548C15.5144 18.1688 13.3397 19.0803 11.0687 19.0898Z" />
</svg>
