<svg width="24" height="24" viewBox="0 0 24 24" fill="none" xmlns="http://www.w3.org/2000/svg">
<path d="M0.172863 3.70891C-0.017501 3.19254 -0.0482545 2.63087 0.0845943 2.0968C0.217443 1.56273 0.50776 1.08092 0.917863 0.713911C1.32465 0.345661 1.83246 0.107772 2.37576 0.0309469C2.91907 -0.0458785 3.47293 0.041885 3.96586 0.282911L22.0559 8.72691C22.5247 8.94332 22.9412 9.25846 23.2769 9.65077C23.6126 10.0431 23.8595 10.5033 24.0009 10.9999H4.04886L0.229863 3.83591C0.208835 3.79452 0.189813 3.75213 0.172863 3.70891ZM4.06286 13.0009L0.309863 20.1759C0.289008 20.2153 0.270963 20.256 0.255863 20.2979C0.0662706 20.8144 0.0363115 21.3759 0.169875 21.9096C0.303438 22.4434 0.594355 22.9246 1.00486 23.2909C1.51017 23.7459 2.16587 23.9981 2.84586 23.9989C3.25486 23.9989 3.66486 23.9069 4.04686 23.7199L22.0579 15.2819C22.5275 15.0649 22.9445 14.7487 23.2803 14.3551C23.616 13.9615 23.8625 13.4999 24.0029 13.0019H4.06286V13.0009Z" fill="#589CFE"/>
</svg>
