<svg  viewBox="0 0 24 21" fill="none" xmlns="http://www.w3.org/2000/svg">
<path d="M20.7828 9.47803C18.7288 5.88603 14.5138 0.171028 11.8828 0.00502839C11.8495 0.00300878 11.8161 0.00300878 11.7828 0.00502839C11.7495 0.00288116 11.7161 0.00288116 11.6828 0.00502839C9.05379 0.171028 4.83878 5.88603 2.78278 9.47903C1.38278 11.928 -0.781215 16.379 0.463785 18.657C0.77952 19.1684 1.23343 19.58 1.77312 19.8443C2.3128 20.1087 2.91625 20.215 3.51378 20.151C5.79512 19.9705 8.0195 19.3476 10.0628 18.317C10.3446 18.1891 10.5835 17.9827 10.7511 17.7226C10.9187 17.4624 11.0078 17.1595 11.0078 16.85V11.46C11.0053 11.2599 11.0785 11.0663 11.2128 10.9179C11.347 10.7695 11.5324 10.6774 11.7318 10.66C11.8378 10.6529 11.9441 10.6676 12.0441 10.7033C12.1442 10.739 12.2358 10.7949 12.3134 10.8674C12.3909 10.94 12.4527 11.0278 12.4949 11.1252C12.5372 11.2227 12.5589 11.3278 12.5588 11.434V16.849C12.559 17.1588 12.6484 17.462 12.8163 17.7223C12.9843 17.9827 13.2236 18.1891 13.5058 18.317C16.9058 19.86 21.6268 21.361 23.1058 18.656C24.3508 16.375 22.1828 11.927 20.7828 9.47803Z" fill="#589CFE"/>
</svg>
