<svg xmlns="http://www.w3.org/2000/svg" width="23.378" height="20.145" viewBox="0 0 23.378 20.145"><path d="M-300.322,29.476c-2.054-3.592-6.268-9.305-8.9-9.472a.811.811,0,0,0-.1,0,.764.764,0,0,0-.1,0c-2.629.166-6.843,5.88-8.9,9.472-1.4,2.448-3.563,6.9-2.319,9.176a3.185,3.185,0,0,0,3.05,1.493c2.458,0,5.679-1.368,7.845-2.453l.009,0a1.09,1.09,0,0,1,.414-.093,1.09,1.09,0,0,1,.414.093l.009,0c3.349,1.677,9.219,4.032,10.895.959C-296.759,36.371-298.922,31.924-300.322,29.476Zm.958,8.434a1.759,1.759,0,0,1-1.671.69c-1.769,0-4.562-.989-7.164-2.291a2.326,2.326,0,0,0-.327-.133V31.431a.775.775,0,0,0-.775-.775.775.775,0,0,0-.775.775v4.732a2.372,2.372,0,0,0-.365.145c-3.8,1.9-8,3.132-8.835,1.6-.617-1.13.288-4.139,2.3-7.664a37.193,37.193,0,0,1,4.334-6.087c1.7-1.892,2.845-2.586,3.319-2.607.473.021,1.623.715,3.319,2.607a37.178,37.178,0,0,1,4.334,6.087C-299.652,33.771-298.747,36.779-299.364,37.909Z" transform="translate(321.009 -20)" /></svg>