<svg width="22" height="24" viewBox="0 0 22 24" fill="none" xmlns="http://www.w3.org/2000/svg">
<path d="M11 8C10.2089 8 9.43552 8.2346 8.77772 8.67412C8.11993 9.11365 7.60723 9.73836 7.30448 10.4693C7.00173 11.2002 6.92252 12.0044 7.07686 12.7804C7.2312 13.5563 7.61216 14.269 8.17157 14.8284C8.73098 15.3878 9.44372 15.7688 10.2196 15.9231C10.9956 16.0775 11.7998 15.9983 12.5307 15.6955C13.2616 15.3928 13.8864 14.8801 14.3259 14.2223C14.7654 13.5645 15 12.7911 15 12C15 10.9391 14.5786 9.92172 13.8284 9.17157C13.0783 8.42143 12.0609 8 11 8ZM11 14C10.6044 14 10.2178 13.8827 9.88886 13.6629C9.55996 13.4432 9.30362 13.1308 9.15224 12.7654C9.00087 12.3999 8.96126 11.9978 9.03843 11.6098C9.1156 11.2219 9.30608 10.8655 9.58579 10.5858C9.86549 10.3061 10.2219 10.1156 10.6098 10.0384C10.9978 9.96126 11.3999 10.0009 11.7654 10.1522C12.1308 10.3036 12.4432 10.56 12.6629 10.8889C12.8827 11.2178 13 11.6044 13 12C13 12.5304 12.7893 13.0391 12.4142 13.4142C12.0391 13.7893 11.5304 14 11 14Z" fill="#45535C"/>
<path d="M20.294 13.9L19.85 13.644C20.0499 12.5564 20.0499 11.4416 19.85 10.354L20.294 10.098C20.6354 9.90102 20.9347 9.63871 21.1748 9.32606C21.4148 9.01341 21.591 8.65654 21.6931 8.27582C21.7953 7.8951 21.8214 7.49799 21.7701 7.10716C21.7188 6.71633 21.591 6.33944 21.394 5.998C21.197 5.65656 20.9347 5.35727 20.622 5.1172C20.3094 4.87714 19.9525 4.70101 19.5718 4.59886C19.1911 4.49672 18.794 4.47056 18.4031 4.52189C18.0123 4.57321 17.6354 4.70102 17.294 4.898L16.849 5.155C16.0085 4.43692 15.0426 3.88025 14 3.513V3C14 2.20435 13.6839 1.44129 13.1213 0.87868C12.5587 0.31607 11.7956 0 11 0C10.2043 0 9.44127 0.31607 8.87866 0.87868C8.31605 1.44129 7.99998 2.20435 7.99998 3V3.513C6.95737 3.88157 5.99183 4.4396 5.15198 5.159L4.70498 4.9C4.01542 4.50218 3.19606 4.39457 2.42716 4.60086C1.65827 4.80715 1.00281 5.31044 0.604982 6C0.207157 6.68956 0.0995541 7.50892 0.305844 8.27782C0.512134 9.04672 1.01542 9.70218 1.70498 10.1L2.14898 10.356C1.94909 11.4436 1.94909 12.5584 2.14898 13.646L1.70498 13.902C1.01542 14.2998 0.512134 14.9553 0.305844 15.7242C0.0995541 16.4931 0.207157 17.3124 0.604982 18.002C1.00281 18.6916 1.65827 19.1948 2.42716 19.4011C3.19606 19.6074 4.01542 19.4998 4.70498 19.102L5.14998 18.845C5.99075 19.5632 6.95696 20.1199 7.99998 20.487V21C7.99998 21.7956 8.31605 22.5587 8.87866 23.1213C9.44127 23.6839 10.2043 24 11 24C11.7956 24 12.5587 23.6839 13.1213 23.1213C13.6839 22.5587 14 21.7956 14 21V20.487C15.0426 20.1184 16.0081 19.5604 16.848 18.841L17.295 19.099C17.9845 19.4968 18.8039 19.6044 19.5728 19.3981C20.3417 19.1918 20.9972 18.6886 21.395 17.999C21.7928 17.3094 21.9004 16.4901 21.6941 15.7212C21.4878 14.9523 20.9845 14.2968 20.295 13.899L20.294 13.9ZM17.746 10.124C18.0846 11.3511 18.0846 12.6469 17.746 13.874C17.6869 14.0876 17.7003 14.3147 17.7843 14.5198C17.8683 14.7249 18.018 14.8963 18.21 15.007L19.294 15.633C19.5238 15.7656 19.6915 15.9841 19.7602 16.2403C19.829 16.4966 19.7931 16.7697 19.6605 16.9995C19.5279 17.2293 19.3094 17.397 19.0531 17.4658C18.7969 17.5345 18.5238 17.4986 18.294 17.366L17.208 16.738C17.0159 16.6267 16.7922 16.5826 16.5722 16.6124C16.3522 16.6423 16.1485 16.7445 15.993 16.903C15.1029 17.8117 13.9816 18.46 12.75 18.778C12.535 18.8333 12.3445 18.9585 12.2086 19.1339C12.0726 19.3094 11.9989 19.525 11.999 19.747V21C11.999 21.2652 11.8936 21.5196 11.7061 21.7071C11.5186 21.8946 11.2642 22 10.999 22C10.7338 22 10.4794 21.8946 10.2919 21.7071C10.1043 21.5196 9.99898 21.2652 9.99898 21V19.748C9.99909 19.526 9.92535 19.3104 9.78939 19.1349C9.65342 18.9595 9.46295 18.8343 9.24798 18.779C8.01633 18.4597 6.89531 17.81 6.00598 16.9C5.85051 16.7415 5.64672 16.6393 5.42674 16.6094C5.20676 16.5796 4.98309 16.6237 4.79098 16.735L3.70698 17.362C3.59321 17.4287 3.46737 17.4722 3.33671 17.4901C3.20604 17.508 3.07313 17.4998 2.94564 17.4661C2.81814 17.4324 2.69856 17.3738 2.5938 17.2937C2.48904 17.2136 2.40116 17.1135 2.33522 16.9993C2.26928 16.8851 2.22658 16.759 2.20958 16.6282C2.19258 16.4974 2.20162 16.3646 2.23617 16.2373C2.27073 16.11 2.33011 15.9909 2.41091 15.8866C2.49172 15.7824 2.59234 15.6952 2.70698 15.63L3.79098 15.004C3.98293 14.8933 4.13266 14.7219 4.21664 14.5168C4.30063 14.3117 4.31411 14.0846 4.25498 13.871C3.91634 12.6439 3.91634 11.3481 4.25498 10.121C4.31305 9.90788 4.29892 9.68153 4.2148 9.47729C4.13068 9.27305 3.9813 9.10241 3.78998 8.992L2.70598 8.366C2.47617 8.23339 2.30845 8.01492 2.23972 7.75865C2.17099 7.50239 2.20687 7.22931 2.33948 6.9995C2.47209 6.76969 2.69056 6.60197 2.94683 6.53324C3.2031 6.46451 3.47617 6.50039 3.70598 6.633L4.79198 7.261C4.98356 7.37251 5.20676 7.41721 5.42651 7.38807C5.64626 7.35893 5.85009 7.25759 6.00598 7.1C6.89607 6.19134 8.01741 5.54302 9.24898 5.225C9.46461 5.16956 9.65558 5.04375 9.79162 4.8675C9.92765 4.69125 10.001 4.47464 9.99998 4.252V3C9.99998 2.73478 10.1053 2.48043 10.2929 2.29289C10.4804 2.10536 10.7348 2 11 2C11.2652 2 11.5196 2.10536 11.7071 2.29289C11.8946 2.48043 12 2.73478 12 3V4.252C11.9999 4.47396 12.0736 4.68964 12.2096 4.86508C12.3455 5.04052 12.536 5.16573 12.751 5.221C13.983 5.54015 15.1044 6.18988 15.994 7.1C16.1495 7.25847 16.3532 7.36069 16.5732 7.39057C16.7932 7.42044 17.0169 7.37626 17.209 7.265L18.293 6.638C18.4068 6.5713 18.5326 6.52777 18.6633 6.5099C18.7939 6.49204 18.9268 6.50019 19.0543 6.5339C19.1818 6.56761 19.3014 6.6262 19.4062 6.70631C19.5109 6.78642 19.5988 6.88646 19.6647 7.00067C19.7307 7.11488 19.7734 7.24101 19.7904 7.37179C19.8074 7.50257 19.7983 7.63542 19.7638 7.76269C19.7292 7.88997 19.6699 8.00915 19.5891 8.11337C19.5082 8.2176 19.4076 8.30482 19.293 8.37L18.209 8.996C18.018 9.10671 17.8691 9.27748 17.7853 9.48169C17.7016 9.68591 17.6877 9.9121 17.746 10.125V10.124Z" fill="#45535C"/>
</svg>
