<svg width="48" height="65" viewBox="0 0 48 65" fill="none" xmlns="http://www.w3.org/2000/svg">
<path fill-rule="evenodd" clip-rule="evenodd" d="M24 0C10.7452 0 0 10.7452 0 24C0 37.2548 10.7452 48 24 48C37.2548 48 48 37.2548 48 24C48 10.7452 37.2548 0 24 0ZM15.625 29.0347C13.0605 29.0236 10.9899 26.7626 11.0001 23.9845C10.9957 22.6984 11.4461 21.4594 12.2587 20.5218C14.0146 18.4962 16.9538 18.396 18.8236 20.2981L25.7253 16.9006C25.6763 16.6201 25.6496 16.3356 25.6454 16.0502C25.6442 15.2332 25.8263 14.4282 26.1759 13.7044C26.5256 12.9806 27.0324 12.3597 27.6527 11.895C29.7671 10.3113 32.6662 10.8843 34.1281 13.1748C35.59 15.4653 35.0612 18.6059 32.9468 20.1896C30.8325 21.7733 27.9333 21.2004 26.4714 18.9099L19.9793 22.1061C20.4378 23.3155 20.436 24.6723 19.9742 25.8802L26.4754 29.0602C26.9067 28.3824 27.484 27.8288 28.1573 27.4472C28.8306 27.0655 29.5796 26.8674 30.3395 26.8701C32.9216 26.8789 35.0082 29.1537 35 31.9509C34.9919 34.7482 32.892 37.0086 30.3099 36.9997C27.7278 36.9909 25.6412 34.7161 25.6494 31.9189C25.6538 31.6339 25.6802 31.3497 25.7283 31.0695L18.8087 27.685C17.9445 28.5571 16.8061 29.0398 15.625 29.0347Z"/>
<path d="M11.832 62.7217V61.5254C11.9395 61.623 12.0664 61.7109 12.2129 61.7891C12.3626 61.8672 12.5205 61.9339 12.6865 61.9893C12.8525 62.0413 13.0186 62.082 13.1846 62.1113C13.3506 62.1406 13.5036 62.1553 13.6436 62.1553C14.1318 62.1553 14.4948 62.0739 14.7324 61.9111C14.9733 61.7484 15.0938 61.5124 15.0938 61.2031C15.0938 61.0371 15.0531 60.8939 14.9717 60.7734C14.8936 60.6497 14.7829 60.5374 14.6396 60.4365C14.4964 60.3356 14.3271 60.2396 14.1318 60.1484C13.9398 60.054 13.7331 59.9564 13.5117 59.8555C13.2741 59.7285 13.0527 59.5999 12.8477 59.4697C12.6426 59.3395 12.4635 59.1963 12.3105 59.04C12.1608 58.8805 12.042 58.7015 11.9541 58.5029C11.8695 58.3044 11.8271 58.0716 11.8271 57.8047C11.8271 57.4759 11.9004 57.1911 12.0469 56.9502C12.1966 56.7061 12.3919 56.5059 12.6328 56.3496C12.877 56.1901 13.1536 56.0729 13.4629 55.998C13.7721 55.9199 14.0879 55.8809 14.4102 55.8809C15.1426 55.8809 15.6764 55.9639 16.0117 56.1299V57.2773C15.6146 56.9909 15.1035 56.8477 14.4785 56.8477C14.306 56.8477 14.1335 56.8639 13.9609 56.8965C13.7917 56.929 13.6387 56.9827 13.502 57.0576C13.3685 57.1325 13.2594 57.2285 13.1748 57.3457C13.0902 57.4629 13.0479 57.6045 13.0479 57.7705C13.0479 57.9268 13.0804 58.0618 13.1455 58.1758C13.2106 58.2897 13.305 58.3939 13.4287 58.4883C13.5557 58.5827 13.7087 58.6755 13.8877 58.7666C14.07 58.8545 14.2799 58.9505 14.5176 59.0547C14.7617 59.1816 14.9912 59.3151 15.2061 59.4551C15.4242 59.5951 15.6146 59.7497 15.7773 59.9189C15.9434 60.0882 16.0736 60.277 16.168 60.4854C16.2656 60.6904 16.3145 60.9248 16.3145 61.1885C16.3145 61.5433 16.2428 61.8428 16.0996 62.0869C15.9564 62.3311 15.7627 62.5296 15.5186 62.6826C15.2777 62.8356 14.9993 62.9463 14.6836 63.0146C14.3678 63.083 14.0342 63.1172 13.6826 63.1172C13.5654 63.1172 13.4206 63.1074 13.248 63.0879C13.0788 63.0716 12.9046 63.0456 12.7256 63.0098C12.5465 62.9772 12.3773 62.9365 12.2178 62.8877C12.0583 62.8389 11.9297 62.7835 11.832 62.7217ZM21.9199 63H20.7871V60.2656C20.7871 59.276 20.4567 58.7812 19.7959 58.7812C19.4639 58.7812 19.1839 58.9245 18.9561 59.2109C18.7282 59.4974 18.6143 59.8636 18.6143 60.3096V63H17.4766V55.5977H18.6143V58.8301H18.6338C19.0114 58.1986 19.5518 57.8828 20.2549 57.8828C21.3649 57.8828 21.9199 58.5615 21.9199 59.9189V63ZM27.1348 63H26.0361V62.2188H26.0166C25.6715 62.8177 25.1654 63.1172 24.498 63.1172C24.0065 63.1172 23.6208 62.9837 23.3408 62.7168C23.0641 62.4499 22.9258 62.0967 22.9258 61.6572C22.9258 60.7132 23.4694 60.1631 24.5566 60.0068L26.041 59.7969C26.041 59.084 25.7025 58.7275 25.0254 58.7275C24.4297 58.7275 23.8926 58.9326 23.4141 59.3428V58.3516C23.9414 58.0391 24.5501 57.8828 25.2402 57.8828C26.5033 57.8828 27.1348 58.5046 27.1348 59.748V63ZM26.041 60.5439L24.9912 60.6904C24.6657 60.7327 24.4199 60.8125 24.2539 60.9297C24.0911 61.0436 24.0098 61.2454 24.0098 61.5352C24.0098 61.7467 24.0846 61.9209 24.2344 62.0576C24.3874 62.1911 24.5908 62.2578 24.8447 62.2578C25.1898 62.2578 25.4746 62.1374 25.6992 61.8965C25.9271 61.6523 26.041 61.3464 26.041 60.9785V60.5439ZM31.4219 59.0791C31.2852 58.9717 31.0882 58.918 30.8311 58.918C30.4958 58.918 30.2158 59.0693 29.9912 59.3721C29.7666 59.6748 29.6543 60.0866 29.6543 60.6074V63H28.5215V58H29.6543V59.0303H29.6738C29.7845 58.6787 29.9538 58.4053 30.1816 58.21C30.4128 58.0114 30.6699 57.9121 30.9531 57.9121C31.1582 57.9121 31.3145 57.943 31.4219 58.0049V59.0791ZM36.3682 60.8076H32.96C32.973 61.2699 33.1146 61.6263 33.3848 61.877C33.6582 62.1276 34.0326 62.2529 34.5078 62.2529C35.0417 62.2529 35.5316 62.0934 35.9775 61.7744V62.6875C35.5218 62.974 34.9196 63.1172 34.1709 63.1172C33.4352 63.1172 32.8574 62.891 32.4375 62.4385C32.0208 61.9827 31.8125 61.3431 31.8125 60.5195C31.8125 59.7415 32.042 59.1084 32.501 58.6201C32.9632 58.1286 33.5361 57.8828 34.2197 57.8828C34.9033 57.8828 35.4323 58.1025 35.8066 58.542C36.181 58.9814 36.3682 59.5918 36.3682 60.373V60.8076ZM35.2744 60.0068C35.2712 59.5999 35.1751 59.2842 34.9863 59.0596C34.7975 58.8317 34.5371 58.7178 34.2051 58.7178C33.8796 58.7178 33.6029 58.8366 33.375 59.0742C33.1504 59.3118 33.012 59.6227 32.96 60.0068H35.2744Z" />
</svg>
