<svg xmlns="http://www.w3.org/2000/svg" width="18.568" height="21.629" viewBox="0 0 18.568 21.629"><path d="M-17609.523,141.833a4.188,4.188,0,0,1,.117-.971l-4.053-2.613a4.03,4.03,0,0,1-2.5.861,4.049,4.049,0,0,1-4.045-4.045,4.049,4.049,0,0,1,4.045-4.047,4.03,4.03,0,0,1,2.5.861l4.053-2.613a4.188,4.188,0,0,1-.117-.971,4.052,4.052,0,0,1,4.047-4.047,4.05,4.05,0,0,1,4.045,4.047,4.05,4.05,0,0,1-4.045,4.047,4.019,4.019,0,0,1-2.484-.856l-4.061,2.617a3.99,3.99,0,0,1,.115.96,3.994,3.994,0,0,1-.115.962l4.061,2.617a4.019,4.019,0,0,1,2.484-.856,4.05,4.05,0,0,1,4.045,4.047,4.05,4.05,0,0,1-4.045,4.047A4.052,4.052,0,0,1-17609.523,141.833Zm1.617,0a2.431,2.431,0,0,0,2.43,2.428,2.432,2.432,0,0,0,2.428-2.428,2.433,2.433,0,0,0-2.428-2.428A2.432,2.432,0,0,0-17607.906,141.833Zm-10.475-6.769a2.432,2.432,0,0,0,2.426,2.429,2.431,2.431,0,0,0,2.428-2.429,2.43,2.43,0,0,0-2.428-2.428A2.431,2.431,0,0,0-17618.381,135.064Zm10.475-6.767a2.432,2.432,0,0,0,2.43,2.428,2.433,2.433,0,0,0,2.428-2.428,2.432,2.432,0,0,0-2.428-2.428A2.431,2.431,0,0,0-17607.906,128.3Zm1.324,13.536a1.1,1.1,0,0,1,1.105-1.1,1.105,1.105,0,0,1,1.1,1.1,1.1,1.1,0,0,1-1.1,1.1A1.1,1.1,0,0,1-17606.582,141.833Zm-10.475-6.769a1.1,1.1,0,0,1,1.1-1.1,1.106,1.106,0,0,1,1.105,1.1,1.106,1.106,0,0,1-1.105,1.105A1.1,1.1,0,0,1-17617.057,135.064Zm10.475-6.767a1.1,1.1,0,0,1,1.105-1.1,1.1,1.1,0,0,1,1.1,1.1,1.105,1.105,0,0,1-1.1,1.1A1.1,1.1,0,0,1-17606.582,128.3Z" transform="translate(17620 -124.25)" fill="#647f9a"/></svg>