<svg width="38" height="38" viewBox="0 0 38 38" fill="none" xmlns="http://www.w3.org/2000/svg">
<path d="M19 36.6325C28.7382 36.6325 36.6326 28.7381 36.6326 18.9998C36.6326 9.26159 28.7382 1.36719 19 1.36719C9.26172 1.36719 1.36731 9.26159 1.36731 18.9998C1.36731 28.7381 9.26172 36.6325 19 36.6325Z" fill="white"/>
<path d="M19 37C28.9411 37 37 28.9411 37 19C37 9.05888 28.9411 1 19 1C9.05888 1 1 9.05888 1 19C1 28.9411 9.05888 37 19 37Z" stroke="#45535C"/>
<path d="M15.7269 27.0751C14.4515 27.0728 13.229 26.5647 12.3275 25.6623C11.4261 24.7599 10.9193 23.5369 10.9183 22.2614V15.73C10.9193 14.4544 11.4261 13.2313 12.3275 12.3288C13.2289 11.4263 14.4514 10.9181 15.7269 10.9155H22.2539C23.5295 10.9179 24.7522 11.426 25.6536 12.3286C26.5551 13.2311 27.0617 14.4544 27.0625 15.73V22.2614C27.0617 23.5369 26.555 24.7601 25.6536 25.6625C24.7521 26.565 23.5294 27.073 22.2539 27.0751H15.7269ZM12.5428 15.73V22.2614C12.5424 23.1064 12.8776 23.917 13.4747 24.5149C14.0718 25.1129 14.8819 25.4492 15.7269 25.45H22.2539C22.6724 25.4498 23.0869 25.3672 23.4735 25.2068C23.8601 25.0465 24.2113 24.8115 24.5071 24.5155C24.8029 24.2194 25.0375 23.8679 25.1975 23.4812C25.3575 23.0944 25.4398 22.6799 25.4396 22.2614V15.73C25.4398 15.3114 25.3575 14.897 25.1975 14.5102C25.0375 14.1235 24.8029 13.772 24.5071 13.4759C24.2113 13.1798 23.8601 12.9449 23.4735 12.7846C23.0869 12.6242 22.6724 12.5416 22.2539 12.5414H15.7269C15.3082 12.5418 14.8936 12.6247 14.507 12.7853C14.1203 12.946 13.7691 13.1813 13.4734 13.4777C13.1776 13.7742 12.9433 14.126 12.7836 14.5131C12.6239 14.9002 12.5421 15.3149 12.5428 15.7336V15.73ZM14.8203 18.9957C14.8226 18.1706 15.0694 17.3647 15.5295 16.6798C15.9897 15.995 16.6425 15.4618 17.4055 15.1478C18.1685 14.8337 19.0074 14.7529 19.8164 14.9154C20.6253 15.078 21.3679 15.4767 21.9503 16.0611C22.5328 16.6455 22.9289 17.3894 23.0888 18.1988C23.2486 19.0083 23.165 19.847 22.8484 20.6089C22.5318 21.3709 21.9966 22.0219 21.3101 22.4797C20.6237 22.9376 19.817 23.1817 18.9919 23.1812C17.8839 23.1797 16.8218 22.7384 16.039 21.9543C15.2561 21.1702 14.8164 20.1074 14.8166 18.9994L14.8203 18.9957ZM16.441 18.9957C16.4413 19.5004 16.5913 19.9937 16.8718 20.4132C17.1524 20.8327 17.5511 21.1596 18.0175 21.3526C18.4838 21.5456 18.9969 21.596 19.4919 21.4974C19.9869 21.3988 20.4416 21.1557 20.7984 20.7987C21.1552 20.4418 21.3982 19.9871 21.4967 19.4921C21.5951 18.997 21.5446 18.484 21.3515 18.0177C21.1584 17.5513 20.8314 17.1528 20.4118 16.8723C19.9922 16.5918 19.4988 16.442 18.9941 16.4419C18.6582 16.4414 18.3254 16.5072 18.015 16.6356C17.7045 16.764 17.4224 16.9523 17.1848 17.1899C16.9473 17.4275 16.7591 17.7096 16.6308 18.0201C16.5025 18.3306 16.4367 18.6634 16.4373 18.9994L16.441 18.9957ZM22.1848 14.852C22.1851 14.6549 22.2439 14.4623 22.3536 14.2985C22.4633 14.1348 22.6191 14.0072 22.8013 13.932C22.9835 13.8567 23.184 13.8372 23.3773 13.8758C23.5706 13.9145 23.748 14.0095 23.8873 14.149C24.0266 14.2885 24.1214 14.4662 24.1598 14.6595C24.1981 14.8529 24.1783 15.0533 24.1028 15.2354C24.0273 15.4174 23.8995 15.5731 23.7356 15.6825C23.5716 15.792 23.379 15.8505 23.1819 15.8505C23.0508 15.8508 22.921 15.8254 22.7998 15.7756C22.6786 15.7258 22.5684 15.6527 22.4755 15.5603C22.3826 15.4679 22.3088 15.3582 22.2583 15.2373C22.2078 15.1164 22.1815 14.9867 22.1812 14.8557L22.1848 14.852Z" fill="#45535C"/>
</svg>
