<svg width="16" height="16" viewBox="0 0 16 16" fill="none" xmlns="http://www.w3.org/2000/svg">
<g clip-path="url(#clip0_3687_5693)">
<path d="M15.4539 5.93725C15.4068 5.79141 15.3179 5.66263 15.1981 5.56699C15.0784 5.47135 14.9331 5.41307 14.7805 5.39941L10.5325 5.01366L8.85275 1.082C8.72885 0.793872 8.44679 0.607422 8.1334 0.607422C7.82 0.607422 7.53791 0.7939 7.41407 1.08272L5.7343 5.01369L1.48565 5.39941C1.33319 5.41337 1.18817 5.47178 1.06859 5.56739C0.949003 5.663 0.860109 5.7916 0.812928 5.93725C0.716023 6.2353 0.805511 6.56217 1.04166 6.76823L4.25265 9.58424L3.3058 13.7551C3.23652 14.0617 3.35553 14.3787 3.60999 14.5627C3.74674 14.6615 3.90677 14.7118 4.06812 14.7118C4.20726 14.7118 4.34524 14.6743 4.46914 14.6002L8.1334 12.4102L11.7963 14.6002C12.0644 14.7615 12.4023 14.7467 12.6561 14.5627C12.7804 14.4727 12.8755 14.3482 12.9296 14.2046C12.9837 14.061 12.9944 13.9047 12.9603 13.7551L12.0135 9.58424L15.2245 6.7688C15.34 6.66792 15.4233 6.53532 15.4641 6.38749C15.5049 6.23965 15.5013 6.08309 15.4539 5.93725Z" fill="#FFC107"/>
</g>
<defs>
<clipPath id="clip0_3687_5693">
<rect width="14.7178" height="14.7178" fill="white" transform="translate(0.774414 0.578125)"/>
</clipPath>
</defs>
</svg>
