<svg xmlns="http://www.w3.org/2000/svg" width="25" height="18.984" viewBox="0 0 25 18.984">
  <path id="Subscription_icon" data-name="Subscription icon" d="M53.79,511a.928.928,0,0,1-.922-.928v-2.452a.931.931,0,0,1,.733-.907,1.7,1.7,0,0,1-.015-.237v-1.283a1.989,1.989,0,0,1,1.982-1.993h.743a1.989,1.989,0,0,1,1.983,1.993v1.283a1.931,1.931,0,0,1-.015.242.931.931,0,0,1,.722.9v2.452a.928.928,0,0,1-.922.928Zm1.686-2.669a.5.5,0,0,0,.164.618.119.119,0,0,1,.046.1v.66a.251.251,0,1,0,.5,0v-.66a.116.116,0,0,1,.051-.108.5.5,0,0,0-.211-.907.453.453,0,0,0-.093-.01A.513.513,0,0,0,55.476,508.331Zm-.887-3.137v1.283a1.042,1.042,0,0,0,.026.216h2.642a.96.96,0,0,0,.026-.216h-.005v-1.283a.975.975,0,0,0-.973-.978h-.743A.975.975,0,0,0,54.59,505.193Zm-11.919,3.854a2.093,2.093,0,0,1-2.08-2.092v-7.517a2.094,2.094,0,0,1,2.08-2.092h11.8a2.094,2.094,0,0,1,2.08,2.092v2.793c-.076-.005-.154-.01-.236-.01h-.743c-.046,0-.1,0-.143,0v-.53H41.892v5.286a.756.756,0,0,0,.752.757H51.9v1.309Zm-.778-9.634v.288H55.425v-.288a.757.757,0,0,0-.753-.758H42.645A.756.756,0,0,0,41.892,499.414Zm-4.369,7.614-3.308-6.738a2.1,2.1,0,0,1,.942-2.8l10.577-5.255a2.081,2.081,0,0,1,2.786.948l1.49,3.029H42.7a3.219,3.219,0,0,0-3.2,3.21v7.088a3.185,3.185,0,0,0,.436,1.613,2.055,2.055,0,0,1-.542.073A2.086,2.086,0,0,1,37.523,507.028Zm7.52-.577a1.354,1.354,0,1,1,0-1.762,1.355,1.355,0,1,1,0,1.762Z" transform="translate(-34 -492.016)" fill="#45535c"/>
</svg>
