<svg width="56" height="52" viewBox="0 0 56 52" fill="none" xmlns="http://www.w3.org/2000/svg">
<rect x="10.75" y="0.75" width="34.5" height="34.5" rx="5.25" stroke="#589CFE" stroke-width="1.5"/>
<path d="M22.75 11.9589V13.0839C23.139 13.0839 23.5005 12.8829 23.7057 12.5524L22.75 11.9589ZM24.5875 9V7.875C24.1985 7.875 23.837 8.076 23.6318 8.4065L24.5875 9ZM31.4125 9L32.3682 8.4065C32.163 8.076 31.8015 7.875 31.4125 7.875V9ZM33.25 11.9589L32.2943 12.5524C32.4995 12.8829 32.861 13.0839 33.25 13.0839V11.9589ZM18.625 24.5342V14.4247H16.375V24.5342H18.625ZM20.125 13.0839H22.75V10.8339H20.125V13.0839ZM23.7057 12.5524L25.5432 9.5935L23.6318 8.4065L21.7943 11.3654L23.7057 12.5524ZM24.5875 10.125H31.4125V7.875H24.5875V10.125ZM30.4568 9.5935L32.2943 12.5524L34.2057 11.3654L32.3682 8.4065L30.4568 9.5935ZM33.25 13.0839H35.875V10.8339H33.25V13.0839ZM37.375 14.4247V24.5342H39.625V14.4247H37.375ZM37.375 24.5342C37.375 25.2094 36.7708 25.875 35.875 25.875V28.125C37.8787 28.125 39.625 26.5827 39.625 24.5342H37.375ZM35.875 13.0839C36.7708 13.0839 37.375 13.7495 37.375 14.4247H39.625C39.625 12.3763 37.8787 10.8339 35.875 10.8339V13.0839ZM18.625 14.4247C18.625 13.7495 19.2292 13.0839 20.125 13.0839V10.8339C18.1213 10.8339 16.375 12.3762 16.375 14.4247H18.625ZM20.125 25.875C19.2292 25.875 18.625 25.2094 18.625 24.5342H16.375C16.375 26.5827 18.1213 28.125 20.125 28.125V25.875ZM30.8125 18.863C30.8125 20.2191 29.6207 21.4366 28 21.4366V23.6866C30.7286 23.6866 33.0625 21.5923 33.0625 18.863H30.8125ZM28 21.4366C26.3793 21.4366 25.1875 20.2191 25.1875 18.863H22.9375C22.9375 21.5923 25.2714 23.6866 28 23.6866V21.4366ZM25.1875 18.863C25.1875 17.5069 26.3793 16.2894 28 16.2894V14.0394C25.2714 14.0394 22.9375 16.1337 22.9375 18.863H25.1875ZM28 16.2894C29.6207 16.2894 30.8125 17.5069 30.8125 18.863H33.0625C33.0625 16.1337 30.7286 14.0394 28 14.0394V16.2894ZM35.875 25.875H20.125V28.125H35.875V25.875Z" fill="#589CFE"/>
<path d="M6.20566 43.2822H4.20859V49H2.62656V43.2822H0.639257V41.998H6.20566V43.2822ZM10.6072 49H9.14727V48.2822H9.12773C8.79245 48.8421 8.29603 49.1221 7.63848 49.1221C7.15345 49.1221 6.77096 48.9854 6.49102 48.7119C6.21432 48.4352 6.07598 48.0674 6.07598 47.6084C6.07598 46.6383 6.65052 46.0785 7.79961 45.9287L9.15703 45.748C9.15703 45.2012 8.86081 44.9277 8.26836 44.9277C7.67266 44.9277 7.10625 45.1051 6.56914 45.46V44.2979C6.78398 44.1872 7.07695 44.0895 7.44805 44.0049C7.8224 43.9202 8.16256 43.8779 8.46855 43.8779C9.89434 43.8779 10.6072 44.5892 10.6072 46.0117V49ZM9.15703 46.9688V46.6318L8.24883 46.749C7.74753 46.8141 7.49687 47.0404 7.49687 47.4277C7.49687 47.6035 7.5571 47.7484 7.67754 47.8623C7.80124 47.973 7.96725 48.0283 8.17559 48.0283C8.4653 48.0283 8.7013 47.929 8.88359 47.7305C9.06589 47.5286 9.15703 47.2747 9.15703 46.9688ZM17.1377 49H15.2871L13.6904 46.5195H13.6709V49H12.1279V41.5977H13.6709V46.3096H13.6904L15.1797 44H17.0107L15.2188 46.3486L17.1377 49ZM22.3693 46.9395H19.1076C19.1597 47.6654 19.6171 48.0283 20.4797 48.0283C21.0298 48.0283 21.5132 47.8981 21.9299 47.6377V48.751C21.4676 48.9984 20.8671 49.1221 20.1281 49.1221C19.3208 49.1221 18.6942 48.8991 18.2482 48.4531C17.8023 48.0039 17.5793 47.3789 17.5793 46.5781C17.5793 45.748 17.8202 45.0905 18.302 44.6055C18.7837 44.1204 19.3762 43.8779 20.0793 43.8779C20.8085 43.8779 21.3716 44.0944 21.7687 44.5273C22.1691 44.9603 22.3693 45.5479 22.3693 46.29V46.9395ZM20.9387 45.9922C20.9387 45.276 20.649 44.918 20.0695 44.918C19.8221 44.918 19.6073 45.0205 19.425 45.2256C19.246 45.4307 19.1369 45.6862 19.0979 45.9922H20.9387ZM28.2135 48.4189H28.1939V51.2998H26.651V44H28.1939V44.752H28.2135C28.5943 44.1693 29.1298 43.8779 29.8199 43.8779C30.4677 43.8779 30.9674 44.1009 31.3189 44.5469C31.6738 44.9896 31.8512 45.5934 31.8512 46.3584C31.8512 47.1917 31.6445 47.8607 31.2311 48.3652C30.8209 48.8698 30.274 49.1221 29.5904 49.1221C28.9882 49.1221 28.5292 48.8877 28.2135 48.4189ZM28.1695 46.3682V46.7686C28.1695 47.1136 28.2607 47.3952 28.443 47.6133C28.6253 47.8314 28.8645 47.9404 29.1607 47.9404C29.5123 47.9404 29.7841 47.8053 29.9762 47.5352C30.1715 47.2617 30.2691 46.876 30.2691 46.3779C30.2691 45.499 29.9273 45.0596 29.2437 45.0596C28.928 45.0596 28.6692 45.18 28.4674 45.4209C28.2688 45.6585 28.1695 45.9743 28.1695 46.3682ZM37.952 49H36.4139V46.1582C36.4139 45.4258 36.1469 45.0596 35.6131 45.0596C35.3396 45.0596 35.1183 45.1621 34.949 45.3672C34.7797 45.5723 34.6951 45.8327 34.6951 46.1484V49H33.1521V41.5977H34.6951V44.7422H34.7146C35.0922 44.166 35.6049 43.8779 36.2527 43.8779C37.3855 43.8779 37.952 44.5615 37.952 45.9287V49ZM41.8604 49.1221C41.027 49.1221 40.3711 48.8893 39.8926 48.4238C39.4173 47.9551 39.1797 47.3203 39.1797 46.5195C39.1797 45.6927 39.4271 45.0465 39.9219 44.5811C40.4167 44.1123 41.0856 43.8779 41.9287 43.8779C42.7588 43.8779 43.4098 44.1123 43.8818 44.5811C44.3538 45.0465 44.5898 45.6634 44.5898 46.4316C44.5898 47.2617 44.3457 47.9176 43.8574 48.3994C43.3724 48.8812 42.7067 49.1221 41.8604 49.1221ZM41.8994 45.0596C41.5348 45.0596 41.2516 45.1849 41.0498 45.4355C40.848 45.6862 40.7471 46.041 40.7471 46.5C40.7471 47.4603 41.1344 47.9404 41.9092 47.9404C42.6481 47.9404 43.0176 47.4473 43.0176 46.4609C43.0176 45.5267 42.6449 45.0596 41.8994 45.0596ZM48.9133 48.9414C48.6854 49.0618 48.342 49.1221 47.883 49.1221C46.7958 49.1221 46.2522 48.5573 46.2522 47.4277V45.1377H45.4416V44H46.2522V42.9209L47.7902 42.4814V44H48.9133V45.1377H47.7902V47.1592C47.7902 47.68 47.9969 47.9404 48.4104 47.9404C48.5731 47.9404 48.7408 47.8932 48.9133 47.7988V48.9414ZM52.4311 49.1221C51.5977 49.1221 50.9418 48.8893 50.4633 48.4238C49.988 47.9551 49.7504 47.3203 49.7504 46.5195C49.7504 45.6927 49.9978 45.0465 50.4926 44.5811C50.9874 44.1123 51.6563 43.8779 52.4994 43.8779C53.3295 43.8779 53.9805 44.1123 54.4525 44.5811C54.9245 45.0465 55.1605 45.6634 55.1605 46.4316C55.1605 47.2617 54.9164 47.9176 54.4281 48.3994C53.9431 48.8812 53.2774 49.1221 52.4311 49.1221ZM52.4701 45.0596C52.1055 45.0596 51.8223 45.1849 51.6205 45.4355C51.4187 45.6862 51.3178 46.041 51.3178 46.5C51.3178 47.4603 51.7051 47.9404 52.4799 47.9404C53.2188 47.9404 53.5883 47.4473 53.5883 46.4609C53.5883 45.5267 53.2156 45.0596 52.4701 45.0596Z" fill="#589CFE"/>
</svg>
