<svg xmlns="http://www.w3.org/2000/svg" version="1.1" xmlns:xlink="http://www.w3.org/1999/xlink" width="512" height="512" x="0" y="0" viewBox="0 0 24 24" style="enable-background:new 0 0 512 512" xml:space="preserve" class=""><g><g data-name="Layer 2"><path d="M17 22.75H3A1.752 1.752 0 0 1 1.25 21V3A1.752 1.752 0 0 1 3 1.25h14A1.752 1.752 0 0 1 18.75 3v11a.75.75 0 0 1-1.5 0V3a.253.253 0 0 0-.25-.25H3a.253.253 0 0 0-.25.25v18a.253.253 0 0 0 .25.25h14a.777.777 0 0 1 1 .415.734.734 0 0 1-.392.971 1.624 1.624 0 0 1-.608.114z" fill="#000000" opacity="1" data-original="#000000" class=""></path><path d="M14.5 6.75h-9a.75.75 0 0 1 0-1.5h9a.75.75 0 0 1 0 1.5zM14.5 10.75h-9a.75.75 0 0 1 0-1.5h9a.75.75 0 0 1 0 1.5zM12 14.75H5.5a.75.75 0 0 1 0-1.5H12a.75.75 0 0 1 0 1.5zM11 18.75H5.5a.75.75 0 0 1 0-1.5H11a.75.75 0 0 1 0 1.5zM18 22.75A4.75 4.75 0 1 1 22.75 18 4.755 4.755 0 0 1 18 22.75zm0-8A3.25 3.25 0 1 0 21.25 18 3.254 3.254 0 0 0 18 14.75z" fill="#000000" opacity="1" data-original="#000000" class=""></path><path d="M17.5 19.75a.748.748 0 0 1-.53-.22l-1-1a.75.75 0 1 1 1.06-1.06l.47.47 1.47-1.47a.75.75 0 0 1 1.06 1.06l-2 2a.748.748 0 0 1-.53.22z" fill="#000000" opacity="1" data-original="#000000" class=""></path></g></g></svg>