<svg xmlns="http://www.w3.org/2000/svg" width="26" height="24.006" viewBox="0 0 26 24.006"><path d="M-4303.931-529.487c-4.5-.178-13.41-9.32-13.41-9.32l-4.149-4.175a1.757,1.757,0,0,1,.132-2.6l.544-.468a1.3,1.3,0,0,1,1.748.09l3.479,3.5a10.926,10.926,0,0,1,1.9,2.593,18.075,18.075,0,0,0,7.325,7.253,10.61,10.61,0,0,0,4.709,1.3,29.289,29.289,0,0,0,4.956-.124.146.146,0,0,1,.1.248l-.583.588a3.777,3.777,0,0,1-2.68,1.117s-1.106.039-2.314.039C-4302.771-529.448-4303.4-529.458-4303.931-529.487Zm.614-3.275c-1.492-.419-4.4-1.435-5.125-3.142a.152.152,0,0,1,.136-.209l3.754-.1a.357.357,0,0,0,.347-.366l0-.171a.977.977,0,0,0-1-.954l-4.232.11a1.475,1.475,0,0,1-1.06-.41l-.013-.012a1.5,1.5,0,0,1-.462-1.045l-.01-.42a.468.468,0,0,1,.454-.482l4.7-.123a.572.572,0,0,0,.555-.589l-.005-.243a.6.6,0,0,0-.616-.587l-6.3.165a.411.411,0,0,1-.366-.206l-.64-1.11a.414.414,0,0,1,.346-.62l5.921-.155a.62.62,0,0,0,.6-.638l-.006-.222a.575.575,0,0,0-.589-.561l-7.231.188a2.947,2.947,0,0,1-2.179-.882l-1.91-1.941,4.891-5.365,0,0a2.516,2.516,0,0,1,1.926-.582c1.136.146.737,4.138.726,4.241v0l.015.58a.038.038,0,0,0,.04.037l5.426-.142a2.659,2.659,0,0,1,2.718,2.6l.144,5.631a.4.4,0,0,0,.407.389.4.4,0,0,1,.407.389l.031,1.174a.4.4,0,0,0,.17.317l4.318,3.034a2.432,2.432,0,0,1,1.03,1.929.547.547,0,0,1-.531.563l-5.139.134-.142,0A5.572,5.572,0,0,1-4303.317-532.762Z" transform="translate(4322 553.454)" /></svg>