<svg xmlns="http://www.w3.org/2000/svg" width="23" height="14.999" viewBox="0 0 23 14.999">
  <path id="Units_icon" data-name="Units icon" d="M57.151,445H40.468a8.727,8.727,0,0,1-3.846-.961c-1-.511-1.622-1.069-1.622-1.294v-9.017c.281,1.049,4.236,1.908,5.445,1.908H57.151A.859.859,0,0,1,58,436.5v7.63A.859.859,0,0,1,57.151,445Zm-2.461-8.76a.321.321,0,0,0-.32.32V440.5a.321.321,0,0,0,.32.32h.08a.32.32,0,0,0,.319-.32V436.56a.32.32,0,0,0-.319-.32Zm-3.91,0a.33.33,0,0,0-.329.33v3.919a.33.33,0,0,0,.329.33h.09a.331.331,0,0,0,.33-.33V436.57a.331.331,0,0,0-.33-.33Zm-3.99,0a.331.331,0,0,0-.33.33v3.919a.331.331,0,0,0,.33.33h.09a.331.331,0,0,0,.33-.33V436.57a.331.331,0,0,0-.33-.33Zm-3.99,0a.331.331,0,0,0-.33.33v3.919a.331.331,0,0,0,.33.33h.09a.33.33,0,0,0,.329-.33V436.57a.33.33,0,0,0-.329-.33Zm-4.01-.18a.341.341,0,0,0-.34.34v3.94a.34.34,0,0,0,.34.339h.11a.34.34,0,0,0,.34-.339V436.4a.341.341,0,0,0-.34-.34Zm13.93.18a.331.331,0,0,0-.33.33v2.039a.331.331,0,0,0,.33.33h.09a.33.33,0,0,0,.329-.33V436.57a.33.33,0,0,0-.329-.33Zm-3.98,0a.341.341,0,0,0-.34.34v2.02a.341.341,0,0,0,.34.34h.11a.341.341,0,0,0,.34-.34v-2.02a.341.341,0,0,0-.34-.34Zm-4,0a.32.32,0,0,0-.319.32v2.06a.32.32,0,0,0,.319.319h.11a.32.32,0,0,0,.32-.319v-2.06a.321.321,0,0,0-.32-.32Zm-3.91,0a.331.331,0,0,0-.33.33v2.039a.331.331,0,0,0,.33.33h.13a.331.331,0,0,0,.33-.33V436.57a.331.331,0,0,0-.33-.33Zm-3.991-.76a.33.33,0,0,0-.329.329v1.9a.33.33,0,0,0,.329.33h.13a.33.33,0,0,0,.329-.33v-1.9a.33.33,0,0,0-.329-.329Zm14.116-.278H47.391a9.018,9.018,0,0,0,3.564-1.474V435.2Zm-7.945-.262c-4.378,0-7.94-1.108-7.94-2.47S38.632,430,43.01,430s7.94,1.108,7.94,2.47S47.388,434.94,43.01,434.94Zm.06-3.641c-2.052,0-3.721.525-3.721,1.17s1.669,1.17,3.721,1.17,3.72-.525,3.72-1.17S45.121,431.3,43.07,431.3Z" transform="translate(-34.999 -430)" fill="#45535c"/>
</svg>
