<svg width="24" height="24" viewBox="0 0 24 24" fill="none" xmlns="http://www.w3.org/2000/svg">
<g clip-path="url(#clip0_620_965)">
<path d="M19.7424 15.1781V10.6181C19.7424 7.23097 17.5747 4.27744 14.5902 3.17422C14.625 3.00001 14.6443 2.82198 14.6443 2.64388C14.6444 1.18454 13.4599 0 12.0005 0C10.5412 0 9.35664 1.18454 9.35664 2.64388C9.35664 2.8181 9.37597 2.99225 9.40694 3.15871C8.38116 3.52259 7.43277 4.09935 6.62375 4.88128C5.09859 6.35226 4.25861 8.33031 4.25861 10.4516V15.1781C4.25861 15.3445 4.12311 15.4839 3.95278 15.4839C2.5244 15.4839 1.30501 16.56 1.1734 17.9304C1.09983 18.693 1.35149 19.4516 1.86632 20.0168C2.37727 20.5781 3.10891 20.9033 3.87145 20.9033H8.53986C8.73341 22.6414 10.2121 24.0001 12.0005 24.0001C13.7889 24.0001 15.2676 22.6414 15.4612 20.9033H20.1296C20.8922 20.9033 21.6238 20.5781 22.1347 20.0168C22.6457 19.4516 22.8973 18.693 22.8277 17.9304C22.696 16.56 21.4728 15.4839 20.0483 15.4839C20.0081 15.4841 19.9682 15.4764 19.931 15.4611C19.8938 15.4458 19.86 15.4233 19.8315 15.3948C19.8031 15.3664 19.7805 15.3326 19.7653 15.2954C19.75 15.2582 19.7422 15.2183 19.7424 15.1781ZM12.0005 1.54836C12.6044 1.54836 13.096 2.03998 13.096 2.64382C13.096 2.69411 13.0882 2.74059 13.0805 2.79088C12.8172 2.75216 12.5501 2.72508 12.283 2.71732C11.8224 2.7018 11.3695 2.73283 10.9205 2.79476C10.9127 2.74447 10.9049 2.69799 10.9049 2.6477C10.9051 2.03998 11.3967 1.54836 12.0005 1.54836ZM12.0005 22.4516C11.0676 22.4516 10.2857 21.7857 10.1037 20.9032H13.8973C13.7154 21.7858 12.9335 22.4516 12.0005 22.4516ZM21.287 18.0774C21.318 18.4103 21.2134 18.7316 20.9928 18.9755C20.7644 19.2194 20.4625 19.3548 20.1296 19.3548H3.87152C3.5386 19.3548 3.23671 19.2193 3.01214 18.9755C2.78763 18.7316 2.6831 18.4103 2.71406 18.0774C2.76824 17.4929 3.31409 17.0323 3.95278 17.0323C4.97474 17.0323 5.80697 16.2 5.80697 15.1781V10.4516C5.80697 8.75612 6.48049 7.17292 7.69988 5.99614C8.86502 4.86971 10.3825 4.25805 12.0005 4.25805C12.078 4.25805 12.1515 4.25805 12.2289 4.26193C15.5154 4.37803 18.1941 7.23097 18.1941 10.6181V15.1781C18.1941 16.2 19.0263 17.0323 20.0483 17.0323C20.687 17.0323 21.2289 17.4929 21.287 18.0774Z"/>
<path d="M3 2L20.6544 22.3613" stroke-width="3" stroke-linecap="round"/>
</g>
<defs>
<clipPath id="clip0_620_965">
<rect width="24" height="24" fill="white"/>
</clipPath>
</defs>
</svg>
