<svg width="21" height="24" viewBox="0 0 21 24" fill="none" xmlns="http://www.w3.org/2000/svg">
<g clip-path="url(#clip0_4963_5687)">
<path d="M8.92653 20.1009V20.0735C8.92855 19.9916 8.96409 19.9136 9.0256 19.8563C9.08711 19.7989 9.16974 19.7666 9.2559 19.7663H12.7406C12.8269 19.7668 12.9097 19.799 12.9715 19.8563C13.0333 19.9136 13.0693 19.9915 13.0721 20.0735V20.1009C13.0523 20.6109 12.8254 21.0938 12.439 21.4479C12.0527 21.8021 11.537 22 11.0004 22C10.4637 22 9.94803 21.8021 9.56167 21.4479C9.1753 21.0938 8.94839 20.6109 8.92864 20.1009H8.92653ZM5.34985 18.5727C4.46915 18.5797 3.62159 18.2537 2.99345 17.6666C2.3653 17.0795 2.00798 16.2792 2 15.4416C1.99956 14.8656 2.16995 14.3012 2.49159 13.8132C2.97345 13.0655 3.22323 12.2035 3.21213 11.3266V9.26739C3.21347 8.30958 3.41657 7.36174 3.80942 6.4798C4.20227 5.59787 4.77692 4.79973 5.49943 4.1325C6.96915 2.76546 8.9432 2 10.9989 2C13.0547 2 15.0287 2.76546 16.4985 4.1325C17.221 4.79964 17.7956 5.59779 18.1882 6.47976C18.5808 7.36173 18.7836 8.30963 18.7844 9.26739V11.3266C18.7761 12.2036 19.027 13.0651 19.5084 13.8132C19.8291 14.3016 19.9994 14.8657 20 15.4416C19.9917 16.2792 19.6341 17.0794 19.0059 17.6664C18.3777 18.2535 17.5302 18.5795 16.6494 18.5727H5.34985ZM16.6494 17.2369C16.8995 17.2398 17.1476 17.1957 17.3796 17.107C17.6116 17.0184 17.8229 16.8869 18.0012 16.7203C18.1796 16.5537 18.3216 16.3552 18.419 16.1362C18.5164 15.9172 18.5673 15.682 18.5688 15.4442C18.5695 15.1155 18.4721 14.7933 18.2879 14.5152C17.6702 13.5568 17.3469 12.4532 17.3545 11.3292V9.26739C17.3196 7.68627 16.6346 6.18112 15.4465 5.07466C14.2584 3.96821 12.6618 3.34855 10.9989 3.34855C9.33611 3.34855 7.73947 3.96821 6.55137 5.07466C5.36327 6.18112 4.67831 7.68627 4.64336 9.26739V11.3266C4.65102 12.451 4.32642 13.5549 3.70653 14.5125C3.5238 14.7911 3.42786 15.1132 3.42983 15.4416C3.4312 15.6795 3.48205 15.9147 3.57945 16.1339C3.67685 16.353 3.81888 16.5516 3.99735 16.7183C4.17582 16.885 4.3872 17.0165 4.61933 17.1051C4.85145 17.1938 5.09973 17.2379 5.34985 17.2349L16.6494 17.2369Z" fill="#45535c"/>
</g>
<circle cx="4" cy="4" r="3.5" transform="matrix(1 0 0 -1 13 8)" fill="#F86060" stroke="white"/>
<defs>
<clipPath id="clip0_4963_5687">
<rect width="18" height="20" fill="white" transform="translate(2 2)"/>
</clipPath>
</defs>
</svg>
