<svg  viewBox="0 0 10 6" fill="none" xmlns="http://www.w3.org/2000/svg">
<path d="M0 5.53156C0.000180244 5.46947 0.012991 5.40807 0.0376368 5.35116C0.0622835 5.29425 0.0982437 5.24302 0.143304 5.20064L4.65391 0.888113C4.74794 0.799975 4.87163 0.750977 5.00009 0.750977C5.12855 0.750977 5.25224 0.799975 5.34628 0.888113L9.85636 5.20064C9.90166 5.2429 9.93781 5.29413 9.96253 5.35112C9.98724 5.40811 10 5.46963 10 5.53182C10 5.59401 9.98724 5.65553 9.96253 5.71252C9.93781 5.76951 9.90166 5.82074 9.85636 5.86301C9.76233 5.95114 9.63864 6.00014 9.51018 6.00014C9.38172 6.00014 9.25803 5.95114 9.16399 5.86301L4.99983 1.88087L0.835669 5.86301C0.741579 5.95103 0.617909 5.99995 0.489486 5.99995C0.361063 5.99995 0.237393 5.95103 0.143304 5.86301C0.0982046 5.82055 0.0622196 5.76923 0.0375729 5.71222C0.0129261 5.65522 0.00014019 5.59373 0 5.53156Z"/>
</svg>
