<svg viewBox="0 0 12 12" fill="none" xmlns="http://www.w3.org/2000/svg">
<path d="M0.499119 12C0.433517 12.0002 0.368521 11.9874 0.307875 11.9624C0.247229 11.9374 0.192165 11.9006 0.145777 11.8542C0.0993892 11.8078 0.0626193 11.7527 0.0376054 11.6921C0.0125914 11.6314 -0.000194473 11.5664 2.23567e-06 11.5008V8.04296C2.23567e-06 7.91037 0.0526688 7.78319 0.146414 7.68943C0.240158 7.59568 0.367317 7.543 0.499892 7.543C0.632467 7.543 0.759626 7.59568 0.853371 7.68943C0.947115 7.78319 0.999737 7.91037 0.999737 8.04296V10.9986H10.9995V8.04296C10.9995 7.91027 11.0522 7.78301 11.146 7.68918C11.2398 7.59536 11.3671 7.54264 11.4997 7.54264C11.6324 7.54264 11.7596 7.59536 11.8534 7.68918C11.9473 7.78301 12 7.91027 12 8.04296V11.5008C12.0002 11.5664 11.9874 11.6314 11.9624 11.6921C11.9374 11.7527 11.9006 11.8078 11.8542 11.8542C11.8078 11.9006 11.7527 11.9374 11.6921 11.9624C11.6314 11.9874 11.5664 12.0002 11.5008 12H0.499119ZM5.50011 8.05114V1.70693L3.3114 3.89369C3.21743 3.98611 3.09075 4.0376 2.95897 4.03694C2.82718 4.03628 2.70098 3.98354 2.60794 3.89019C2.5149 3.79684 2.46254 3.67048 2.4623 3.53867C2.46206 3.40686 2.51397 3.28031 2.60667 3.18662L5.64538 0.146748C5.69175 0.100229 5.74687 0.0633379 5.80753 0.0381536C5.86819 0.0129693 5.93319 0 5.99886 0C6.06454 0 6.12959 0.0129693 6.19024 0.0381536C6.2509 0.0633379 6.30602 0.100229 6.35239 0.146748L9.39556 3.18662C9.44198 3.23305 9.47879 3.28817 9.50391 3.34883C9.52904 3.40949 9.54197 3.47449 9.54197 3.54015C9.54197 3.6058 9.52904 3.67082 9.50391 3.73148C9.47879 3.79214 9.44198 3.84727 9.39556 3.89369C9.34914 3.94012 9.29402 3.97693 9.23337 4.00206C9.17272 4.02719 9.10773 4.04012 9.04208 4.04012C8.97643 4.04012 8.91144 4.02719 8.85079 4.00206C8.79014 3.97693 8.73502 3.94012 8.6886 3.89369L6.49989 1.70693V8.05114C6.49989 8.18383 6.44716 8.31109 6.35334 8.40492C6.25953 8.49874 6.13231 8.55146 5.99964 8.55146C5.86696 8.55146 5.7397 8.49874 5.64588 8.40492C5.55207 8.31109 5.50011 8.18383 5.50011 8.05114Z"/>
</svg>
