<svg viewBox="0 0 23 22" fill="none" xmlns="http://www.w3.org/2000/svg">
<path d="M11.9599 22C10.5153 21.9979 9.08603 21.7108 7.75236 21.155C6.41869 20.5992 5.2072 19.7856 4.18768 18.7607C3.16815 17.7359 2.36064 16.52 1.81064 15.1824C1.26065 13.8447 0.978853 12.4116 0.982207 10.9651C0.993242 9.51137 1.29035 8.07418 1.85705 6.7358C2.42375 5.39741 3.24816 4.18416 4.28393 3.16559C5.31969 2.14703 6.54674 1.34315 7.8933 0.800049C9.23986 0.256945 10.6801 -0.0147311 12.1317 0.000615733C15.0217 0.0399784 17.7807 1.21681 19.8111 3.27666C21.8415 5.33651 22.9804 8.11389 22.9822 11.0082C22.9759 13.9247 21.8155 16.7196 19.7544 18.7802C17.6933 20.8407 14.8997 21.9986 11.9874 22H11.9599ZM7.84518 15.7185C7.42206 15.9613 7.07271 16.314 6.83283 16.7392C6.59295 17.1645 6.47156 17.6466 6.48221 18.1348C6.48496 18.3984 6.5379 18.6589 6.63861 18.9024L6.71424 18.9579L6.95315 19.1157L7.05627 19.1826L7.27111 19.3007L7.39486 19.3677L7.59252 19.4779L7.71971 19.5483L7.92252 19.6426L8.06002 19.7017L8.25252 19.7898L8.40205 19.8489L8.59455 19.9238L8.74408 19.9793C8.80607 20.0077 8.87037 20.0301 8.93658 20.0462L9.08439 20.0974L9.27689 20.1564L9.43502 20.1996L9.63955 20.2551L9.79252 20.2904L9.99705 20.3379L10.15 20.3732L10.3546 20.4129L10.5075 20.4322L10.7206 20.464L10.8736 20.4834L11.0971 20.5071H11.2397L11.4941 20.523H12.4755L12.7316 20.5071H12.8691L13.0977 20.4834L13.2506 20.464L13.4603 20.4322L13.6167 20.4129L13.8178 20.3732L13.9828 20.3379L14.1753 20.2904L14.3421 20.2551L14.526 20.1996L14.691 20.1564L14.88 20.0974L15.0399 20.0462L15.2289 19.9837L15.3836 19.9246L15.5727 19.8498L15.7205 19.7907L15.9078 19.7079L16.0556 19.6409L16.2378 19.5466L16.3805 19.4761L16.5713 19.3739L16.7019 19.299L16.8944 19.1888L17.0199 19.1139L17.2433 18.972L17.3774 18.7913C17.449 18.5795 17.4862 18.3576 17.4874 18.134C17.5067 17.6431 17.3878 17.1566 17.1453 16.7296C16.9029 16.3025 16.5452 15.952 16.1141 15.7176C14.8561 15.0131 13.4292 14.6712 11.9891 14.7297C10.5449 14.6836 9.11469 15.0253 7.8469 15.7194L7.84518 15.7185ZM18.9122 17.5524C19.5253 16.9035 20.0452 16.1724 20.4574 15.3801C21.2023 13.934 21.5657 12.3211 21.5127 10.6948C21.4597 9.06844 20.9923 7.48268 20.1549 6.08826C19.3158 4.69441 18.1351 3.53859 16.7242 2.73067C15.3134 1.92276 13.7191 1.48961 12.0939 1.47233C10.8235 1.45746 9.56354 1.69657 8.38658 2.17565C7.20963 2.65472 6.13932 3.36409 5.23955 4.2623C3.81238 5.69303 2.87596 7.54072 2.56518 9.53889C2.25439 11.5371 2.58544 13.5825 3.51049 15.3801C3.91894 16.1733 4.43742 16.9046 5.05049 17.5524C5.40249 14.6954 8.37593 13.2624 11.9839 13.2624C15.5919 13.2624 18.5637 14.6954 18.9122 17.5524ZM8.31783 8.81218C8.31748 8.32993 8.41217 7.85236 8.59627 7.40673C8.78037 6.96111 9.04985 6.55619 9.39033 6.21514C9.73082 5.87409 10.1348 5.60357 10.5797 5.4191C11.0247 5.23462 11.5023 5.13982 11.9839 5.14005C12.4656 5.13982 12.9431 5.23465 13.3881 5.4191C13.8332 5.60355 14.2369 5.87401 14.5775 6.21503C14.9181 6.55606 15.189 6.96094 15.3733 7.40657C15.5576 7.85221 15.6519 8.32984 15.6517 8.81218C15.6513 9.7861 15.2653 10.72 14.5775 11.4086C13.8897 12.0972 12.9565 12.4841 11.9839 12.4843C11.0115 12.4841 10.0795 12.0971 9.39205 11.4085C8.70455 10.7198 8.31783 9.78594 8.31783 8.81218ZM9.78393 8.81218C9.78393 9.39648 10.0159 9.95685 10.4285 10.37C10.841 10.7832 11.4004 11.0153 11.9839 11.0153C12.5674 11.0153 13.1268 10.7832 13.5394 10.37C13.952 9.95685 14.1839 9.39648 14.1839 8.81218C14.1839 8.22788 13.952 7.66752 13.5394 7.25435C13.1268 6.84119 12.5674 6.60907 11.9839 6.60907C11.6949 6.60884 11.4089 6.66563 11.1417 6.77624C10.8746 6.88686 10.6312 7.04911 10.4267 7.25371C10.2223 7.45831 10.0613 7.70129 9.95064 7.9687C9.83997 8.2361 9.78221 8.52272 9.78221 8.81218H9.78393Z"/>
</svg>
