<svg width="38" height="38" viewBox="0 0 38 38" fill="none" xmlns="http://www.w3.org/2000/svg">
<path d="M19 36.6325C28.7383 36.6325 36.6327 28.7381 36.6327 18.9998C36.6327 9.26159 28.7383 1.36719 19 1.36719C9.26178 1.36719 1.36737 9.26159 1.36737 18.9998C1.36737 28.7381 9.26178 36.6325 19 36.6325Z" fill="white"/>
<path d="M19 37C28.9411 37 37 28.9411 37 19C37 9.05888 28.9411 1 19 1C9.05888 1 1 9.05888 1 19C1 28.9411 9.05888 37 19 37Z" stroke="#45535C"/>
<path d="M18.9664 28.092C16.971 28.092 18.5252 25.7622 16.9632 25.5205C12.9224 24.9166 10.1831 22.2055 10.1831 18.2999C10.1831 13.8329 14.1559 10.1816 19.0174 10.1816C23.8788 10.1816 27.8158 13.708 27.8158 18.2697C27.8158 22.8314 23.5292 27.9634 19.0468 28.0905L18.9664 28.092ZM13.7963 13.7148C13.1458 14.2902 12.6234 14.9957 12.2631 15.7858C11.9027 16.576 11.7121 17.4329 11.7042 18.3013C11.6832 18.9943 11.8 19.6846 12.0478 20.3321C12.2956 20.9796 12.6701 21.5715 13.1484 22.0734C14.2449 23.1388 15.6615 23.8129 17.1799 23.9916C17.7784 24.0881 18.3224 24.3973 18.711 24.8626C19.0996 25.3279 19.3067 25.9178 19.295 26.5239C21.1405 26.2455 22.8127 25.2803 23.9766 23.8212C25.3701 22.2965 26.1907 20.3347 26.2976 18.2719C26.2976 14.6638 23.0281 11.7332 19.0174 11.7332C17.0918 11.7258 15.2322 12.4319 13.7963 13.7148ZM16.0312 20.9674C15.9331 20.9675 15.8357 20.9483 15.745 20.9108C15.6543 20.8732 15.5719 20.8184 15.5025 20.749C15.4331 20.6796 15.3778 20.5972 15.3403 20.5065C15.3028 20.4158 15.2835 20.3187 15.2836 20.2205C15.2835 20.1225 15.3028 20.0252 15.3403 19.9346C15.3778 19.844 15.433 19.7618 15.5025 19.6925C15.5719 19.6232 15.6543 19.568 15.745 19.5307C15.8357 19.4933 15.9332 19.4744 16.0312 19.4747H22.251C22.3491 19.4745 22.4459 19.4937 22.5366 19.5311C22.6272 19.5684 22.7097 19.6232 22.7791 19.6925C22.8485 19.7617 22.9037 19.8441 22.9412 19.9346C22.9788 20.0252 22.9979 20.1225 22.9979 20.2205C22.9979 20.4187 22.9192 20.6085 22.7791 20.7486C22.639 20.8887 22.4492 20.9674 22.251 20.9674H16.0312ZM17.383 16.965C17.1846 16.965 16.9944 16.8861 16.8542 16.7458C16.7139 16.6056 16.6346 16.4154 16.6346 16.217C16.6347 16.1189 16.6544 16.0217 16.692 15.9311C16.7297 15.8405 16.7847 15.7583 16.8542 15.689C16.9236 15.6197 17.006 15.5646 17.0967 15.5272C17.1874 15.4897 17.2848 15.4704 17.383 15.4705H20.8993C21.0974 15.4705 21.2871 15.549 21.4274 15.689C21.5676 15.8289 21.6465 16.0189 21.6469 16.217C21.6467 16.4153 21.5683 16.6056 21.4281 16.7458C21.2879 16.886 21.0976 16.9648 20.8993 16.965H17.383Z" fill="#45535C"/>
</svg>
