<svg xmlns="http://www.w3.org/2000/svg" width="23.737" height="23.721" viewBox="0 0 23.737 23.721"><path d="M-1341.812,35.661l-.454-.053a13.042,13.042,0,0,1-1.34-.273,11.982,11.982,0,0,1-1.682-.6l-.2-.1-.4-.2-.189-.1a10.685,10.685,0,0,1-1.12-.7l-.182-.121a11.369,11.369,0,0,1-4.055-12.694A11.369,11.369,0,0,1-1340.645,13a11.367,11.367,0,0,1,10.786,7.824,11.369,11.369,0,0,1-4.054,12.694l-.182.121a10.685,10.685,0,0,1-1.12.7l-.19.1-.4.2-.2.1a11.933,11.933,0,0,1-1.681.6,13.089,13.089,0,0,1-1.34.273l-.454.053c-.386.038-.773.06-1.166.06S-1341.426,35.7-1341.812,35.661Zm8.323-4.544a9.807,9.807,0,0,0-.2-13.716,9.839,9.839,0,0,0-6.961-2.885,9.839,9.839,0,0,0-6.961,2.885,9.839,9.839,0,0,0-.2,13.716c.364-2.954,3.432-4.424,7.158-4.424S-1333.852,28.163-1333.489,31.117Zm-10.944-9.558a3.787,3.787,0,0,1,3.787-3.787,3.787,3.787,0,0,1,3.787,3.787,3.786,3.786,0,0,1-3.787,3.786A3.786,3.786,0,0,1-1344.433,21.559Z" transform="translate(1352.515 -12.5)" fill="#7692ae" stroke="rgba(0,0,0,0)" stroke-miterlimit="10" stroke-width="1"/></svg>