<svg width="16" height="16" viewBox="0 0 16 16" fill="none" xmlns="http://www.w3.org/2000/svg">
<path d="M13.3374 6.71399C13.1383 6.59821 12.9593 6.45073 12.8076 6.27736C12.8229 6.036 12.8804 5.79919 12.9775 5.57765C13.1559 5.07418 13.3577 4.50386 13.0339 4.06049C12.7101 3.61711 12.0987 3.63122 11.5621 3.64348C11.325 3.66788 11.0855 3.6517 10.8538 3.59565C10.7304 3.39482 10.6422 3.17434 10.5932 2.94377C10.4411 2.42558 10.2675 1.83994 9.73464 1.66455C9.22074 1.49897 8.74486 1.86324 8.32418 2.18335C8.14265 2.34912 7.93232 2.48027 7.70358 2.57031C7.47244 2.481 7.25977 2.34982 7.07623 2.18335C6.65677 1.86508 6.18273 1.49713 5.66638 1.66516C5.1347 1.8381 4.96115 2.42558 4.80784 2.94377C4.75887 3.1736 4.67159 3.39355 4.54967 3.59443C4.31757 3.65033 4.07773 3.66691 3.84015 3.64348C3.30172 3.62877 2.69522 3.61282 2.36836 4.06049C2.0415 4.50816 2.24571 5.07418 2.42478 5.57704C2.52317 5.79824 2.58152 6.03515 2.5971 6.27675C2.44568 6.45034 2.26692 6.59804 2.06787 6.71399C1.61898 7.02061 1.10938 7.36955 1.10938 7.93619C1.10938 8.50282 1.61898 8.85053 2.06787 9.15838C2.26687 9.27415 2.44563 9.42163 2.5971 9.59501C2.58315 9.83651 2.52647 10.0736 2.42969 10.2953C2.25185 10.7982 2.0507 11.3685 2.37388 11.8119C2.69706 12.2553 3.30662 12.2412 3.84567 12.2289C4.08297 12.2045 4.3227 12.2206 4.55457 12.2767C4.67746 12.4778 4.76537 12.6982 4.81459 12.9286C4.96667 13.4468 5.14022 14.0324 5.67313 14.2078C5.75857 14.2352 5.84772 14.2493 5.93744 14.2495C6.36868 14.1876 6.76948 13.9915 7.08298 13.689C7.2645 13.5232 7.47483 13.3921 7.70358 13.3021C7.93471 13.3914 8.14739 13.5225 8.33092 13.689C8.751 14.0097 9.22687 14.3759 9.74138 14.2072C10.2731 14.0343 10.4466 13.4468 10.5999 12.9292C10.6491 12.699 10.737 12.4787 10.8599 12.2779C11.0911 12.2217 11.3302 12.2051 11.567 12.2289C12.1054 12.2418 12.7119 12.2596 13.0388 11.8119C13.3657 11.3642 13.1614 10.7982 12.9824 10.2947C12.8847 10.0737 12.8263 9.83733 12.8101 9.59623C12.9616 9.42248 13.1406 9.27478 13.3399 9.15899C13.7888 8.85237 14.2984 8.50282 14.2984 7.93619C14.2984 7.36955 13.7869 7.02123 13.3374 6.71399Z" fill="#49ADF4"/>
<path d="M7.08999 9.62288C7.02958 9.62299 6.96975 9.61113 6.91396 9.58797C6.85818 9.56481 6.80753 9.53082 6.76497 9.48796L5.53848 8.26148C5.45724 8.17429 5.41301 8.05897 5.41511 7.93982C5.41721 7.82066 5.46548 7.70698 5.54975 7.62271C5.63402 7.53844 5.7477 7.49017 5.86686 7.48807C5.98601 7.48597 6.10133 7.5302 6.18852 7.61144L7.13291 8.55583L9.267 6.95527C9.36458 6.88208 9.48725 6.85065 9.608 6.86791C9.72876 6.88516 9.83771 6.94967 9.9109 7.04726C9.98409 7.14484 10.0155 7.2675 9.99827 7.38826C9.98102 7.50902 9.9165 7.61797 9.81892 7.69116L7.36594 9.53089C7.28631 9.59056 7.18949 9.62283 7.08999 9.62288Z" fill="white"/>
</svg>
