<svg width="26" height="22" viewBox="0 0 26 22" fill="none" xmlns="http://www.w3.org/2000/svg">
<path d="M8.48218 21.998C6.49484 21.9921 4.59057 21.1879 3.1853 19.761C1.78004 18.3342 0.987982 16.4006 0.982178 14.3827V7.61527C0.988244 5.59747 1.78009 3.6641 3.1853 2.2373C4.59051 0.810488 6.49492 0.00615963 8.48218 0H18.4822C20.4695 0.00589323 22.3738 0.810121 23.7791 2.23699C25.1843 3.66385 25.9764 5.59739 25.9822 7.61527V14.3847C25.9766 16.4027 25.1844 18.3364 23.7791 19.7633C22.3737 21.1902 20.4696 21.9944 18.4822 22L8.48218 21.998ZM2.64624 7.61626V14.3858C2.65309 15.9549 3.26994 17.4576 4.36304 18.5667C5.45613 19.6759 6.93685 20.3015 8.48218 20.3074H18.4822C20.0273 20.302 21.5068 19.6764 22.5994 18.5671C23.6919 17.4577 24.3089 15.9547 24.3142 14.3858V7.61527C24.3092 6.04594 23.6938 4.54227 22.6013 3.4322C21.5088 2.32213 20.0277 1.69573 18.4822 1.68958H8.48218C6.93675 1.69679 5.4576 2.32347 4.36499 3.43325C3.27238 4.54304 2.65477 6.04609 2.64819 7.61527L2.64624 7.61626ZM9.07983 12.9399V9.06216C9.07983 8.39108 9.34296 7.74752 9.8103 7.27299C10.2776 6.79847 10.9111 6.53185 11.572 6.53185C11.9583 6.53202 12.3394 6.62528 12.6833 6.80398L16.5076 8.74027C16.9176 8.9531 17.2614 9.2768 17.5017 9.67563C17.7421 10.0745 17.8689 10.5329 17.8689 11.0005C17.8689 11.4681 17.7421 11.9265 17.5017 12.3254C17.2614 12.7242 16.9176 13.0479 16.5076 13.2607L12.6833 15.197C12.3387 15.3736 11.9581 15.4668 11.572 15.4691C10.9116 15.4686 10.2791 15.2019 9.81226 14.7277C9.34538 14.2534 9.08205 13.6104 9.08179 12.9399H9.07983ZM10.7517 9.06216V12.9399C10.7517 13.1609 10.8382 13.3728 10.9919 13.5293C11.1457 13.6858 11.3544 13.7739 11.572 13.7745C11.6974 13.7732 11.8209 13.7411 11.9314 13.6811L15.7556 11.7448C15.8931 11.6768 16.0088 11.5708 16.0896 11.439C16.1704 11.3071 16.2132 11.1548 16.2126 10.9995C16.2126 10.8443 16.1684 10.6923 16.0876 10.5605C16.0069 10.4288 15.8927 10.3227 15.7556 10.2542L11.9314 8.31792C11.8201 8.25997 11.6971 8.22801 11.572 8.22447C11.3541 8.22554 11.1455 8.31433 10.9919 8.47137C10.8384 8.62841 10.7531 8.84088 10.7537 9.06216H10.7517Z" />
</svg>
