<svg xmlns="http://www.w3.org/2000/svg" width="18.816" height="19.019" viewBox="10.999 10 18.816 19.019"><path d="M29.45 13.43a1.523 1.523 0 0 0-1.158-.534h-3.2A5.245 5.245 0 0 0 20.407 10a5.245 5.245 0 0 0-4.685 2.896h-3.2a1.523 1.523 0 0 0-1.504 1.762c.326 2.058.658 4.332.98 6.532.321 2.2.653 4.475.98 6.544.118.74.756 1.284 1.505 1.284h11.848c.75 0 1.387-.544 1.505-1.284.327-2.069.66-4.344.98-6.544.322-2.2.654-4.474.98-6.532.07-.44-.056-.89-.346-1.228Zm-8.484 1.81-2.288-1.69.791 1.69h-2.266a3.205 3.205 0 1 1 6.409 0h-2.646Z" fill="#647f9a" fill-rule="evenodd" data-name="weight"/></svg>