<svg xmlns="http://www.w3.org/2000/svg" width="25.057" height="24.937" viewBox="147.5 513.532 25.057 24.937"><g data-name="Weight"><path d="M150.112 538.594c-1.793-.387-1.994-2.48-2.077-4.033-.1-1.873.041-3.753.083-5.63.038-1.606-.087-3.209-.022-4.815.052-1.444.046-2.91.144-4.345.06-.935.304-1.994.934-2.724.619-.714 1.515-.9 2.428-.976 1.67-.13 3.383-.008 5.058.004.9-1.273 2.42-2.1 4.015-2.04 1.706.19 3.054.81 3.836 1.949.532.004 1.113-.03 1.706-.065 2.043-.121 4.276-.24 5.636 1.307 1.758 1.994 1.083 5.58 1.044 8.018-.052 3.388-.026 6.772-.042 10.16-.01 2.567-1.055 3.205-3.49 3.369-2.002.133-4.007.098-6.012.06a111.6 111.6 0 0 0-3.738-.022c-1.692.027-3.51.158-5.304.158-1.44 0-2.865-.084-4.199-.375Zm11.657-.444c2.438.026 4.884.137 7.323-.012 1.048-.06 2.484.012 2.99-1.215.2-.494.12-1.223.12-1.759 0-1.173-.004-2.347 0-3.52.004-2.553.016-5.105.065-7.657.046-2.238.554-5.637-1.663-7-.704-.434-1.713-.414-2.618-.395-.254.003-.505.01-.733.007-.793-.015-1.59.023-2.389.03.251.563.392 1.224.407 1.987.045 2.552-1.979 4.846-4.626 4.858-2.64.011-4.93-2.431-4.81-5.048.031-.604.187-1.177.441-1.702-1.37-.019-2.746-.08-4.113-.019-2.127.095-3.179 1.163-3.273 3.244-.119 2.495-.13 4.99-.103 7.49.03 2.632-.403 5.37-.027 7.988.194 1.329.619 2.358 2.15 2.59 1.14.17 2.37.152 3.52.182 1.357.03 2.713.008 4.069-.019.865-.018 1.73-.034 2.596-.034.224 0 .449.001.674.004Zm-5.28-19.477c.004 2.21 1.948 4.079 4.121 4.09 2.447.016 4.103-2.062 4-4.413-.1-2.32-1.785-3.422-3.935-3.665a3.52 3.52 0 0 0-.144-.003c-2.135 0-4.046 1.803-4.042 3.99Zm.85 18.094c-1.453-.064-3.117-.019-4.545-.288-1.11-.213-1.64-.817-1.835-1.926-.42-2.404-.103-5.07-.17-7.51-.035-1.29-.528-3.296.922-4.006 1.087-.532 3.692-.509 4.634.334 1.63 1.41 3.684 2.127 5.823 1.535.839-.236 1.686-.63 2.336-1.216.292-.262.561-.782.927-.968.74-.376 2.339-.323 3.114-.21.691.103 1.226.498 1.47 1.178.357.992.144 2.431.106 3.464-.05 1.428-.08 2.841-.02 4.27.069 1.64.617 3.695-.983 4.713-.736.467-1.526.433-2.35.395-.255-.008-.51-.02-.768-.015-1.383.015-2.765.106-4.147.178a62.567 62.567 0 0 1-3.17.101c-.447 0-.895-.008-1.343-.029Zm-2.396-.85c1.303.08 2.587.231 3.898.224 2.674-.008 5.355-.183 8.025-.278 1.074-.038 2.07.073 2.511-1.052.231-.589.147-1.234.137-1.857-.035-1.238-.13-2.473-.115-3.715.012-1.295.122-2.59.095-3.885 0-.3-.01-.6-.034-.9-.273-1.022-.824-1.451-1.645-1.28-.39-.05-1.222-.069-1.618.053-.892.285-1.526 1.268-2.366 1.717a7.34 7.34 0 0 1-2.685.827c-1.983.19-3.802-.676-5.26-1.937-.635-.565-2.804-.603-3.57-.28-1.463.615-.893 2.818-.855 4.056.034 1.246.057 2.488.042 3.734-.012 1.086-.179 2.434.17 3.475.377 1.117 1.474 1.101 2.504 1.09l.35-.003c.142 0 .283.002.416.01Zm2.485-16.864c.422 0 .422.65 0 .65-.418 0-.418-.65 0-.65Zm2.545.17c-.752-.565-.18-1.42.547-1.443.167-.46.33-.923.493-1.382.14-.395.771-.224.63.17-.174.487-.341.97-.52 1.452.02.03.03.064.034.102.217.293.229.672-.008 1.003-.16.225-.365.323-.582.323-.198 0-.406-.083-.594-.224Zm.33-.577c.178.342.528-.026.33-.17-.007-.005-.01-.012-.015-.016-.03-.007-.056-.023-.084-.034a.322.322 0 0 0-.031-.001c-.139 0-.277.07-.2.221Zm-3.138-.266c.088-1.006.574-2.054 1.49-2.56.364-.2.695.361.326.566-.703.388-1.094 1.216-1.163 1.994-.016.21-.188.314-.351.314-.164 0-.319-.105-.302-.314Z" fill="#fff" fill-rule="evenodd"/><path d="M150.112 538.594c-1.793-.387-1.994-2.48-2.077-4.033-.1-1.873.041-3.753.083-5.63.038-1.606-.087-3.209-.022-4.815.052-1.444.046-2.91.144-4.345.06-.935.304-1.994.934-2.724.619-.714 1.515-.9 2.428-.976 1.67-.13 3.383-.008 5.058.004.9-1.273 2.42-2.1 4.015-2.04 1.706.19 3.054.81 3.836 1.949.532.004 1.113-.03 1.706-.065 2.043-.121 4.276-.24 5.636 1.307 1.758 1.994 1.083 5.58 1.044 8.018-.052 3.388-.026 6.772-.042 10.16-.01 2.567-1.055 3.205-3.49 3.369-2.002.133-4.007.098-6.012.06a111.6 111.6 0 0 0-3.738-.022c-1.692.027-3.51.158-5.304.158-1.44 0-2.865-.084-4.199-.375Zm11.657-.444c2.438.026 4.884.137 7.323-.012 1.048-.06 2.484.012 2.99-1.215.2-.494.12-1.223.12-1.759 0-1.173-.004-2.347 0-3.52.004-2.553.016-5.105.065-7.657.046-2.238.554-5.637-1.663-7-.704-.434-1.713-.414-2.618-.395-.254.003-.505.01-.733.007-.793-.015-1.59.023-2.389.03.251.563.392 1.224.407 1.987.045 2.552-1.979 4.846-4.626 4.858-2.64.011-4.93-2.431-4.81-5.048.031-.604.187-1.177.441-1.702-1.37-.019-2.746-.08-4.113-.019-2.127.095-3.179 1.163-3.273 3.244-.119 2.495-.13 4.99-.103 7.49.03 2.632-.403 5.37-.027 7.988.194 1.329.619 2.358 2.15 2.59 1.14.17 2.37.152 3.52.182 1.357.03 2.713.008 4.069-.019.865-.018 1.73-.034 2.596-.034.224 0 .449.001.674.004Zm-5.28-19.477c.004 2.21 1.948 4.079 4.121 4.09 2.447.016 4.103-2.062 4-4.413-.1-2.32-1.785-3.422-3.935-3.665a3.52 3.52 0 0 0-.144-.003c-2.135 0-4.046 1.803-4.042 3.99Zm.85 18.094c-1.453-.064-3.117-.019-4.545-.288-1.11-.213-1.64-.817-1.835-1.926-.42-2.404-.103-5.07-.17-7.51-.035-1.29-.528-3.296.922-4.006 1.087-.532 3.692-.509 4.634.334 1.63 1.41 3.684 2.127 5.823 1.535.839-.236 1.686-.63 2.336-1.216.292-.262.561-.782.927-.968.74-.376 2.339-.323 3.114-.21.691.103 1.226.498 1.47 1.178.357.992.144 2.431.106 3.464-.05 1.428-.08 2.841-.02 4.27.069 1.64.617 3.695-.983 4.713-.736.467-1.526.433-2.35.395-.255-.008-.51-.02-.768-.015-1.383.015-2.765.106-4.147.178a62.567 62.567 0 0 1-3.17.101c-.447 0-.895-.008-1.343-.029Zm-2.396-.85c1.303.08 2.587.231 3.898.224 2.674-.008 5.355-.183 8.025-.278 1.074-.038 2.07.073 2.511-1.052.231-.589.147-1.234.137-1.857-.035-1.238-.13-2.473-.115-3.715.012-1.295.122-2.59.095-3.885 0-.3-.01-.6-.034-.9-.273-1.022-.824-1.451-1.645-1.28-.39-.05-1.222-.069-1.618.053-.892.285-1.526 1.268-2.366 1.717a7.34 7.34 0 0 1-2.685.827c-1.983.19-3.802-.676-5.26-1.937-.635-.565-2.804-.603-3.57-.28-1.463.615-.893 2.818-.855 4.056.034 1.246.057 2.488.042 3.734-.012 1.086-.179 2.434.17 3.475.377 1.117 1.474 1.101 2.504 1.09l.35-.003c.142 0 .283.002.416.01Zm2.485-16.864c.422 0 .422.65 0 .65-.418 0-.418-.65 0-.65Zm2.545.17c-.752-.565-.18-1.42.547-1.443.167-.46.33-.923.493-1.382.14-.395.771-.224.63.17-.174.487-.341.97-.52 1.452.02.03.03.064.034.102.217.293.229.672-.008 1.003-.16.225-.365.323-.582.323-.198 0-.406-.083-.594-.224Zm.33-.577c.178.342.528-.026.33-.17-.007-.005-.01-.012-.015-.016-.03-.007-.056-.023-.084-.034a.322.322 0 0 0-.031-.001c-.139 0-.277.07-.2.221Zm-3.138-.266c.088-1.006.574-2.054 1.49-2.56.364-.2.695.361.326.566-.703.388-1.094 1.216-1.163 1.994-.016.21-.188.314-.351.314-.164 0-.319-.105-.302-.314Z" stroke-linejoin="round" stroke-linecap="round" stroke="rgba(0,0,0,0 )" /></g></svg>