<svg xmlns="http://www.w3.org/2000/svg" width="28.308" height="24.001" viewBox="0 0 28.308 24.001"><path d="M10782.492,5324a8.427,8.427,0,0,1-8.492-8.309v-7.385a8.425,8.425,0,0,1,8.492-8.308h11.323a8.425,8.425,0,0,1,8.492,8.308v7.385a8.427,8.427,0,0,1-8.492,8.309Zm-4.664-20.254a6.353,6.353,0,0,0-1.941,4.561v7.385a6.353,6.353,0,0,0,1.941,4.561,6.634,6.634,0,0,0,4.664,1.9h11.323a6.622,6.622,0,0,0,4.662-1.9,6.339,6.339,0,0,0,1.943-4.561v-7.385a6.339,6.339,0,0,0-1.943-4.561,6.624,6.624,0,0,0-4.662-1.9h-11.323A6.635,6.635,0,0,0,10777.828,5303.747Zm5.349,10.372v-4.237a2.785,2.785,0,0,1,2.813-2.755,2.873,2.873,0,0,1,1.257.293l4.33,2.12a2.725,2.725,0,0,1,0,4.922l-4.33,2.118a2.849,2.849,0,0,1-1.257.295A2.785,2.785,0,0,1,10783.177,5314.119Zm1.887-4.237v4.237a.92.92,0,0,0,.927.909.948.948,0,0,0,.413-.1l4.33-2.118a.9.9,0,0,0,0-1.62l-4.33-2.118a.948.948,0,0,0-.413-.1A.92.92,0,0,0,10785.063,5309.881Z" transform="translate(-10774 -5300)" fill="#647F9A"/></svg>