<svg  viewBox="0 0 14 10" fill="none" xmlns="http://www.w3.org/2000/svg">
<path d="M13.7587 1.60847C13.684 1.24537 13.4981 0.914541 13.2268 0.661895C12.9555 0.409248 12.6123 0.247327 12.2448 0.198595C8.75456 -0.0661982 5.24926 -0.0661982 1.75899 0.198595C1.39174 0.247584 1.04881 0.409614 0.777784 0.66224C0.506762 0.914867 0.321092 1.24556 0.246453 1.60847C-0.0821511 3.85746 -0.0821511 6.14227 0.246453 8.39126C0.321092 8.75416 0.506762 9.08484 0.777784 9.33747C1.04881 9.59009 1.39174 9.75215 1.75899 9.80114C5.2488 10.0663 8.75368 10.0663 12.2435 9.80114C12.6109 9.75221 12.954 9.59023 13.2253 9.33761C13.4965 9.085 13.6825 8.75427 13.7574 8.39126C14.0809 6.14191 14.0809 3.85782 13.7574 1.60847H13.7587ZM5.19338 7.22668V2.4824L9.64372 4.86221C8.1565 5.65281 6.68126 6.43608 5.19338 7.22668Z"/>
</svg>
